<?xml-stylesheet href="spot.css" type="text/css"?><svg width="581pt" height="304" viewBox="0 0 580.95 227.5" xmlns="http://www.w3.org/2000/svg"><g class="graph" transform="translate(4 223.5)"><path fill="#fff" stroke="transparent" d="M-4 4v-227.5h580.953V4H-4z"/><g class="node"><path fill="#ffffa0" stroke="#000" d="M176-123.5h-54v36h54v-36z"/><text text-anchor="middle" x="149" y="-108.9" font-family="Lato" font-size="12">2</text><text text-anchor="middle" x="149" y="-95.9" font-family="Lato" font-size="12">a &amp; b</text></g><g class="edge"><path fill="none" stroke="#000" d="M54.076-105.5h60.8"/><path stroke="#000" d="M122-105.5l-7-3.15 3.5 3.15H115h3.5l-3.5 3.15 7-3.15h0z"/><text text-anchor="middle" x="88" y="-108.9" font-family="Lato" font-size="12">a &amp; b</text></g><g class="node"><path fill="#ffffa0" stroke="#000" d="M451.953-119.5h-54v36h54v-36z"/><text text-anchor="middle" x="424.953" y="-104.9" font-family="Lato" font-size="12">1</text><text text-anchor="middle" x="424.953" y="-91.9" font-family="Lato" font-size="12">!a &amp; b</text></g><g class="edge"><path fill="none" stroke="#000" d="M176.048-110.4c5.898-.874 12.119-1.649 17.952-2.1 82.4-6.37 103.9-9.883 185.953 0 3.504.422 7.128 1.022 10.729 1.728"/><path stroke="#000" d="M397.54-109.306l-6.187-4.544 2.764 3.812-3.423-.732h0l3.423.732-4.081 2.349 7.504-1.617h0z"/><text text-anchor="middle" x="286.477" y="-134.9" font-family="Lato" font-size="12">{a}</text><text text-anchor="middle" x="286.477" y="-121.9" font-family="Lato" font-size="12">{}</text></g><g class="node"><ellipse fill="#ffffa0" stroke="#000" cx="286.477" cy="-66.5" rx="37.453" ry="24.083"/><text text-anchor="middle" x="286.477" y="-69.9" font-family="Lato" font-size="12">0</text><text text-anchor="middle" x="286.477" y="-56.9" font-family="Lato" font-size="12">a &amp; !b</text></g><g class="edge"><path fill="none" stroke="#000" d="M176.301-93.016c5.77 2.367 11.877 4.675 17.699 6.516 15.755 4.982 33.407 9.136 49.033 12.345"/><path stroke="#000" d="M250.055-72.748l-6.244-4.464 2.813 3.776-3.432-.687h0l3.432.687-4.051 2.401 7.482-1.713h0z"/><text text-anchor="middle" x="212.5" y="-102.9" font-family="Lato" font-size="12">{b}</text><text text-anchor="middle" x="212.5" y="-89.9" font-family="Lato" font-size="12">{}</text></g><g class="node"><path fill="#ffffa0" stroke="#000" d="M568.953-171.5h-54v36h54v-36z"/><path fill="none" stroke="#000" d="M572.953-175.5h-62v44h62v-44z"/><text text-anchor="middle" x="541.953" y="-150.4" font-family="Lato" font-size="12">3</text></g><g class="edge"><path fill="none" stroke="#000" d="M176.049-120.596C195.64-130.654 223.12-142.998 249-148.5c96.196-20.453 122.643-9.332 220.953-12 10.219-.277 12.804-.725 23 0 3.552.252 7.238.607 10.922 1.023"/><path stroke="#000" d="M510.919-158.61l-6.563-3.982 3.09 3.554-3.475-.427h0l3.474.427-3.858 2.7 7.332-2.273h0z"/><text text-anchor="middle" x="360.953" y="-176.9" font-family="Lato" font-size="12">{a}</text><text text-anchor="middle" x="360.953" y="-163.9" font-family="Lato" font-size="12">{}</text></g><g class="edge"><path fill="none" stroke="#000" d="M289.26-24.054c6.295-1.294 22.065-4.765 34.693-9.446 25.908-9.604 33.104-11.534 56-27 7.664-5.177 15.345-11.604 22.138-17.823"/><path stroke="#000" d="M407.567-83.466l-7.259 2.496 4.708-.1-2.552 2.396h0l2.552-2.396-.395 4.692 2.946-7.088h0z"/><text text-anchor="middle" x="360.953" y="-63.9" font-family="Lato" font-size="12">!a &amp; b</text></g><g class="edge"><path fill="none" stroke="#000" d="M452.09-113.56l52.136-23.172"/><path stroke="#000" d="M510.83-139.667l-7.676-.036 4.478 1.457-3.199 1.422h0l3.199-1.422-1.92 4.3 5.118-5.721h0z"/><text text-anchor="middle" x="481.453" y="-146.9" font-family="Lato" font-size="12">{a}</text><text text-anchor="middle" x="481.453" y="-133.9" font-family="Lato" font-size="12">{}</text></g><g class="edge"><path fill="none" stroke="#000" d="M152.615-1.005C164.425-2.76 202.74-9.271 231-23.5c9.816-4.942 19.601-11.739 28.159-18.47"/><path stroke="#000" d="M264.873-46.596l-7.423 1.956 4.702.246-2.72 2.203h0l2.72-2.203-.738 4.65 3.459-6.852h0z"/><text text-anchor="middle" x="212.5" y="-26.9" font-family="Lato" font-size="12">a &amp; !b</text></g><g class="edge"><path fill="none" stroke="#000" d="M257.765-50.904C238.87-42.854 214.021-36.59 194-46.5c-14.685-7.268-25.885-21.878-33.44-34.74"/><path stroke="#000" d="M157.146-87.374l.653 7.649 1.05-4.59 1.702 3.058h0l-1.703-3.058 4.455 1.525-6.157-4.584h0z"/><text text-anchor="middle" x="212.5" y="-62.9" font-family="Lato" font-size="12">{b}</text><text text-anchor="middle" x="212.5" y="-49.9" font-family="Lato" font-size="12">{}</text></g><g class="edge"><path fill="none" stroke="#000" d="M322.657-73.267c17.428-3.507 38.563-8.124 57.296-13.233 3.486-.95 7.099-2.016 10.693-3.13"/><path stroke="#000" d="M397.495-91.81l-7.626-.878 4.291 1.94-3.335 1.062h0l3.335-1.062-2.38 4.063 5.715-5.125h0z"/><text text-anchor="middle" x="360.953" y="-102.9" font-family="Lato" font-size="12">{a, b}</text><text text-anchor="middle" x="360.953" y="-89.9" font-family="Lato" font-size="12">{}</text></g><g class="edge"><path fill="none" stroke="#000" d="M530.838-175.712c-.91-9.583 2.795-17.788 11.115-17.788 6.11 0 9.732 4.425 10.864 10.57"/><path stroke="#000" d="M553.069-175.712l2.904-7.106-3.026 3.608-.122-3.498h0l.122 3.498-3.27-3.388 3.392 6.886h0z"/><text text-anchor="middle" x="541.953" y="-209.9" font-family="Lato" font-size="12">{a}</text><text text-anchor="middle" x="541.953" y="-196.9" font-family="Lato" font-size="12">{0}</text></g></g></svg>