<?xml-stylesheet href="spot.css" type="text/css"?><svg width="868" height="232pt" viewBox="0 0 651 232" xmlns="http://www.w3.org/2000/svg"><g class="graph" transform="translate(4 228)"><path fill="#fff" stroke="transparent" d="M-4 4v-232h651V4H-4z"/><g class="node"><ellipse fill="#ffffa0" stroke="#000" cx="118" cy="-175" rx="27" ry="18"/><text text-anchor="middle" x="118" y="-171.9" font-family="Lato" font-size="12">init</text></g><g class="edge"><path fill="none" stroke="#000" d="M54.303-175h29.196"/><path stroke="#000" d="M90.716-175l-7-3.15 3.5 3.15h-3.5 3.5l-3.5 3.15 7-3.15h0z"/></g><g class="node"><path fill="#ffffa0" stroke="#000" d="M522-111h-54v36h54v-36z"/><text text-anchor="middle" x="495" y="-89.9" font-family="Lato" font-size="12">2</text></g><g class="edge"><path fill="none" stroke="#000" d="M142.233-183.563c18.98-6.232 46.193-14.135 70.767-17.437 23.786-3.196 30.282-3.669 54 0 84.318 13.042 111.282 11.782 183 58 10.568 6.81 20.206 16.735 27.827 25.95"/><path stroke="#000" d="M482.302-111.437l-1.901-7.437-.281 4.7-2.182-2.736h0l2.182 2.736-4.645-.773 6.827 3.51h0z"/><text text-anchor="middle" x="303.5" y="-214.4" font-family="Lato" font-size="12">!a &amp; b</text><text text-anchor="middle" x="303.5" y="-201.4" font-family="Lato" font-size="12">{}</text></g><g class="node"><path fill="#ffffa0" stroke="#000" d="M267-103h-54v36h54v-36z"/><text text-anchor="middle" x="240" y="-81.9" font-family="Lato" font-size="12">3</text></g><g class="edge"><path fill="none" stroke="#000" d="M133.744-159.949c8.418 7.772 19.114 17.218 29.256 24.949 13.851 10.558 29.906 21.212 43.76 29.956"/><path stroke="#000" d="M212.954-101.167l-4.263-6.384 1.296 4.527-2.967-1.857h0l2.967 1.857-4.638.814 7.605 1.043h0z"/><text text-anchor="middle" x="179" y="-151.4" font-family="Lato" font-size="12">a &amp; b</text><text text-anchor="middle" x="179" y="-138.4" font-family="Lato" font-size="12">{}</text></g><g class="node"><ellipse fill="#ffffa0" stroke="#000" cx="367" cy="-124" rx="27" ry="18"/><text text-anchor="middle" x="367" y="-120.9" font-family="Lato" font-size="12">1</text></g><g class="edge"><path fill="none" stroke="#000" d="M145.16-175.087c39.822.625 115.933 4.705 176.84 25.087 6.802 2.276 13.72 5.646 20.024 9.211"/><path stroke="#000" d="M348.098-137.192l-4.418-6.278 1.406 4.494-3.011-1.783h0l3.011 1.783-4.616.927 7.628.857h0z"/><text text-anchor="middle" x="240" y="-187.4" font-family="Lato" font-size="12">a &amp; !b</text><text text-anchor="middle" x="240" y="-174.4" font-family="Lato" font-size="12">{}</text></g><g class="node"><path fill="#ffffa0" stroke="#000" d="M639-40h-54v36h54v-36z"/><path fill="none" stroke="#000" d="M643-44h-62V0h62v-44z"/><text text-anchor="middle" x="612" y="-18.9" font-family="Lato" font-size="12">4</text></g><g class="edge"><path fill="none" stroke="#000" d="M522.136-76.533l52.587 31.912"/><path stroke="#000" d="M580.877-40.887l-4.35-6.324 1.357 4.508-2.992-1.815h0l2.992 1.815-4.626.878 7.619.938h0z"/><text text-anchor="middle" x="551.5" y="-80.4" font-family="Lato" font-size="12">{a}</text><text text-anchor="middle" x="551.5" y="-67.4" font-family="Lato" font-size="12">{}</text></g><g class="edge"><path fill="none" stroke="#000" d="M267.08-79.882c5.895 1.03 12.108 2.05 17.92 2.882 48.027 6.88 60.76 11.193 109 6 22.566-2.43 47.485-7.827 66.925-12.668"/><path stroke="#000" d="M467.825-85.42l-7.56-1.33 4.168 2.191-3.392.861h0l3.392-.86-2.617 3.914 6.01-4.776h0z"/><text text-anchor="middle" x="367" y="-87.4" font-family="Lato" font-size="12">{a}</text><text text-anchor="middle" x="367" y="-74.4" font-family="Lato" font-size="12">{}</text></g><g class="edge"><path fill="none" stroke="#000" d="M267.059-80.824C283.46-79.378 304.523-79.487 322-86c9.62-3.585 18.617-10.204 25.999-16.925"/><path stroke="#000" d="M353.313-108.035l-7.23 2.582 4.707-.156-2.523 2.426h0l2.523-2.426-.339 4.696 2.861-7.122h0z"/><text text-anchor="middle" x="303.5" y="-102.4" font-family="Lato" font-size="12">{b}</text><text text-anchor="middle" x="303.5" y="-89.4" font-family="Lato" font-size="12">{}</text></g><g class="edge"><path fill="none" stroke="#000" d="M267.352-73.8c5.767 2.117 11.86 4.173 17.648 5.8 101.828 28.62 226.729 39.88 288.554 43.937"/><path stroke="#000" d="M580.775-23.603l-6.785-3.589 3.292 3.366-3.493-.222h0l3.493.222-3.693 2.922 7.186-2.7h0z"/><text text-anchor="middle" x="431" y="-58.4" font-family="Lato" font-size="12">{a}</text><text text-anchor="middle" x="431" y="-45.4" font-family="Lato" font-size="12">{}</text></g><g class="edge"><path fill="none" stroke="#000" d="M392.595-117.801l68.058 16.483"/><path stroke="#000" d="M467.68-99.617l-6.062-4.709 2.66 3.885-3.402-.823h0l3.402.823-4.143 2.238 7.544-1.414h0z"/><text text-anchor="middle" x="431" y="-129.4" font-family="Lato" font-size="12">{a, b}</text><text text-anchor="middle" x="431" y="-116.4" font-family="Lato" font-size="12">{}</text></g><g class="edge"><path fill="none" stroke="#000" d="M339.763-122.71c-16.277 1.426-37.148 4.422-54.763 10.71-4.167 1.487-8.372 3.382-12.452 5.476"/><path stroke="#000" d="M266.266-103.1l7.654-.584-4.581-1.09 3.073-1.675h0l-3.073 1.675 1.565-4.441-4.638 6.116h0z"/><text text-anchor="middle" x="303.5" y="-136.4" font-family="Lato" font-size="12">{b}</text><text text-anchor="middle" x="303.5" y="-123.4" font-family="Lato" font-size="12">{}</text></g><g class="edge"><path fill="none" stroke="#000" d="M600.885-44.212C599.975-53.795 603.68-62 612-62c6.11 0 9.731 4.425 10.864 10.57"/><path stroke="#000" d="M623.115-44.212l2.904-7.106-3.026 3.608-.122-3.498h0l.122 3.498-3.27-3.388 3.392 6.886h0z"/><text text-anchor="middle" x="612" y="-78.4" font-family="Lato" font-size="12">{a}</text><text text-anchor="middle" x="612" y="-65.4" font-family="Lato" font-size="12">{0}</text></g></g></svg>