<?xml-stylesheet href="spot.css" type="text/css"?><svg width="168" height="316" viewBox="0 0 126 237" xmlns="http://www.w3.org/2000/svg"><g class="graph"><path fill="#fff" stroke="transparent" d="M0 237V0h126v237H0z"/><text x="18.5" y="-216.4" font-family="Lato" font-size="12" transform="translate(4 233)">Fin(</text><text x="40.5" y="-216.4" font-family="Lato" font-size="12" fill="#1f78b4" transform="translate(4 233)">⓿</text><text x="53.5" y="-216.4" font-family="Lato" font-size="12" transform="translate(4 233)">)|Fin(</text><text x="83.5" y="-216.4" font-family="Lato" font-size="12" fill="#ff4da0" transform="translate(4 233)">❶</text><text x="94.5" y="-216.4" font-family="Lato" font-size="12" transform="translate(4 233)">)</text><text x="8" y="-204.4" font-family="Lato" font-size="12" transform="translate(4 233)">[gen. co-Büchi 2]</text><g class="node" transform="translate(4 233)"><circle fill="#ffffa0" stroke="#000" cx="76.75" cy="-18" r="18"/><text text-anchor="middle" x="76.75" y="-14.9" font-family="Lato" font-size="12">0</text></g><g class="edge" transform="translate(4 233)"><path fill="none" stroke="#000" d="M21.873-18h29.801"/><path stroke="#000" d="M58.73-18l-7-3.15 3.5 3.15h-3.5 3.5l-3.5 3.15 7-3.15h0z"/></g><g class="edge" transform="translate(4 233)"><path fill="none" stroke="#000" d="M75.122-36.153C74.872-45.539 75.414-54 76.75-54c.981 0 1.534 4.563 1.66 10.705"/><path stroke="#000" d="M78.378-36.153l3.181-6.986-3.165 3.486.015-3.5h0l-.015 3.5-3.135-3.514 3.12 7.014h0z"/><text x="60.75" y="-57.4" font-family="Lato" font-size="12">a &amp; b</text></g><g class="edge" transform="translate(4 233)"><path fill="none" stroke="#000" d="M74.044-35.978C72.596-53.2 73.498-72 76.75-72c2.795 0 3.854 13.885 3.177 28.72"/><path stroke="#000" d="M79.456-35.978l3.594-6.783-3.369 3.29.226-3.493h0l-.226 3.493-2.918-3.696 2.693 7.189h0z"/><text x="58.25" y="-88.4" font-family="Lato" font-size="12">!a &amp; b</text><text x="70.25" y="-75.4" font-family="Lato" font-size="12" fill="#1f78b4">⓿</text></g><g class="edge" transform="translate(4 233)"><path fill="none" stroke="#000" d="M73.472-35.848C70.278-62.44 71.372-98 76.75-98c4.917 0 6.252 29.711 4.006 55.126"/><path stroke="#000" d="M80.028-35.848l3.855-6.638-3.494 3.156.36-3.481h0l-.36 3.481-2.772-3.806 2.41 7.288h0z"/><text x="58.25" y="-114.4" font-family="Lato" font-size="12">a &amp; !b</text><text x="71.25" y="-101.4" font-family="Lato" font-size="12" fill="#ff4da0">❶</text></g><g class="edge" transform="translate(4 233)"><path fill="none" stroke="#000" d="M73.047-35.941C67.992-70.891 69.227-124 76.75-124c7.024 0 8.566 46.289 4.627 80.876"/><path stroke="#000" d="M80.453-35.941l4.017-6.541-3.57 3.07.446-3.472h0l-.447 3.471-2.677-3.873 2.23 7.345h0z"/><text x="56.25" y="-139.4" font-family="Lato" font-size="12">!a &amp; !b</text><text x="64.75" y="-127.4" font-family="Lato" font-size="12" fill="#1f78b4">⓿</text><text x="77.75" y="-127.4" font-family="Lato" font-size="12" fill="#ff4da0">❶</text></g></g></svg>