<?xml-stylesheet href="spot.css" type="text/css"?><svg width="317pt" height="160pt" viewBox="0 0 317 160.08" xmlns="http://www.w3.org/2000/svg"><g class="graph"><path fill="#fff" stroke="transparent" d="M0 160.082V0h317v160.082H0z"/><text x="124" y="-125.482" font-family="Lato" font-size="12" transform="translate(4 156.082)">[co-Büchi]</text><g class="node" transform="translate(4 156.082)"><circle fill="#ffffa0" stroke="#000" cx="60" cy="-52.682" r="18"/><circle fill="none" stroke="#000" cx="60" cy="-52.682" r="22"/><text text-anchor="middle" x="60" y="-49.582" font-family="Lato" font-size="12">0</text></g><g class="edge" transform="translate(4 156.082)"><path fill="none" stroke="#000" d="M1.168-52.682h29.47"/><path stroke="#000" d="M37.865-52.682l-7-3.15 3.5 3.15h-3.5 3.5l-3.5 3.15 7-3.15h0z"/></g><g class="node" transform="translate(4 156.082)"><circle fill="#ffffa0" stroke="#000" cx="291" cy="-42.682" r="18"/><text text-anchor="middle" x="291" y="-39.582" font-family="Lato" font-size="12">1</text></g><g class="edge" transform="translate(4 156.082)"><path fill="none" stroke="#000" d="M77.95-66.285C104.424-84.638 155.6-113.629 200-100.682c27.47 8.01 54.554 27.108 71.934 41.211"/><path stroke="#000" d="M277.443-54.902l-3.378-6.893.683 4.659-2.694-2.235h0l2.695 2.235-4.706.19 7.4 2.044h0z"/><text x="159" y="-107.082" font-family="Lato" font-size="12">!a &amp; !b</text></g><g class="node" transform="translate(4 156.082)"><circle fill="#ffffa0" stroke="#000" cx="179.5" cy="-42.682" r="18"/><text text-anchor="middle" x="179.5" y="-39.582" font-family="Lato" font-size="12">2</text></g><g class="edge" transform="translate(4 156.082)"><path fill="none" stroke="#000" d="M82.05-52.22c16.314.495 39.06 1.503 58.95 3.538 4.311.441 8.875 1.037 13.297 1.683"/><path stroke="#000" d="M161.531-45.883l-6.438-4.18 2.979 3.646-3.46-.533h0l3.46.533-3.94 2.58 7.4-2.046h0z"/><text x="107" y="-54.082" font-family="Lato" font-size="12">a | b</text></g><g class="edge" transform="translate(4 156.082)"><path fill="none" stroke="#000" d="M275.243-33.331C257.615-23.461 227.867-8.536 200-2.681c-17.833 3.745-23.067 3.234-41 0-27.541-4.969-34.226-8.983-59-22-5.501-2.892-11.132-6.423-16.367-9.991"/><path stroke="#000" d="M77.7-38.841l3.916 6.602-1.052-4.59 2.864 2.013h0l-2.864-2.013 4.675-.564-7.538-1.448h0z"/><text x="173" y="-6.082" font-family="Lato" font-size="12">!b</text></g><g class="edge" transform="translate(4 156.082)"><path fill="none" stroke="#000" d="M281.767-58.223c-2.599-10.368.48-20.459 9.233-20.459 6.702 0 10.077 5.916 10.125 13.341"/><path stroke="#000" d="M300.233-58.223l3.996-6.554-3.561 3.08.435-3.472h0l-.435 3.473-2.69-3.865 2.255 7.338h0z"/><text x="287" y="-82.082" font-family="Lato" font-size="12">b</text></g><g class="edge" transform="translate(4 156.082)"><path fill="none" stroke="#000" d="M162.246-36.576c-16.237 4.874-41.142 10.097-62.246 4.894-5.026-1.239-10.12-3.235-14.91-5.515"/><path stroke="#000" d="M78.777-40.439l4.788 6-1.675-4.4 3.114 1.598h0L81.89-38.84l4.552-1.203-7.665-.396h0z"/><text x="100" y="-35.082" font-family="Lato" font-size="12">!a &amp; !b</text></g><g class="edge" transform="translate(4 156.082)"><path fill="none" stroke="#000" d="M197.912-42.682h67.815"/><path stroke="#000" d="M272.93-42.682l-7-3.15 3.5 3.15h-3.5 3.5l-3.5 3.15 7-3.15h0z"/><text x="218" y="-46.082" font-family="Lato" font-size="12">!a &amp; b</text></g><g class="edge" transform="translate(4 156.082)"><path fill="none" stroke="#000" d="M169.925-58.223c-2.695-10.368.497-20.459 9.575-20.459 6.95 0 10.45 5.916 10.5 13.341"/><path stroke="#000" d="M189.075-58.223l4.025-6.536-3.574 3.065.45-3.47h0l-.45 3.47-2.673-3.877 2.222 7.348h0z"/><text x="175.5" y="-82.082" font-family="Lato" font-size="12">a</text></g></g></svg>