<?xml-stylesheet href="spot.css" type="text/css"?><svg width="191pt" height="164pt" viewBox="0 0 191 163.9" xmlns="http://www.w3.org/2000/svg"><g class="graph"><path fill="#fff" stroke="transparent" d="M0 163.9V0h191v163.9H0z"/><text x="72" y="-143.3" font-family="Lato" font-size="12" transform="translate(4 159.9)">Inf(</text><text x="93" y="-143.3" font-family="Lato" font-size="12" fill="#1f78b4" transform="translate(4 159.9)">⓿</text><text x="106" y="-143.3" font-family="Lato" font-size="12" transform="translate(4 159.9)">)</text><text x="70" y="-131.3" font-family="Lato" font-size="12" transform="translate(4 159.9)">[Büchi]</text><g class="node" transform="translate(4 159.9)"><circle fill="#ffffa0" stroke="#000" cx="56" cy="-30.9" r="18"/><text text-anchor="middle" x="56" y="-27.8" font-family="Lato" font-size="12">0</text></g><g class="edge" transform="translate(4 159.9)"><path fill="none" stroke="#000" d="M1.123-30.9h29.801"/><path stroke="#000" d="M37.98-30.9l-7-3.15 3.5 3.15h-3.5 3.5l-3.5 3.15 7-3.15h0z"/></g><g class="edge" transform="translate(4 159.9)"><path fill="none" stroke="#000" d="M49.62-47.937C48.32-57.758 50.446-66.9 56-66.9c4.166 0 6.404 5.142 6.713 11.857"/><path stroke="#000" d="M62.38-47.937l3.474-6.845-3.31 3.348.164-3.496h0l-.165 3.496-2.982-3.644 2.818 7.14h0z"/><text x="49.5" y="-70.3" font-family="Lato" font-size="12">!a</text></g><g class="node" transform="translate(4 159.9)"><circle fill="#ffffa0" stroke="#000" cx="165" cy="-30.9" r="18"/><text text-anchor="middle" x="165" y="-27.8" font-family="Lato" font-size="12">1</text></g><g class="edge" transform="translate(4 159.9)"><path fill="none" stroke="#000" d="M73.927-32.69C79.69-33.185 86.11-33.654 92-33.9c16.43-.684 20.57-.684 37 0 3.59.15 7.375.382 11.089.653"/><path stroke="#000" d="M147.073-32.69l-6.727-3.697 3.238 3.42-3.489-.28h0l3.49.28-3.74 2.86 7.228-2.582h0z"/><text x="106.5" y="-50.3" font-family="Lato" font-size="12">a</text><text x="104" y="-37.3" font-family="Lato" font-size="12" fill="#1f78b4">⓿</text></g><g class="edge" transform="translate(4 159.9)"><path fill="none" stroke="#000" d="M152.19-18.078C145.795-12.578 137.597-6.766 129-3.9c-15.6 5.2-21.4 5.2-37 0-6.18-2.06-12.152-5.642-17.398-9.536"/><path stroke="#000" d="M68.81-18.078l3.492 6.835-.76-4.647 2.73 2.19h0l-2.73-2.19 4.7-.269-7.432-1.92h0z"/><text x="92" y="-20.3" font-family="Lato" font-size="12">!a &amp; b</text><text x="104" y="-7.3" font-family="Lato" font-size="12" fill="#1f78b4">⓿</text></g><g class="edge" transform="translate(4 159.9)"><path fill="none" stroke="#000" d="M160.18-48.31c-.9-9.678.707-18.59 4.82-18.59 3.02 0 4.69 4.806 5.007 11.193"/><path stroke="#000" d="M169.82-48.31l3.326-6.918-3.237 3.42.088-3.5h0l-.089 3.5-3.06-3.58 2.972 7.078h0z"/><text x="149" y="-83.3" font-family="Lato" font-size="12">a &amp; b</text><text x="158.5" y="-70.3" font-family="Lato" font-size="12" fill="#1f78b4">⓿</text></g><g class="edge" transform="translate(4 159.9)"><path fill="none" stroke="#000" d="M157.567-47.559C152.292-67.632 154.769-92.9 165-92.9c9.032 0 12.021 19.693 8.968 38.12"/><path stroke="#000" d="M172.433-47.559l4.537-6.192-3.81 2.768.729-3.423h0l-.728 3.423-2.354-4.078 1.626 7.502h0z"/><text x="158.5" y="-96.3" font-family="Lato" font-size="12">!b</text></g></g></svg>