<?xml-stylesheet href="spot.css" type="text/css"?><svg width="576" height="348" viewBox="0 0 432 260.56" xmlns="http://www.w3.org/2000/svg"><g class="graph" transform="translate(4 256.556)"><path fill="#fff" stroke="transparent" d="M-4 4v-260.556h432V4H-4z"/><text x="106" y="-239.956" font-family="Lato" font-size="12">(Fin(</text><text x="132" y="-239.956" font-family="Lato" font-size="12" fill="#1f78b4">⓿</text><text x="145" y="-239.956" font-family="Lato" font-size="12">) &amp; Inf(</text><text x="187" y="-239.956" font-family="Lato" font-size="12" fill="#ff4da0">❶</text><text x="198" y="-239.956" font-family="Lato" font-size="12">)) | (Fin(</text><text x="244" y="-239.956" font-family="Lato" font-size="12" fill="#ff7f00">❷</text><text x="255" y="-239.956" font-family="Lato" font-size="12">) &amp; Inf(</text><text x="297" y="-239.956" font-family="Lato" font-size="12" fill="#6a3d9a">❸</text><text x="308" y="-239.956" font-family="Lato" font-size="12">))</text><text x="184.5" y="-227.956" font-family="Lato" font-size="12">[Rabin 2]</text><g class="node"><path fill="#ffffa0" stroke="#000" d="M66-63.556H50c-6 0-12 6-12 12v12c0 6 6 12 12 12h16c6 0 12-6 12-12v-12c0-6-6-12-12-12"/><text x="54" y="-48.956" font-family="Lato" font-size="12">0</text><text x="46" y="-36.956" font-family="Lato" font-size="12" fill="#1f78b4">⓿</text><text x="59" y="-36.956" font-family="Lato" font-size="12" fill="#ff7f00">❷</text></g><g class="edge"><path fill="none" stroke="#000" d="M1.146-45.556H30.69"/><path stroke="#000" d="M37.829-45.556l-7-3.15 3.5 3.15h-3.5 3.5l-3.5 3.15 7-3.15h0z"/></g><g class="edge"><path fill="none" stroke="#000" d="M51.126-63.709C50.068-73.094 52.358-81.555 58-81.555c4.142 0 6.478 4.563 7.008 10.705"/><path stroke="#000" d="M64.874-63.709l3.281-6.94-3.215 3.441.066-3.5h0l-.066 3.5-3.084-3.558 3.018 7.058h0z"/><text x="37.5" y="-84.956" font-family="Lato" font-size="12">!a &amp; !b</text></g><g class="node"><path fill="#ffffa0" stroke="#000" d="M182.5-157.556h-14c-6 0-12 6-12 12v12c0 6 6 12 12 12h14c6 0 12-6 12-12v-12c0-6-6-12-12-12"/><text x="171.5" y="-142.956" font-family="Lato" font-size="12">1</text><text x="164.5" y="-130.956" font-family="Lato" font-size="12" fill="#ff4da0">❶</text><text x="175.5" y="-130.956" font-family="Lato" font-size="12" fill="#ff7f00">❷</text></g><g class="edge"><path fill="none" stroke="#000" d="M63.001-63.604C68.47-80.02 78.821-103.733 96-117.556c14.997-12.067 36.162-17.527 52.884-19.992"/><path stroke="#000" d="M156.216-138.483l-7.342-2.24 3.87 2.683-3.472.442h0l3.472-.442-3.073 3.567 6.545-4.01h0z"/><text x="98" y="-137.956" font-family="Lato" font-size="12">a &amp; !b</text></g><g class="node"><path fill="#ffffa0" stroke="#000" d="M412-94.556h-16c-6 0-12 6-12 12v12c0 6 6 12 12 12h16c6 0 12-6 12-12v-12c0-6-6-12-12-12"/><text x="400" y="-79.956" font-family="Lato" font-size="12">2</text><text x="392" y="-67.956" font-family="Lato" font-size="12" fill="#1f78b4">⓿</text><text x="405" y="-67.956" font-family="Lato" font-size="12" fill="#6a3d9a">❸</text></g><g class="edge"><path fill="none" stroke="#000" d="M78.22-37.438c5.665 1.942 11.887 3.773 17.78 4.882 69.482 13.074 88.732 12.815 159 5 50.26-5.59 64.275-5.66 111-25 3.88-1.606 7.808-3.597 11.592-5.74"/><path stroke="#000" d="M383.79-62.007l-7.624.893 4.621.905-3.003 1.798h0l3.003-1.798-1.385 4.5 4.389-6.297h0z"/><text x="216" y="-30.956" font-family="Lato" font-size="12">!a &amp; b</text></g><g class="node"><path fill="#ffffa0" stroke="#000" d="M299-94.556h-14c-6 0-12 6-12 12v12c0 6 6 12 12 12h14c6 0 12-6 12-12v-12c0-6-6-12-12-12"/><text x="288" y="-79.956" font-family="Lato" font-size="12">3</text><text x="281" y="-67.956" font-family="Lato" font-size="12" fill="#ff4da0">❶</text><text x="292" y="-67.956" font-family="Lato" font-size="12" fill="#6a3d9a">❸</text></g><g class="edge"><path fill="none" stroke="#000" d="M78.357-48.253l187.38-24.823"/><path stroke="#000" d="M272.843-74.018l-7.353-2.203 3.883 2.663-3.47.46h0l3.47-.46-3.056 3.582 6.526-4.042h0z"/><text x="159.5" y="-66.956" font-family="Lato" font-size="12">a &amp; b</text></g><g class="edge"><path fill="none" stroke="#000" d="M160.203-121.45c-6.632 7.119-14.798 14.983-23.203 20.894-16.428 11.553-24.38 7.724-41 19-5.522 3.747-11.004 8.307-16.013 12.905"/><path stroke="#000" d="M74.757-63.684l7.245-2.537-4.707.127 2.538-2.41h0l-2.538 2.41.369-4.694-2.907 7.104h0z"/><text x="96" y="-103.956" font-family="Lato" font-size="12">!a &amp; !b</text></g><g class="edge"><path fill="none" stroke="#000" d="M165.007-157.708c-1.614-9.387 1.884-17.848 10.493-17.848 6.322 0 9.888 4.563 10.697 10.705"/><path stroke="#000" d="M185.993-157.708l3.349-6.907-3.25 3.408.101-3.499h0l-.1 3.499-3.049-3.589 2.949 7.088h0z"/><text x="157" y="-178.956" font-family="Lato" font-size="12">a &amp; !b</text></g><g class="edge"><path fill="none" stroke="#000" d="M187.127-157.808c6.698-8.83 15.954-18.61 26.873-23.748 61.126-28.764 97.775-40.29 152 0 13.07 9.712 25.35 51.891 32.248 79.746"/><path stroke="#000" d="M399.966-94.72l1.414-7.544-2.238 4.143-.824-3.402h0l.824 3.402-3.885-2.66 4.709 6.061h0z"/><text x="273.5" y="-210.956" font-family="Lato" font-size="12">!a &amp; b</text></g><g class="edge"><path fill="none" stroke="#000" d="M194.7-137.33c16.903 2.65 41.658 8.26 60.3 19.774 7.393 4.566 14.188 11.038 19.883 17.493"/><path stroke="#000" d="M279.396-94.686l-2.088-7.387-.162 4.706-2.25-2.68h0l2.25 2.68-4.663-.655 6.913 3.336h0z"/><text x="218.5" y="-135.956" font-family="Lato" font-size="12">a &amp; b</text></g><g class="edge"><path fill="none" stroke="#000" d="M391.425-58.348C384.768-49.969 375.92-40.576 366-34.556c-43.59 26.454-60.426 22.503-111 29-70.445 9.05-92.26 8.29-159-16-3.946-1.436-7.912-3.329-11.715-5.423"/><path stroke="#000" d="M78.07-30.648l4.427 6.272-1.413-4.492 3.014 1.779h0l-3.014-1.78 4.615-.933-7.629-.846h0z"/><text x="214" y="-8.956" font-family="Lato" font-size="12">!a &amp; !b</text></g><g class="edge"><path fill="none" stroke="#000" d="M383.919-91.536c-18.211-12.971-46.215-31.424-72.919-43.02-23.634-10.263-30.454-11.638-56-15-18.066-2.377-22.925-2.309-41 0-4.125.527-8.44 1.36-12.627 2.325"/><path stroke="#000" d="M194.504-145.513l7.555 1.357-4.16-2.206 3.396-.85h0l-3.396.85 2.631-3.906-6.026 4.755h0z"/><text x="273.5" y="-149.956" font-family="Lato" font-size="12">a &amp; !b</text></g><g class="edge"><path fill="none" stroke="#000" d="M393.87-94.709c-1.56-9.386 1.817-17.847 10.13-17.847 6.104 0 9.547 4.563 10.328 10.705"/><path stroke="#000" d="M414.13-94.709l3.343-6.91-3.245 3.412.096-3.499h0l-.096 3.499-3.053-3.586 2.956 7.085h0z"/><text x="385.5" y="-115.956" font-family="Lato" font-size="12">!a &amp; b</text></g><g class="edge"><path fill="none" stroke="#000" d="M383.865-76.556h-65.58"/><path stroke="#000" d="M311.253-76.556l7 3.15-3.5-3.15h3.5-3.5l3.5-3.15-7 3.15h0z"/><text x="331.5" y="-79.956" font-family="Lato" font-size="12">a &amp; b</text></g><g class="edge"><path fill="none" stroke="#000" d="M272.734-66.963C253.759-58.09 223.677-45.548 196-40.556c-37.901 6.837-82.577 3.124-110.6-.59"/><path stroke="#000" d="M78.304-42.134l6.498 4.085-3.032-3.602 3.467.482h0l-3.467-.482 3.901-2.637-7.367 2.154h0z"/><text x="155" y="-43.956" font-family="Lato" font-size="12">!a &amp; !b</text></g><g class="edge"><path fill="none" stroke="#000" d="M272.957-79.691c-16.498-3.33-40.543-9.697-58.957-20.865-6.851-4.155-13.361-9.797-19.013-15.498"/><path stroke="#000" d="M190.052-121.265l2.526 7.249-.12-4.708 2.407 2.542h0l-2.406-2.542 4.693.376-7.1-2.917h0z"/><text x="216" y="-103.956" font-family="Lato" font-size="12">a &amp; !b</text></g><g class="edge"><path fill="none" stroke="#000" d="M311.038-65.919c5.614 2.61 11.885 5.034 17.962 6.363 16.065 3.514 20.918 3.434 37 0 3.618-.772 7.308-1.915 10.897-3.25"/><path stroke="#000" d="M383.63-65.562l-7.672-.263 4.432 1.589-3.239 1.326h0l3.24-1.326-2.046 4.241 5.284-5.567h0z"/><text x="329" y="-62.956" font-family="Lato" font-size="12">!a &amp; b</text></g><g class="edge"><path fill="none" stroke="#000" d="M282.231-94.709c-1.503-9.386 1.753-17.847 9.769-17.847 5.887 0 9.206 4.563 9.96 10.705"/><path stroke="#000" d="M301.769-94.709l3.335-6.913-3.242 3.415.093-3.499h0l-.093 3.499-3.055-3.583 2.962 7.082h0z"/><text x="276" y="-115.956" font-family="Lato" font-size="12">a &amp; b</text></g></g></svg>