<?xml-stylesheet href="spot.css" type="text/css"?><svg width="167pt" height="107pt" viewBox="0 0 167 107.16" xmlns="http://www.w3.org/2000/svg"><g class="graph"><path fill="#fff" stroke="transparent" d="M0 107.162V0h167v107.162H0z"/><text x="39" y="-86.562" font-family="Lato" font-size="12" transform="translate(4 103.162)">Fin(</text><text x="61" y="-86.562" font-family="Lato" font-size="12" fill="#1f78b4" transform="translate(4 103.162)">⓿</text><text x="74" y="-86.562" font-family="Lato" font-size="12" transform="translate(4 103.162)">)|Fin(</text><text x="104" y="-86.562" font-family="Lato" font-size="12" fill="#ff4da0" transform="translate(4 103.162)">❶</text><text x="115" y="-86.562" font-family="Lato" font-size="12" transform="translate(4 103.162)">)</text><text x="28.5" y="-74.562" font-family="Lato" font-size="12" transform="translate(4 103.162)">[gen. co-Büchi 2]</text><g class="node" transform="translate(4 103.162)"><path fill="#ffffa0" stroke="#000" d="M62-36.162H50c-6 0-12 6-12 12v12c0 6 6 12 12 12h12c6 0 12-6 12-12v-12c0-6-6-12-12-12"/><text x="52" y="-21.562" font-family="Lato" font-size="12">0</text><text x="49.5" y="-8.562" font-family="Lato" font-size="12" fill="#1f78b4">⓿</text></g><g class="edge" transform="translate(4 103.162)"><path fill="none" stroke="#000" d="M1.123-18.162h29.801"/><path stroke="#000" d="M37.98-18.162l-7-3.15 3.5 3.15h-3.5 3.5l-3.5 3.15 7-3.15h0z"/></g><g class="edge" transform="translate(4 103.162)"><path fill="none" stroke="#000" d="M49.487-36.315c-1.002-9.387 1.17-17.847 6.513-17.847 3.924 0 6.138 4.563 6.64 10.704"/><path stroke="#000" d="M62.513-36.315l3.274-6.943-3.212 3.443.062-3.499h0l-.062 3.5-3.087-3.556 3.025 7.055h0z"/><text x="52" y="-57.562" font-family="Lato" font-size="12">a</text></g><g class="node" transform="translate(4 103.162)"><path fill="#ffffa0" stroke="#000" d="M147-36.162h-12c-6 0-12 6-12 12v12c0 6 6 12 12 12h12c6 0 12-6 12-12v-12c0-6-6-12-12-12"/><text x="137" y="-21.562" font-family="Lato" font-size="12">1</text><text x="135.5" y="-8.562" font-family="Lato" font-size="12" fill="#ff4da0">❶</text></g><g class="edge" transform="translate(4 103.162)"><path fill="none" stroke="#000" d="M74.026-18.162h41.84"/><path stroke="#000" d="M123-18.162l-7-3.15 3.5 3.15H116h3.5l-3.5 3.15 7-3.15h0z"/><text x="92" y="-21.562" font-family="Lato" font-size="12">!a</text></g><g class="edge" transform="translate(4 103.162)"><path fill="none" stroke="#000" d="M122.673-6.642C113.588-2.268 102.368 1.162 92-1.162c-3.794-.851-7.658-2.149-11.38-3.656"/><path stroke="#000" d="M74.124-7.705l5.117 5.721-1.92-4.3 3.2 1.422h0l-3.2-1.422L81.8-7.74l-7.675.036h0z"/><text x="92" y="-4.562" font-family="Lato" font-size="12">!b</text></g><g class="edge" transform="translate(4 103.162)"><path fill="none" stroke="#000" d="M133.402-36.315c-1.17-9.387 1.364-17.847 7.598-17.847 4.578 0 7.16 4.563 7.746 10.704"/><path stroke="#000" d="M148.598-36.315l3.295-6.933-3.222 3.434.072-3.5h0l-.072 3.5-3.077-3.565 3.004 7.064h0z"/><text x="137" y="-57.562" font-family="Lato" font-size="12">b</text></g></g></svg>