<?xml-stylesheet href="spot.css" type="text/css"?><svg width="305pt" height="157pt" viewBox="0 0 305 157.4" xmlns="http://www.w3.org/2000/svg"><g class="graph" transform="translate(4 153.4)"><path fill="#fff" stroke="transparent" d="M-4 4v-157.4h305V4H-4z"/><text x="127" y="-122.8" font-family="Lato" font-size="12">[Büchi]</text><g class="node"><circle fill="#ffffa0" stroke="#000" cx="56" cy="-61" r="18"/><text text-anchor="middle" x="56" y="-57.9" font-family="Lato" font-size="12">2</text></g><g class="edge"><path fill="none" stroke="#000" d="M1.123-61h29.801"/><path stroke="#000" d="M37.98-61l-7-3.15 3.5 3.15h-3.5 3.5l-3.5 3.15 7-3.15h0z"/></g><g class="edge"><path fill="none" stroke="#e31a1c" stroke-width="2" d="M49.62-78.037C48.32-87.857 50.446-97 56-97c4.166 0 6.404 5.142 6.713 11.857"/><path fill="#e31a1c" stroke="#e31a1c" stroke-width="2" d="M62.38-78.037l3.474-6.845-2.811 3.372.164-3.496-.5-.024-.499-.023-.164 3.496-2.483-3.62 2.818 7.14h0z"/><text x="38" y="-100.4" font-family="Lato" font-size="12">a &amp; !c</text></g><g class="node"><circle fill="#ffffa0" stroke="#000" cx="275" cy="-61" r="18"/><circle fill="none" stroke="#000" cx="275" cy="-61" r="22"/><text text-anchor="middle" x="275" y="-57.9" font-family="Lato" font-size="12">0</text></g><g class="edge"><path fill="none" stroke="#e31a1c" stroke-width="2" d="M73.572-65.119C102.188-71.286 160.623-81.623 210-76c12.293 1.4 25.645 4.244 37.032 7.082"/><path fill="#e31a1c" stroke="#e31a1c" stroke-width="2" d="M253.84-67.164l-5.992-4.796 2.728 3.439-3.39-.873-.124.484-.125.484 3.39.873-4.051 1.693 7.564-1.304h0z"/><text x="188.5" y="-80.4" font-family="Lato" font-size="12">c</text></g><g class="node"><circle fill="#ffffa0" stroke="#000" cx="192" cy="-18" r="18"/><text x="188" y="-14.9" font-family="Lato" font-size="12">1</text></g><g class="edge"><path fill="none" stroke="#33a02c" stroke-width="2" d="M73.225-55.554l94.38 29.84"/><path fill="#33a02c" stroke="#33a02c" stroke-width="2" d="M174.486-23.538l-5.725-5.113 2.538 3.581-3.337-1.055-.15.477-.151.477 3.337 1.055-4.136 1.471 7.624-.893h0z"/><text x="92" y="-52.4" font-family="Lato" font-size="12">!a &amp; b &amp; !c</text></g><g class="edge"><path fill="none" stroke="#33a02c" stroke-width="2" d="M267.317-81.99C266.37-92.088 268.93-101 275-101c4.553 0 7.131 5.013 7.736 11.78"/><path fill="#33a02c" stroke="#33a02c" stroke-width="2" d="M282.683-81.99l3.201-6.977-2.675 3.48.026-3.5-.5-.004-.5-.003-.026 3.5-2.624-3.52 3.098 7.023h0z"/><text x="271" y="-104.4" font-family="Lato" font-size="12">1</text></g><g class="edge"><path fill="none" stroke="#33a02c" stroke-width="2" d="M208.003-26.29c11.578-6 27.48-14.237 40.885-21.182"/><path fill="#33a02c" stroke="#33a02c" stroke-width="2" d="M255.238-50.762l-7.664.423 4.326.743-3.107 1.61.23.444.23.444 3.107-1.61-1.888 3.963 4.766-6.017h0z"/><text x="228" y="-42.4" font-family="Lato" font-size="12">c</text></g><g class="edge"><path fill="none" stroke="#000" d="M185.266-35.037C183.892-44.857 186.136-54 192-54c4.398 0 6.76 5.142 7.086 11.857"/><path stroke="#000" d="M198.734-35.037l3.492-6.836-3.32 3.34.174-3.496h0l-.173 3.496-2.973-3.652 2.8 7.148h0z"/><text x="174" y="-57.4" font-family="Lato" font-size="12">b &amp; !c</text></g></g></svg>