<?xml-stylesheet href="spot.css" type="text/css"?><svg width="311pt" height="300" viewBox="0 0 311 224.75" xmlns="http://www.w3.org/2000/svg"><g class="graph" transform="translate(4 220.751)"><path fill="#fff" stroke="transparent" d="M-4 4v-224.751h311V4H-4z"/><text x="130" y="-190.151" font-family="Lato" font-size="12">[Büchi]</text><g class="node"><circle fill="#ffffa0" stroke="#e31a1c" stroke-width="2" cx="56" cy="-47.351" r="18"/><text text-anchor="middle" x="56" y="-44.251" font-family="Lato" font-size="12">0</text></g><g class="edge"><path fill="none" stroke="#000" d="M1.123-47.351h29.801"/><path stroke="#000" d="M37.98-47.351l-7-3.15 3.5 3.15h-3.5 3.5l-3.5 3.15 7-3.15h0z"/></g><g class="edge"><path fill="none" stroke="#ff4da0" stroke-width="2" d="M49.62-64.388c-1.301-9.821.825-18.963 6.38-18.963 4.166 0 6.404 5.142 6.713 11.856"/><path fill="#ff4da0" stroke="#ff4da0" stroke-width="2" d="M62.38-64.388l3.474-6.845-2.811 3.372.164-3.496-.5-.024-.499-.023-.164 3.496-2.483-3.62 2.818 7.14h0z"/><text x="52" y="-86.751" font-family="Lato" font-size="12">1</text></g><g class="node"><circle fill="#ffffa0" stroke="#000" cx="281" cy="-128.351" r="18"/><circle fill="none" stroke="#000" cx="281" cy="-128.351" r="22"/><text x="277" y="-125.251" font-family="Lato" font-size="12">1</text></g><g class="edge"><path fill="none" stroke="#ff4da0" stroke-width="2" d="M69.038-59.966c15.85-14.518 44.078-37.84 72.962-49.385 35.917-14.356 80.763-18.213 109.639-19.071"/><path fill="#ff4da0" stroke="#ff4da0" stroke-width="2" d="M258.98-128.586l-7.07-2.993 3.559 2.571-3.5.078.012.5.011.5 3.5-.078-3.44 2.727 6.927-3.305h0z"/><text x="145.5" y="-124.751" font-family="Lato" font-size="12">!a &amp; b</text></g><g class="node"><circle fill="#ffffa0" stroke="#000" cx="164" cy="-47.351" r="18"/><circle fill="none" stroke="#000" cx="164" cy="-47.351" r="22"/><text text-anchor="middle" x="164" y="-44.251" font-family="Lato" font-size="12">2</text></g><g class="edge"><path fill="none" stroke="#ff4da0" stroke-width="2" d="M74.32-47.351h60.437"/><path fill="#ff4da0" stroke="#ff4da0" stroke-width="2" d="M141.85-47.351l-7-3.15 3.5 2.65h-3.5v1h3.5l-3.5 2.65 7-3.15h0z"/><text x="92" y="-50.751" font-family="Lato" font-size="12">a &amp; b</text></g><g class="node"><circle fill="#ffffa0" stroke="#000" cx="281" cy="-27.351" r="18"/><circle fill="none" stroke="#000" cx="281" cy="-27.351" r="22"/><text text-anchor="middle" x="281" y="-24.251" font-family="Lato" font-size="12">3</text></g><g class="edge"><path fill="none" stroke="#ff4da0" stroke-width="2" d="M70.977-36.884C87.487-26.04 115.26-9.794 142-3.351c38.408 9.255 83.61-2.686 111.79-12.784"/><path fill="#ff4da0" stroke="#ff4da0" stroke-width="2" d="M260.572-18.648l-7.658-.522 4.202 1.269-3.281 1.216.173.469.174.469 3.282-1.216-2.361 3.7 5.469-5.385h0z"/><text x="145.5" y="-6.751" font-family="Lato" font-size="12">a &amp; !b</text></g><g class="edge"><path fill="none" stroke="#000" d="M270.574-148.109C268.802-158.7 272.277-168.35 281-168.35c6.678 0 10.28 5.656 10.807 13.062"/><path stroke="#000" d="M291.426-148.109l3.517-6.823-3.331 3.328.185-3.495h0l-.185 3.495-2.96-3.662 2.774 7.157h0z"/><text x="277" y="-171.751" font-family="Lato" font-size="12">b</text></g><g class="edge"><path fill="none" stroke="#000" d="M182.281-60.007l74.606-51.65"/><path stroke="#000" d="M262.847-115.784l-7.548 1.395 4.67.597-2.877 1.993h0l2.877-1.992-1.084 4.582 3.962-6.575h0z"/><text x="204" y="-102.751" font-family="Lato" font-size="12">!a &amp; b</text></g><g class="edge"><path fill="none" stroke="#000" d="M153.933-67.109C152.223-77.7 155.578-87.35 164-87.35c6.448 0 9.926 5.656 10.435 13.062"/><path stroke="#000" d="M174.067-67.109l3.504-6.83-3.325 3.335.18-3.496h0l-.18 3.496-2.967-3.657 2.788 7.152h0z"/><text x="148" y="-90.751" font-family="Lato" font-size="12">a &amp; b</text></g><g class="edge"><path fill="none" stroke="#000" d="M186.12-47.14c15.507.515 36.64 1.954 54.88 5.789 4.151.873 8.462 2.062 12.649 3.382"/><path stroke="#000" d="M260.53-35.658l-5.633-5.215 2.315 4.1-3.318-1.114h0l3.318 1.114-4.321 1.872 7.638-.757h0z"/><text x="204" y="-48.751" font-family="Lato" font-size="12">a &amp; !b</text></g><g class="edge"><path fill="none" stroke="#000" d="M259.378-23.133c-15.645 2.244-37.153 3.648-55.378-1.218-5.442-1.453-10.912-3.843-15.984-6.546"/><path stroke="#000" d="M181.836-34.44l4.506 6.215-1.47-4.474 3.037 1.74h0l-3.037-1.74 4.603-.992-7.64-.749h0z"/><text x="206.5" y="-27.751" font-family="Lato" font-size="12">a &amp; b</text></g><g class="edge"><path fill="none" stroke="#000" d="M270.574-47.109C268.802-57.7 272.277-67.35 281-67.35c6.678 0 10.28 5.657 10.807 13.062"/><path stroke="#000" d="M291.426-47.109l3.517-6.823-3.331 3.328.185-3.495h0l-.185 3.495-2.96-3.662 2.774 7.157h0z"/><text x="262.5" y="-70.751" font-family="Lato" font-size="12">a &amp; !b</text></g></g></svg>