<?xml-stylesheet href="spot.css" type="text/css"?><svg width="287pt" height="151pt" viewBox="0 0 287 151.4" xmlns="http://www.w3.org/2000/svg"><g class="graph" transform="translate(4 147.4)"><path fill="#fff" stroke="transparent" d="M-4 4v-151.4h287V4H-4z"/><text x="118" y="-116.8" font-family="Lato" font-size="12">[Büchi]</text><g class="node"><circle fill="#ffffa0" stroke="#000" cx="56" cy="-18" r="18"/><text text-anchor="middle" x="56" y="-14.9" font-family="Lato" font-size="12">0</text></g><g class="edge"><path fill="none" stroke="#000" d="M1.123-18h29.801"/><path stroke="#000" d="M37.98-18l-7-3.15 3.5 3.15h-3.5 3.5l-3.5 3.15 7-3.15h0z"/></g><g class="node"><circle fill="#ffffa0" stroke="#000" cx="140" cy="-55" r="18"/><circle fill="none" stroke="#000" cx="140" cy="-55" r="22"/><text text-anchor="middle" x="140" y="-51.9" font-family="Lato" font-size="12">1</text></g><g class="edge"><path fill="none" stroke="#000" d="M72.596-25.31l40.285-17.745"/><path stroke="#000" d="M119.577-46.004l-7.676-.061 4.473 1.472-3.203 1.41h0l3.203-1.41-1.933 4.293 5.136-5.704h0z"/><text x="92" y="-39.4" font-family="Lato" font-size="12">a</text></g><g class="node"><circle fill="#ffffa0" stroke="#000" cx="257" cy="-35" r="18"/><circle fill="none" stroke="#000" cx="257" cy="-35" r="22"/><text text-anchor="middle" x="257" y="-31.9" font-family="Lato" font-size="12">2</text></g><g class="edge"><path fill="none" stroke="#000" d="M73.862-15.445C86.225-13.808 103.075-11.84 118-11c19.525 1.099 24.594 2.413 44 0 22.802-2.836 47.988-9.36 66.696-14.892"/><path stroke="#000" d="M235.782-28.03l-7.611-.993 4.26 2.004-3.35 1.011h0l3.35-1.011-2.44 4.027 5.791-5.039h0z"/><text x="133.5" y="-14.4" font-family="Lato" font-size="12">!a</text></g><g class="edge"><path fill="none" stroke="#000" d="M131.994-75.58C130.886-85.846 133.554-95 140-95c4.834 0 7.544 5.15 8.129 12.055"/><path stroke="#000" d="M148.006-75.58l3.267-6.947-3.208 3.447.058-3.5h0l-.058 3.5-3.091-3.552 3.032 7.051h0z"/><text x="124" y="-98.4" font-family="Lato" font-size="12">a &amp; b</text></g><g class="edge"><path fill="none" stroke="#000" d="M162.12-54.789c15.507.515 36.64 1.954 54.88 5.789 4.151.873 8.462 2.063 12.649 3.382"/><path stroke="#000" d="M236.53-43.307l-5.633-5.215 2.315 4.1-3.318-1.114h0l3.318 1.115-4.321 1.871 7.639-.757h0z"/><text x="180" y="-56.4" font-family="Lato" font-size="12">!a &amp; b</text></g><g class="edge"><path fill="none" stroke="#000" d="M235.378-30.782C219.733-28.538 198.225-27.134 180-32c-5.442-1.453-10.912-3.843-15.984-6.545"/><path stroke="#000" d="M157.836-42.089l4.506 6.215-1.47-4.474 3.037 1.741h0l-3.037-1.74 4.603-.993-7.64-.749h0z"/><text x="180" y="-35.4" font-family="Lato" font-size="12">a &amp; !b</text></g><g class="edge"><path fill="none" stroke="#000" d="M246.574-54.758C244.802-65.35 248.277-75 257-75c6.678 0 10.28 5.657 10.807 13.062"/><path stroke="#000" d="M267.426-54.758l3.517-6.823-3.331 3.328.185-3.495h0l-.185 3.495-2.96-3.662 2.774 7.157h0z"/><text x="236.5" y="-78.4" font-family="Lato" font-size="12">!a &amp; !b</text></g></g></svg>