<?xml-stylesheet href="spot.css" type="text/css"?><svg width="425pt" height="348" viewBox="0 0 424.5 261.29" xmlns="http://www.w3.org/2000/svg"><g class="graph" transform="translate(4 257.285)"><path fill="#fff" stroke="transparent" d="M-4 4v-261.285h424.5V4H-4z"/><text x="102.25" y="-240.685" font-family="Lato" font-size="12">(Fin(</text><text x="128.25" y="-240.685" font-family="Lato" font-size="12" fill="#1f78b4">⓿</text><text x="141.25" y="-240.685" font-family="Lato" font-size="12">) &amp; Inf(</text><text x="183.25" y="-240.685" font-family="Lato" font-size="12" fill="#ff4da0">❶</text><text x="194.25" y="-240.685" font-family="Lato" font-size="12">)) | (Fin(</text><text x="240.25" y="-240.685" font-family="Lato" font-size="12" fill="#ff7f00">❷</text><text x="251.25" y="-240.685" font-family="Lato" font-size="12">) &amp; Inf(</text><text x="293.25" y="-240.685" font-family="Lato" font-size="12" fill="#6a3d9a">❸</text><text x="304.25" y="-240.685" font-family="Lato" font-size="12">))</text><text x="180.75" y="-228.685" font-family="Lato" font-size="12">[Rabin 2]</text><g class="node"><path fill="#ffffa0" stroke="#000" d="M62-64.285H50c-6 0-12 6-12 12v12c0 6 6 12 12 12h12c6 0 12-6 12-12v-12c0-6-6-12-12-12"/><text x="52" y="-49.685" font-family="Lato" font-size="12">0</text><text x="50.5" y="-36.685" font-family="Lato" font-size="12" fill="#ff7f00">❷</text></g><g class="edge"><path fill="none" stroke="#000" d="M1.123-46.285h29.801"/><path stroke="#000" d="M37.98-46.285l-7-3.15 3.5 3.15h-3.5 3.5l-3.5 3.15 7-3.15h0z"/></g><g class="edge"><path fill="none" stroke="#000" d="M49.487-64.438c-1.002-9.386 1.17-17.847 6.513-17.847 3.924 0 6.138 4.563 6.64 10.704"/><path stroke="#000" d="M62.513-64.438l3.274-6.943-3.212 3.444.062-3.5h0l-.062 3.5-3.087-3.556 3.025 7.055h0z"/><text x="35.5" y="-85.685" font-family="Lato" font-size="12">!a &amp; !b</text></g><g class="node"><path fill="#ffffa0" stroke="#000" d="M178.5-158.285h-14c-6 0-12 6-12 12v12c0 6 6 12 12 12h14c6 0 12-6 12-12v-12c0-6-6-12-12-12"/><text x="167.5" y="-143.685" font-family="Lato" font-size="12">1</text><text x="160.5" y="-131.685" font-family="Lato" font-size="12" fill="#ff4da0">❶</text><text x="171.5" y="-131.685" font-family="Lato" font-size="12" fill="#ff7f00">❷</text></g><g class="edge"><path fill="none" stroke="#000" d="M60.482-64.32C65.48-80.726 75.166-104.432 92-118.285c14.96-12.31 36.309-17.754 53.118-20.15"/><path stroke="#000" d="M152.482-139.335l-7.331-2.278 3.856 2.702-3.474.425h0l3.474-.425-3.091 3.552 6.566-3.976h0z"/><text x="94" y="-138.685" font-family="Lato" font-size="12">a &amp; !b</text></g><g class="node"><path fill="#ffffa0" stroke="#000" d="M404-95.285h-12c-6 0-12 6-12 12v12c0 6 6 12 12 12h12c6 0 12-6 12-12v-12c0-6-6-12-12-12"/><text x="394" y="-80.685" font-family="Lato" font-size="12">2</text><text x="392.5" y="-67.685" font-family="Lato" font-size="12" fill="#6a3d9a">❸</text></g><g class="edge"><path fill="none" stroke="#000" d="M74.008-38.57c5.657 2.092 11.994 4.103 17.992 5.285 69.37 13.66 88.732 12.815 159 5 50.26-5.59 64.517-5.086 111-25 3.892-1.668 7.816-3.765 11.57-6.021"/><path stroke="#000" d="M379.687-63.207l-7.596 1.107 4.645.775-2.951 1.881h0l2.951-1.881-1.258 4.538 4.21-6.42h0z"/><text x="212" y="-31.685" font-family="Lato" font-size="12">!a &amp; b</text></g><g class="node"><path fill="#ffffa0" stroke="#000" d="M295-95.285h-14c-6 0-12 6-12 12v12c0 6 6 12 12 12h14c6 0 12-6 12-12v-12c0-6-6-12-12-12"/><text x="284" y="-80.685" font-family="Lato" font-size="12">3</text><text x="277" y="-68.685" font-family="Lato" font-size="12" fill="#ff4da0">❶</text><text x="288" y="-68.685" font-family="Lato" font-size="12" fill="#6a3d9a">❸</text></g><g class="edge"><path fill="none" stroke="#000" d="M74.205-48.718l187.537-25.059"/><path stroke="#000" d="M268.91-74.734l-7.356-2.196 3.887 2.66-3.47.463h0l3.47-.464-3.052 3.586 6.52-4.05h0z"/><text x="155.5" y="-67.685" font-family="Lato" font-size="12">a &amp; b</text></g><g class="edge"><path fill="none" stroke="#000" d="M156.203-122.179c-6.632 7.118-14.798 14.983-23.203 20.894-16.428 11.553-24.535 7.5-41 19-5.322 3.716-10.552 8.263-15.307 12.858"/><path stroke="#000" d="M71.74-64.46l7.173-2.732-4.702.254 2.471-2.478h0l-2.471 2.478.24-4.702-2.711 7.18h0z"/><text x="92" y="-104.685" font-family="Lato" font-size="12">!a &amp; !b</text></g><g class="edge"><path fill="none" stroke="#000" d="M161.007-158.438c-1.614-9.386 1.884-17.847 10.493-17.847 6.322 0 9.888 4.563 10.697 10.704"/><path stroke="#000" d="M181.993-158.438l3.349-6.907-3.25 3.409.101-3.5h0l-.1 3.5-3.049-3.59 2.949 7.088h0z"/><text x="153" y="-179.685" font-family="Lato" font-size="12">a &amp; !b</text></g><g class="edge"><path fill="none" stroke="#000" d="M183.127-158.537c6.698-8.83 15.954-18.61 26.873-23.748 61.126-28.764 98.118-40.75 152 0 12.91 9.763 24.379 51.926 30.738 79.763"/><path stroke="#000" d="M394.318-95.435l1.551-7.518-2.312 4.102-.762-3.417h0l.762 3.417-3.837-2.731 4.598 6.147h0z"/><text x="269.5" y="-211.685" font-family="Lato" font-size="12">!a &amp; b</text></g><g class="edge"><path fill="none" stroke="#000" d="M190.7-138.059c16.903 2.65 41.658 8.26 60.3 19.774 7.393 4.566 14.188 11.037 19.883 17.493"/><path stroke="#000" d="M275.396-95.416l-2.088-7.386-.162 4.706-2.25-2.681h0l2.25 2.68-4.663-.655 6.913 3.336h0z"/><text x="214.5" y="-136.685" font-family="Lato" font-size="12">a &amp; b</text></g><g class="edge"><path fill="none" stroke="#000" d="M386.271-59.067c-6.263 8.38-14.663 17.773-24.271 23.782-43.232 27.035-60.426 22.502-111 29-70.402 9.045-92.739 10.45-159-15-4.102-1.576-8.186-3.713-12.05-6.078"/><path stroke="#000" d="M74.087-31.218l4.118 6.478-1.194-4.555 2.924 1.923h0l-2.924-1.923 4.655-.71-7.58-1.213h0z"/><text x="210" y="-9.685" font-family="Lato" font-size="12">!a &amp; !b</text></g><g class="edge"><path fill="none" stroke="#000" d="M379.777-91.283c-17.728-13.024-45.855-32.154-72.777-44.002-23.584-10.379-30.454-11.638-56-15-18.066-2.378-22.925-2.31-41 0-4.125.527-8.44 1.36-12.627 2.324"/><path stroke="#000" d="M190.504-146.242l7.555 1.356-4.16-2.206 3.396-.85h0l-3.396.85 2.631-3.905-6.026 4.755h0z"/><text x="269.5" y="-150.685" font-family="Lato" font-size="12">a &amp; !b</text></g><g class="edge"><path fill="none" stroke="#000" d="M388.231-95.438c-1.503-9.386 1.753-17.847 9.769-17.847 5.887 0 9.206 4.563 9.96 10.704"/><path stroke="#000" d="M407.769-95.438l3.335-6.914-3.242 3.415.093-3.499h0l-.093 3.5-3.055-3.583 2.962 7.081h0z"/><text x="379.5" y="-116.685" font-family="Lato" font-size="12">!a &amp; b</text></g><g class="edge"><path fill="none" stroke="#000" d="M379.79-77.285h-65.535"/><path stroke="#000" d="M307.16-77.285l7 3.15-3.5-3.15h3.5-3.5l3.5-3.15-7 3.15h0z"/><text x="327.5" y="-80.685" font-family="Lato" font-size="12">a &amp; b</text></g><g class="edge"><path fill="none" stroke="#000" d="M268.75-67.601c-18.963 8.939-49.036 21.53-76.75 26.316-38.094 6.577-83.048 2.704-110.533-.947"/><path stroke="#000" d="M74.199-43.247l6.497 4.088-3.03-3.604 3.466.484h0l-3.467-.484 3.902-2.636-7.368 2.152h0z"/><text x="151" y="-44.685" font-family="Lato" font-size="12">!a &amp; !b</text></g><g class="edge"><path fill="none" stroke="#000" d="M268.957-80.42c-16.498-3.33-40.543-9.698-58.957-20.865-6.851-4.155-13.361-9.797-19.013-15.499"/><path stroke="#000" d="M186.052-121.995l2.526 7.249-.12-4.707 2.407 2.541h0l-2.406-2.541 4.693.375-7.1-2.917h0z"/><text x="212" y="-104.685" font-family="Lato" font-size="12">a &amp; !b</text></g><g class="edge"><path fill="none" stroke="#000" d="M307.038-66.648c5.614 2.61 11.885 5.033 17.962 6.363 16.065 3.514 20.954 3.598 37 0 3.794-.85 7.658-2.149 11.38-3.656"/><path stroke="#000" d="M379.877-66.828l-7.677-.036 4.478 1.457-3.198 1.422h0l3.198-1.422-1.919 4.3 5.118-5.721h0z"/><text x="325" y="-63.685" font-family="Lato" font-size="12">!a &amp; b</text></g><g class="edge"><path fill="none" stroke="#000" d="M278.231-95.438c-1.503-9.386 1.753-17.847 9.769-17.847 5.887 0 9.206 4.563 9.96 10.704"/><path stroke="#000" d="M297.769-95.438l3.335-6.914-3.242 3.415.093-3.499h0l-.093 3.5-3.055-3.583 2.962 7.081h0z"/><text x="272" y="-116.685" font-family="Lato" font-size="12">a &amp; b</text></g></g></svg>