<?xml-stylesheet href="spot.css" type="text/css"?><svg width="200pt" height="118pt" viewBox="0 0 199.5 118.4" xmlns="http://www.w3.org/2000/svg"><g class="graph" transform="translate(4 114.4)"><path fill="#fff" stroke="transparent" d="M-4 4v-118.4h199.5V4H-4z"/><text x="74.25" y="-83.8" font-family="Lato" font-size="12">[Büchi]</text><g class="node"><circle fill="#ffffa0" stroke="#000" cx="60" cy="-22" r="18"/><circle fill="none" stroke="#000" cx="60" cy="-22" r="22"/><text text-anchor="middle" x="60" y="-18.9" font-family="Lato" font-size="12">0</text></g><g class="edge"><path fill="none" stroke="#000" d="M1.168-22h29.47"/><path stroke="#000" d="M37.865-22l-7-3.15 3.5 3.15h-3.5 3.5l-3.5 3.15 7-3.15h0z"/></g><g class="edge"><path fill="none" stroke="#000" d="M52.683-42.99C51.78-53.088 54.22-62 60-62c4.336 0 6.792 5.013 7.368 11.78"/><path stroke="#000" d="M67.317-42.99l3.2-6.978-3.175 3.477.024-3.5h0l-.025 3.5-3.125-3.522 3.1 7.022h0z"/><text x="44" y="-65.4" font-family="Lato" font-size="12">a &amp; b</text></g><g class="node"><circle fill="#ffffa0" stroke="#000" cx="173" cy="-22" r="18"/><text text-anchor="middle" x="173" y="-18.9" font-family="Lato" font-size="12">1</text></g><g class="edge"><path fill="none" stroke="#000" d="M82.056-22h65.513"/><path stroke="#000" d="M154.73-22l-7-3.15 3.5 3.15h-3.5 3.5l-3.5 3.15 7-3.15h0z"/><text x="100" y="-25.4" font-family="Lato" font-size="12">a &amp; !b</text></g><g class="edge"><path fill="none" stroke="#000" d="M157.415-12.8C151.271-9.674 144.015-6.574 137-5c-16.046 3.598-20.886 3.282-37 0-4.464-.91-9.047-2.335-13.445-3.983"/><path stroke="#000" d="M79.84-11.714l5.297 5.555-2.055-4.237 3.242 1.319h0l-3.242-1.319 4.43-1.6-7.672.282h0z"/><text x="102.5" y="-8.4" font-family="Lato" font-size="12">a &amp; b</text></g><g class="edge"><path fill="none" stroke="#000" d="M163.767-37.541C161.168-47.91 164.247-58 173-58c6.702 0 10.077 5.915 10.125 13.34"/><path stroke="#000" d="M182.233-37.541l3.996-6.555-3.561 3.082.435-3.473h0l-.435 3.473-2.69-3.865 2.255 7.338h0z"/><text x="154.5" y="-61.4" font-family="Lato" font-size="12">a &amp; !b</text></g></g></svg>