<?xml-stylesheet href="spot.css" type="text/css"?><svg width="178pt" height="116" viewBox="0 0 178 87.4" xmlns="http://www.w3.org/2000/svg"><g class="graph" transform="translate(4 83.4)"><path fill="#fff" stroke="transparent" d="M-4 4v-87.4h178V4H-4z"/><text x="63.5" y="-52.8" font-family="Lato" font-size="12">[Büchi]</text><g class="node"><circle fill="#ffffa0" stroke="#000" cx="60" cy="-22" r="18"/><circle fill="none" stroke="#000" cx="60" cy="-22" r="22"/><text text-anchor="middle" x="60" y="-18.9" font-family="Lato" font-size="12">0</text></g><g class="edge"><path fill="none" stroke="#000" d="M1.168-22h29.47"/><path stroke="#000" d="M37.865-22l-7-3.15 3.5 3.15h-3.5 3.5l-3.5 3.15 7-3.15h0z"/></g><g class="node"><circle fill="#ffffa0" stroke="#000" cx="148" cy="-22" r="18"/><circle fill="none" stroke="#000" cx="148" cy="-22" r="22"/><text text-anchor="middle" x="148" y="-18.9" font-family="Lato" font-size="12">1</text></g><g class="edge"><path fill="none" stroke="#000" d="M82.206-22h36.436"/><path stroke="#000" d="M125.801-22l-7-3.15 3.5 3.15h-3.5 3.5l-3.5 3.15 7-3.15h0z"/><text text-anchor="middle" x="104" y="-25.4" font-family="Lato" font-size="12">1</text></g><g class="edge"><path fill="none" stroke="#000" d="M129.194-10.254C120.474-6.14 109.875-2.99 100-5c-4.464-.91-9.047-2.335-13.445-3.983"/><path stroke="#000" d="M79.84-11.714l5.297 5.555-2.055-4.237 3.242 1.319h0l-3.242-1.319 4.43-1.6-7.672.282h0z"/><text x="100" y="-8.4" font-family="Lato" font-size="12">a</text></g></g></svg>