<?xml-stylesheet href="spot.css" type="text/css"?><svg width="508pt" height="356" viewBox="0 0 508 267.11" xmlns="http://www.w3.org/2000/svg"><g class="graph" transform="translate(4 263.11)"><path fill="#fff" stroke="transparent" d="M-4 4v-267.11h508V4H-4z"/><text x="144" y="-246.509" font-family="Lato" font-size="12">(Fin(</text><text x="170" y="-246.509" font-family="Lato" font-size="12" fill="#1f78b4">⓿</text><text x="183" y="-246.509" font-family="Lato" font-size="12">) &amp; Inf(</text><text x="225" y="-246.509" font-family="Lato" font-size="12" fill="#ff4da0">❶</text><text x="236" y="-246.509" font-family="Lato" font-size="12">)) | (Fin(</text><text x="282" y="-246.509" font-family="Lato" font-size="12" fill="#ff7f00">❷</text><text x="293" y="-246.509" font-family="Lato" font-size="12">) &amp; Inf(</text><text x="335" y="-246.509" font-family="Lato" font-size="12" fill="#6a3d9a">❸</text><text x="346" y="-246.509" font-family="Lato" font-size="12">))</text><text x="222.5" y="-234.509" font-family="Lato" font-size="12">[Rabin 2]</text><g class="node"><path fill="#ffffa0" stroke="#000" d="M62-64.11H50c-6 0-12 6-12 12v12c0 6 6 12 12 12h12c6 0 12-6 12-12v-12c0-6-6-12-12-12"/><text x="52" y="-49.509" font-family="Lato" font-size="12">0</text><text x="49.5" y="-36.509" font-family="Lato" font-size="12" fill="#1f78b4">⓿</text></g><g class="edge"><path fill="none" stroke="#000" d="M1.123-46.11h29.801"/><path stroke="#000" d="M37.98-46.11l-7-3.15 3.5 3.15h-3.5 3.5l-3.5 3.15 7-3.15h0z"/></g><g class="edge"><path fill="none" stroke="#000" d="M49.487-64.262C48.485-73.648 50.657-82.11 56-82.11c3.924 0 6.138 4.563 6.64 10.704"/><path stroke="#000" d="M62.513-64.262l3.274-6.943-3.212 3.443.062-3.499h0l-.062 3.5-3.087-3.556 3.025 7.055h0z"/><text x="28" y="-85.509" font-family="Lato" font-size="12">!p0 &amp; !p1</text></g><g class="node"><path fill="#ffffa0" stroke="#000" d="M200-158.11h-12c-6 0-12 6-12 12v12c0 6 6 12 12 12h12c6 0 12-6 12-12v-12c0-6-6-12-12-12"/><text x="190" y="-143.509" font-family="Lato" font-size="12">1</text><text x="188.5" y="-130.509" font-family="Lato" font-size="12" fill="#ff4da0">❶</text></g><g class="edge"><path fill="none" stroke="#000" d="M60.303-64.368C65.174-80.933 74.773-104.746 92-118.11c21.99-17.06 54.322-21.567 76.663-22.444"/><path stroke="#000" d="M175.827-140.724l-7.073-2.982 3.575 3.066-3.5.083h0l3.5-.083-3.424 3.233 6.922-3.317h0z"/><text x="94" y="-141.509" font-family="Lato" font-size="12">p0 &amp; !p1</text></g><g class="node"><path fill="#ffffa0" stroke="#000" d="M482-95.11h-16c-6 0-12 6-12 12v12c0 6 6 12 12 12h16c6 0 12-6 12-12v-12c0-6-6-12-12-12"/><text x="470" y="-80.509" font-family="Lato" font-size="12">2</text><text x="462" y="-68.509" font-family="Lato" font-size="12" fill="#1f78b4">⓿</text><text x="475" y="-68.509" font-family="Lato" font-size="12" fill="#6a3d9a">❸</text></g><g class="edge"><path fill="none" stroke="#000" d="M74.185-40.896C79.85-39.453 86.145-38.032 92-37.11c89.67 14.123 113.579 18.01 204 10 62.96-5.578 81.286-1.596 140-25 3.947-1.574 7.914-3.59 11.718-5.794"/><path stroke="#000" d="M453.934-61.744l-7.61 1 4.632.84-2.977 1.84h0l2.977-1.84-1.321 4.52 4.299-6.36h0z"/><text x="242" y="-30.509" font-family="Lato" font-size="12">!p0 &amp; p1</text></g><g class="node"><path fill="#ffffa0" stroke="#000" d="M347-95.11h-14c-6 0-12 6-12 12v12c0 6 6 12 12 12h14c6 0 12-6 12-12v-12c0-6-6-12-12-12"/><text x="336" y="-80.509" font-family="Lato" font-size="12">3</text><text x="329" y="-68.509" font-family="Lato" font-size="12" fill="#ff4da0">❶</text><text x="340" y="-68.509" font-family="Lato" font-size="12" fill="#6a3d9a">❸</text></g><g class="edge"><path fill="none" stroke="#000" d="M74.198-48.096l239.439-26.136"/><path stroke="#000" d="M320.842-75.018l-7.3-2.372 3.82 2.752-3.479.38h0l3.48-.38-3.138 3.51 6.617-3.89h0z"/><text x="170.5" y="-67.509" font-family="Lato" font-size="12">p0 &amp; p1</text></g><g class="edge"><path fill="none" stroke="#000" d="M175.96-122.06c-8.035 7.278-17.938 15.276-27.96 20.95-22.871 12.95-33.68 5.123-56 19-5.623 3.496-11.037 8.029-15.884 12.692"/><path stroke="#000" d="M71.097-64.35l7.164-2.758-4.701.27 2.463-2.486h0l-2.463 2.487.224-4.704-2.687 7.19h0z"/><text x="92" y="-104.509" font-family="Lato" font-size="12">!p0 &amp; !p1</text></g><g class="edge"><path fill="none" stroke="#000" d="M180.613-158.262c-2.06-9.387 2.403-17.847 13.387-17.847 8.067 0 12.616 4.563 13.648 10.704"/><path stroke="#000" d="M207.387-158.262l3.404-6.88-3.276 3.382.128-3.497h0l-.128 3.497-3.02-3.612 2.892 7.11h0z"/><text x="168" y="-179.509" font-family="Lato" font-size="12">p0 &amp; !p1</text></g><g class="edge"><path fill="none" stroke="#000" d="M208.587-158.46c8.193-8.856 19.212-18.63 31.413-23.65 80.562-33.138 125.776-51.545 196 0 13.127 9.636 25.389 51.84 32.269 79.719"/><path stroke="#000" d="M469.98-95.294l1.421-7.543-2.241 4.141-.82-3.402h0l.82 3.402-3.883-2.664 4.704 6.066h0z"/><text x="314" y="-217.509" font-family="Lato" font-size="12">!p0 &amp; p1</text></g><g class="edge"><path fill="none" stroke="#000" d="M212.309-139.092c21.217 1.822 56.714 6.894 83.691 20.983 8.555 4.467 16.669 11.054 23.545 17.648"/><path stroke="#000" d="M324.548-95.453l-2.72-7.179.246 4.703-2.474-2.477h0l2.474 2.477-4.702-.25 7.176 2.726h0z"/><text x="244.5" y="-138.509" font-family="Lato" font-size="12">p0 &amp; p1</text></g><g class="edge"><path fill="none" stroke="#000" d="M463.274-58.662c-6.622 9.725-16.003 20.971-27.274 27.553-54.582 31.872-77.04 19.422-140 25-90.664 8.031-118.035 11.906-204-18-3.9-1.357-7.828-3.183-11.583-5.206"/><path stroke="#000" d="M74.297-32.857l4.48 6.233-1.45-4.48 3.029 1.753h0l-3.03-1.753 4.608-.973-7.637-.78h0z"/><text x="240" y="-9.509" font-family="Lato" font-size="12">!p0 &amp; !p1</text></g><g class="edge"><path fill="none" stroke="#000" d="M453.64-90.083c-21.173-12.996-55.639-32.778-87.64-45.026-29.9-11.444-38.212-13.196-70-17-24.712-2.958-31.313-3.167-56 0-6.853.879-14.144 2.466-20.853 4.205"/><path stroke="#000" d="M212.144-145.985l7.584 1.188-4.208-2.113 3.375-.925h0l-3.375.925 2.543-3.963-5.919 4.888h0z"/><text x="314" y="-152.509" font-family="Lato" font-size="12">p0 &amp; !p1</text></g><g class="edge"><path fill="none" stroke="#000" d="M462.422-95.262C460.64-104.648 464.5-113.11 474-113.11c6.977 0 10.911 4.563 11.804 10.704"/><path stroke="#000" d="M485.578-95.262l3.37-6.897-3.26 3.399.111-3.499h0l-.11 3.499-3.038-3.598 2.927 7.096h0z"/><text x="448" y="-116.509" font-family="Lato" font-size="12">!p0 &amp; p1</text></g><g class="edge"><path fill="none" stroke="#000" d="M453.962-77.11h-87.547"/><path stroke="#000" d="M359.199-77.11l7 3.15-3.5-3.15h3.5-3.5l3.5-3.15-7 3.15h0z"/><text x="386.5" y="-80.509" font-family="Lato" font-size="12">p0 &amp; p1</text></g><g class="edge"><path fill="none" stroke="#000" d="M320.795-70.32c-7.681 2.652-16.629 5.662-24.795 8.21-32.635 10.186-40.139 16.289-74 21-24.651 3.43-31.118.566-56 0-29.019-.659-62.31-2.295-84.599-3.517"/><path stroke="#000" d="M74.287-45.024l6.814 3.535-3.32-3.34 3.495.195h0l-3.495-.195 3.67-2.95-7.164 2.755h0z"/><text x="166" y="-44.509" font-family="Lato" font-size="12">!p0 &amp; !p1</text></g><g class="edge"><path fill="none" stroke="#000" d="M320.655-79.049c-20.846-2.691-54.541-8.816-80.655-22.06-8.17-4.144-16.13-10.012-23.067-15.94"/><path stroke="#000" d="M211.363-122.007l3.134 7.007-.52-4.68 2.614 2.327h0l-2.614-2.327 4.709-.026-7.323-2.301h0z"/><text x="242" y="-104.509" font-family="Lato" font-size="12">p0 &amp; !p1</text></g><g class="edge"><path fill="none" stroke="#000" d="M359.26-67.898c7.536 3.129 16.368 6.227 24.74 7.789 22.72 4.236 29.398 4.825 52 0 3.618-.773 7.308-1.916 10.897-3.25"/><path stroke="#000" d="M453.63-66.116l-7.672-.263 4.432 1.59-3.239 1.325h0l3.24-1.326-2.046 4.242 5.284-5.568h0z"/><text x="384" y="-63.509" font-family="Lato" font-size="12">!p0 &amp; p1</text></g><g class="edge"><path fill="none" stroke="#000" d="M327.336-95.262c-1.948-9.386 2.273-17.847 12.664-17.847 7.63 0 11.934 4.563 12.91 10.704"/><path stroke="#000" d="M352.664-95.262l3.39-6.887-3.27 3.389.121-3.498h0l-.12 3.498-3.028-3.607 2.907 7.105h0z"/><text x="316.5" y="-116.509" font-family="Lato" font-size="12">p0 &amp; p1</text></g></g></svg>