<?xml-stylesheet href="spot.css" type="text/css"?><svg width="652" height="170pt" viewBox="0 0 488.6 169.8" xmlns="http://www.w3.org/2000/svg"><g class="graph"><path fill="#fff" stroke="transparent" d="M0 169.8V0h488.6v169.8H0z"/><text x="220.3" y="-149.2" font-family="Lato" font-size="12" transform="translate(4 165.8)">Fin(</text><text x="242.3" y="-149.2" font-family="Lato" font-size="12" fill="#1f78b4" transform="translate(4 165.8)">⓿</text><text x="255.3" y="-149.2" font-family="Lato" font-size="12" transform="translate(4 165.8)">)</text><text x="209.8" y="-137.2" font-family="Lato" font-size="12" transform="translate(4 165.8)">[co-Büchi]</text><g class="node" transform="translate(4 165.8)"><path fill="#ffffa0" stroke="#000" d="M122-72.8H50c-6 0-12 6-12 12v12c0 6 6 12 12 12h72c6 0 12-6 12-12v-12c0-6-6-12-12-12"/><text x="46" y="-51.7" font-family="Lato" font-size="12">GF(a &lt;-&gt; Xb)</text></g><g class="edge" transform="translate(4 165.8)"><path fill="none" stroke="#000" d="M1.046-54.8h29.406"/><path stroke="#000" d="M37.675-54.8l-7-3.15 3.5 3.15h-3.5 3.5l-3.5 3.15 7-3.15h0z"/></g><g class="node" transform="translate(4 165.8)"><circle fill="#ffffa0" stroke="#000" cx="184.8" cy="-124.8" r="1.8"/></g><g class="edge" transform="translate(4 165.8)"><path fill="none" stroke="#000" d="M104.173-72.836C116.816-84.701 134.487-99.978 152-110.8c7.703-4.76 17.31-8.65 24.13-11.112M175.512-124.289l7.417.067-5.84 4.572-1.577-4.639z"/><text x="152" y="-120.2" font-family="Lato" font-size="12">!a</text></g><g class="node" transform="translate(4 165.8)"><circle fill="#ffffa0" stroke="#000" cx="184.8" cy="-1.8" r="1.8"/></g><g class="edge" transform="translate(4 165.8)"><path fill="none" stroke="#000" d="M119.725-36.709l57.007 30.58M178.167-8.138l5.01 5.468-7.326-1.15 2.316-4.318z"/><text x="154.5" y="-23.2" font-family="Lato" font-size="12">a</text></g><g class="node" transform="translate(4 165.8)"><circle fill="#ffffa0" stroke="#000" cx="184.8" cy="-47.8" r="1.8"/></g><g class="edge" transform="translate(4 165.8)"><path fill="none" stroke="#000" d="M134.064-52.047c10.217.666 20.938 1.426 30.936 2.247 3.512.288 7.369.664 10.738 1.013M176.249-51.197l6.697 3.186-7.222 1.686.525-4.872z"/><text x="154.5" y="-55.2" font-family="Lato" font-size="12">1</text></g><g class="edge" transform="translate(4 165.8)"><path fill="none" stroke="#000" d="M183.295-123.734l-65.87 46.669"/><path stroke="#000" d="M111.444-72.827l7.532-1.476-4.677-.547 2.856-2.024h0L114.3-74.85l1.035-4.594-3.89 6.617h0z"/></g><g class="node" transform="translate(4 165.8)"><path fill="#ffffa0" stroke="#000" d="M383.6-107.8h-12c-6 0-12 6-12 12v12c0 6 6 12 12 12h12c6 0 12-6 12-12v-12c0-6-6-12-12-12"/><text x="371.1" y="-86.7" font-family="Lato" font-size="12">!b</text></g><g class="edge" transform="translate(4 165.8)"><path fill="none" stroke="#000" d="M186.886-124.552c12.04 1.445 73.847 9.05 123.714 18.752 13.934 2.711 29.352 6.348 41.88 9.47"/><path stroke="#000" d="M359.49-94.563l-6.017-4.766 2.624 3.91-3.394-.856h0l3.394.856-4.164 2.199 7.558-1.343h0z"/></g><g class="node" transform="translate(4 165.8)"><path fill="#ffffa0" stroke="#000" d="M468.6-80.8h-12c-6 0-12 6-12 12v12c0 6 6 12 12 12h12c6 0 12-6 12-12v-12c0-6-6-12-12-12"/><text text-anchor="middle" x="462.6" y="-59.7" font-family="Lato" font-size="12">t</text></g><g class="edge" transform="translate(4 165.8)"><path fill="none" stroke="#000" d="M395.626-84.074l42.213 13.409"/><path stroke="#000" d="M444.6-68.518l-5.718-5.121 2.382 4.062-3.336-1.06h0l3.336 1.06-4.29 1.942 7.626-.883h0z"/><text x="413.6" y="-81.2" font-family="Lato" font-size="12">!b</text></g><g class="edge" transform="translate(4 165.8)"><path fill="none" stroke="#000" d="M182.948-2.015C177.83-2.66 163.138-4.842 152-9.8c-13.27-5.907-26.73-14.514-38.003-22.622"/><path stroke="#000" d="M108.314-36.6l3.774 6.684-.954-4.61 2.82 2.072h0l-2.82-2.073 4.686-.465-7.506-1.608h0z"/></g><g class="node" transform="translate(4 165.8)"><path fill="#ffffa0" stroke="#000" d="M383.6-53.8h-12c-6 0-12 6-12 12v12c0 6 6 12 12 12h12c6 0 12-6 12-12v-12c0-6-6-12-12-12"/><text x="373.6" y="-32.7" font-family="Lato" font-size="12">b</text></g><g class="edge" transform="translate(4 165.8)"><path fill="none" stroke="#000" d="M186.884-2.059C198.913-3.564 260.665-11.45 310.6-20.8c13.908-2.604 29.323-6.018 41.858-8.931"/><path stroke="#000" d="M359.472-31.379l-7.535-1.465 4.127 2.266-3.407.8h0l3.408-.8-2.688 3.867 6.095-4.668h0z"/></g><g class="edge" transform="translate(4 165.8)"><path fill="none" stroke="#000" d="M395.84-40.693c9.26-2.564 20.657-5.844 30.76-9.107a461.11 461.11 0 0010.91-3.693"/><path stroke="#000" d="M444.369-55.944l-7.652-.61 4.356 1.788-3.296 1.178h0l3.296-1.178-2.236 4.144 5.532-5.322h0z"/><text x="416.1" y="-53.2" font-family="Lato" font-size="12">b</text></g><g class="edge" transform="translate(4 165.8)"><path fill="none" stroke="#000" d="M182.673-47.95l-41.141-2.916"/><path stroke="#000" d="M134.242-51.382l6.76 3.637-3.269-3.39 3.492.248h0l-3.492-.248 3.714-2.894-7.205 2.647h0z"/></g><g class="node" transform="translate(4 165.8)"><path fill="#ffffa0" stroke="#000" d="M298.6-65.8h-63c-6 0-12 6-12 12v12c0 6 6 12 12 12h63c6 0 12-6 12-12v-12c0-6-6-12-12-12"/><text x="231.6" y="-51.2" font-family="Lato" font-size="12">F(a &lt;-&gt; Xb)</text><text x="260.6" y="-38.2" font-family="Lato" font-size="12" fill="#1f78b4">⓿</text></g><g class="edge" transform="translate(4 165.8)"><path fill="none" stroke="#000" d="M186.834-47.8h29.243"/><path stroke="#000" d="M223.435-47.8l-7-3.15 3.5 3.15h-3.5 3.5l-3.5 3.15 7-3.15h0z"/></g><g class="edge" transform="translate(4 165.8)"><path fill="none" stroke="#000" d="M310.772-64.4l42.222-16.047"/><path stroke="#000" d="M359.558-82.942l-7.663-.458 4.391 1.701-3.271 1.244h0l3.271-1.244-2.152 4.188 5.424-5.431h0z"/><text x="328.6" y="-79.2" font-family="Lato" font-size="12">!a</text></g><g class="edge" transform="translate(4 165.8)"><path fill="none" stroke="#000" d="M310.772-43.057l41.529 4.51"/><path stroke="#000" d="M359.558-37.76l-6.619-3.887 3.14 3.51-3.48-.378h0l3.48.378-3.82 2.753 7.299-2.375h0z"/><text x="331.1" y="-45.2" font-family="Lato" font-size="12">a</text></g><g class="edge" transform="translate(4 165.8)"><path fill="none" stroke="#000" d="M255.884-65.953C254.158-75.339 257.897-83.8 267.1-83.8c6.758 0 10.57 4.563 11.435 10.705"/><path stroke="#000" d="M278.316-65.953l3.363-6.9-3.256 3.402.107-3.498h0l-.107 3.498-3.041-3.595 2.934 7.093h0z"/><text x="263.1" y="-87.2" font-family="Lato" font-size="12">1</text></g><g class="edge" transform="translate(4 165.8)"><path fill="none" stroke="#000" d="M455.002-80.953c-1.17-9.386 1.364-17.847 7.598-17.847 4.578 0 7.16 4.563 7.746 10.705"/><path stroke="#000" d="M470.198-80.953l3.295-6.933-3.222 3.434.072-3.5h0l-.072 3.5-3.077-3.564 3.004 7.063h0z"/><text x="458.6" y="-102.2" font-family="Lato" font-size="12">1</text></g></g></svg>