<?xml-stylesheet href="spot.css" type="text/css"?><svg width="184pt" height="76pt" viewBox="0 0 183.5 75.97" xmlns="http://www.w3.org/2000/svg"><g class="graph"><path fill="#fff" stroke="transparent" d="M0 75.97V0h183.5v75.97H0z"/><g class="node" transform="translate(4 71.97)"><circle fill="#ffffa0" stroke="#000" cx="56" cy="-18.969" r="18"/><text text-anchor="middle" x="56" y="-15.869" font-family="Lato" font-size="12">0</text></g><g class="edge" transform="translate(4 71.97)"><path fill="none" stroke="#000" d="M1.123-18.97h29.801"/><path stroke="#000" d="M37.98-18.97l-7-3.15 3.5 3.15h-3.5 3.5l-3.5 3.15 7-3.15h0z"/></g><g class="edge" transform="translate(4 71.97)"><path fill="none" stroke="#000" d="M49.62-36.007c-1.301-9.82.825-18.962 6.38-18.962 4.166 0 6.404 5.142 6.713 11.857"/><path stroke="#000" d="M62.38-36.007l3.474-6.844-3.31 3.348.164-3.496h0l-.165 3.496-2.982-3.644 2.818 7.14h0z"/><text x="49.5" y="-58.369" font-family="Lato" font-size="12">!b</text></g><g class="node" transform="translate(4 71.97)"><circle fill="#ffffa0" stroke="#000" cx="155" cy="-18.969" r="18"/><text text-anchor="middle" x="155" y="-15.869" font-family="Lato" font-size="12">1</text></g><g class="edge" transform="translate(4 71.97)"><path fill="none" stroke="#000" d="M74.158-18.97h55.716"/><path stroke="#000" d="M136.957-18.97l-7-3.15 3.5 3.15h-3.5 3.5l-3.5 3.15 7-3.15h0z"/><text x="101.5" y="-22.369" font-family="Lato" font-size="12">b</text></g><g class="edge" transform="translate(4 71.97)"><path fill="none" stroke="#000" d="M139.415-9.77c-6.144 3.127-13.4 6.228-20.415 7.8-11.71 2.626-15.29 2.626-27 0-4.713-1.056-9.535-2.802-14.055-4.783"/><path stroke="#000" d="M71.585-9.77l4.974 5.846-1.812-4.346 3.162 1.5h0l-3.162-1.5 4.513-1.346-7.675-.154h0z"/><text x="92" y="-5.369" font-family="Lato" font-size="12">a | b</text></g><g class="edge" transform="translate(4 71.97)"><path fill="none" stroke="#000" d="M146.635-35.26c-2.017-10.098.771-19.71 8.365-19.71 5.695 0 8.688 5.407 8.977 12.37"/><path stroke="#000" d="M163.365-35.26l3.72-6.714-3.43 3.227.291-3.488h0l-.29 3.488-2.849-3.75 2.558 7.237h0z"/><text x="134.5" y="-58.369" font-family="Lato" font-size="12">!a &amp; !b</text></g></g></svg>