<?xml-stylesheet href="spot.css" type="text/css"?><svg width="175pt" height="118pt" viewBox="0 0 175 118.4" xmlns="http://www.w3.org/2000/svg"><g class="graph" transform="translate(4 114.4)"><path fill="#fff" stroke="transparent" d="M-4 4v-118.4h175V4H-4z"/><text x="62" y="-83.8" font-family="Lato" font-size="12">[Büchi]</text><g class="node"><circle fill="#ffffa0" stroke="#000" cx="60" cy="-22" r="18"/><circle fill="none" stroke="#000" cx="60" cy="-22" r="22"/><text text-anchor="middle" x="60" y="-18.9" font-family="Lato" font-size="12">0</text></g><g class="edge"><path fill="none" stroke="#000" d="M1.168-22h29.47"/><path stroke="#000" d="M37.865-22l-7-3.15 3.5 3.15h-3.5 3.5l-3.5 3.15 7-3.15h0z"/></g><g class="edge"><path fill="none" stroke="#000" d="M52.683-42.99C51.78-53.088 54.22-62 60-62c4.336 0 6.792 5.013 7.368 11.78"/><path stroke="#000" d="M67.317-42.99l3.2-6.978-3.175 3.477.024-3.5h0l-.025 3.5-3.125-3.522 3.1 7.022h0z"/><text x="56" y="-65.4" font-family="Lato" font-size="12">a</text></g><g class="node"><circle fill="#ffffa0" stroke="#000" cx="149" cy="-22" r="18"/><text text-anchor="middle" x="149" y="-18.9" font-family="Lato" font-size="12">1</text></g><g class="edge"><path fill="none" stroke="#000" d="M82-22h41.485"/><path stroke="#000" d="M130.845-22l-7-3.15 3.5 3.15h-3.5 3.5l-3.5 3.15 7-3.15h0z"/><text x="100" y="-25.4" font-family="Lato" font-size="12">!a</text></g><g class="edge"><path fill="none" stroke="#000" d="M133.415-12.8C127.271-9.674 120.015-6.574 113-5c-8.928 2.002-18.502.197-27.023-2.872"/><path stroke="#000" d="M79.401-10.556l5.29 5.562-2.05-4.24 3.241 1.324h0l-3.24-1.323 4.43-1.594-7.67.271h0z"/><text x="102.5" y="-8.4" font-family="Lato" font-size="12">a</text></g><g class="edge"><path fill="none" stroke="#000" d="M141.617-38.664C139.977-48.625 142.437-58 149-58c4.922 0 7.537 5.273 7.844 12.112"/><path stroke="#000" d="M156.383-38.664l3.59-6.785-3.367 3.292.223-3.493h0l-.223 3.493-2.92-3.694 2.697 7.187h0z"/><text x="142.5" y="-61.4" font-family="Lato" font-size="12">!a</text></g></g></svg>