<?xml-stylesheet href="spot.css" type="text/css"?><svg width="232" height="332" viewBox="0 0 174 249" xmlns="http://www.w3.org/2000/svg"><g class="graph" transform="translate(4 245)"><path fill="#fff" stroke="transparent" d="M-4 4v-249h174V4H-4z"/><text x="63.5" y="-228.4" font-family="Lato" font-size="12">Inf(</text><text x="84.5" y="-228.4" font-family="Lato" font-size="12" fill="#1f78b4">⓿</text><text x="97.5" y="-228.4" font-family="Lato" font-size="12">)</text><text x="61.5" y="-216.4" font-family="Lato" font-size="12">[Büchi]</text><g class="node"><circle fill="#ffffa0" stroke="#000" cx="56" cy="-82" r="18"/><text text-anchor="middle" x="56" y="-78.9" font-family="Lato" font-size="12">0</text></g><g class="edge"><path fill="none" stroke="#000" d="M1.123-82h29.801"/><path stroke="#000" d="M37.98-82l-7-3.15 3.5 3.15h-3.5 3.5l-3.5 3.15 7-3.15h0z"/></g><g class="node"><circle fill="#ffffa0" stroke="#000" cx="148" cy="-147" r="18"/><text text-anchor="middle" x="148" y="-143.9" font-family="Lato" font-size="12">1</text></g><g class="edge"><path fill="none" stroke="#000" d="M70.781-92.443l56.48-39.904"/><path stroke="#000" d="M133.255-136.583l-7.534 1.467 4.676.553-2.859 2.02h0l2.859-2.02-1.041 4.592 3.9-6.612h0z"/><text x="94" y="-123.4" font-family="Lato" font-size="12">p0</text></g><g class="node"><circle fill="#ffffa0" stroke="#000" cx="148" cy="-18" r="18"/><text text-anchor="middle" x="148" y="-14.9" font-family="Lato" font-size="12">2</text></g><g class="edge"><path fill="none" stroke="#000" d="M70.781-71.717l56.174 39.077"/><path stroke="#000" d="M132.95-28.47l-3.948-6.583 1.075 4.584-2.874-1.998h0l2.874 1.998-4.673.588 7.546 1.411h0z"/><text x="92" y="-58.4" font-family="Lato" font-size="12">!p0</text></g><g class="edge"><path fill="none" stroke="#000" d="M139.984-163.29c-1.934-10.1.739-19.71 8.016-19.71 5.458 0 8.326 5.406 8.603 12.37"/><path stroke="#000" d="M156.016-163.29l3.698-6.727-3.419 3.238.279-3.489h0l-.279 3.489-2.861-3.74 2.582 7.229h0z"/><text x="144" y="-199.4" font-family="Lato" font-size="12">1</text><text x="141.5" y="-186.4" font-family="Lato" font-size="12" fill="#1f78b4">⓿</text></g><g class="edge"><path fill="none" stroke="#000" d="M143.865-35.782C143.163-45.315 144.541-54 148-54c2.54 0 3.958 4.684 4.254 10.948"/><path stroke="#000" d="M152.135-35.782l3.264-6.947-3.207 3.448.058-3.5h0l-.058 3.5-3.092-3.552 3.035 7.051h0z"/><text x="138" y="-57.4" font-family="Lato" font-size="12">!p1</text></g><g class="edge"><path fill="none" stroke="#000" d="M141.334-34.864C137.288-52.378 139.51-72 148-72c7.363 0 10.012 14.756 7.947 30.097"/><path stroke="#000" d="M154.666-34.864l4.352-6.323-3.725 2.88.626-3.444h0l-.626 3.444-2.473-4.007 1.846 7.45h0z"/><text x="140" y="-88.4" font-family="Lato" font-size="12">p1</text><text x="141.5" y="-75.4" font-family="Lato" font-size="12" fill="#1f78b4">⓿</text></g></g></svg>