<?xml-stylesheet href="spot.css" type="text/css"?><svg width="260" height="173pt" viewBox="0 0 195 173.14" xmlns="http://www.w3.org/2000/svg"><g class="graph" transform="translate(4 169.141)"><path fill="#fff" stroke="transparent" d="M-4 4v-173.141h195V4H-4z"/><text x="74" y="-152.541" font-family="Lato" font-size="12">Inf(</text><text x="95" y="-152.541" font-family="Lato" font-size="12" fill="#1f78b4">⓿</text><text x="108" y="-152.541" font-family="Lato" font-size="12">)</text><text x="72" y="-140.541" font-family="Lato" font-size="12">[Büchi]</text><g class="node"><circle fill="#ffffa0" stroke="#000" cx="56" cy="-40.141" r="18"/><text text-anchor="middle" x="56" y="-37.041" font-family="Lato" font-size="12">1</text></g><g class="edge"><path fill="none" stroke="#000" d="M1.123-40.141h29.801"/><path stroke="#000" d="M37.98-40.141l-7-3.15 3.5 3.15h-3.5 3.5l-3.5 3.15 7-3.15h0z"/></g><g class="edge"><path fill="none" stroke="#000" d="M52.764-57.923c-.55-9.533.529-18.218 3.236-18.218 1.988 0 3.098 4.684 3.33 10.948"/><path stroke="#000" d="M59.236-57.923l3.24-6.959-3.195 3.46.045-3.5h0l-.045 3.5-3.105-3.54 3.06 7.04h0z"/><text x="37.5" y="-79.541" font-family="Lato" font-size="12">a &amp; !b</text></g><g class="edge"><path fill="none" stroke="#000" d="M50.684-57.561c-3.03-17.37-1.258-36.58 5.316-36.58 5.701 0 7.79 14.446 6.27 29.61"/><path stroke="#000" d="M61.316-57.561l4.07-6.509-3.596 3.041.475-3.468h0l-.475 3.468-2.646-3.895 2.172 7.363h0z"/><text x="40" y="-110.541" font-family="Lato" font-size="12">a &amp; b</text><text x="49.5" y="-97.541" font-family="Lato" font-size="12" fill="#1f78b4">⓿</text></g><g class="node"><circle fill="#ffffa0" stroke="#000" cx="169" cy="-40.141" r="18"/><text text-anchor="middle" x="169" y="-37.041" font-family="Lato" font-size="12">0</text></g><g class="edge"><path fill="none" stroke="#000" d="M68.81-52.963c6.395-5.5 14.593-11.312 23.19-14.178 17.287-5.762 23.713-5.762 41 0 6.18 2.06 12.152 5.642 17.398 9.536"/><path stroke="#000" d="M156.19-52.963l-3.492-6.835.76 4.647-2.73-2.19h0l2.73 2.19-4.7.269 7.432 1.92h0z"/><text x="92" y="-74.541" font-family="Lato" font-size="12">!a &amp; !b</text></g><g class="edge"><path fill="none" stroke="#000" d="M73.927-38.352c5.764.496 12.183.966 18.073 1.211 18.207.757 22.793.757 41 0 3.59-.15 7.375-.382 11.089-.653"/><path stroke="#000" d="M151.073-38.352l-7.228-2.583 3.74 2.862-3.49.278h0l3.49-.278-3.239 3.418 6.727-3.697h0z"/><text x="94" y="-53.541" font-family="Lato" font-size="12">!a &amp; b</text><text x="106" y="-40.541" font-family="Lato" font-size="12" fill="#1f78b4">⓿</text></g><g class="edge"><path fill="none" stroke="#000" d="M158.451-25.427C152.057-17.816 143.177-9.273 133-5.141c-16.884 6.855-24.116 6.855-41 0-7.791-3.163-14.823-8.912-20.56-14.85"/><path stroke="#000" d="M66.549-25.427l2.34 7.31v-4.708l2.342 2.602h0l-2.341-2.602 4.682.495-7.023-3.097h0z"/><text x="108.5" y="-8.541" font-family="Lato" font-size="12">a</text></g><g class="edge"><path fill="none" stroke="#000" d="M159.425-55.682c-2.695-10.368.497-20.459 9.575-20.459 6.95 0 10.45 5.915 10.5 13.341"/><path stroke="#000" d="M178.575-55.682l4.025-6.536-3.574 3.065.45-3.471h0l-.45 3.47-2.673-3.876 2.222 7.348h0z"/><text x="162.5" y="-79.541" font-family="Lato" font-size="12">!a</text></g></g></svg>