<?xml-stylesheet href="spot.css" type="text/css"?><svg width="296pt" height="208" viewBox="0 0 296 156" xmlns="http://www.w3.org/2000/svg"><g class="graph" transform="translate(4 152)"><path fill="#fff" stroke="transparent" d="M-4 4v-156h296V4H-4z"/><text x="124.5" y="-135.4" font-family="Lato" font-size="12">Inf(</text><text x="145.5" y="-135.4" font-family="Lato" font-size="12" fill="#1f78b4">⓿</text><text x="158.5" y="-135.4" font-family="Lato" font-size="12">)</text><text x="122.5" y="-123.4" font-family="Lato" font-size="12">[Büchi]</text><g class="node"><path fill="#ffffa0" stroke="#000" d="M62-52H50c-6 0-12 6-12 12v12c0 6 6 12 12 12h12c6 0 12-6 12-12v-12c0-6-6-12-12-12"/><text x="52" y="-37.4" font-family="Lato" font-size="12">0</text><text x="49.5" y="-24.4" font-family="Lato" font-size="12" fill="#1f78b4">⓿</text></g><g class="edge"><path fill="none" stroke="#000" d="M1.123-34h29.801"/><path stroke="#000" d="M37.98-34l-7-3.15 3.5 3.15h-3.5 3.5l-3.5 3.15 7-3.15h0z"/></g><g class="edge"><path fill="none" stroke="#000" d="M49.487-52.153C48.485-61.539 50.657-70 56-70c3.924 0 6.138 4.563 6.64 10.705"/><path stroke="#000" d="M62.513-52.153l3.274-6.943-3.212 3.444.062-3.5h0l-.062 3.5-3.087-3.556 3.025 7.055h0z"/><text x="40" y="-73.4" font-family="Lato" font-size="12">a &amp; b</text></g><g class="node"><path fill="#ffffa0" stroke="#000" d="M166.5-85h-12c-6 0-12 6-12 12v12c0 6 6 12 12 12h12c6 0 12-6 12-12v-12c0-6-6-12-12-12"/><text text-anchor="middle" x="160.5" y="-63.9" font-family="Lato" font-size="12">1</text></g><g class="edge"><path fill="none" stroke="#000" d="M72.32-52.162C77.998-57.272 84.772-62.196 92-65c13.664-5.3 30.04-5.963 43.352-5.224"/><path stroke="#000" d="M142.397-69.69l-6.742-3.67 3.252 3.406-3.49-.265h0l3.49.265-3.728 2.876 7.218-2.611h0z"/><text x="101.5" y="-73.4" font-family="Lato" font-size="12">!b</text></g><g class="node"><path fill="#ffffa0" stroke="#000" d="M276-36h-12c-6 0-12 6-12 12v12c0 6 6 12 12 12h12c6 0 12-6 12-12v-12c0-6-6-12-12-12"/><text text-anchor="middle" x="270" y="-14.9" font-family="Lato" font-size="12">2</text></g><g class="edge"><path fill="none" stroke="#000" d="M74.115-32.467C91.516-31.01 118.55-28.78 142-27c35.583 2.699 76.752 5.544 102.585 7.296"/><path stroke="#000" d="M251.766-19.219l-6.771-3.615 3.28 3.38-3.493-.237h0l3.492.236-3.704 2.907 7.196-2.67h0z"/><text x="142" y="-30.4" font-family="Lato" font-size="12">!a &amp; b</text></g><g class="edge"><path fill="none" stroke="#000" d="M142.379-56.308C136.649-53.274 130.192-50.2 124-48c-13.671 4.859-29.52 8.244-42.477 10.467"/><path stroke="#000" d="M74.267-36.357l7.414 1.99-3.959-2.55 3.455-.56h0l-3.455.56 2.95-3.67-6.405 4.23h0z"/><text x="92" y="-51.4" font-family="Lato" font-size="12">a &amp; b</text></g><g class="edge"><path fill="none" stroke="#000" d="M151.093-85.153C149.646-94.539 152.78-103 160.5-103c5.668 0 8.865 4.563 9.59 10.705"/><path stroke="#000" d="M169.907-85.153l3.329-6.917-3.239 3.418.09-3.498h0l-.09 3.498-3.06-3.58 2.97 7.08h0z"/><text x="154" y="-106.4" font-family="Lato" font-size="12">!b</text></g><g class="edge"><path fill="none" stroke="#000" d="M178.582-58.909l66.766 29.877"/><path stroke="#000" d="M251.891-26.103l-5.102-5.735 1.908 4.305-3.195-1.43h0l3.195 1.43-4.482 1.446 7.676-.016h0z"/><text x="197" y="-52.4" font-family="Lato" font-size="12">!a &amp; b</text></g><g class="edge"><path fill="none" stroke="#000" d="M251.68-13.706C226.751-8.482 180.802-1.052 142-7c-21.114-3.237-44.162-10.698-61.08-16.959"/><path stroke="#000" d="M74.07-26.552l5.43 5.424-2.157-4.185 3.273 1.24h0l-3.273-1.24 4.388-1.707-7.661.468h0z"/><text x="156.5" y="-10.4" font-family="Lato" font-size="12">a</text></g><g class="edge"><path fill="none" stroke="#000" d="M260.231-36.153C258.728-45.539 261.984-54 270-54c5.887 0 9.206 4.563 9.96 10.705"/><path stroke="#000" d="M279.769-36.153l3.335-6.913-3.242 3.415.093-3.5h0l-.093 3.5-3.055-3.583 2.962 7.081h0z"/><text x="263.5" y="-57.4" font-family="Lato" font-size="12">!a</text></g></g></svg>