<?xml-stylesheet href="spot.css" type="text/css"?><svg width="296pt" height="169pt" viewBox="0 0 296 169" xmlns="http://www.w3.org/2000/svg"><g class="graph" transform="translate(4 165)"><path fill="#fff" stroke="transparent" d="M-4 4v-169h296V4H-4z"/><text x="124.5" y="-148.4" font-family="Lato" font-size="12">Inf(</text><text x="145.5" y="-148.4" font-family="Lato" font-size="12" fill="#1f78b4">⓿</text><text x="158.5" y="-148.4" font-family="Lato" font-size="12">)</text><text x="122.5" y="-136.4" font-family="Lato" font-size="12">[Büchi]</text><g class="node"><circle fill="#ffffa0" stroke="#000" cx="56" cy="-34" r="18"/><text text-anchor="middle" x="56" y="-30.9" font-family="Lato" font-size="12">0</text></g><g class="edge"><path fill="none" stroke="#000" d="M1.123-34h29.801"/><path stroke="#000" d="M37.98-34l-7-3.15 3.5 3.15h-3.5 3.5l-3.5 3.15 7-3.15h0z"/></g><g class="edge"><path fill="none" stroke="#000" d="M49.62-51.037C48.32-60.857 50.446-70 56-70c4.166 0 6.404 5.142 6.713 11.857"/><path stroke="#000" d="M62.38-51.037l3.474-6.845-3.31 3.349.164-3.497h0l-.165 3.497-2.982-3.644 2.818 7.14h0z"/><text x="40" y="-86.4" font-family="Lato" font-size="12">a &amp; b</text><text x="49.5" y="-73.4" font-family="Lato" font-size="12" fill="#1f78b4">⓿</text></g><g class="node"><circle fill="#ffffa0" stroke="#000" cx="160.5" cy="-80" r="18"/><text text-anchor="middle" x="160.5" y="-76.9" font-family="Lato" font-size="12">1</text></g><g class="edge"><path fill="none" stroke="#000" d="M68.515-47.521C74.965-53.725 83.293-60.651 92-65c13.508-6.747 30.007-10.478 43.427-12.53"/><path stroke="#000" d="M142.527-78.507l-7.364-2.167 3.897 2.644-3.468.477h0l3.468-.477-3.038 3.597 6.505-4.074h0z"/><text x="101.5" y="-91.4" font-family="Lato" font-size="12">!b</text><text x="101.5" y="-78.4" font-family="Lato" font-size="12" fill="#1f78b4">⓿</text></g><g class="node"><circle fill="#ffffa0" stroke="#000" cx="270" cy="-18" r="18"/><text text-anchor="middle" x="270" y="-14.9" font-family="Lato" font-size="12">2</text></g><g class="edge"><path fill="none" stroke="#000" d="M74.115-32.467C91.516-31.01 118.55-28.78 142-27c35.583 2.699 76.752 5.544 102.585 7.296"/><path stroke="#000" d="M251.766-19.219l-6.771-3.615 3.28 3.38-3.493-.237h0l3.492.236-3.704 2.907 7.196-2.67h0z"/><text x="142" y="-43.4" font-family="Lato" font-size="12">!a &amp; b</text><text x="154" y="-30.4" font-family="Lato" font-size="12" fill="#1f78b4">⓿</text></g><g class="edge"><path fill="none" stroke="#000" d="M148.208-66.314C141.641-59.815 133.055-52.502 124-48c-13.295 6.61-29.54 10.101-42.819 11.943"/><path stroke="#000" d="M74.147-35.194l7.332 2.274-3.858-2.7 3.474-.426h0l-3.474.426 3.09-3.553-6.564 3.98h0z"/><text x="92" y="-51.4" font-family="Lato" font-size="12">a &amp; b</text></g><g class="edge"><path fill="none" stroke="#000" d="M151.521-95.916C149.18-106.15 152.171-116 160.5-116c6.376 0 9.625 5.774 9.746 13.073"/><path stroke="#000" d="M169.479-95.916l3.893-6.615-3.512 3.136.38-3.48h0l-.38 3.48-2.75-3.822 2.369 7.301h0z"/><text x="154" y="-119.4" font-family="Lato" font-size="12">!b</text></g><g class="edge"><path fill="none" stroke="#000" d="M176.189-71.117l71.549 40.512"/><path stroke="#000" d="M253.984-27.068l-4.539-6.19 1.494 4.465-3.046-1.724h0l3.046 1.724-4.598 1.017 7.643.708h0z"/><text x="197" y="-61.4" font-family="Lato" font-size="12">!a &amp; b</text></g><g class="edge"><path fill="none" stroke="#000" d="M252.103-13.795C227.273-8.567 181.023-1.018 142-7c-21.656-3.32-45.346-11.083-62.368-17.438"/><path stroke="#000" d="M72.77-27.058l5.416 5.44-2.147-4.191 3.27 1.248h0l-3.27-1.248 4.394-1.694-7.663.445h0z"/><text x="156.5" y="-10.4" font-family="Lato" font-size="12">a</text></g><g class="edge"><path fill="none" stroke="#000" d="M260.767-33.541C258.168-43.91 261.247-54 270-54c6.702 0 10.077 5.915 10.125 13.34"/><path stroke="#000" d="M279.233-33.541l3.996-6.555-3.561 3.082.435-3.473h0l-.435 3.473-2.69-3.865 2.255 7.338h0z"/><text x="263.5" y="-57.4" font-family="Lato" font-size="12">!a</text></g></g></svg>