<?xml-stylesheet href="spot.css" type="text/css"?><svg width="430pt" height="260pt" viewBox="0 0 430 260.28" xmlns="http://www.w3.org/2000/svg"><g class="graph"><path fill="#fff" stroke="transparent" d="M0 260.281V0h430v260.281H0z"/><text x="107" y="-239.681" font-family="Lato" font-size="12" transform="translate(4 256.281)">(Fin(</text><text x="133" y="-239.681" font-family="Lato" font-size="12" fill="#1f78b4" transform="translate(4 256.281)">⓿</text><text x="146" y="-239.681" font-family="Lato" font-size="12" transform="translate(4 256.281)">) | Inf(</text><text x="183" y="-239.681" font-family="Lato" font-size="12" fill="#ff4da0" transform="translate(4 256.281)">❶</text><text x="194" y="-239.681" font-family="Lato" font-size="12" transform="translate(4 256.281)">)) &amp; (Fin(</text><text x="246" y="-239.681" font-family="Lato" font-size="12" fill="#ff7f00" transform="translate(4 256.281)">❷</text><text x="257" y="-239.681" font-family="Lato" font-size="12" transform="translate(4 256.281)">) | Inf(</text><text x="294" y="-239.681" font-family="Lato" font-size="12" fill="#6a3d9a" transform="translate(4 256.281)">❸</text><text x="305" y="-239.681" font-family="Lato" font-size="12" transform="translate(4 256.281)">))</text><text x="180" y="-227.681" font-family="Lato" font-size="12" transform="translate(4 256.281)">[Streett 2]</text><g class="node" transform="translate(4 256.281)"><path fill="#ffffa0" stroke="#000" d="M64-62.281H50c-6 0-12 6-12 12v12c0 6 6 12 12 12h14c6 0 12-6 12-12v-12c0-6-6-12-12-12"/><text x="53" y="-47.681" font-family="Lato" font-size="12">0</text><text x="46" y="-35.681" font-family="Lato" font-size="12" fill="#ff4da0">❶</text><text x="57" y="-35.681" font-family="Lato" font-size="12" fill="#6a3d9a">❸</text></g><g class="edge" transform="translate(4 256.281)"><path fill="none" stroke="#000" d="M1.135-44.281h29.554"/><path stroke="#000" d="M37.773-44.281l-7-3.15 3.5 3.15h-3.5 3.5l-3.5 3.15 7-3.15h0z"/></g><g class="edge" transform="translate(4 256.281)"><path fill="none" stroke="#000" d="M50.487-62.434C49.485-71.82 51.657-80.28 57-80.28c3.924 0 6.138 4.563 6.64 10.705"/><path stroke="#000" d="M63.513-62.434l3.274-6.943-3.212 3.444.062-3.5h0l-.062 3.5-3.087-3.556 3.025 7.055h0z"/><text x="41" y="-83.681" font-family="Lato" font-size="12">a &amp; b</text></g><g class="node" transform="translate(4 256.281)"><path fill="#ffffa0" stroke="#000" d="M177.5-156.281h-16c-6 0-12 6-12 12v12c0 6 6 12 12 12h16c6 0 12-6 12-12v-12c0-6-6-12-12-12"/><text x="165.5" y="-141.681" font-family="Lato" font-size="12">1</text><text x="157.5" y="-129.681" font-family="Lato" font-size="12" fill="#1f78b4">⓿</text><text x="170.5" y="-129.681" font-family="Lato" font-size="12" fill="#6a3d9a">❸</text></g><g class="edge" transform="translate(4 256.281)"><path fill="none" stroke="#000" d="M61.887-62.586c5.29-16.362 15.31-39.832 32.113-53.695 13.485-11.126 32.369-16.626 47.877-19.344"/><path stroke="#000" d="M149.18-136.749l-7.397-2.049 3.938 2.581-3.46.533h0l3.46-.533-2.98 3.646 6.44-4.178h0z"/><text x="94" y="-135.681" font-family="Lato" font-size="12">!a &amp; b</text></g><g class="node" transform="translate(4 256.281)"><path fill="#ffffa0" stroke="#000" d="M410-93.281h-14c-6 0-12 6-12 12v12c0 6 6 12 12 12h14c6 0 12-6 12-12v-12c0-6-6-12-12-12"/><text x="399" y="-78.681" font-family="Lato" font-size="12">2</text><text x="392" y="-66.681" font-family="Lato" font-size="12" fill="#ff4da0">❶</text><text x="403" y="-66.681" font-family="Lato" font-size="12" fill="#ff7f00">❷</text></g><g class="edge" transform="translate(4 256.281)"><path fill="none" stroke="#000" d="M76.29-36.302c5.617 1.993 11.827 3.884 17.71 5.02 67.673 13.076 86.457 12.242 155 5 52.88-5.586 67.88-4.637 117-25 3.897-1.615 7.83-3.646 11.603-5.84"/><path stroke="#000" d="M383.769-60.923l-7.612.992 4.632.845-2.98 1.837h0l2.98-1.837-1.326 4.518 4.305-6.355h0z"/><text x="210" y="-29.681" font-family="Lato" font-size="12">a &amp; !b</text></g><g class="node" transform="translate(4 256.281)"><path fill="#ffffa0" stroke="#000" d="M295-93.281h-16c-6 0-12 6-12 12v12c0 6 6 12 12 12h16c6 0 12-6 12-12v-12c0-6-6-12-12-12"/><text x="283" y="-78.681" font-family="Lato" font-size="12">3</text><text x="275" y="-66.681" font-family="Lato" font-size="12" fill="#1f78b4">⓿</text><text x="288" y="-66.681" font-family="Lato" font-size="12" fill="#ff7f00">❷</text></g><g class="edge" transform="translate(4 256.281)"><path fill="none" stroke="#000" d="M76.214-46.87L259.55-71.582"/><path stroke="#000" d="M266.695-72.544l-7.358-2.187 3.889 2.654-3.469.468h0l3.469-.468-3.048 3.59 6.517-4.057h0z"/><text x="149" y="-64.681" font-family="Lato" font-size="12">!a &amp; !b</text></g><g class="edge" transform="translate(4 256.281)"><path fill="none" stroke="#000" d="M153.71-119.95c-6.581 6.99-14.58 14.702-22.71 20.669-14.903 10.937-21.988 8.213-37 19-5.127 3.684-10.233 8.066-14.943 12.483"/><path stroke="#000" d="M73.734-62.637l7.218-2.611-4.706.175 2.513-2.436h0l-2.513 2.436.32-4.698-2.832 7.134h0z"/><text x="96.5" y="-102.681" font-family="Lato" font-size="12">a &amp; b</text></g><g class="edge" transform="translate(4 256.281)"><path fill="none" stroke="#000" d="M159.37-156.434c-1.56-9.386 1.817-17.847 10.13-17.847 6.105 0 9.547 4.563 10.328 10.704"/><path stroke="#000" d="M179.63-156.434l3.343-6.91-3.246 3.411.097-3.498h0l-.097 3.499-3.052-3.586 2.956 7.084h0z"/><text x="151" y="-177.681" font-family="Lato" font-size="12">!a &amp; b</text></g><g class="edge" transform="translate(4 256.281)"><path fill="none" stroke="#000" d="M181.127-156.533c6.698-8.83 15.954-18.61 26.873-23.748 63.539-29.9 101.734-42.016 158 0 13.008 9.713 24.876 51.892 31.5 79.746"/><path stroke="#000" d="M399.147-93.445l1.484-7.53-2.276 4.121-.792-3.409h0l.792 3.41-3.86-2.697 4.652 6.105h0z"/><text x="268.5" y="-210.681" font-family="Lato" font-size="12">a &amp; !b</text></g><g class="edge" transform="translate(4 256.281)"><path fill="none" stroke="#000" d="M189.664-135.833c16.845 2.751 40.985 8.385 59.336 19.552 7.514 4.572 14.47 11.045 20.321 17.5"/><path stroke="#000" d="M273.965-93.405l-2.192-7.356-.096 4.708-2.288-2.65h0l2.288 2.65-4.672-.59 6.96 3.238h0z"/><text x="208" y="-134.681" font-family="Lato" font-size="12">!a &amp; !b</text></g><g class="edge" transform="translate(4 256.281)"><path fill="none" stroke="#000" d="M391.332-56.943c-6.455 8.72-15.217 18.55-25.332 24.662-45.676 27.599-63.976 20.961-117 27-68.766 7.831-90.06 8.935-155-15-3.958-1.459-7.926-3.402-11.717-5.552"/><path stroke="#000" d="M76.105-29.6l4.337 6.334-1.348-4.512 2.988 1.822h0l-2.988-1.822 4.628-.867-7.617-.954h0z"/><text x="212.5" y="-8.681" font-family="Lato" font-size="12">a &amp; b</text></g><g class="edge" transform="translate(4 256.281)"><path fill="none" stroke="#000" d="M383.676-89.275C364.9-102.296 335.179-121.425 307-133.28c-24.542-10.326-31.587-11.64-58-15-18.077-2.3-22.925-2.31-41 0-3.673.47-7.497 1.18-11.247 2.012"/><path stroke="#000" d="M189.691-144.554l7.546 1.41-4.144-2.236 3.4-.826h0l-3.4.826 2.657-3.887-6.059 4.713h0z"/><text x="268.5" y="-148.681" font-family="Lato" font-size="12">!a &amp; b</text></g><g class="edge" transform="translate(4 256.281)"><path fill="none" stroke="#000" d="M392.87-93.434c-1.56-9.386 1.817-17.847 10.13-17.847 6.104 0 9.547 4.563 10.328 10.705"/><path stroke="#000" d="M413.13-93.434l3.343-6.91-3.245 3.411.096-3.498h0l-.096 3.498-3.053-3.585 2.956 7.084h0z"/><text x="384.5" y="-114.681" font-family="Lato" font-size="12">a &amp; !b</text></g><g class="edge" transform="translate(4 256.281)"><path fill="none" stroke="#000" d="M383.796-75.281h-69.39"/><path stroke="#000" d="M307.206-75.281l7 3.15-3.5-3.15h3.5-3.5l3.5-3.15-7 3.15h0z"/><text x="325" y="-78.681" font-family="Lato" font-size="12">!a &amp; !b</text></g><g class="edge" transform="translate(4 256.281)"><path fill="none" stroke="#000" d="M266.8-65.276c-19.207 8.902-49.187 21.227-76.8 25.995-36.63 6.325-79.746 2.726-106.73-.822"/><path stroke="#000" d="M76.107-41.094l6.502 4.08-3.035-3.6 3.466.479h0l-3.467-.48 3.9-2.64-7.366 2.16h0z"/><text x="153.5" y="-42.681" font-family="Lato" font-size="12">a &amp; b</text></g><g class="edge" transform="translate(4 256.281)"><path fill="none" stroke="#000" d="M266.715-78.567C250.045-81.92 226.282-88.238 208-99.28c-6.859-4.143-13.371-9.781-19.023-15.482"/><path stroke="#000" d="M184.043-119.975l2.524 7.249-.118-4.707 2.406 2.542h0l-2.406-2.542 4.694.376-7.1-2.918h0z"/><text x="210" y="-102.681" font-family="Lato" font-size="12">!a &amp; b</text></g><g class="edge" transform="translate(4 256.281)"><path fill="none" stroke="#000" d="M307.37-64.287c5.56 2.472 11.693 4.738 17.63 6.006 17.82 3.804 23.199 3.894 41 0 3.798-.831 7.672-2.09 11.414-3.553"/><path stroke="#000" d="M383.962-64.644l-7.675-.135 4.459 1.515-3.217 1.38h0l3.217-1.38-1.975 4.275 5.191-5.655h0z"/><text x="327" y="-61.681" font-family="Lato" font-size="12">a &amp; !b</text></g><g class="edge" transform="translate(4 256.281)"><path fill="none" stroke="#000" d="M276.507-93.434c-1.614-9.386 1.884-17.847 10.493-17.847 6.322 0 9.888 4.563 10.697 10.705"/><path stroke="#000" d="M297.493-93.434l3.349-6.907-3.25 3.409.101-3.499h0l-.1 3.499-3.049-3.59 2.949 7.088h0z"/><text x="266.5" y="-114.681" font-family="Lato" font-size="12">!a &amp; !b</text></g></g></svg>