<?xml-stylesheet href="spot.css" type="text/css"?><svg width="643pt" height="421pt" viewBox="0 0 643 420.72" xmlns="http://www.w3.org/2000/svg"><g class="graph" transform="translate(4 416.722)"><path fill="#fff" stroke="transparent" d="M-4 4v-420.722h643V4H-4z"/><g class="node"><ellipse fill="#ffffa0" stroke="#000" cx="118" cy="-313.722" rx="27" ry="18"/><text text-anchor="middle" x="118" y="-310.622" font-family="Lato" font-size="12">init</text></g><g class="edge"><path fill="none" stroke="#000" d="M54.303-313.722h29.196"/><path stroke="#000" d="M90.716-313.722l-7-3.15 3.5 3.15h-3.5 3.5l-3.5 3.15 7-3.15h0z"/></g><g class="node"><path fill="#ffffa0" stroke="#000" d="M267-181.722h-54v36h54v-36z"/><text text-anchor="middle" x="240" y="-160.622" font-family="Lato" font-size="12">1</text></g><g class="edge"><path fill="none" stroke="#000" d="M128.22-296.971c8.702 13.868 21.82 33.88 34.78 50.249 16.772 21.183 37.733 43.548 53.549 59.718"/><path stroke="#000" d="M221.702-181.768l-2.666-7.199.21 4.704-2.455-2.494h0l2.455 2.494-4.7-.285 7.156 2.78h0z"/><text text-anchor="middle" x="179" y="-263.122" font-family="Lato" font-size="12">a &amp; b</text><text text-anchor="middle" x="179" y="-250.122" font-family="Lato" font-size="12">{}</text></g><g class="node"><ellipse fill="#ffffa0" stroke="#000" cx="371" cy="-245.722" rx="27" ry="18"/><text text-anchor="middle" x="371" y="-242.622" font-family="Lato" font-size="12">2</text></g><g class="edge"><path fill="none" stroke="#000" d="M144.6-310.536c40.209 5.356 118.451 17.892 181.4 40.814 6.232 2.269 12.67 5.265 18.66 8.368"/><path stroke="#000" d="M350.952-257.974l-4.676-6.087 1.592 4.431-3.083-1.656h0l3.083 1.656-4.574 1.119 7.658.538h0z"/><text text-anchor="middle" x="240" y="-315.122" font-family="Lato" font-size="12">!a &amp; b</text><text text-anchor="middle" x="240" y="-302.122" font-family="Lato" font-size="12">{}</text></g><g class="node"><ellipse fill="#ffffa0" stroke="#000" cx="608" cy="-212.722" rx="27" ry="18"/><text text-anchor="middle" x="608" y="-209.622" font-family="Lato" font-size="12">4</text></g><g class="edge"><path fill="none" stroke="#000" d="M132.126-329.204c21.18-21.428 63.445-57.518 107.874-57.518h255c70.235 0 99.034 100.947 108.772 149.062"/><path stroke="#000" d="M605.124-230.688l1.76-7.472-2.426 4.036-.666-3.436h0l.666 3.436-3.759-2.836 4.425 6.272h0z"/><text text-anchor="middle" x="371" y="-403.122" font-family="Lato" font-size="12">a &amp; !b</text><text text-anchor="middle" x="371" y="-390.122" font-family="Lato" font-size="12">{}</text></g><g class="node"><ellipse fill="#ffffa0" stroke="#000" cx="495" cy="-196.722" rx="27" ry="18"/><text text-anchor="middle" x="495" y="-193.622" font-family="Lato" font-size="12">3</text></g><g class="edge"><path fill="none" stroke="#000" d="M143.457-319.79c29.782-6.21 80.5-14.026 123.543-6.932 84.732 13.963 114.972 9.591 183 62 8.24 6.348 21.848 27.815 31.946 44.952"/><path stroke="#000" d="M485.491-213.689l-.804-7.634-.958 4.61-1.763-3.023h0l1.763 3.023-4.484-1.437 6.246 4.461h0z"/><text text-anchor="middle" x="305.5" y="-340.122" font-family="Lato" font-size="12">!a &amp; !b</text><text text-anchor="middle" x="305.5" y="-327.122" font-family="Lato" font-size="12">{}</text></g><g class="edge"><path fill="none" stroke="#000" d="M267.071-171.038c17.729-5.58 40.872-14.408 58.929-26.684 10.483-7.127 20.333-17.094 28.13-26.1"/><path stroke="#000" d="M358.705-229.272l-6.913 3.335 4.663-.655-2.251 2.68h0l2.25-2.68.162 4.707 2.09-7.387h0z"/><text text-anchor="middle" x="305.5" y="-214.122" font-family="Lato" font-size="12">{a}</text><text text-anchor="middle" x="305.5" y="-201.122" font-family="Lato" font-size="12">{0,1}</text></g><g class="edge"><path fill="none" stroke="#000" d="M241.524-145.505c3.23 26.728 13.182 76.36 43.476 103.783 55.51 50.247 90.924 44.903 165 34 51.887-7.637 76.568 3.727 113-34 20.066-20.78 34.95-103.425 41.425-145.743"/><path stroke="#000" d="M605.5-194.63l-4.154 6.456 3.635-2.994-.52 3.46h0l.52-3.46 2.596 3.928-2.077-7.39h0z"/><text text-anchor="middle" x="433" y="-24.122" font-family="Lato" font-size="12">{b}</text><text text-anchor="middle" x="433" y="-11.122" font-family="Lato" font-size="12">{0,1}</text></g><g class="edge"><path fill="none" stroke="#000" d="M267.092-145.564C298.54-126.792 351.98-102.012 398-115.722c33.442-9.963 62.771-38.811 80.19-59.233"/><path stroke="#000" d="M482.78-180.47l-6.9 3.365 4.66-.674-2.239 2.69h0l2.24-2.69.181 4.705 2.058-7.395h0z"/><text text-anchor="middle" x="371" y="-132.122" font-family="Lato" font-size="12">{a, b}</text><text text-anchor="middle" x="371" y="-119.122" font-family="Lato" font-size="12">{0,1}</text></g><g class="edge"><path fill="none" stroke="#000" d="M343.91-243.482c-17.957 2.557-41.353 8.033-58.91 19.76-13.37 8.93-24.311 23.204-32.056 35.59"/><path stroke="#000" d="M249.189-181.866l6.3-4.386-4.501 1.383 1.799-3.002h0l-1.8 3.002-.902-4.621-.896 7.624h0z"/><text text-anchor="middle" x="305.5" y="-256.122" font-family="Lato" font-size="12">{a}</text><text text-anchor="middle" x="305.5" y="-243.122" font-family="Lato" font-size="12">{1}</text></g><g class="edge"><path fill="none" stroke="#000" d="M392.411-256.817c7.287-3.214 15.61-6.29 23.589-7.905 14.81-2.999 19.008-1.893 34 0 51.441 6.495 64.508 10.644 113 29 5.898 2.232 12.031 5.024 17.803 7.885"/><path stroke="#000" d="M587.376-224.475l-4.798-5.992 1.682 4.398-3.116-1.593h0l3.116 1.593-4.55 1.211 7.666.383h0z"/><text text-anchor="middle" x="495" y="-278.122" font-family="Lato" font-size="12">{a, b}</text><text text-anchor="middle" x="495" y="-265.122" font-family="Lato" font-size="12">{1}</text></g><g class="edge"><path fill="none" stroke="#000" d="M396.856-240.377c15.724 3.7 36.01 9.289 53.144 16.655 6.654 2.86 13.515 6.548 19.813 10.273"/><path stroke="#000" d="M475.895-209.74l-4.337-6.334 1.348 4.512-2.988-1.823h0l2.988 1.823-4.628.867 7.617.955h0z"/><text text-anchor="middle" x="433" y="-251.122" font-family="Lato" font-size="12">{b}</text><text text-anchor="middle" x="433" y="-238.122" font-family="Lato" font-size="12">{1}</text></g><g class="edge"><path fill="none" stroke="#000" d="M596.768-195.96c-8.373 11.662-20.597 27.064-33.768 38.238-44.181 37.48-57.024 50.049-113 65-71.477 19.09-99.974 13.284-165-22-11.097-6.022-20.922-15.835-28.538-25.104"/><path stroke="#000" d="M252.014-145.488l1.847 7.45.315-4.698 2.162 2.752h0l-2.162-2.752 4.64.806-6.802-3.558h0z"/><text text-anchor="middle" x="433" y="-109.122" font-family="Lato" font-size="12">{b}</text><text text-anchor="middle" x="433" y="-96.122" font-family="Lato" font-size="12">{0}</text></g><g class="edge"><path fill="none" stroke="#000" d="M596.277-229.243c-14.776-19.236-42.163-49.968-74.277-62.48-44.226-17.23-63.034-7.167-106 13-7.948 3.731-15.908 8.956-22.875 14.15"/><path stroke="#000" d="M387.527-260.251l7.466-1.785-4.695-.354 2.77-2.14h0l-2.77 2.14.845-4.633-3.616 6.772h0z"/><text text-anchor="middle" x="495" y="-316.122" font-family="Lato" font-size="12">{a, b}</text><text text-anchor="middle" x="495" y="-303.122" font-family="Lato" font-size="12">{0}</text></g><g class="edge"><path fill="none" stroke="#000" d="M597.693-196.003c-7.937 11.164-20.019 24.923-34.693 31.28-16.133 6.99-34.122-2.245-47.544-12.56"/><path stroke="#000" d="M510.002-181.726l3.438 6.863-.724-4.653 2.713 2.211h0l-2.713-2.21 4.703-.232-7.417-1.98h0z"/><text text-anchor="middle" x="551.5" y="-181.122" font-family="Lato" font-size="12">{a}</text><text text-anchor="middle" x="551.5" y="-168.122" font-family="Lato" font-size="12">{0}</text></g><g class="edge"><path fill="none" stroke="#000" d="M470.443-188.732c-6.581 1.894-13.733 3.732-20.443 5.01-61.261 11.66-133.934 16.657-175.736 18.696"/><path stroke="#000" d="M267.078-164.69l7.14 2.82-3.644-2.983 3.496-.164h0l-3.496.164 3.349-3.31-6.845 3.473h0z"/><text text-anchor="middle" x="371" y="-191.122" font-family="Lato" font-size="12">{a, b}</text><text text-anchor="middle" x="371" y="-178.122" font-family="Lato" font-size="12">{}</text></g><g class="edge"><path fill="none" stroke="#000" d="M469.672-190.119c-16.084 2.862-36.945 4.042-53.672-3.603-13.193-6.03-24-18.05-31.713-29.015"/><path stroke="#000" d="M380.325-228.676l1.265 7.571.677-4.66 1.943 2.912h0l-1.943-2.911 4.563 1.163-6.505-4.075h0z"/><text text-anchor="middle" x="433" y="-210.122" font-family="Lato" font-size="12">{b}</text><text text-anchor="middle" x="433" y="-197.122" font-family="Lato" font-size="12">{}</text></g><g class="edge"><path fill="none" stroke="#000" d="M521.494-200.474l52.774-7.472"/><path stroke="#000" d="M581.281-208.94l-7.372-2.137 3.907 2.629-3.466.49h0l3.466-.49-3.024 3.61 6.489-4.101h0z"/><text text-anchor="middle" x="551.5" y="-222.122" font-family="Lato" font-size="12">{a}</text><text text-anchor="middle" x="551.5" y="-209.122" font-family="Lato" font-size="12">{}</text></g></g></svg>