<?xml-stylesheet href="spot.css" type="text/css"?><svg width="484" height="133pt" viewBox="0 0 363 133.4" xmlns="http://www.w3.org/2000/svg"><g class="graph" transform="translate(4 129.4)"><path fill="#fff" stroke="transparent" d="M-4 4v-133.4h363V4H-4z"/><text x="156" y="-98.8" font-family="Lato" font-size="12">[Büchi]</text><g class="node"><circle fill="#ffffa0" stroke="#000" cx="56" cy="-61" r="18"/><text text-anchor="middle" x="56" y="-57.9" font-family="Lato" font-size="12">1</text></g><g class="edge"><path fill="none" stroke="#000" d="M1.123-61h29.801"/><path stroke="#000" d="M37.98-61l-7-3.15 3.5 3.15h-3.5 3.5l-3.5 3.15 7-3.15h0z"/></g><g class="node"><circle fill="#ffffa0" stroke="#000" cx="249" cy="-67" r="18"/><text text-anchor="middle" x="249" y="-63.9" font-family="Lato" font-size="12">0</text></g><g class="edge"><path fill="none" stroke="#000" d="M73.436-66.393C85.75-69.912 102.715-74.177 118-76c36.83-4.392 79.76.434 106.16 4.535"/><path stroke="#000" d="M231.149-70.335l-6.408-4.227 2.952 3.668-3.455-.558h0l3.455.558-3.957 2.552 7.413-1.993h0z"/><text x="129.5" y="-80.4" font-family="Lato" font-size="12">!a</text></g><g class="node"><circle fill="#ffffa0" stroke="#000" cx="136" cy="-18" r="18"/><text text-anchor="middle" x="136" y="-14.9" font-family="Lato" font-size="12">2</text></g><g class="edge"><path fill="none" stroke="#000" d="M72.19-52.298l41.728 22.429"/><path stroke="#000" d="M120.108-26.542l-4.675-6.089 1.592 4.432-3.083-1.657h0l3.083 1.657-4.574 1.117 7.657.54h0z"/><text x="92" y="-43.4" font-family="Lato" font-size="12">a</text></g><g class="node"><circle fill="#ffffa0" stroke="#000" cx="333" cy="-34" r="18"/><circle fill="none" stroke="#000" cx="333" cy="-34" r="22"/><text text-anchor="middle" x="333" y="-30.9" font-family="Lato" font-size="12">3</text></g><g class="edge"><path fill="none" stroke="#000" d="M265.999-60.322l39.848 15.655"/><path stroke="#000" d="M312.465-42.067L307.1-47.56l2.106 4.212-3.257-1.28h0l3.257 1.28-4.41 1.652 7.668-.372h0z"/><text x="285" y="-55.4" font-family="Lato" font-size="12">b</text></g><g class="edge"><path fill="none" stroke="#000" d="M324.994-54.58C323.886-64.846 326.554-74 333-74c4.834 0 7.544 5.15 8.129 12.055"/><path stroke="#000" d="M341.006-54.58l3.267-6.947-3.208 3.447.058-3.5h0l-.058 3.5-3.091-3.552 3.032 7.051h0z"/><text text-anchor="middle" x="333" y="-77.4" font-family="Lato" font-size="12">1</text></g><g class="edge"><path fill="none" stroke="#000" d="M152.673-25.23l72.904-31.613"/><path stroke="#000" d="M232.258-59.74l-7.675-.105 4.464 1.497-3.211 1.393h0l3.211-1.393-1.958 4.283 5.17-5.675h0z"/><text x="172" y="-54.4" font-family="Lato" font-size="12">!a &amp; !b</text></g><g class="edge"><path fill="none" stroke="#000" d="M154.242-19.04C179.567-20.53 226.803-23.488 267-27c12.053-1.053 25.322-2.42 36.781-3.666"/><path stroke="#000" d="M311.02-31.463l-7.303-2.365 3.824 2.749-3.48.383h0l3.48-.383-3.135 3.514 6.614-3.898h0z"/><text x="245" y="-30.4" font-family="Lato" font-size="12">b</text></g><g class="edge"><path fill="none" stroke="#000" d="M128.969-34.664C127.406-44.625 129.75-54 136-54c4.688 0 7.178 5.273 7.47 12.112"/><path stroke="#000" d="M143.031-34.664l3.57-6.796-3.357 3.302.212-3.493h0l-.212 3.493-2.932-3.684 2.72 7.178h0z"/><text x="117.5" y="-57.4" font-family="Lato" font-size="12">a &amp; !b</text></g></g></svg>