<?xml-stylesheet href="spot.css" type="text/css"?><svg width="311pt" height="163pt" viewBox="0 0 311 163.4" xmlns="http://www.w3.org/2000/svg"><g class="graph" transform="translate(4 159.4)"><path fill="#fff" stroke="transparent" d="M-4 4v-163.4h311V4H-4z"/><text x="130" y="-128.8" font-family="Lato" font-size="12">[Büchi]</text><g class="node"><circle fill="#ffffa0" stroke="#ff4da0" stroke-width="2" cx="56" cy="-67" r="18"/><text text-anchor="middle" x="56" y="-63.9" font-family="Lato" font-size="12">0</text></g><g class="edge"><path fill="none" stroke="#000" d="M1.123-67h29.801"/><path stroke="#000" d="M37.98-67l-7-3.15 3.5 3.15h-3.5 3.5l-3.5 3.15 7-3.15h0z"/></g><g class="edge"><path fill="none" stroke="#ff4da0" stroke-width="2" d="M49.62-84.037C48.32-93.857 50.446-103 56-103c4.166 0 6.404 5.142 6.713 11.857"/><path fill="#ff4da0" stroke="#ff4da0" stroke-width="2" d="M62.38-84.037l3.474-6.845-2.811 3.372.164-3.496-.5-.024-.499-.023-.164 3.496-2.483-3.62 2.818 7.14h0z"/><text x="52" y="-106.4" font-family="Lato" font-size="12">b</text></g><g class="node"><circle fill="#ffffa0" stroke="#000" cx="281" cy="-67" r="18"/><circle fill="none" stroke="#000" cx="281" cy="-67" r="22"/><text text-anchor="middle" x="281" y="-63.9" font-family="Lato" font-size="12">1</text></g><g class="edge"><path fill="none" stroke="#ff4da0" stroke-width="2" d="M73.638-71.537C90.918-75.73 118.068-81.657 142-84c38.203-3.74 82.157 3.6 110.235 9.775"/><path fill="#ff4da0" stroke="#ff4da0" stroke-width="2" d="M259.367-72.606l-6.13-4.621 2.827 3.359-3.413-.775-.11.488-.111.487 3.413.775-4 1.81 7.524-1.523h0z"/><text x="145.5" y="-88.4" font-family="Lato" font-size="12">!a &amp; b</text></g><g class="node"><circle fill="#ffffa0" stroke="#000" cx="164" cy="-22" r="18"/><circle fill="none" stroke="#000" cx="164" cy="-22" r="22"/><text text-anchor="middle" x="164" y="-18.9" font-family="Lato" font-size="12">2</text></g><g class="edge"><path fill="none" stroke="#ff4da0" stroke-width="2" d="M72.875-59.969l64.143 26.727"/><path fill="#ff4da0" stroke="#ff4da0" stroke-width="2" d="M143.56-30.517l-5.25-5.6 2.21 3.792-3.23-1.346-.192.462-.193.461 3.231 1.346-4.25 1.1 7.673-.215h0z"/><text x="92" y="-54.4" font-family="Lato" font-size="12">a &amp; b</text></g><g class="edge"><path fill="none" stroke="#000" d="M270.574-86.757C268.802-97.35 272.277-107 281-107c6.678 0 10.28 5.657 10.807 13.062"/><path stroke="#000" d="M291.426-86.757l3.517-6.824-3.331 3.328.185-3.495h0l-.185 3.495-2.96-3.662 2.774 7.158h0z"/><text x="277" y="-110.4" font-family="Lato" font-size="12">b</text></g><g class="edge"><path fill="none" stroke="#000" d="M184.648-29.942l68.96-26.522"/><path stroke="#000" d="M260.165-58.986l-7.664-.428 4.397 1.684-3.267 1.256h0l3.267-1.256-2.136 4.196 5.403-5.453h0z"/><text x="204" y="-54.4" font-family="Lato" font-size="12">!a &amp; b</text></g><g class="edge"><path fill="none" stroke="#000" d="M153.933-41.758C152.223-52.35 155.578-62 164-62c6.448 0 9.926 5.657 10.435 13.062"/><path stroke="#000" d="M174.067-41.758l3.504-6.83-3.325 3.335.18-3.495h0l-.18 3.495-2.967-3.657 2.788 7.152h0z"/><text x="160" y="-65.4" font-family="Lato" font-size="12">a</text></g></g></svg>