<?xml-stylesheet href="spot.css" type="text/css"?><svg width="260" height="160" viewBox="0 0 195 120.32" xmlns="http://www.w3.org/2000/svg"><g class="graph" transform="translate(4 116.322)"><path fill="#fff" stroke="transparent" d="M-4 4v-120.322h195V4H-4z"/><text x="73.5" y="-99.722" font-family="Lato" font-size="12">Fin(</text><text x="95.5" y="-99.722" font-family="Lato" font-size="12" fill="#1f78b4">⓿</text><text x="108.5" y="-99.722" font-family="Lato" font-size="12">)</text><text x="63" y="-87.722" font-family="Lato" font-size="12">[co-Büchi]</text><g class="node"><circle fill="#ffffa0" stroke="#000" cx="56" cy="-31.322" r="18"/><text text-anchor="middle" x="56" y="-28.222" font-family="Lato" font-size="12">0</text></g><g class="edge"><path fill="none" stroke="#000" d="M1.123-31.322h29.801"/><path stroke="#000" d="M37.98-31.322l-7-3.15 3.5 3.15h-3.5 3.5l-3.5 3.15 7-3.15h0z"/></g><g class="edge"><path fill="none" stroke="#000" d="M49.62-48.36c-1.301-9.82.825-18.962 6.38-18.962 4.166 0 6.404 5.143 6.713 11.857"/><path stroke="#000" d="M62.38-48.36l3.474-6.844-3.31 3.349.164-3.496h0l-.165 3.496-2.982-3.644 2.818 7.14h0z"/><text x="49.5" y="-70.722" font-family="Lato" font-size="12">!a</text></g><g class="node"><circle fill="#ffffa0" stroke="#000" cx="169" cy="-31.322" r="18"/><text text-anchor="middle" x="169" y="-28.222" font-family="Lato" font-size="12">1</text></g><g class="edge"><path fill="none" stroke="#000" d="M73.927-33.111c5.764-.496 12.183-.966 18.073-1.21 18.207-.758 22.793-.758 41 0 3.59.148 7.375.381 11.089.652"/><path stroke="#000" d="M151.073-33.111l-6.727-3.697 3.238 3.418-3.489-.278h0l3.49.278-3.74 2.862 7.228-2.583h0z"/><text x="108.5" y="-50.722" font-family="Lato" font-size="12">a</text><text x="106" y="-37.722" font-family="Lato" font-size="12" fill="#1f78b4">⓿</text></g><g class="edge"><path fill="none" stroke="#000" d="M156.19-18.5C149.795-13 141.597-7.188 133-4.322c-17.287 5.763-23.713 5.763-41 0-6.18-2.06-12.152-5.642-17.398-9.536"/><path stroke="#000" d="M68.81-18.5l3.492 6.836-.76-4.647 2.73 2.189h0l-2.73-2.19 4.7-.268-7.432-1.92h0z"/><text x="92" y="-20.722" font-family="Lato" font-size="12">!a &amp; !b</text><text x="106" y="-7.722" font-family="Lato" font-size="12" fill="#1f78b4">⓿</text></g><g class="edge"><path fill="none" stroke="#000" d="M159.425-46.863c-2.695-10.367.497-20.459 9.575-20.459 6.95 0 10.45 5.916 10.5 13.341"/><path stroke="#000" d="M178.575-46.863L182.6-53.4l-3.574 3.065.45-3.47h0l-.45 3.47-2.673-3.877 2.222 7.348h0z"/><text x="155.5" y="-70.722" font-family="Lato" font-size="12">a | b</text></g></g></svg>