<?xml-stylesheet href="spot.css" type="text/css"?><svg width="191pt" height="205pt" viewBox="0 0 191 205" xmlns="http://www.w3.org/2000/svg"><g class="graph" transform="translate(4 201)"><path fill="#fff" stroke="transparent" d="M-4 4v-205h191V4H-4z"/><text x="72" y="-184.4" font-family="Lato" font-size="12">Inf(</text><text x="93" y="-184.4" font-family="Lato" font-size="12" fill="#1f78b4">⓿</text><text x="106" y="-184.4" font-family="Lato" font-size="12">)</text><text x="70" y="-172.4" font-family="Lato" font-size="12">[Büchi]</text><g class="node"><circle fill="#ffffa0" stroke="#ff4da0" stroke-width="2" cx="56" cy="-67" r="18"/><text text-anchor="middle" x="56" y="-63.9" font-family="Lato" font-size="12">0</text></g><g class="edge"><path fill="none" stroke="#000" d="M1.123-67h29.801"/><path stroke="#000" d="M37.98-67l-7-3.15 3.5 3.15h-3.5 3.5l-3.5 3.15 7-3.15h0z"/></g><g class="edge"><path fill="none" stroke="#000" d="M49.62-84.037C48.32-93.857 50.446-103 56-103c4.166 0 6.404 5.142 6.713 11.857"/><path stroke="#000" d="M62.38-84.037l3.474-6.845-3.31 3.349.164-3.497h0l-.165 3.496-2.982-3.643 2.818 7.14h0z"/><text x="52" y="-119.4" font-family="Lato" font-size="12">a</text><text x="49.5" y="-106.4" font-family="Lato" font-size="12" fill="#1f78b4">⓿</text></g><g class="node"><circle fill="#ffffa0" stroke="#000" cx="165" cy="-103" r="18"/><text text-anchor="middle" x="165" y="-99.9" font-family="Lato" font-size="12">1</text></g><g class="edge"><path fill="none" stroke="#ff4da0" stroke-width="2" d="M72.749-73.827C78.779-76.2 85.659-78.816 92-81c15.986-5.508 34.193-10.996 48.425-15.114"/><path fill="#ff4da0" stroke="#ff4da0" stroke-width="2" d="M147.473-98.135l-7.597-1.098 4.094 1.583-3.364.964.138.481.138.48 3.364-.964-2.634 3.512 5.86-4.958h0z"/><text x="92" y="-95.4" font-family="Lato" font-size="12">!a &amp; b</text></g><g class="node"><circle fill="#ffffa0" stroke="#000" cx="165" cy="-18" r="18"/><text text-anchor="middle" x="165" y="-14.9" font-family="Lato" font-size="12">2</text></g><g class="edge"><path fill="none" stroke="#ff4da0" stroke-width="2" d="M73.766-63.484C88.97-60.052 111.163-54.018 129-45c5.713 2.888 11.457 6.694 16.626 10.533"/><path fill="#ff4da0" stroke="#ff4da0" stroke-width="2" d="M151.395-29.997l-3.604-6.777 1.144 4.238-2.767-2.144-.306.396-.306.395 2.766 2.144-4.39-.05 7.463 1.798h0z"/><text x="104" y="-61.4" font-family="Lato" font-size="12">!a</text></g><g class="edge"><path fill="none" stroke="#000" d="M155.767-118.541C153.168-128.91 156.247-139 165-139c6.702 0 10.077 5.915 10.125 13.34"/><path stroke="#000" d="M174.233-118.541l3.996-6.555-3.561 3.082.435-3.473h0l-.435 3.473-2.69-3.865 2.255 7.338h0z"/><text x="161" y="-155.4" font-family="Lato" font-size="12">b</text><text x="158.5" y="-142.4" font-family="Lato" font-size="12" fill="#1f78b4">⓿</text></g><g class="edge"><path fill="none" stroke="#000" d="M147.709-12.633C132.205-8.861 109.303-5.934 92-15c-11.598-6.077-20.203-17.776-26.086-28.54"/><path stroke="#000" d="M62.6-50.063l.362 7.667 1.224-4.547 1.585 3.12h0l-1.585-3.12 4.393 1.694-5.979-4.814h0z"/><text x="106.5" y="-31.4" font-family="Lato" font-size="12">a</text><text x="104" y="-18.4" font-family="Lato" font-size="12" fill="#1f78b4">⓿</text></g><g class="edge"><path fill="none" stroke="#000" d="M155.767-33.541C153.168-43.91 156.247-54 165-54c6.702 0 10.077 5.915 10.125 13.34"/><path stroke="#000" d="M174.233-33.541l3.996-6.555-3.561 3.082.435-3.473h0l-.435 3.473-2.69-3.865 2.255 7.338h0z"/><text x="158.5" y="-57.4" font-family="Lato" font-size="12">!a</text></g></g></svg>