<?xml-stylesheet href="spot.css" type="text/css"?><svg width="535pt" height="340pt" viewBox="0 0 534.5 340" xmlns="http://www.w3.org/2000/svg"><g class="graph" transform="translate(4 336)"><path fill="#fff" stroke="transparent" d="M-4 4v-340h534.5V4H-4z"/><text x="219.25" y="-319.4" font-family="Lato" font-size="12">Fin(</text><text x="241.25" y="-319.4" font-family="Lato" font-size="12" fill="#1f78b4">⓿</text><text x="254.25" y="-319.4" font-family="Lato" font-size="12">) | Inf(</text><text x="291.25" y="-319.4" font-family="Lato" font-size="12" fill="#ff4da0">❶</text><text x="302.25" y="-319.4" font-family="Lato" font-size="12">)</text><text x="232.25" y="-307.4" font-family="Lato" font-size="12">[Streett 1]</text><g class="node"><path fill="#ffffa0" stroke="#000" d="M62-191H50c-6 0-12 6-12 12v12c0 6 6 12 12 12h12c6 0 12-6 12-12v-12c0-6-6-12-12-12"/><text x="52" y="-176.4" font-family="Lato" font-size="12">2</text><text x="50.5" y="-163.4" font-family="Lato" font-size="12" fill="#ff4da0">❶</text></g><g class="edge"><path fill="none" stroke="#000" d="M1.123-173h29.801"/><path stroke="#000" d="M37.98-173l-7-3.15 3.5 3.15h-3.5 3.5l-3.5 3.15 7-3.15h0z"/></g><g class="node"><path fill="#ffffa0" stroke="#000" d="M173.5-242h-12c-6 0-12 6-12 12v12c0 6 6 12 12 12h12c6 0 12-6 12-12v-12c0-6-6-12-12-12"/><text x="163.5" y="-227.4" font-family="Lato" font-size="12">1</text><text x="162" y="-214.4" font-family="Lato" font-size="12" fill="#ff4da0">❶</text></g><g class="edge"><path fill="none" stroke="#000" d="M73.867-191.158C79.317-195.896 85.579-200.617 92-204c15.67-8.257 35.006-13.294 50.187-16.249"/><path stroke="#000" d="M149.271-221.536l-7.45-1.848 4.006 2.474-3.443.626h0l3.443-.626-2.88 3.725 6.324-4.351h0z"/><text x="92" y="-220.4" font-family="Lato" font-size="12">a &amp; !b</text></g><g class="edge"><path fill="none" stroke="#000" d="M74.034-173.614c15.372-1.17 37.66-4.43 54.966-13.386 6.669-3.45 12.972-8.422 18.473-13.606"/><path stroke="#000" d="M152.69-205.813l-7.18 2.715 4.703-.243-2.477 2.473h0l2.477-2.473-.252 4.702 2.73-7.174h0z"/><text x="94.5" y="-190.4" font-family="Lato" font-size="12">a &amp; b</text></g><g class="node"><path fill="#ffffa0" stroke="#000" d="M289-152h-12c-6 0-12 6-12 12v12c0 6 6 12 12 12h12c6 0 12-6 12-12v-12c0-6-6-12-12-12"/><text x="279" y="-137.4" font-family="Lato" font-size="12">3</text><text x="277.5" y="-124.4" font-family="Lato" font-size="12" fill="#ff4da0">❶</text></g><g class="edge"><path fill="none" stroke="#000" d="M74.193-169.874l183.57 31.538"/><path stroke="#000" d="M264.72-137.14l-6.365-4.29 2.916 3.697-3.45-.593h0l3.45.593-3.983 2.512 7.433-1.92h0z"/><text x="147" y="-159.4" font-family="Lato" font-size="12">!a &amp; !b</text></g><g class="edge"><path fill="none" stroke="#000" d="M74.044-162.261C91.868-152.344 120.266-138.365 147-133c37.878 7.601 82.892 5.077 110.448 2.266"/><path stroke="#000" d="M264.737-131.526l-7.3-2.375 3.82 2.753-3.48.379h0l3.48-.379-3.139 3.51 6.619-3.888h0z"/><text x="149" y="-136.4" font-family="Lato" font-size="12">!a &amp; b</text></g><g class="node"><path fill="#ffffa0" stroke="#000" d="M512-176h-12c-6 0-12 6-12 12v12c0 6 6 12 12 12h12c6 0 12-6 12-12v-12c0-6-6-12-12-12"/><text x="502" y="-161.4" font-family="Lato" font-size="12">0</text><text x="500.5" y="-148.4" font-family="Lato" font-size="12" fill="#ff4da0">❶</text></g><g class="edge"><path fill="none" stroke="#000" d="M503.558-176.153c-.376-9.386.438-17.847 2.442-17.847 1.472 0 2.302 4.563 2.49 10.705"/><path stroke="#000" d="M508.442-176.153l3.197-6.978-3.173 3.478.023-3.5h0l-.023 3.5-3.127-3.52 3.103 7.02h0z"/><text x="485.5" y="-197.4" font-family="Lato" font-size="12">!a &amp; !b</text></g><g class="edge"><path fill="none" stroke="#000" d="M501.906-176.258C499.784-193.402 501.149-212 506-212c4.17 0 5.763 13.735 4.782 28.479"/><path stroke="#000" d="M510.094-176.258l3.796-6.671-3.466 3.187.33-3.484h0l-.33 3.484-2.806-3.782 2.476 7.266h0z"/><text x="487.5" y="-215.4" font-family="Lato" font-size="12">a &amp; !b</text></g><g class="edge"><path fill="none" stroke="#000" d="M500.876-176.078C496.342-200.41 498.05-230 506-230c7.204 0 9.283 24.302 6.234 46.969"/><path stroke="#000" d="M511.124-176.078l4.214-6.416-3.662 2.96.552-3.457h0l-.552 3.457-2.559-3.953 2.007 7.409h0z"/><text x="487.5" y="-233.4" font-family="Lato" font-size="12">!a &amp; b</text></g><g class="edge"><path fill="none" stroke="#000" d="M500.132-176.112C492.917-207.24 494.873-248 506-248c10.301 0 12.742 34.934 7.323 64.818"/><path stroke="#000" d="M511.868-176.112l4.496-6.222-3.79 2.793.705-3.428h0l-.706 3.428-2.38-4.063 1.675 7.492h0z"/><text x="490" y="-251.4" font-family="Lato" font-size="12">a &amp; b</text></g><g class="edge"><path fill="none" stroke="#000" d="M185.788-231.642C236.07-251.336 378.714-298.208 470-238c18.408 12.14 27.509 36.137 31.942 54.696"/><path stroke="#000" d="M503.472-176.242l1.597-7.508-2.338 4.088-.74-3.421h0l.74 3.42-3.82-2.753 4.561 6.174h0z"/><text x="321" y="-270.4" font-family="Lato" font-size="12">!a &amp; b</text></g><g class="edge"><path fill="none" stroke="#000" d="M185.547-222.404c47.4 4.5 179.04 18.989 284.453 49.404 3.74 1.08 7.617 2.43 11.38 3.877"/><path stroke="#000" d="M487.975-166.454L482.668-172l2.063 4.233-3.245-1.313h0l3.245 1.313-4.426 1.607 7.67-.294h0z"/><text x="323.5" y="-208.4" font-family="Lato" font-size="12">a &amp; b</text></g><g class="edge"><path fill="none" stroke="#000" d="M157.37-242.153C155.81-251.539 159.186-260 167.5-260c6.105 0 9.547 4.563 10.328 10.705"/><path stroke="#000" d="M177.63-242.153l3.343-6.91-3.246 3.412.097-3.499h0l-.097 3.499-3.052-3.586 2.956 7.084h0z"/><text x="149" y="-263.4" font-family="Lato" font-size="12">a &amp; !b</text></g><g class="edge"><path fill="none" stroke="#000" d="M185.788-210.915c6.355 4.477 13.557 9.475 20.212 13.915 17.949 11.976 24.25 12.397 41 26 5.109 4.15 10.25 8.963 14.983 13.718"/><path stroke="#000" d="M266.938-152.179l-2.617-7.216.179 4.705-2.439-2.51h0l2.439 2.51-4.698-.316 7.136 2.827h0z"/><text x="206" y="-200.4" font-family="Lato" font-size="12">!a &amp; !b</text></g><g class="edge"><path fill="none" stroke="#000" d="M301.338-142.423c5.56-2.198 11.762-4.306 17.662-5.577 56.822-12.24 125.483-12.26 161.733-11.16"/><path stroke="#000" d="M487.96-158.912l-6.888-3.388 3.39 3.268-3.498-.12h0l3.498.12-3.606 3.028 7.104-2.908h0z"/><text x="378" y="-161.4" font-family="Lato" font-size="12">!a &amp; b</text></g><g class="edge"><path fill="none" stroke="#000" d="M301.01-133.728c25.483.169 73.472-.31 113.99-5.272 22.486-2.754 47.672-8.2 65.837-12.558"/><path stroke="#000" d="M487.677-153.227l-7.547-1.4 4.147 2.23-3.4.83h0l3.4-.83-2.654 3.89 6.054-4.72h0z"/><text x="380.5" y="-142.4" font-family="Lato" font-size="12">a &amp; b</text></g><g class="node"><path fill="#ffffa0" stroke="#000" d="M402.5-36h-12c-6 0-12 6-12 12v12c0 6 6 12 12 12h12c6 0 12-6 12-12v-12c0-6-6-12-12-12"/><text x="392.5" y="-21.4" font-family="Lato" font-size="12">4</text><text x="390" y="-8.4" font-family="Lato" font-size="12" fill="#1f78b4">⓿</text></g><g class="edge"><path fill="none" stroke="#000" d="M300.734-115.875l72.818 74.421"/><path stroke="#000" d="M378.516-36.38l-2.644-7.207.196 4.705-2.448-2.502h0l2.448 2.502-4.7-.299 7.148 2.8h0z"/><text x="319" y="-100.4" font-family="Lato" font-size="12">!a &amp; !b</text></g><g class="edge"><path fill="none" stroke="#000" d="M284.939-115.86C288.202-94.425 296.789-59.141 319-39c14.149 12.83 35.353 17.943 52.007 19.923"/><path stroke="#000" d="M378.296-18.371l-6.663-3.81 3.18 3.472-3.484-.337h0l3.484.337-3.787 2.798 7.27-2.46h0z"/><text x="321" y="-42.4" font-family="Lato" font-size="12">a &amp; !b</text></g><g class="edge"><path fill="none" stroke="#000" d="M412.115-36.081C427.284-53.837 450.776-81.843 470-107c6.63-8.676 13.617-18.422 19.654-27.053"/><path stroke="#000" d="M493.665-139.822l-6.583 3.95 4.585-1.076-1.998 2.873h0l1.998-2.873.588 4.672 1.41-7.546h0z"/><text x="433" y="-110.4" font-family="Lato" font-size="12">!a &amp; b</text></g><g class="edge"><path fill="none" stroke="#000" d="M414.674-20.404C431.254-23.527 455.342-30.544 470-46c22.514-23.74 30.948-61.622 34.107-86.654"/><path stroke="#000" d="M504.897-139.665l-3.914 6.603 3.522-3.125-.392 3.478h0l.392-3.478 2.739 3.83-2.347-7.308h0z"/><text x="435.5" y="-49.4" font-family="Lato" font-size="12">a &amp; b</text></g><g class="edge"><path fill="none" stroke="#000" d="M391.615-36.153C390.865-45.539 392.493-54 396.5-54c2.943 0 4.603 4.563 4.98 10.705"/><path stroke="#000" d="M401.385-36.153l3.243-6.957-3.197 3.458.047-3.5h0l-.047 3.5-3.103-3.542 3.057 7.041h0z"/><text x="376" y="-57.4" font-family="Lato" font-size="12">!a &amp; !b</text></g><g class="edge"><path fill="none" stroke="#000" d="M388.313-36.258C384.068-53.402 386.797-72 396.5-72c8.339 0 11.527 13.735 9.564 28.479"/><path stroke="#000" d="M404.687-36.258l4.399-6.29-3.747 2.852.652-3.44h0l-.652 3.44-2.443-4.026 1.791 7.464h0z"/><text x="378" y="-75.4" font-family="Lato" font-size="12">a &amp; !b</text></g></g></svg>