<?xml-stylesheet href="spot.css" type="text/css"?><svg width="295pt" height="109pt" viewBox="0 0 295 109" xmlns="http://www.w3.org/2000/svg"><g class="graph" transform="translate(4 105)"><path fill="#fff" stroke="transparent" d="M-4 4v-109h295V4H-4z"/><text x="141" y="-87.4" font-family="Lato" font-size="12">t</text><text x="132" y="-74.4" font-family="Lato" font-size="12">[all]</text><g class="node"><circle fill="#ffffa0" stroke="#ff4da0" stroke-width="2" cx="56" cy="-18" r="18"/><text text-anchor="middle" x="56" y="-14.9" font-family="Lato" font-size="12">0</text></g><g class="edge"><path fill="none" stroke="#000" d="M1.123-18h29.801"/><path stroke="#000" d="M37.98-18l-7-3.15 3.5 3.15h-3.5 3.5l-3.5 3.15 7-3.15h0z"/></g><g class="edge"><path fill="none" stroke="#ff4da0" stroke-width="2" d="M49.62-35.037C48.32-44.857 50.446-54 56-54c4.166 0 6.404 5.142 6.713 11.857"/><path fill="#ff4da0" stroke="#ff4da0" stroke-width="2" d="M62.38-35.037l3.474-6.845-2.811 3.372.164-3.496-.5-.024-.499-.023-.164 3.496-2.483-3.62 2.818 7.14h0z"/><text x="52" y="-57.4" font-family="Lato" font-size="12">b</text></g><g class="node"><circle fill="#ffffa0" stroke="#000" cx="160" cy="-18" r="18"/><text text-anchor="middle" x="160" y="-14.9" font-family="Lato" font-size="12">2</text></g><g class="edge"><path fill="none" stroke="#ff4da0" stroke-width="2" d="M74.115-18h60.537"/><path fill="#ff4da0" stroke="#ff4da0" stroke-width="2" d="M141.743-18l-7-3.15 3.5 2.65h-3.5v1h3.5l-3.5 2.65 7-3.15h0z"/><text x="92" y="-21.4" font-family="Lato" font-size="12">a &amp; b</text></g><g class="edge"><path fill="none" stroke="#000" d="M151.021-33.916C148.68-44.15 151.671-54 160-54c6.376 0 9.625 5.774 9.746 13.073"/><path stroke="#000" d="M168.979-33.916l3.893-6.616-3.512 3.137.38-3.48h0l-.38 3.48-2.75-3.822 2.369 7.301h0z"/><text x="156" y="-57.4" font-family="Lato" font-size="12">a</text></g><g class="node"><circle fill="#ffffa0" stroke="#000" cx="269" cy="-18" r="18"/><text text-anchor="middle" x="269" y="-14.9" font-family="Lato" font-size="12">1</text></g><g class="edge"><path fill="none" stroke="#000" d="M178.49-18h65.049"/><path stroke="#000" d="M250.783-18l-7-3.15 3.5 3.15h-3.5 3.5l-3.5 3.15 7-3.15h0z"/><text x="196" y="-21.4" font-family="Lato" font-size="12">!a &amp; b</text></g><g class="edge"><path fill="none" stroke="#000" d="M259.767-33.541C257.168-43.91 260.247-54 269-54c6.702 0 10.077 5.915 10.125 13.34"/><path stroke="#000" d="M278.233-33.541l3.996-6.555-3.561 3.082.435-3.473h0l-.435 3.473-2.69-3.865 2.255 7.338h0z"/><text x="265" y="-57.4" font-family="Lato" font-size="12">b</text></g></g></svg>