<?xml-stylesheet href="spot.css" type="text/css"?><svg width="409pt" height="148" viewBox="0 0 409 110.7" xmlns="http://www.w3.org/2000/svg"><g class="graph" transform="translate(4 106.699)"><path fill="#fff" stroke="transparent" d="M-4 4v-110.699h409V4H-4z"/><text x="198" y="-89.099" font-family="Lato" font-size="12">t</text><text x="189" y="-76.099" font-family="Lato" font-size="12">[all]</text><g class="node"><circle fill="#ffffa0" stroke="#000" cx="56" cy="-19.699" r="18"/><text text-anchor="middle" x="56" y="-16.599" font-family="Lato" font-size="12">2</text></g><g class="edge"><path fill="none" stroke="#000" d="M1.123-19.699h29.801"/><path stroke="#000" d="M37.98-19.699l-7-3.15 3.5 3.15h-3.5 3.5l-3.5 3.15 7-3.15h0z"/></g><g class="edge"><path fill="none" stroke="#000" d="M49.62-36.736c-1.301-9.82.825-18.963 6.38-18.963 4.166 0 6.404 5.143 6.713 11.857"/><path stroke="#000" d="M62.38-36.736l3.474-6.844-3.31 3.348.164-3.496h0l-.165 3.496-2.982-3.644 2.818 7.14h0z"/><text x="37.5" y="-59.099" font-family="Lato" font-size="12">!a &amp; b</text></g><g class="node"><circle fill="#ffffa0" stroke="#000" cx="165" cy="-19.699" r="18"/><text text-anchor="middle" x="165" y="-16.599" font-family="Lato" font-size="12">1</text></g><g class="edge"><path fill="none" stroke="#000" d="M74.49-19.699h65.049"/><path stroke="#000" d="M146.783-19.699l-7-3.15 3.5 3.15h-3.5 3.5l-3.5 3.15 7-3.15h0z"/><text x="94.5" y="-23.099" font-family="Lato" font-size="12">a &amp; b</text></g><g class="node"><circle fill="#ffffa0" stroke="#000" cx="383" cy="-19.699" r="18"/><text text-anchor="middle" x="383" y="-16.599" font-family="Lato" font-size="12">0</text></g><g class="edge"><path fill="none" stroke="#000" d="M373.767-35.24c-2.599-10.367.48-20.459 9.233-20.459 6.702 0 10.077 5.916 10.125 13.341"/><path stroke="#000" d="M392.233-35.24l3.996-6.554-3.561 3.081.435-3.473h0l-.435 3.473-2.69-3.864 2.255 7.337h0z"/><text x="379" y="-59.099" font-family="Lato" font-size="12">b</text></g><g class="edge"><path fill="none" stroke="#000" d="M149.415-10.5c-6.144 3.128-13.4 6.229-20.415 7.801C112.954.9 108.046.9 92-2.699c-4.713-1.056-9.535-2.803-14.055-4.784"/><path stroke="#000" d="M71.585-10.5l4.974 5.847L74.747-9l3.162 1.5h0L74.747-9l4.513-1.346-7.675-.154h0z"/><text x="92" y="-6.099" font-family="Lato" font-size="12">!a &amp; b</text></g><g class="edge"><path fill="none" stroke="#000" d="M155.767-35.24c-2.599-10.367.48-20.459 9.233-20.459 6.702 0 10.077 5.916 10.125 13.341"/><path stroke="#000" d="M174.233-35.24l3.996-6.554-3.561 3.081.435-3.473h0l-.435 3.473-2.69-3.864 2.255 7.337h0z"/><text x="149" y="-59.099" font-family="Lato" font-size="12">a &amp; b</text></g><g class="node"><circle fill="#ffffa0" stroke="#000" cx="274" cy="-19.699" r="18"/><text text-anchor="middle" x="274" y="-16.599" font-family="Lato" font-size="12">3</text></g><g class="edge"><path fill="none" stroke="#000" d="M183.49-19.699h65.049"/><path stroke="#000" d="M255.783-19.699l-7-3.15 3.5 3.15h-3.5 3.5l-3.5 3.15 7-3.15h0z"/><text x="201" y="-23.099" font-family="Lato" font-size="12">a &amp; !b</text></g><g class="edge"><path fill="none" stroke="#000" d="M292.49-19.699h65.049"/><path stroke="#000" d="M364.783-19.699l-7-3.15 3.5 3.15h-3.5 3.5l-3.5 3.15 7-3.15h0z"/><text x="310" y="-23.099" font-family="Lato" font-size="12">!a &amp; b</text></g><g class="edge"><path fill="none" stroke="#000" d="M264.767-35.24c-2.599-10.367.48-20.459 9.233-20.459 6.702 0 10.077 5.916 10.125 13.341"/><path stroke="#000" d="M283.233-35.24l3.996-6.554-3.561 3.081.435-3.473h0l-.435 3.473-2.69-3.864 2.255 7.337h0z"/><text x="270" y="-59.099" font-family="Lato" font-size="12">a</text></g></g></svg>