<?xml-stylesheet href="spot.css" type="text/css"?><svg width="433pt" height="199pt" viewBox="0 0 433 198.77" xmlns="http://www.w3.org/2000/svg"><g class="graph"><path fill="#fff" stroke="transparent" d="M0 198.768V0h433v198.768H0z"/><text x="191" y="-164.168" font-family="Lato" font-size="12" transform="translate(4 194.768)">[Büchi]</text><g class="node" transform="translate(4 194.768)"><circle fill="#ffffa0" stroke="#000" cx="60" cy="-73.368" r="18"/><circle fill="none" stroke="#000" cx="60" cy="-73.368" r="22"/><text text-anchor="middle" x="60" y="-70.268" font-family="Lato" font-size="12">0</text></g><g class="edge" transform="translate(4 194.768)"><path fill="none" stroke="#000" d="M1.168-73.368h29.47"/><path stroke="#000" d="M37.865-73.368l-7-3.15 3.5 3.15h-3.5 3.5l-3.5 3.15 7-3.15h0z"/></g><g class="edge" transform="translate(4 194.768)"><path fill="none" stroke="#000" d="M52.683-94.359c-.903-10.096 1.536-19.01 7.317-19.01 4.336 0 6.792 5.014 7.368 11.78"/><path stroke="#000" d="M67.317-94.359l3.2-6.978-3.175 3.478.024-3.5h0l-.025 3.5-3.125-3.522 3.1 7.022h0z"/><text x="56" y="-116.768" font-family="Lato" font-size="12">a</text></g><g class="node" transform="translate(4 194.768)"><circle fill="#ffffa0" stroke="#000" cx="407" cy="-106.368" r="18"/><text text-anchor="middle" x="407" y="-103.268" font-family="Lato" font-size="12">1</text></g><g class="edge" transform="translate(4 194.768)"><path fill="none" stroke="#000" d="M74.139-90.751c7.085-7.796 16.203-16.575 25.861-22.617 21.925-13.716 29.495-14.719 55-19 52.792-8.862 93.897-12.938 216 13 4.164.884 8.498 2.14 12.657 3.526"/><path stroke="#000" d="M390.429-113.429l-5.537-5.317 2.24 4.143-3.297-1.175h0l3.297 1.175-4.354 1.792 7.651-.618h0z"/><text x="209" y="-141.768" font-family="Lato" font-size="12">!a &amp; !b</text></g><g class="node" transform="translate(4 194.768)"><circle fill="#ffffa0" stroke="#000" cx="173" cy="-105.368" r="18"/><text text-anchor="middle" x="173" y="-102.268" font-family="Lato" font-size="12">2</text></g><g class="edge" transform="translate(4 194.768)"><path fill="none" stroke="#000" d="M81.982-69.751c15.82 1.683 37.389 2.058 55.018-4.617 6.942-2.629 13.453-7.24 18.977-12.116"/><path stroke="#000" d="M161.152-91.384l-7.249 2.525 4.707-.119-2.541 2.407h0l2.541-2.407-.375 4.694 2.917-7.1h0z"/><text x="100" y="-77.768" font-family="Lato" font-size="12">!a &amp; b</text></g><g class="edge" transform="translate(4 194.768)"><path fill="none" stroke="#000" d="M397.872-90.441C383.302-66.935 352.277-24.14 312-9.368 230.847 20.394 130.1-30.18 84.48-57.556"/><path stroke="#000" d="M78.416-61.254l4.336 6.334-1.348-4.512 2.988 1.823h0l-2.988-1.823 4.629-.867-7.617-.955h0z"/><text x="225.5" y="-9.768" font-family="Lato" font-size="12">a</text></g><g class="edge" transform="translate(4 194.768)"><path fill="none" stroke="#000" d="M397.425-121.91c-2.695-10.367.497-20.458 9.575-20.458 6.95 0 10.45 5.915 10.5 13.34"/><path stroke="#000" d="M416.575-121.91l4.025-6.535-3.574 3.065.45-3.471h0l-.45 3.47-2.673-3.876 2.222 7.348h0z"/><text x="400.5" y="-145.768" font-family="Lato" font-size="12">!a</text></g><g class="edge" transform="translate(4 194.768)"><path fill="none" stroke="#000" d="M155.172-101.47c-14.86 3.367-36.53 8.555-55.172 14.102a370.14 370.14 0 00-12.495 3.99"/><path stroke="#000" d="M80.639-81.011l7.644.696-4.335-1.837 3.308-1.141h0l-3.308 1.14 2.282-4.118-5.591 5.26h0z"/><text x="114.5" y="-99.768" font-family="Lato" font-size="12">a</text></g><g class="edge" transform="translate(4 194.768)"><path fill="none" stroke="#000" d="M191.362-105.447l190.215-.812"/><path stroke="#000" d="M388.724-106.29l-7.014-3.12 3.514 3.135-3.5.015h0l3.5-.015-3.487 3.165 6.987-3.18h0z"/><text x="269.5" y="-108.768" font-family="Lato" font-size="12">!a &amp; !b</text></g><g class="node" transform="translate(4 194.768)"><circle fill="#ffffa0" stroke="#000" cx="290" cy="-40.368" r="18"/><circle fill="none" stroke="#000" cx="290" cy="-40.368" r="22"/><text text-anchor="middle" x="290" y="-37.268" font-family="Lato" font-size="12">3</text></g><g class="edge" transform="translate(4 194.768)"><path fill="none" stroke="#000" d="M188.78-96.602l75.589 41.995"/><path stroke="#000" d="M270.586-51.154l-4.59-6.153 1.53 4.453-3.06-1.7h0l3.06 1.7-4.59 1.054 7.65.646h0z"/><text x="211" y="-86.768" font-family="Lato" font-size="12">!a &amp; b</text></g><g class="edge" transform="translate(4 194.768)"><path fill="none" stroke="#000" d="M267.955-42.46C232.44-45.988 160.422-53.78 100-64.369c-3.769-.66-7.718-1.44-11.606-2.26"/><path stroke="#000" d="M81.514-68.13l6.166 4.57-2.747-3.824 3.42.747h0l-3.42-.747 4.091-2.33-7.51 1.583h0z"/><text x="169" y="-58.768" font-family="Lato" font-size="12">a</text></g><g class="edge" transform="translate(4 194.768)"><path fill="none" stroke="#000" d="M309.32-51.267l75.612-42.653"/><path stroke="#000" d="M391.038-97.364l-7.644.696 4.596 1.024-3.049 1.72h0l3.049-1.72-1.501 4.463 4.55-6.183h0z"/><text x="330" y="-87.768" font-family="Lato" font-size="12">!a &amp; !b</text></g><g class="edge" transform="translate(4 194.768)"><path fill="none" stroke="#000" d="M279.288-59.712c-2-10.754 1.571-20.656 10.712-20.656 6.998 0 10.731 5.804 11.2 13.351"/><path stroke="#000" d="M300.712-59.712l3.61-6.775-3.377 3.282.233-3.492h0l-.233 3.492-2.91-3.702 2.677 7.195h0z"/><text x="271.5" y="-83.768" font-family="Lato" font-size="12">!a &amp; b</text></g></g></svg>