<?xml-stylesheet href="spot.css" type="text/css"?><svg width="310pt" height="276" viewBox="0 0 310 207.4" xmlns="http://www.w3.org/2000/svg"><g class="graph"><path fill="#fff" stroke="transparent" d="M0 207.4V0h310v207.4H0z"/><text x="129.5" y="-172.8" font-family="Lato" font-size="12" transform="translate(4 203.4)">[Büchi]</text><g class="node" transform="translate(4 203.4)"><circle fill="#ffffa0" stroke="#ff4da0" stroke-width="2" cx="56" cy="-75" r="18"/><text text-anchor="middle" x="56" y="-71.9" font-family="Lato" font-size="12">0</text></g><g class="edge" transform="translate(4 203.4)"><path fill="none" stroke="#000" d="M1.123-75h29.801"/><path stroke="#000" d="M37.98-75l-7-3.15 3.5 3.15h-3.5 3.5l-3.5 3.15 7-3.15h0z"/></g><g class="edge" transform="translate(4 203.4)"><path fill="none" stroke="#ff4da0" stroke-width="2" d="M49.62-92.037C48.32-101.857 50.446-111 56-111c4.166 0 6.404 5.142 6.713 11.857"/><path fill="#ff4da0" stroke="#ff4da0" stroke-width="2" d="M62.38-92.037l3.474-6.845-2.811 3.372.164-3.496-.5-.024-.499-.023-.164 3.496-2.483-3.62 2.818 7.14h0z"/><text x="49.5" y="-114.4" font-family="Lato" font-size="12">!a</text></g><g class="node" transform="translate(4 203.4)"><circle fill="#ffffa0" stroke="#ff4da0" stroke-width="2" cx="173" cy="-111" r="18"/><text text-anchor="middle" x="173" y="-107.9" font-family="Lato" font-size="12">1</text></g><g class="edge" transform="translate(4 203.4)"><path fill="none" stroke="#000" d="M72.716-81.924C78.744-84.308 85.63-86.903 92-89c18.725-6.165 40.279-11.957 56.443-16.05"/><path stroke="#000" d="M155.461-106.806l-7.555-1.357 4.16 2.207-3.395.85h0l3.395-.85-2.63 3.905 6.025-4.755h0z"/><text x="108.5" y="-104.4" font-family="Lato" font-size="12">a</text></g><g class="node" transform="translate(4 203.4)"><circle fill="#ffffa0" stroke="#000" cx="173" cy="-22" r="18"/><circle fill="none" stroke="#000" cx="173" cy="-22" r="22"/><text text-anchor="middle" x="173" y="-18.9" font-family="Lato" font-size="12">2</text></g><g class="edge" transform="translate(4 203.4)"><path fill="none" stroke="#ff4da0" stroke-width="2" d="M70.145-63.831C76.56-59.126 84.4-53.86 92-50c16.796 8.53 36.791 15.471 52.713 20.31"/><path fill="#ff4da0" stroke="#ff4da0" stroke-width="2" d="M151.715-27.618l-5.818-5.008 2.604 3.535-3.356-.993-.142.479-.142.48 3.356.993-4.108 1.547 7.606-1.033h0z"/><text x="106" y="-53.4" font-family="Lato" font-size="12">!a</text></g><g class="edge" transform="translate(4 203.4)"><path fill="none" stroke="#000" d="M160.823-97.064C151.647-86.978 139.558-74.668 133-72c-16.507 6.715-36.682 5.63-52.24 3.044"/><path stroke="#000" d="M73.53-70.319l6.295 4.392-2.856-3.743 3.44.648h0l-3.44-.648 4.023-2.448-7.462 1.8h0z"/><text x="92" y="-75.4" font-family="Lato" font-size="12">!a &amp; !b</text></g><g class="edge" transform="translate(4 203.4)"><path fill="none" stroke="#ff4da0" stroke-width="2" d="M164.021-126.916C161.68-137.15 164.671-147 173-147c6.376 0 9.625 5.774 9.746 13.073"/><path fill="#ff4da0" stroke="#ff4da0" stroke-width="2" d="M181.979-126.916l3.893-6.615-3.015 3.19.38-3.479-.496-.054-.497-.055-.381 3.48-2.254-3.768 2.37 7.301h0z"/><text x="159.5" y="-150.4" font-family="Lato" font-size="12">a | b</text></g><g class="node" transform="translate(4 203.4)"><circle fill="#ffffa0" stroke="#000" cx="280" cy="-111" r="18"/><circle fill="none" stroke="#000" cx="280" cy="-111" r="22"/><text text-anchor="middle" x="280" y="-107.9" font-family="Lato" font-size="12">3</text></g><g class="edge" transform="translate(4 203.4)"><path fill="none" stroke="#ff4da0" stroke-width="2" d="M191.151-111h59.506"/><path fill="#ff4da0" stroke="#ff4da0" stroke-width="2" d="M257.671-111l-7-3.15 3.5 2.65h-3.5v1h3.5l-3.5 2.65 7-3.15h0z"/><text x="213" y="-114.4" font-family="Lato" font-size="12">a | b</text></g><g class="edge" transform="translate(4 203.4)"><path fill="none" stroke="#000" d="M163.593-42.17C162.146-52.599 165.28-62 173-62c5.91 0 9.133 5.51 9.67 12.775"/><path stroke="#000" d="M182.407-42.17l3.408-6.878-3.278 3.38.13-3.497h0l-.13 3.498-3.017-3.615 2.887 7.112h0z"/><text x="166.5" y="-65.4" font-family="Lato" font-size="12">!a</text></g><g class="edge" transform="translate(4 203.4)"><path fill="none" stroke="#000" d="M270.593-131.17C269.146-141.599 272.28-151 280-151c5.91 0 9.133 5.51 9.67 12.774"/><path stroke="#000" d="M289.407-131.17l3.408-6.878-3.278 3.38.13-3.497h0l-.13 3.498-3.017-3.615 2.887 7.112h0z"/><text x="266.5" y="-154.4" font-family="Lato" font-size="12">a | b</text></g></g></svg>