<?xml-stylesheet href="spot.css" type="text/css"?><svg width="595pt" height="328" viewBox="0 0 595 246.4" xmlns="http://www.w3.org/2000/svg"><g class="graph"><path fill="#fff" stroke="transparent" d="M0 246.4V0h595v246.4H0z"/><text x="263" y="-211.8" font-family="Lato" font-size="12" transform="translate(4 242.4)">[co-Büchi]</text><g class="node" transform="translate(4 242.4)"><circle fill="#ffffa0" stroke="#000" cx="60" cy="-103" r="18"/><circle fill="none" stroke="#000" cx="60" cy="-103" r="22"/><text text-anchor="middle" x="60" y="-99.9" font-family="Lato" font-size="12">0</text></g><g class="edge" transform="translate(4 242.4)"><path fill="none" stroke="#000" d="M1.168-103h29.47"/><path stroke="#000" d="M37.865-103l-7-3.15 3.5 3.15h-3.5 3.5l-3.5 3.15 7-3.15h0z"/></g><g class="node" transform="translate(4 242.4)"><circle fill="#ffffa0" stroke="#000" cx="177" cy="-18" r="18"/><text text-anchor="middle" x="177" y="-14.9" font-family="Lato" font-size="12">1</text></g><g class="edge" transform="translate(4 242.4)"><path fill="none" stroke="#000" d="M78.025-89.905L156.2-33.11"/><path stroke="#000" d="M162.111-28.817l-3.811-6.662.98 4.605-2.832-2.057h0l2.832 2.057-4.683.492 7.514 1.566h0z"/><text text-anchor="middle" x="120.5" y="-76.4" font-family="Lato" font-size="12">1</text></g><g class="node" transform="translate(4 242.4)"><circle fill="#ffffa0" stroke="#000" cx="351" cy="-67" r="18"/><text text-anchor="middle" x="351" y="-63.9" font-family="Lato" font-size="12">2</text></g><g class="edge" transform="translate(4 242.4)"><path fill="none" stroke="#000" d="M82.277-104.037C127.153-105.54 231.293-106.069 315-84c4.67 1.231 9.473 3.057 13.988 5.06"/><path stroke="#000" d="M335.348-75.924l-4.976-5.845 1.813 4.345-3.162-1.499h0l3.162 1.5-4.512 1.347 7.675.151h0z"/><text text-anchor="middle" x="177" y="-106.4" font-family="Lato" font-size="12">1</text></g><g class="node" transform="translate(4 242.4)"><circle fill="#ffffa0" stroke="#000" cx="460" cy="-101" r="18"/><text text-anchor="middle" x="460" y="-97.9" font-family="Lato" font-size="12">3</text></g><g class="edge" transform="translate(4 242.4)"><path fill="none" stroke="#000" d="M80.386-112.1c6.18-2.357 13.067-4.598 19.614-5.9 25.733-5.118 32.776-1.179 59-2 93.314-2.922 117.415-17.004 210-5 23.173 3.004 48.855 10.142 67.011 15.858"/><path stroke="#000" d="M442.82-106.955l-5.7-5.14 2.368 4.07-3.333-1.071h0l3.333 1.07-4.296 1.929 7.628-.858h0z"/><text text-anchor="middle" x="264" y="-132.4" font-family="Lato" font-size="12">1</text></g><g class="node" transform="translate(4 242.4)"><circle fill="#ffffa0" stroke="#000" cx="569" cy="-101" r="18"/><text text-anchor="middle" x="569" y="-97.9" font-family="Lato" font-size="12">4</text></g><g class="edge" transform="translate(4 242.4)"><path fill="none" stroke="#000" d="M72.766-121.45C92.104-146.989 131.437-190 177-190h283c42.52 0 77.606 41.138 95.713 67.477"/><path stroke="#000" d="M559.736-116.503l-1.27-7.57-.675 4.66-1.944-2.91h0l1.944 2.91-4.564-1.16 6.509 4.07h0z"/><text text-anchor="middle" x="351" y="-193.4" font-family="Lato" font-size="12">1</text></g><g class="edge" transform="translate(4 242.4)"><path fill="none" stroke="#000" d="M158.85-15.91c-16.744.968-41.553-.13-58.85-12.09-15.93-11.016-26.04-30.45-32.11-46.776"/><path stroke="#000" d="M65.53-81.548l-.672 7.647 1.824-4.342 1.151 3.305h0l-1.151-3.305 4.126 2.269-5.278-5.574h0z"/><text x="100" y="-31.4" font-family="Lato" font-size="12">!a &amp; !b</text></g><g class="edge" transform="translate(4 242.4)"><path fill="none" stroke="#000" d="M167.425-33.541C164.73-43.91 167.922-54 177-54c6.95 0 10.45 5.915 10.5 13.34"/><path stroke="#000" d="M186.575-33.541l4.025-6.536-3.574 3.065.45-3.471h0l-.45 3.47-2.673-3.876 2.222 7.348h0z"/><text x="161" y="-57.4" font-family="Lato" font-size="12">a &amp; b</text></g><g class="edge" transform="translate(4 242.4)"><path fill="none" stroke="#000" d="M189.035-31.532C195.489-37.898 203.964-44.962 213-49c36.65-16.38 83.858-19.08 112.48-18.958"/><path stroke="#000" d="M332.687-67.865l-6.959-3.24 3.46 3.195-3.5-.045h0l3.5.045-3.541 3.104 7.04-3.06h0z"/><text x="213" y="-70.4" font-family="Lato" font-size="12">(!a &amp; b) | (a &amp; !b)</text></g><g class="edge" transform="translate(4 242.4)"><path fill="none" stroke="#000" d="M339.97-52.322C333.55-44.922 324.798-36.567 315-32c-36.465 16.999-84.11 17.773-112.812 16.26"/><path stroke="#000" d="M194.969-16.191l6.79 3.58-3.297-3.362 3.493.218h0l-3.493-.218 3.69-2.926-7.183 2.708h0z"/><text x="245.5" y="-35.4" font-family="Lato" font-size="12">!a &amp; b</text></g><g class="edge" transform="translate(4 242.4)"><path fill="none" stroke="#000" d="M341.767-82.541C339.168-92.91 342.247-103 351-103c6.702 0 10.077 5.915 10.125 13.34"/><path stroke="#000" d="M360.233-82.541l3.996-6.555-3.561 3.082.435-3.473h0l-.435 3.473-2.69-3.865 2.255 7.338h0z"/><text x="300" y="-106.4" font-family="Lato" font-size="12">(!a &amp; !b) | (a &amp; b)</text></g><g class="edge" transform="translate(4 242.4)"><path fill="none" stroke="#000" d="M368.513-72.463l67.183-20.956"/><path stroke="#000" d="M442.53-95.55l-7.62-.924 4.28 1.965-3.342 1.043h0l3.341-1.043-2.403 4.05 5.745-5.092h0z"/><text x="387" y="-92.4" font-family="Lato" font-size="12">a &amp; !b</text></g><g class="edge" transform="translate(4 242.4)"><path fill="none" stroke="#000" d="M450.767-116.541C448.168-126.91 451.247-137 460-137c6.702 0 10.077 5.915 10.125 13.34"/><path stroke="#000" d="M469.233-116.541l3.996-6.555-3.561 3.082.435-3.473h0l-.435 3.473-2.69-3.865 2.255 7.338h0z"/><text x="444.5" y="-140.4" font-family="Lato" font-size="12">!a | b</text></g><g class="edge" transform="translate(4 242.4)"><path fill="none" stroke="#000" d="M478.49-101h65.049"/><path stroke="#000" d="M550.783-101l-7-3.15 3.5 3.15h-3.5 3.5l-3.5 3.15 7-3.15h0z"/><text x="496" y="-104.4" font-family="Lato" font-size="12">a &amp; !b</text></g><g class="edge" transform="translate(4 242.4)"><path fill="none" stroke="#000" d="M552.534-93.398C512.775-75.512 407.94-31.138 315-16c-39.077 6.365-85.2 3.68-112.995.976"/><path stroke="#000" d="M195.01-15.742l6.642 3.849-3.16-3.492 3.482.358h0l-3.481-.358 3.803-2.775-7.285 2.418h0z"/><text x="387" y="-45.4" font-family="Lato" font-size="12">a &amp; !b</text></g><g class="edge" transform="translate(4 242.4)"><path fill="none" stroke="#000" d="M559.767-116.541C557.168-126.91 560.247-137 569-137c6.702 0 10.077 5.915 10.125 13.34"/><path stroke="#000" d="M578.233-116.541l3.996-6.555-3.561 3.082.435-3.473h0l-.435 3.473-2.69-3.865 2.255 7.338h0z"/><text x="553.5" y="-140.4" font-family="Lato" font-size="12">!a | b</text></g></g></svg>