<?xml-stylesheet href="spot.css" type="text/css"?><svg width="85pt" height="151pt" viewBox="0 0 85 151" xmlns="http://www.w3.org/2000/svg"><g class="graph" transform="translate(4 147)"><path fill="#fff" stroke="transparent" d="M-4 4v-151h85V4H-4z"/><text x="18.5" y="-130.4" font-family="Lato" font-size="12">Fin(</text><text x="40.5" y="-130.4" font-family="Lato" font-size="12" fill="#1f78b4">⓿</text><text x="53.5" y="-130.4" font-family="Lato" font-size="12">)</text><text x="8" y="-118.4" font-family="Lato" font-size="12">[co-Büchi]</text><g class="node"><circle fill="#ffffa0" stroke="#000" cx="57.5" cy="-18" r="18"/><text text-anchor="middle" x="57.5" y="-14.9" font-family="Lato" font-size="12">0</text></g><g class="edge"><path fill="none" stroke="#000" d="M2.623-18h29.801"/><path stroke="#000" d="M39.48-18l-7-3.15 3.5 3.15h-3.5 3.5l-3.5 3.15 7-3.15h0z"/></g><g class="edge"><path fill="none" stroke="#000" d="M54.264-35.782C53.714-45.315 54.793-54 57.5-54c1.988 0 3.098 4.684 3.33 10.948"/><path stroke="#000" d="M60.736-35.782l3.24-6.959-3.195 3.46.045-3.5h0l-.045 3.5-3.105-3.54 3.06 7.04h0z"/><text x="51" y="-70.4" font-family="Lato" font-size="12">!a</text><text x="51" y="-57.4" font-family="Lato" font-size="12" fill="#1f78b4">⓿</text></g><g class="edge"><path fill="none" stroke="#000" d="M52.438-35.281C49.062-55.25 50.75-80 57.5-80c5.959 0 7.972 19.29 6.04 37.549"/><path stroke="#000" d="M62.563-35.281l4.067-6.51-3.594 3.042.473-3.468h0l-.473 3.468-2.648-3.894 2.175 7.362h0z"/><text x="53.5" y="-83.4" font-family="Lato" font-size="12">a</text></g></g></svg>