<?xml-stylesheet href="spot.css" type="text/css"?><svg width="296pt" height="208" viewBox="0 0 296 155.98" xmlns="http://www.w3.org/2000/svg"><g class="graph" transform="translate(4 151.976)"><path fill="#fff" stroke="transparent" d="M-4 4v-155.976h296V4H-4z"/><text x="69" y="-135.376" font-family="Lato" font-size="12">Inf(</text><text x="90" y="-135.376" font-family="Lato" font-size="12" fill="#ff7f00">❷</text><text x="101" y="-135.376" font-family="Lato" font-size="12">) | (Fin(</text><text x="143" y="-135.376" font-family="Lato" font-size="12" fill="#ff4da0">❶</text><text x="154" y="-135.376" font-family="Lato" font-size="12">) &amp; Inf(</text><text x="196" y="-135.376" font-family="Lato" font-size="12" fill="#1f78b4">⓿</text><text x="209" y="-135.376" font-family="Lato" font-size="12">))</text><text x="85" y="-123.376" font-family="Lato" font-size="12">[parity max even 3]</text><g class="node"><path fill="#ffffa0" stroke="#000" d="M62-70.976H50c-6 0-12 6-12 12v12c0 6 6 12 12 12h12c6 0 12-6 12-12v-12c0-6-6-12-12-12"/><text x="52" y="-56.376" font-family="Lato" font-size="12">2</text><text x="50.5" y="-43.376" font-family="Lato" font-size="12" fill="#ff7f00">❷</text></g><g class="edge"><path fill="none" stroke="#000" d="M1.123-52.976h29.801"/><path stroke="#000" d="M37.98-52.976l-7-3.15 3.5 3.15h-3.5 3.5l-3.5 3.15 7-3.15h0z"/></g><g class="edge"><path fill="none" stroke="#000" d="M49.487-71.129c-1.002-9.386 1.17-17.847 6.513-17.847 3.924 0 6.138 4.563 6.64 10.705"/><path stroke="#000" d="M62.513-71.129l3.274-6.943-3.212 3.444.062-3.5h0l-.062 3.5-3.087-3.556 3.025 7.055h0z"/><text x="40" y="-92.376" font-family="Lato" font-size="12">a &amp; b</text></g><g class="node"><path fill="#ffffa0" stroke="#000" d="M276-60.976h-12c-6 0-12 6-12 12v12c0 6 6 12 12 12h12c6 0 12-6 12-12v-12c0-6-6-12-12-12"/><text x="266" y="-46.376" font-family="Lato" font-size="12">0</text><text x="264.5" y="-33.376" font-family="Lato" font-size="12" fill="#ff4da0">❶</text></g><g class="edge"><path fill="none" stroke="#000" d="M74.399-68.342c23.743-17.912 66.53-43.735 104.601-32.634 25.047 7.303 49.771 23.824 67.113 37.372"/><path stroke="#000" d="M251.7-59.14l-3.503-6.83.77 4.645-2.736-2.184h0l2.735 2.184-4.7.277 7.435 1.908h0z"/><text x="142" y="-106.376" font-family="Lato" font-size="12">a &amp; !b</text></g><g class="node"><path fill="#ffffa0" stroke="#000" d="M166.5-60.976h-12c-6 0-12 6-12 12v12c0 6 6 12 12 12h12c6 0 12-6 12-12v-12c0-6-6-12-12-12"/><text x="156.5" y="-46.376" font-family="Lato" font-size="12">1</text><text x="155" y="-33.376" font-family="Lato" font-size="12" fill="#ff4da0">❶</text></g><g class="edge"><path fill="none" stroke="#000" d="M74.227-52.42c13.717.544 32.966 1.573 49.773 3.444 3.656.407 7.503.932 11.273 1.502"/><path stroke="#000" d="M142.357-46.341l-6.415-4.216 2.959 3.663-3.456-.552h0l3.456.552-3.954 2.558 7.41-2.005h0z"/><text x="101.5" y="-54.376" font-family="Lato" font-size="12">!a</text></g><g class="edge"><path fill="none" stroke="#000" d="M251.951-30.757C227.33-15.607 181.727 7.065 142-2.976c-22.816-5.767-45.71-19.561-62.133-31.203"/><path stroke="#000" d="M74.121-38.352l3.813 6.662-.98-4.605 2.831 2.057h0l-2.832-2.057 4.683-.492-7.515-1.565h0z"/><text x="156.5" y="-6.376" font-family="Lato" font-size="12">b</text></g><g class="edge"><path fill="none" stroke="#000" d="M260.231-61.129c-1.503-9.386 1.753-17.847 9.769-17.847 5.887 0 9.206 4.563 9.96 10.705"/><path stroke="#000" d="M279.769-61.129l3.335-6.913-3.242 3.415.093-3.5h0l-.093 3.5-3.055-3.583 2.962 7.081h0z"/><text x="263.5" y="-82.376" font-family="Lato" font-size="12">!b</text></g><g class="edge"><path fill="none" stroke="#000" d="M142.284-37.966c-13.913 3.07-33.487 5.757-50.284 1.99-3.794-.85-7.658-2.148-11.38-3.655"/><path stroke="#000" d="M74.124-42.519l5.117 5.722-1.92-4.3 3.2 1.421h0l-3.2-1.421 4.478-1.457-7.675.035h0z"/><text x="92" y="-39.376" font-family="Lato" font-size="12">a &amp; b</text></g><g class="edge"><path fill="none" stroke="#000" d="M178.582-42.976h66.235"/><path stroke="#000" d="M251.891-42.976l-7-3.15 3.5 3.15h-3.5 3.5l-3.5 3.15 7-3.15h0z"/><text x="197" y="-46.376" font-family="Lato" font-size="12">a &amp; !b</text></g><g class="edge"><path fill="none" stroke="#000" d="M151.093-61.129c-1.447-9.386 1.688-17.847 9.407-17.847 5.668 0 8.865 4.563 9.59 10.705"/><path stroke="#000" d="M169.907-61.129l3.329-6.917-3.239 3.419.09-3.5h0l-.09 3.5-3.06-3.58 2.97 7.078h0z"/><text x="154" y="-82.376" font-family="Lato" font-size="12">!a</text></g></g></svg>