<?xml-stylesheet href="spot.css" type="text/css"?><svg width="503pt" height="284" viewBox="0 0 503 213.16" xmlns="http://www.w3.org/2000/svg"><g class="graph" transform="translate(4 209.16)"><path fill="#fff" stroke="transparent" d="M-4 4v-213.16h503V4H-4z"/><text x="227.5" y="-192.559" font-family="Lato" font-size="12">Fin(</text><text x="249.5" y="-192.559" font-family="Lato" font-size="12" fill="#1f78b4">⓿</text><text x="262.5" y="-192.559" font-family="Lato" font-size="12">)</text><text x="217" y="-180.559" font-family="Lato" font-size="12">[co-Büchi]</text><g class="node"><circle fill="#ffffa0" stroke="#000" cx="56" cy="-80.159" r="18"/><text text-anchor="middle" x="56" y="-77.059" font-family="Lato" font-size="12">0</text></g><g class="edge"><path fill="none" stroke="#000" d="M1.123-80.16h29.801"/><path stroke="#000" d="M37.98-80.16l-7-3.15 3.5 3.15h-3.5 3.5l-3.5 3.15 7-3.15h0z"/></g><g class="edge"><path fill="none" stroke="#000" d="M52.764-97.94c-.55-9.534.529-18.22 3.236-18.22 1.988 0 3.098 4.685 3.33 10.949"/><path stroke="#000" d="M59.236-97.94l3.24-6.96-3.195 3.46.045-3.5h0l-.045 3.5-3.105-3.54 3.06 7.04h0z"/><text x="37.5" y="-119.559" font-family="Lato" font-size="12">!a &amp; b</text></g><g class="edge"><path fill="none" stroke="#000" d="M50.684-97.58c-3.03-17.37-1.258-36.58 5.316-36.58 5.701 0 7.79 14.446 6.27 29.611"/><path stroke="#000" d="M61.316-97.58l4.07-6.508-3.596 3.04.475-3.467h0l-.475 3.468-2.646-3.895 2.172 7.363h0z"/><text x="35.5" y="-150.559" font-family="Lato" font-size="12">!a &amp; !b</text><text x="49.5" y="-137.559" font-family="Lato" font-size="12" fill="#1f78b4">⓿</text></g><g class="node"><circle fill="#ffffa0" stroke="#000" cx="136" cy="-80.159" r="18"/><text text-anchor="middle" x="136" y="-77.059" font-family="Lato" font-size="12">1</text></g><g class="edge"><path fill="none" stroke="#000" d="M74.153-80.16h36.668"/><path stroke="#000" d="M117.919-80.16l-7-3.15 3.5 3.15h-3.5 3.5l-3.5 3.15 7-3.15h0z"/><text x="92" y="-83.559" font-family="Lato" font-size="12">a</text></g><g class="edge"><path fill="none" stroke="#000" d="M128.969-96.823c-1.563-9.961.781-19.336 7.031-19.336 4.688 0 7.178 5.273 7.47 12.112"/><path stroke="#000" d="M143.031-96.823l3.57-6.796-3.357 3.302.212-3.493h0l-.212 3.493-2.932-3.685 2.72 7.179h0z"/><text x="132" y="-119.559" font-family="Lato" font-size="12">a</text></g><g class="node"><circle fill="#ffffa0" stroke="#000" cx="249.5" cy="-31.159" r="18"/><text text-anchor="middle" x="249.5" y="-28.059" font-family="Lato" font-size="12">2</text></g><g class="edge"><path fill="none" stroke="#000" d="M152.747-72.929l73.51 31.735"/><path stroke="#000" d="M232.684-38.419l-5.178-5.667 1.965 4.28-3.214-1.388h0l3.214 1.388-4.462 1.505 7.675-.118h0z"/><text x="172" y="-67.559" font-family="Lato" font-size="12">!a &amp; !b</text></g><g class="node"><circle fill="#ffffa0" stroke="#000" cx="365.5" cy="-88.159" r="18"/><text text-anchor="middle" x="365.5" y="-85.059" font-family="Lato" font-size="12">3</text></g><g class="edge"><path fill="none" stroke="#000" d="M152.61-87.569c33.475-13.908 111.243-41.016 174.39-23.59 6.15 1.697 12.307 4.664 17.837 7.914"/><path stroke="#000" d="M351.002-99.359l-4.242-6.397 1.281 4.53-2.96-1.866h0l2.96 1.867-4.64.798 7.601 1.068h0z"/><text x="231" y="-119.559" font-family="Lato" font-size="12">!a &amp; b</text></g><g class="edge"><path fill="none" stroke="#000" d="M239.925-46.7c-2.695-10.368.497-20.46 9.575-20.46 6.95 0 10.45 5.916 10.5 13.342"/><path stroke="#000" d="M259.075-46.7l4.025-6.536-3.574 3.065.45-3.471h0l-.45 3.47-2.673-3.876 2.222 7.347h0z"/><text x="229" y="-83.559" font-family="Lato" font-size="12">!a &amp; !b</text><text x="243" y="-70.559" font-family="Lato" font-size="12" fill="#1f78b4">⓿</text></g><g class="edge"><path fill="none" stroke="#000" d="M267.322-33.813c16.315-2.972 40.728-8.816 59.678-19.346 7.617-4.233 14.96-10.246 21.155-16.096"/><path stroke="#000" d="M353.496-74.526l-7.195 2.675 4.704-.216-2.491 2.458h0l2.49-2.458-.278 4.7 2.77-7.159h0z"/><text x="288" y="-56.559" font-family="Lato" font-size="12">!a &amp; b</text></g><g class="node"><circle fill="#ffffa0" stroke="#000" cx="477" cy="-35.159" r="18"/><text text-anchor="middle" x="477" y="-32.059" font-family="Lato" font-size="12">4</text></g><g class="edge"><path fill="none" stroke="#000" d="M267.733-31.48c40.45-.71 137.776-2.422 184.031-3.235"/><path stroke="#000" d="M458.996-34.843l-7.054-3.026 3.555 3.088-3.5.062h0l3.5-.062-3.444 3.211 6.943-3.273h0z"/><text x="361.5" y="-36.559" font-family="Lato" font-size="12">a</text></g><g class="edge"><path fill="none" stroke="#000" d="M347.474-85.767C330.692-82.959 305.419-77.206 286-66.16c-7.245 4.121-14.136 10-19.94 15.764"/><path stroke="#000" d="M261.058-45.186l7.12-2.867-4.696.343 2.425-2.524h0l-2.425 2.524.153-4.706-2.577 7.23h0z"/><text x="286" y="-97.559" font-family="Lato" font-size="12">!a &amp; !b</text><text x="300" y="-84.559" font-family="Lato" font-size="12" fill="#1f78b4">⓿</text></g><g class="edge"><path fill="none" stroke="#000" d="M355.925-103.7c-2.695-10.368.497-20.46 9.575-20.46 6.95 0 10.45 5.916 10.5 13.342"/><path stroke="#000" d="M375.075-103.7l4.025-6.536-3.574 3.065.45-3.471h0l-.45 3.47-2.673-3.876 2.222 7.347h0z"/><text x="361.5" y="-127.559" font-family="Lato" font-size="12">b</text></g><g class="edge"><path fill="none" stroke="#000" d="M377.431-74.391c7.042 7.315 16.525 15.878 26.569 21.232 14.811 7.896 33.161 12.401 47.758 14.93"/><path stroke="#000" d="M459.01-37.08l-6.42-4.207 2.963 3.66-3.457-.549h0l3.457.548-3.95 2.563 7.407-2.015h0z"/><text x="404" y="-69.559" font-family="Lato" font-size="12">a &amp; !b</text><text x="416" y="-56.559" font-family="Lato" font-size="12" fill="#1f78b4">⓿</text></g><g class="edge"><path fill="none" stroke="#000" d="M460.707-27.285C442.856-19.13 413.144-6.929 386-2.159c-39.865 7.005-85.834-7.485-112.96-18.397"/><path stroke="#000" d="M266.237-23.378l5.259 5.592-2.026-4.25 3.233 1.34h0l-3.233-1.34 4.44-1.57-7.673.228h0z"/><text x="345" y="-18.559" font-family="Lato" font-size="12">!a &amp; !b</text><text x="359" y="-5.559" font-family="Lato" font-size="12" fill="#1f78b4">⓿</text></g><g class="edge"><path fill="none" stroke="#000" d="M468.165-51.279c-6.25-9.76-15.57-21.518-27.165-27.88-15.216-8.35-34.719-10.496-50.09-10.61"/><path stroke="#000" d="M383.732-89.68l7.039 3.063-3.54-3.106 3.5-.043h0l-3.5.043 3.461-3.193-6.96 3.237h0z"/><text x="404" y="-104.559" font-family="Lato" font-size="12">!a &amp; b</text><text x="416" y="-91.559" font-family="Lato" font-size="12" fill="#1f78b4">⓿</text></g><g class="edge"><path fill="none" stroke="#000" d="M467.767-50.7c-2.599-10.368.48-20.46 9.233-20.46 6.702 0 10.077 5.916 10.125 13.342"/><path stroke="#000" d="M486.233-50.7l3.996-6.555-3.561 3.082.435-3.473h0l-.435 3.473-2.69-3.865 2.255 7.337h0z"/><text x="473" y="-74.559" font-family="Lato" font-size="12">a</text></g></g></svg>