<svg xmlns="http://www.w3.org/2000/svg" xmlns:xlink="http://www.w3.org/1999/xlink" width="480" height="480" viewBox="0 0 360 360"><defs><symbol overflow="visible" id="H"><path d="M-5.094-4.516c-.062.106-.11.227-.14.36a1.743 1.743 0 00-.047.422c0 .562.183.996.547 1.296.367.293.886.438 1.562.438H0v1h-6.016v-1h.938a1.928 1.928 0 01-.813-.797c-.175-.332-.265-.738-.265-1.219 0-.07.008-.144.015-.218 0-.082.012-.176.032-.282zm0 0"/></symbol><symbol overflow="visible" id="q"><path d="M2.797-5.844c-.45 0-.79.227-1.016.672-.218.438-.328 1.094-.328 1.969 0 .887.11 1.547.328 1.984.227.438.567.657 1.016.657.445 0 .781-.22 1-.657.226-.437.344-1.097.344-1.984 0-.875-.118-1.531-.344-1.969-.219-.445-.555-.672-1-.672zm0-.687c.719 0 1.265.289 1.64.86.383.562.579 1.386.579 2.468 0 1.086-.196 1.914-.579 2.484-.375.563-.921.844-1.64.844-.719 0-1.274-.281-1.656-.844-.375-.57-.563-1.398-.563-2.484 0-1.082.188-1.906.563-2.469.382-.57.937-.86 1.656-.86zm0 0"/></symbol><symbol overflow="visible" id="s"><path d="M1.688-.734h3.03V0H.642v-.734c.332-.332.78-.786 1.343-1.36.57-.582.93-.957 1.079-1.125.28-.312.472-.57.578-.781.113-.219.171-.43.171-.64 0-.344-.12-.618-.359-.829-.242-.218-.555-.328-.937-.328-.274 0-.559.047-.86.14a5.288 5.288 0 00-.968.423v-.875c.351-.133.68-.239.984-.313.3-.07.578-.11.828-.11.664 0 1.195.169 1.594.5.394.337.593.778.593 1.329 0 .273-.054.527-.156.766-.093.23-.273.507-.531.828-.074.086-.305.324-.688.718-.386.399-.93.95-1.624 1.657zm0 0"/></symbol><symbol overflow="visible" id="t"><path d="M3.563-3.453c.414.086.738.265.968.547.239.281.36.633.36 1.047 0 .625-.22 1.117-.657 1.468-.43.344-1.043.516-1.843.516a4.88 4.88 0 01-.844-.078 5.73 5.73 0 01-.875-.234v-.844c.238.136.5.242.781.312.29.074.594.11.906.11.54 0 .954-.102 1.235-.313.289-.219.437-.531.437-.937 0-.383-.136-.68-.406-.891-.262-.219-.625-.328-1.094-.328h-.75v-.703h.782c.425 0 .75-.082.968-.25.227-.176.344-.426.344-.75 0-.32-.121-.57-.36-.75-.23-.176-.558-.266-.984-.266a4.14 4.14 0 00-.765.078 9.488 9.488 0 00-.907.235v-.766c.332-.094.641-.16.922-.203.29-.05.567-.078.828-.078.657 0 1.172.152 1.547.453.383.305.578.71.578 1.219 0 .355-.105.656-.312.906-.2.242-.484.406-.86.5zm0 0"/></symbol><symbol overflow="visible" id="u"><path d="M4.875-5.844v.938A3.449 3.449 0 004-5.22a4.158 4.158 0 00-.938-.11c-.492 0-.859.079-1.109.235a.719.719 0 00-.36.657c0 .23.087.414.266.546.176.125.532.25 1.063.375l.328.079c.707.148 1.207.359 1.5.64.29.274.438.652.438 1.14 0 .555-.22.997-.657 1.329-.437.324-1.047.484-1.828.484-.324 0-.664-.031-1.015-.093A8.367 8.367 0 01.593-.22v-1.015c.363.187.722.328 1.078.421.351.094.707.141 1.062.141.457 0 .813-.078 1.063-.234a.768.768 0 00.375-.672c0-.27-.09-.477-.266-.625-.18-.145-.574-.281-1.187-.406l-.344-.094c-.617-.125-1.059-.317-1.328-.578-.274-.27-.406-.64-.406-1.11 0-.562.195-.992.593-1.296.407-.313.977-.47 1.72-.47.362 0 .706.028 1.03.079.32.055.618.133.891.234zm0 0"/></symbol><symbol overflow="visible" id="v"><path d="M2.016-7.719v1.703h2.03v.766h-2.03v3.266c0 .492.066.808.203.953.133.136.406.203.812.203h1.016V0H3.03C2.27 0 1.742-.14 1.453-.422c-.293-.289-.437-.812-.437-1.562V-5.25h-.72v-.766h.72v-1.703zm0 0"/></symbol><symbol overflow="visible" id="w"><path d="M3.766-3.031c-.793 0-1.344.094-1.657.281-.304.188-.453.5-.453.938 0 .343.114.62.344.828.227.21.54.312.938.312.55 0 .988-.191 1.312-.578.332-.395.5-.91.5-1.547v-.234zm1.968-.406V0H4.75v-.906c-.219.367-.5.636-.844.812-.336.164-.746.25-1.234.25-.617 0-1.106-.172-1.469-.515C.836-.703.656-1.164.656-1.75c0-.676.223-1.188.672-1.531.457-.344 1.14-.516 2.047-.516H4.75v-.094c0-.457-.152-.812-.453-1.062-.293-.25-.711-.375-1.25-.375-.344 0-.684.043-1.016.125-.324.086-.636.21-.937.375v-.906c.363-.145.718-.25 1.062-.313.344-.07.672-.11.985-.11.875 0 1.523.227 1.953.673.426.449.64 1.132.64 2.046zm0 0"/></symbol><symbol overflow="visible" id="x"><path d="M6.188-3.25v.484H1.64c.039.68.242 1.196.609 1.547.363.356.875.532 1.531.532a4.34 4.34 0 001.11-.141 5.48 5.48 0 001.062-.406v.921A5.004 5.004 0 014.86.031c-.375.082-.75.125-1.125.125C2.766.156 2-.117 1.438-.672.882-1.234.609-1.992.609-2.953c0-.977.266-1.754.797-2.328.532-.582 1.25-.875 2.157-.875.8 0 1.437.261 1.906.781.476.523.718 1.23.718 2.125zm-1-.297c0-.539-.153-.973-.454-1.297-.293-.32-.683-.484-1.171-.484-.555 0-.997.156-1.329.469-.324.312-.511.75-.562 1.312zm0 0"/></symbol><symbol overflow="visible" id="y"><path d="M1.172-1.36h1.14V0h-1.14zm0 0"/></symbol><symbol overflow="visible" id="z"><path d="M5.719-4.86c.25-.445.547-.773.89-.984.344-.207.75-.312 1.22-.312.624 0 1.1.218 1.437.656.343.438.515 1.063.515 1.875V0h-1v-3.594c0-.582-.105-1.008-.312-1.281-.2-.281-.508-.422-.922-.422-.512 0-.918.172-1.219.516-.293.336-.437.793-.437 1.375V0h-1v-3.594c0-.582-.106-1.008-.313-1.281-.2-.281-.512-.422-.937-.422-.5 0-.903.172-1.204.516C2.146-4.445 2-3.988 2-3.406V0H1v-6.016h1v.938c.219-.375.484-.645.797-.813.32-.175.695-.265 1.125-.265.437 0 .805.11 1.11.328.312.219.538.543.687.969zm0 0"/></symbol><symbol overflow="visible" id="A"><path d="M1.031-8.36h1V0h-1zm0 0"/></symbol><symbol overflow="visible" id="B"><path d="M-5.844-4.875h.938c-.145.281-.25.574-.313.875-.07.305-.11.617-.11.938 0 .492.079.859.235 1.109.149.242.367.36.657.36.23 0 .414-.087.546-.266.125-.176.25-.532.375-1.063l.079-.328c.148-.707.359-1.207.64-1.5.274-.29.652-.438 1.14-.438.555 0 .997.22 1.329.657.324.437.484 1.047.484 1.828 0 .324-.031.664-.093 1.015C0-1.344-.095-.977-.22-.593h-1.015c.187-.363.328-.722.421-1.078.094-.351.141-.707.141-1.062 0-.457-.078-.813-.234-1.063a.768.768 0 00-.672-.375c-.27 0-.477.09-.625.266-.145.18-.281.574-.406 1.187l-.094.344c-.125.617-.317 1.059-.578 1.328-.27.274-.64.406-1.11.406-.562 0-.992-.195-1.296-.593-.313-.407-.47-.977-.47-1.72 0-.362.028-.706.079-1.03.055-.32.133-.618.234-.891zm0 0"/></symbol><symbol overflow="visible" id="C"><path d="M-7.719-2.016h1.703v-2.03h.766v2.03h3.266c.492 0 .808-.066.953-.203.136-.133.203-.406.203-.812v-1.016H0v1.016c0 .761-.14 1.289-.422 1.578-.289.293-.812.437-1.562.437H-5.25v.72h-.766v-.72h-1.703zm0 0"/></symbol><symbol overflow="visible" id="D"><path d="M-3.031-3.766c0 .793.094 1.344.281 1.657.188.304.5.453.938.453.343 0 .62-.114.828-.344.21-.227.312-.54.312-.938 0-.55-.191-.988-.578-1.312-.395-.332-.91-.5-1.547-.5h-.234zm-.406-1.968H0v.984h-.906c.367.219.636.5.812.844.164.336.25.746.25 1.234 0 .617-.172 1.106-.515 1.469-.344.367-.805.547-1.391.547-.676 0-1.188-.223-1.531-.672-.344-.457-.516-1.14-.516-2.047V-4.75h-.094c-.457 0-.812.152-1.062.453-.25.293-.375.711-.375 1.25 0 .344.043.684.125 1.016.086.324.21.636.375.937h-.906a5.596 5.596 0 01-.313-1.062 4.93 4.93 0 01-.11-.985c0-.875.227-1.523.673-1.953.449-.426 1.132-.64 2.046-.64zm0 0"/></symbol><symbol overflow="visible" id="E"><path d="M-3.25-6.188h.484v4.547c.68-.039 1.196-.242 1.547-.609.356-.363.532-.875.532-1.531a4.34 4.34 0 00-.141-1.11 5.48 5.48 0 00-.406-1.062h.921c.157.355.274.719.344 1.094.082.375.125.75.125 1.125 0 .968-.273 1.734-.828 2.296-.562.555-1.32.829-2.281.829-.977 0-1.754-.266-2.328-.797-.582-.532-.875-1.25-.875-2.157 0-.8.261-1.437.781-1.906.523-.476 1.23-.718 2.125-.718zm-.297 1c-.539 0-.973.153-1.297.454-.32.293-.484.683-.484 1.171 0 .555.156.997.469 1.329.312.324.75.511 1.312.562zm0 0"/></symbol><symbol overflow="visible" id="F"><path d="M-1.36-1.172v-1.14H0v1.14zm0 0"/></symbol><symbol overflow="visible" id="G"><path d="M-5.11-5h-3.25v-.984H0V-5h-.906c.367.21.636.477.812.797.164.312.25.695.25 1.14 0 .72-.285 1.31-.86 1.766-.581.461-1.347.688-2.296.688-.945 0-1.707-.227-2.281-.688-.582-.457-.875-1.047-.875-1.766 0-.445.09-.828.265-1.14.168-.32.43-.586.782-.797zM-3-1.625c.73 0 1.305-.148 1.719-.453.406-.3.61-.711.61-1.235 0-.519-.204-.93-.61-1.234C-1.695-4.847-2.27-5-3-5c-.727 0-1.297.152-1.703.453a1.455 1.455 0 00-.625 1.234c0 .524.21.934.625 1.235.406.305.976.453 1.703.453zm0 0"/></symbol><symbol overflow="visible" id="r"><path d="M1.094-.734h1.422v-4.891l-1.547.313v-.797L2.5-6.406h.875v5.672h1.406V0H1.094zm0 0"/></symbol><clipPath id="i"><path d="M37.152 225h318.371v2H37.153zm0 0"/></clipPath><clipPath id="a"><path d="M37.152 5.48H355V325H37.152zm0 0"/></clipPath><clipPath id="c"><path d="M37.152 178H355v2H37.152zm0 0"/></clipPath><clipPath id="d"><path d="M37.152 85H355v1H37.152zm0 0"/></clipPath><clipPath id="e"><path d="M88 5.48h2v320.372h-2zm0 0"/></clipPath><clipPath id="f"><path d="M181 5.48h2v320.372h-2zm0 0"/></clipPath><clipPath id="g"><path d="M274 5.48h2v320.372h-2zm0 0"/></clipPath><clipPath id="h"><path d="M37.152 319h318.371v2H37.153zm0 0"/></clipPath><clipPath id="b"><path d="M37.152 272H355v2H37.152zm0 0"/></clipPath><clipPath id="j"><path d="M37.152 131h318.371v2H37.153zm0 0"/></clipPath><clipPath id="k"><path d="M37.152 38h318.371v2H37.153zm0 0"/></clipPath><clipPath id="l"><path d="M41 5.48h2v320.372h-2zm0 0"/></clipPath><clipPath id="m"><path d="M134 5.48h2v320.372h-2zm0 0"/></clipPath><clipPath id="n"><path d="M227 5.48h2v320.372h-2zm0 0"/></clipPath><clipPath id="o"><path d="M320 5.48h3v320.372h-3zm0 0"/></clipPath><clipPath id="p"><path d="M37.152 5.48h318.371v320.372H37.153zm0 0"/></clipPath></defs><path fill="#fff" d="M0 0h360v360H0z"/><path fill="#fff" d="M0 0h360v360H0z"/><path d="M0 360h360V0H0zm0 0" fill="none" stroke-width="1.067" stroke-linecap="round" stroke-linejoin="round" stroke="#fff" stroke-miterlimit="10"/><g clip-path="url(#a)"><path d="M37.152 324.848h317.371V5.477H37.153zm0 0" fill="#ebebeb"/></g><g clip-path="url(#b)"><path d="M37.152 272.871H354.52" fill="none" stroke-width=".533" stroke-linejoin="round" stroke="#fff" stroke-miterlimit="10"/></g><g clip-path="url(#c)"><path d="M37.152 179.215H354.52" fill="none" stroke-width=".533" stroke-linejoin="round" stroke="#fff" stroke-miterlimit="10"/></g><g clip-path="url(#d)"><path d="M37.152 85.555H354.52" fill="none" stroke-width=".533" stroke-linejoin="round" stroke="#fff" stroke-miterlimit="10"/></g><g clip-path="url(#e)"><path d="M88.805 324.848V5.48" fill="none" stroke-width=".533" stroke-linejoin="round" stroke="#fff" stroke-miterlimit="10"/></g><g clip-path="url(#f)"><path d="M181.875 324.848V5.48" fill="none" stroke-width=".533" stroke-linejoin="round" stroke="#fff" stroke-miterlimit="10"/></g><g clip-path="url(#g)"><path d="M274.945 324.848V5.48" fill="none" stroke-width=".533" stroke-linejoin="round" stroke="#fff" stroke-miterlimit="10"/></g><g clip-path="url(#h)"><path d="M37.152 319.7H354.52" fill="none" stroke-width="1.067" stroke-linejoin="round" stroke="#fff" stroke-miterlimit="10"/></g><g clip-path="url(#i)"><path d="M37.152 226.043H354.52" fill="none" stroke-width="1.067" stroke-linejoin="round" stroke="#fff" stroke-miterlimit="10"/></g><g clip-path="url(#j)"><path d="M37.152 132.383H354.52" fill="none" stroke-width="1.067" stroke-linejoin="round" stroke="#fff" stroke-miterlimit="10"/></g><g clip-path="url(#k)"><path d="M37.152 38.727H354.52" fill="none" stroke-width="1.067" stroke-linejoin="round" stroke="#fff" stroke-miterlimit="10"/></g><g clip-path="url(#l)"><path d="M42.27 324.848V5.48" fill="none" stroke-width="1.067" stroke-linejoin="round" stroke="#fff" stroke-miterlimit="10"/></g><g clip-path="url(#m)"><path d="M135.34 324.848V5.48" fill="none" stroke-width="1.067" stroke-linejoin="round" stroke="#fff" stroke-miterlimit="10"/></g><g clip-path="url(#n)"><path d="M228.41 324.848V5.48" fill="none" stroke-width="1.067" stroke-linejoin="round" stroke="#fff" stroke-miterlimit="10"/></g><g clip-path="url(#o)"><path d="M321.48 324.848V5.48" fill="none" stroke-width="1.067" stroke-linejoin="round" stroke="#fff" stroke-miterlimit="10"/></g><g clip-path="url(#p)"><path d="M37.152 324.848L354.52 5.48" fill="none" stroke-width="1.067" stroke-linejoin="round" stroke="#fff" stroke-miterlimit="10"/></g><path d="M100.066 29.363c0 2.606-3.91 2.606-3.91 0 0-2.61 3.91-2.61 3.91 0M90.758 179.215c0 2.605-3.906 2.605-3.906 0 0-2.61 3.906-2.61 3.906 0M81.453 254.137c0 2.61-3.91 2.61-3.91 0 0-2.606 3.91-2.606 3.91 0M72.145 291.602c0 2.605-3.91 2.605-3.91 0 0-2.606 3.91-2.606 3.91 0M53.531 310.332c0 2.606-3.91 2.606-3.91 0 0-2.605 3.91-2.605 3.91 0M81.453 282.234c0 2.61-3.91 2.61-3.91 0 0-2.605 3.91-2.605 3.91 0M118.68 244.773c0 2.606-3.91 2.606-3.91 0 0-2.605 3.91-2.605 3.91 0M193.137 169.848c0 2.605-3.91 2.605-3.91 0 0-2.606 3.91-2.606 3.91 0M342.05 19.996c0 2.606-3.91 2.606-3.91 0 0-2.605 3.91-2.605 3.91 0M62.84 300.969c0 2.605-3.91 2.605-3.91 0 0-2.61 3.91-2.61 3.91 0" stroke-width=".709" stroke-linecap="round" stroke-linejoin="round" stroke="#000" stroke-miterlimit="10"/><use xlink:href="#q" x="26.219" y="322.367" fill="#4d4d4d"/><g fill="#4d4d4d"><use xlink:href="#r" x="20.219" y="228.711"/><use xlink:href="#q" x="25.817" y="228.711"/></g><g fill="#4d4d4d"><use xlink:href="#s" x="20.219" y="135.051"/><use xlink:href="#q" x="25.817" y="135.051"/></g><g fill="#4d4d4d"><use xlink:href="#t" x="20.219" y="41.395"/><use xlink:href="#q" x="25.817" y="41.395"/></g><path d="M34.41 319.7h2.742M34.41 226.043h2.742M34.41 132.383h2.742M34.41 38.727h2.742M42.27 327.59v-2.742M135.34 327.59v-2.742M228.41 327.59v-2.742M321.48 327.59v-2.742" fill="none" stroke-width="1.067" stroke-linejoin="round" stroke="#333" stroke-miterlimit="10"/><use xlink:href="#q" x="39.27" y="335.949" fill="#4d4d4d"/><g fill="#4d4d4d"><use xlink:href="#r" x="129.34" y="335.949"/><use xlink:href="#q" x="134.938" y="335.949"/></g><g fill="#4d4d4d"><use xlink:href="#s" x="222.41" y="335.949"/><use xlink:href="#q" x="228.009" y="335.949"/></g><g fill="#4d4d4d"><use xlink:href="#t" x="315.48" y="335.949"/><use xlink:href="#q" x="321.079" y="335.949"/></g><use xlink:href="#u" x="162.336" y="350.73"/><use xlink:href="#v" x="168.067" y="350.73"/><use xlink:href="#w" x="172.381" y="350.73"/><use xlink:href="#v" x="179.122" y="350.73"/><use xlink:href="#x" x="183.436" y="350.73"/><use xlink:href="#u" x="190.203" y="350.73"/><use xlink:href="#y" x="195.935" y="350.73"/><use xlink:href="#u" x="199.432" y="350.73"/><use xlink:href="#z" x="205.163" y="350.73"/><use xlink:href="#w" x="215.879" y="350.73"/><use xlink:href="#A" x="222.62" y="350.73"/><use xlink:href="#A" x="225.677" y="350.73"/><g><use xlink:href="#B" x="13.691" y="198.664"/><use xlink:href="#C" x="13.691" y="192.933"/><use xlink:href="#D" x="13.691" y="188.619"/><use xlink:href="#C" x="13.691" y="181.878"/><use xlink:href="#E" x="13.691" y="177.564"/><use xlink:href="#B" x="13.691" y="170.797"/><use xlink:href="#F" x="13.691" y="165.065"/><use xlink:href="#G" x="13.691" y="161.568"/><use xlink:href="#E" x="13.691" y="154.586"/><use xlink:href="#C" x="13.691" y="147.818"/><use xlink:href="#E" x="13.691" y="143.505"/><use xlink:href="#H" x="13.691" y="136.737"/></g></svg>