<?xml-stylesheet href="spot.css" type="text/css"?><svg width="274pt" height="194pt" viewBox="0 0 274 194" xmlns="http://www.w3.org/2000/svg"><g class="graph" transform="translate(4 190)"><path fill="#fff" stroke="transparent" d="M-4 4v-194h274V4H-4z"/><text x="130.5" y="-172.4" font-family="Lato" font-size="12">t</text><text x="121.5" y="-159.4" font-family="Lato" font-size="12">[all]</text><g class="node"><circle fill="#ffffa0" stroke="#000" cx="56" cy="-76" r="18"/><text text-anchor="middle" x="56" y="-72.9" font-family="Lato" font-size="12">1</text></g><g class="edge"><path fill="none" stroke="#000" d="M1.123-76h29.801"/><path stroke="#000" d="M37.98-76l-7-3.15 3.5 3.15h-3.5 3.5l-3.5 3.15 7-3.15h0z"/></g><g class="node"><circle fill="#ffffa0" stroke="#000" cx="140" cy="-103" r="18"/><text text-anchor="middle" x="140" y="-99.9" font-family="Lato" font-size="12">3</text></g><g class="edge"><path fill="none" stroke="#000" d="M73.405-81.594l42.44-13.642"/><path stroke="#000" d="M122.617-97.413l-7.628-.856 4.296 1.927-3.332 1.071h0l3.332-1.07-2.368 4.07 5.7-5.142h0z"/><text x="92" y="-94.4" font-family="Lato" font-size="12">!c</text></g><g class="node"><circle fill="#ffffa0" stroke="#000" cx="140" cy="-49" r="18"/><text text-anchor="middle" x="140" y="-45.9" font-family="Lato" font-size="12">4</text></g><g class="edge"><path fill="none" stroke="#000" d="M73.405-70.406l42.44 13.642"/><path stroke="#000" d="M122.617-54.587l-5.7-5.141 2.368 4.07-3.332-1.071h0l3.332 1.07-4.296 1.928 7.628-.856h0z"/><text x="94.5" y="-67.4" font-family="Lato" font-size="12">c</text></g><g class="node"><circle fill="#ffffa0" stroke="#000" cx="248" cy="-18" r="18"/><text text-anchor="middle" x="248" y="-14.9" font-family="Lato" font-size="12">0</text></g><g class="edge"><path fill="none" stroke="#000" d="M238.767-33.541C236.168-43.91 239.247-54 248-54c6.702 0 10.077 5.915 10.125 13.34"/><path stroke="#000" d="M257.233-33.541l3.996-6.555-3.561 3.082.435-3.473h0l-.435 3.473-2.69-3.865 2.255 7.338h0z"/><text x="244.5" y="-57.4" font-family="Lato" font-size="12">c</text></g><g class="node"><circle fill="#ffffa0" stroke="#000" cx="248" cy="-103" r="18"/><text text-anchor="middle" x="248" y="-99.9" font-family="Lato" font-size="12">2</text></g><g class="edge"><path fill="none" stroke="#000" d="M158.32-103h64.452"/><path stroke="#000" d="M229.95-103l-7-3.15 3.5 3.15h-3.5 3.5l-3.5 3.15 7-3.15h0z"/><text x="190" y="-106.4" font-family="Lato" font-size="12">a</text></g><g class="edge"><path fill="none" stroke="#000" d="M155.209-38.972c6.215 3.67 13.62 7.52 20.791 9.972 15.08 5.154 32.763 7.9 46.83 9.359"/><path stroke="#000" d="M229.824-18.99l-6.677-3.786 3.192 3.462-3.485-.325h0l3.485.325-3.777 2.811 7.262-2.487h0z"/><text x="176" y="-32.4" font-family="Lato" font-size="12">!a &amp; c</text></g><g class="edge"><path fill="none" stroke="#000" d="M156.403-57.201l69.056-34.529"/><path stroke="#000" d="M231.797-94.898l-7.67.313 4.54 1.252-3.131 1.565h0l3.13-1.565-1.722 4.383 4.853-5.948h0z"/><text x="190" y="-86.4" font-family="Lato" font-size="12">a</text></g><g class="edge"><path fill="none" stroke="#000" d="M238.767-118.541C236.168-128.91 239.247-139 248-139c6.702 0 10.077 5.915 10.125 13.34"/><path stroke="#000" d="M257.233-118.541l3.996-6.555-3.561 3.082.435-3.473h0l-.435 3.473-2.69-3.865 2.255 7.338h0z"/><text text-anchor="middle" x="248" y="-142.4" font-family="Lato" font-size="12">1</text></g></g></svg>