<?xml-stylesheet href="spot.css" type="text/css"?><svg width="382pt" height="268pt" viewBox="0 0 382 267.66" xmlns="http://www.w3.org/2000/svg"><g class="graph" transform="translate(4 263.662)"><path fill="#fff" stroke="transparent" d="M-4 4v-267.662h382V4H-4z"/><text x="165.5" y="-233.062" font-family="Lato" font-size="12">[Büchi]</text><g class="node"><circle fill="#ffffa0" stroke="#000" cx="60" cy="-98.262" r="18"/><circle fill="none" stroke="#000" cx="60" cy="-98.262" r="22"/><text text-anchor="middle" x="60" y="-95.162" font-family="Lato" font-size="12">1</text></g><g class="edge"><path fill="none" stroke="#000" d="M1.168-98.262h29.47"/><path stroke="#000" d="M37.865-98.262l-7-3.15 3.5 3.15h-3.5 3.5l-3.5 3.15 7-3.15h0z"/></g><g class="node"><circle fill="#ffffa0" stroke="#000" cx="152" cy="-141.262" r="18"/><circle fill="none" stroke="#000" cx="152" cy="-141.262" r="22"/><text text-anchor="middle" x="152" y="-138.162" font-family="Lato" font-size="12">3</text></g><g class="edge"><path fill="none" stroke="#000" d="M79.963-107.592l45.388-21.214"/><path stroke="#000" d="M131.759-131.801l-7.676.11 4.505 1.372-3.17 1.482h0l3.17-1.482-1.837 4.336 5.008-5.818h0z"/><text x="100" y="-125.662" font-family="Lato" font-size="12">!c</text></g><g class="node"><circle fill="#ffffa0" stroke="#000" cx="152" cy="-67.262" r="18"/><circle fill="none" stroke="#000" cx="152" cy="-67.262" r="22"/><text text-anchor="middle" x="152" y="-64.162" font-family="Lato" font-size="12">4</text></g><g class="edge"><path fill="none" stroke="#000" d="M80.876-91.227l43.03 14.499"/><path stroke="#000" d="M130.888-74.376l-5.628-5.22 2.311 4.103-3.317-1.118h0l3.317 1.118-4.322 1.867 7.639-.75h0z"/><text x="102.5" y="-87.662" font-family="Lato" font-size="12">c</text></g><g class="node"><circle fill="#ffffa0" stroke="#000" cx="268" cy="-48.262" r="18"/><circle fill="none" stroke="#000" cx="268" cy="-48.262" r="22"/><text text-anchor="middle" x="268" y="-45.162" font-family="Lato" font-size="12">0</text></g><g class="edge"><path fill="none" stroke="#000" d="M259.63-68.842c-1.158-10.264 1.632-19.42 8.37-19.42 5.054 0 7.887 5.15 8.498 12.055"/><path stroke="#000" d="M276.37-68.842l3.272-6.945-3.21 3.445.06-3.5h0l-.06 3.5-3.09-3.554 3.028 7.054h0z"/><text x="264.5" y="-91.662" font-family="Lato" font-size="12">c</text></g><g class="node"><circle fill="#ffffa0" stroke="#000" cx="356" cy="-48.262" r="18"/><text text-anchor="middle" x="356" y="-45.162" font-family="Lato" font-size="12">5</text></g><g class="edge"><path fill="none" stroke="#000" d="M290.206-48.262h40.548"/><path stroke="#000" d="M337.946-48.262l-7-3.15 3.5 3.15h-3.5 3.5l-3.5 3.15 7-3.15h0z"/><text x="308" y="-51.662" font-family="Lato" font-size="12">!c</text></g><g class="edge"><path fill="none" stroke="#000" d="M348.617-64.926c-1.64-9.96.82-19.336 7.383-19.336 4.922 0 7.537 5.274 7.844 12.113"/><path stroke="#000" d="M363.383-64.926l3.59-6.785-3.367 3.292.223-3.493h0l-.223 3.493-2.92-3.693 2.697 7.186h0z"/><text text-anchor="middle" x="356" y="-87.662" font-family="Lato" font-size="12">1</text></g><g class="edge"><path fill="none" stroke="#000" d="M167.319-157.825c26.374-26.466 81.49-72.667 122.681-45.437 43.848 28.987 58.659 93.664 63.592 129.635"/><path stroke="#000" d="M354.501-66.41l2.25-7.339-2.687 3.867-.438-3.473h0l.438 3.473-3.563-3.079 4 6.551h0z"/><text x="261.5" y="-214.662" font-family="Lato" font-size="12">!a</text></g><g class="node"><circle fill="#ffffa0" stroke="#000" cx="268" cy="-141.262" r="18"/><circle fill="none" stroke="#000" cx="268" cy="-141.262" r="22"/><text text-anchor="middle" x="268" y="-138.162" font-family="Lato" font-size="12">2</text></g><g class="edge"><path fill="none" stroke="#000" d="M174.092-141.262h64.8"/><path stroke="#000" d="M245.99-141.262l-7-3.15 3.5 3.15h-3.5 3.5l-3.5 3.15 7-3.15h0z"/><text x="206" y="-144.662" font-family="Lato" font-size="12">a</text></g><g class="edge"><path fill="none" stroke="#000" d="M173.819-63.688l65.323 10.7"/><path stroke="#000" d="M246.28-51.82l-6.4-4.24 2.945 3.675-3.454-.566h0l3.454.566-3.963 2.543 7.417-1.977h0z"/><text x="192" y="-64.662" font-family="Lato" font-size="12">!a &amp; c</text></g><g class="edge"><path fill="none" stroke="#000" d="M168.073-52.048c17.559 15.476 47.29 38.47 77.927 47.786 18.71 5.69 25.284 5.667 44 0 17.443-5.281 34.49-16.861 46.889-26.816"/><path stroke="#000" d="M342.583-35.8l-7.399 2.044 4.705.19-2.694 2.235h0l2.694-2.235-.684 4.66 3.378-6.894h0z"/><text x="248" y="-7.662" font-family="Lato" font-size="12">!a &amp; !c</text></g><g class="edge"><path fill="none" stroke="#000" d="M170.637-79.151l72.627-46.33"/><path stroke="#000" d="M249.409-129.402l-7.596 1.11 4.645.773-2.95 1.882h0l2.95-1.882-1.256 4.538 4.207-6.42h0z"/><text x="206" y="-117.662" font-family="Lato" font-size="12">a</text></g><g class="edge"><path fill="none" stroke="#000" d="M259.63-161.842c-1.158-10.264 1.632-19.42 8.37-19.42 5.054 0 7.887 5.15 8.498 12.055"/><path stroke="#000" d="M276.37-161.842l3.272-6.944-3.21 3.444.06-3.5h0l-.06 3.5-3.09-3.554 3.028 7.054h0z"/><text text-anchor="middle" x="268" y="-184.662" font-family="Lato" font-size="12">1</text></g></g></svg>