<?xml-stylesheet href="spot.css" type="text/css"?><svg width="1223pt" height="528" viewBox="0 0 1223 396" xmlns="http://www.w3.org/2000/svg"><g class="graph"><path fill="#fff" stroke="transparent" d="M0 396V0h1223v396H0z"/><text x="501.5" y="-375.4" font-family="Lato" font-size="12" transform="translate(4 392)">Fin(</text><text x="523.5" y="-375.4" font-family="Lato" font-size="12" fill="#1f78b4" transform="translate(4 392)">⓿</text><text x="536.5" y="-375.4" font-family="Lato" font-size="12" transform="translate(4 392)">) &amp; (Inf(</text><text x="582.5" y="-375.4" font-family="Lato" font-size="12" fill="#ff4da0" transform="translate(4 392)">❶</text><text x="593.5" y="-375.4" font-family="Lato" font-size="12" transform="translate(4 392)">) | (Fin(</text><text x="635.5" y="-375.4" font-family="Lato" font-size="12" fill="#ff7f00" transform="translate(4 392)">❷</text><text x="646.5" y="-375.4" font-family="Lato" font-size="12" transform="translate(4 392)">) &amp; Inf(</text><text x="688.5" y="-375.4" font-family="Lato" font-size="12" fill="#6a3d9a" transform="translate(4 392)">❸</text><text x="699.5" y="-375.4" font-family="Lato" font-size="12" transform="translate(4 392)">)))</text><text x="553.5" y="-363.4" font-family="Lato" font-size="12" transform="translate(4 392)">[parity min odd 4]</text><g class="cluster" transform="translate(4 392)"><path fill="none" stroke="#0f0" d="M632-20v-182h575v182H632z"/></g><g class="cluster" transform="translate(4 392)"><path fill="none" stroke="#000" d="M519-168v-52h52v52h-52z"/></g><g class="cluster" transform="translate(4 392)"><path fill="none" stroke="red" d="M405.5-168v-96h52v96h-52z"/></g><g class="cluster" transform="translate(4 392)"><path fill="none" stroke="#0f0" d="M143.5-13v-122h200v122h-200z"/></g><g class="cluster" transform="translate(4 392)"><path fill="none" stroke="#0f0" d="M30-181v-122h239.5v122H30z"/></g><g class="node" transform="translate(4 392)"><circle fill="#ffffa0" stroke="#000" cx="56" cy="-238" r="18"/><text text-anchor="middle" x="56" y="-234.9" font-family="Lato" font-size="12">0</text></g><g class="edge" transform="translate(4 392)"><path fill="none" stroke="#000" d="M1.123-238h29.801"/><path stroke="#000" d="M37.98-238l-7-3.15 3.5 3.15h-3.5 3.5l-3.5 3.15 7-3.15h0z"/></g><g class="node" transform="translate(4 392)"><circle fill="#ffffa0" stroke="#000" cx="658" cy="-168" r="18"/><text text-anchor="middle" x="658" y="-164.9" font-family="Lato" font-size="12">1</text></g><g class="edge" transform="translate(4 392)"><path fill="none" stroke="#000" d="M65.403-253.607C82.543-279.855 121.56-330 169.5-330H545c66.076 0 96.702 91.782 107.809 137.178"/><path stroke="#000" d="M654.426-185.956l1.461-7.536-2.263 4.13-.803-3.407h0l.803 3.406-3.869-2.684 4.671 6.091h0z"/><text x="301.5" y="-346.4" font-family="Lato" font-size="12">a &amp; b</text><text x="311" y="-333.4" font-family="Lato" font-size="12" fill="#1f78b4">⓿</text></g><g class="node" transform="translate(4 392)"><circle fill="#ffffa0" stroke="#000" cx="169.5" cy="-105" r="18"/><text text-anchor="middle" x="169.5" y="-101.9" font-family="Lato" font-size="12">3</text></g><g class="edge" transform="translate(4 392)"><path fill="none" stroke="#000" d="M63.783-221.604C70.362-208.582 80.529-190.254 92-176c17.117 21.271 40.7 41.932 57.343 55.429"/><path stroke="#000" d="M155.136-115.935l-3.497-6.833.764 4.646-2.732-2.187h0l2.732 2.187-4.7.272 7.433 1.915h0z"/><text x="92" y="-192.4" font-family="Lato" font-size="12">!a &amp; !b</text><text x="107" y="-179.4" font-family="Lato" font-size="12" fill="#6a3d9a">❸</text></g><g class="node" transform="translate(4 392)"><circle fill="#ffffa0" stroke="#000" cx="243.5" cy="-246" r="18"/><text text-anchor="middle" x="243.5" y="-242.9" font-family="Lato" font-size="12">4</text></g><g class="edge" transform="translate(4 392)"><path fill="none" stroke="#000" d="M73.242-232.085C98.598-224.218 147.337-212.265 188-221c11.417-2.453 23.318-7.446 33.159-12.33"/><path stroke="#000" d="M227.61-236.66l-7.664.412 4.555 1.193-3.11 1.606h0l3.11-1.606-1.665 4.405 4.775-6.01h0z"/><text x="151" y="-237.4" font-family="Lato" font-size="12">a &amp; !b</text><text x="164" y="-224.4" font-family="Lato" font-size="12" fill="#ff4da0">❶</text></g><g class="node" transform="translate(4 392)"><circle fill="#ffffa0" stroke="#000" cx="877.5" cy="-59" r="18"/><text text-anchor="middle" x="877.5" y="-55.9" font-family="Lato" font-size="12">7</text></g><g class="edge" transform="translate(4 392)"><path fill="none" stroke="#000" d="M674.14-159.985l180.794 89.779"/><path stroke="#000" d="M861.336-67.027l-4.869-5.934 1.734 4.377-3.135-1.556h0l3.135 1.556-4.536 1.265 7.671.292h0z"/><text x="749" y="-139.4" font-family="Lato" font-size="12">a &amp; !b</text><text x="762" y="-126.4" font-family="Lato" font-size="12" fill="#ff4da0">❶</text></g><g class="edge" transform="translate(4 392)"><path fill="none" stroke="#000" d="M871.12-76.037C869.82-85.857 871.946-95 877.5-95c4.166 0 6.404 5.142 6.713 11.857"/><path stroke="#000" d="M883.88-76.037l3.474-6.845-3.31 3.349.164-3.497h0l-.165 3.496-2.982-3.643 2.818 7.14h0z"/><text x="861.5" y="-111.4" font-family="Lato" font-size="12">a &amp; b</text><text x="872" y="-98.4" font-family="Lato" font-size="12" fill="#ff7f00">❷</text></g><g class="node" transform="translate(4 392)"><circle fill="#ffffa0" stroke="#000" cx="1027.5" cy="-170" r="18"/><text text-anchor="middle" x="1027.5" y="-166.9" font-family="Lato" font-size="12">5</text></g><g class="edge" transform="translate(4 392)"><path fill="none" stroke="#000" d="M887.178-74.247C897.184-89.034 913.989-111.325 933-126c21.53-16.619 50.347-28.889 70.477-36.189"/><path stroke="#000" d="M1010.21-164.563l-7.65-.642 4.348 1.806-3.3 1.164h0l3.3-1.164-2.253 4.135 5.554-5.299h0z"/><text x="935.5" y="-164.4" font-family="Lato" font-size="12">a &amp; b</text><text x="946" y="-151.4" font-family="Lato" font-size="12" fill="#ff7f00">❷</text></g><g class="node" transform="translate(4 392)"><circle fill="#ffffa0" stroke="#000" cx="1181" cy="-108" r="18"/><text text-anchor="middle" x="1181" y="-104.9" font-family="Lato" font-size="12">6</text></g><g class="edge" transform="translate(4 392)"><path fill="none" stroke="#000" d="M895.15-55.329c31.2 5.863 97.987 15.59 152.85 4.329 41.113-8.439 85.21-30.14 110.886-44.199"/><path stroke="#000" d="M1165.312-98.77l-7.648.647 4.589 1.053-3.06 1.7h0l3.06-1.7-1.53 4.454 4.59-6.154h0z"/><text x="1007" y="-67.4" font-family="Lato" font-size="12">!a &amp; !b</text><text x="1022" y="-54.4" font-family="Lato" font-size="12" fill="#6a3d9a">❸</text></g><g class="edge" transform="translate(4 392)"><path fill="none" stroke="#000" d="M1009.695-173.125C998.37-174.95 983.373-177.075 970-178c-16.405-1.136-20.558-.299-37 0-92.042 1.673-201.328 6.493-249.75 8.775"/><path stroke="#000" d="M676.012-168.882l7.142 2.815-3.646-2.98 3.496-.167h0l-3.496.166 3.347-3.312-6.843 3.478h0z"/><text x="859" y="-194.4" font-family="Lato" font-size="12">!a &amp; b</text><text x="872" y="-181.4" font-family="Lato" font-size="12" fill="#ff7f00">❷</text></g><g class="edge" transform="translate(4 392)"><path fill="none" stroke="#000" d="M1017.948-154.567C1007.701-139.062 990.155-115.327 970-100c-20.796 15.815-48.651 27.093-68.343 33.767"/><path stroke="#000" d="M894.8-63.982l7.633.81-4.308-1.902 3.326-1.091h0l-3.326 1.091 2.343-4.084-5.668 5.176h0z"/><text x="933" y="-116.4" font-family="Lato" font-size="12">a &amp; !b</text><text x="945" y="-103.4" font-family="Lato" font-size="12" fill="#1f78b4">⓿</text></g><g class="edge" transform="translate(4 392)"><path fill="none" stroke="#000" d="M1044.22-163.247l113.41 45.808"/><path stroke="#000" d="M1164.301-114.745l-5.31-5.542 2.065 4.231-3.245-1.31h0l3.245 1.31-4.425 1.61 7.67-.299h0z"/><text x="1085" y="-163.4" font-family="Lato" font-size="12">!a &amp; !b</text><text x="1099" y="-150.4" font-family="Lato" font-size="12" fill="#1f78b4">⓿</text></g><g class="edge" transform="translate(4 392)"><path fill="none" stroke="#000" d="M1163.018-105.097L902.737-63.075"/><path stroke="#000" d="M895.576-61.918l7.413 1.993-3.957-2.551 3.455-.558h0l-3.455.558 2.953-3.668-6.409 4.226h0z"/><text x="1009" y="-103.4" font-family="Lato" font-size="12">!a &amp; b</text><text x="1022" y="-90.4" font-family="Lato" font-size="12" fill="#6a3d9a">❸</text></g><g class="node" transform="translate(4 392)"><circle fill="#ffffa0" stroke="#000" cx="545" cy="-194" r="18"/><text text-anchor="middle" x="545" y="-190.9" font-family="Lato" font-size="12">2</text></g><g class="edge" transform="translate(4 392)"><path fill="none" stroke="#000" d="M562.065-187.76c5.94 2.024 12.68 4.158 18.935 5.76 17.193 4.405 36.888 7.96 52.056 10.385"/><path stroke="#000" d="M640.107-170.517l-6.432-4.19 2.974 3.652-3.459-.54h0l3.458.54-3.943 2.573 7.402-2.035h0z"/><text x="585.5" y="-198.4" font-family="Lato" font-size="12">a &amp; b</text><text x="595" y="-185.4" font-family="Lato" font-size="12" fill="#1f78b4">⓿</text></g><g class="edge" transform="translate(4 392)"><path fill="none" stroke="#000" d="M561.623-201.229c6.019-2.412 12.924-4.948 19.377-6.771 33.473-9.458 42.217-14 77-14h293.5c23.921 0 45.842 17.764 59.93 32.526"/><path stroke="#000" d="M1016.254-184.21l-2.407-7.288.042 4.708-2.365-2.58h0l2.365 2.58-4.687-.452 7.052 3.033h0z"/><text x="804" y="-238.4" font-family="Lato" font-size="12">a &amp; !b</text><text x="817" y="-225.4" font-family="Lato" font-size="12" fill="#ff4da0">❶</text></g><g class="node" transform="translate(4 392)"><circle fill="#ffffa0" stroke="#000" cx="431.5" cy="-194" r="18"/><text text-anchor="middle" x="431.5" y="-190.9" font-family="Lato" font-size="12">9</text></g><g class="edge" transform="translate(4 392)"><path fill="none" stroke="#000" d="M449.736-194h69.957"/><path stroke="#000" d="M526.81-194l-7-3.15 3.5 3.15h-3.5 3.5l-3.5 3.15 7-3.15h0z"/><text x="468" y="-210.4" font-family="Lato" font-size="12">!a &amp; !b</text><text x="482" y="-197.4" font-family="Lato" font-size="12" fill="#1f78b4">⓿</text></g><g class="edge" transform="translate(4 392)"><path fill="none" stroke="#000" d="M421.925-209.541C419.23-219.91 422.422-230 431.5-230c6.95 0 10.45 5.915 10.5 13.34"/><path stroke="#000" d="M441.075-209.541l4.025-6.536-3.574 3.065.45-3.471h0l-.45 3.47-2.673-3.876 2.222 7.348h0z"/><text x="415.5" y="-246.4" font-family="Lato" font-size="12">a &amp; b</text><text x="426" y="-233.4" font-family="Lato" font-size="12" fill="#ff7f00">❷</text></g><g class="edge" transform="translate(4 392)"><path fill="none" stroke="#000" d="M186.742-111.63c10.83-3.902 25.177-8.601 38.258-11.37 78.972-16.716 327.627-36.867 407.81-43.082"/><path stroke="#000" d="M640.033-166.64l-7.222-2.601 3.732 2.871-3.49.27h0l3.49-.27-3.247 3.41 6.736-3.68h0z"/><text x="358.5" y="-161.4" font-family="Lato" font-size="12">a &amp; b</text><text x="369" y="-148.4" font-family="Lato" font-size="12" fill="#6a3d9a">❸</text></g><g class="node" transform="translate(4 392)"><circle fill="#ffffa0" stroke="#000" cx="317.5" cy="-57" r="18"/><text text-anchor="middle" x="317.5" y="-53.9" font-family="Lato" font-size="12">8</text></g><g class="edge" transform="translate(4 392)"><path fill="none" stroke="#000" d="M180.296-89.88C190.269-77.326 206.336-60.378 225-53c21.871 8.645 48.956 6.102 68.152 2.335"/><path stroke="#000" d="M300.095-52.147l-7.503-1.619 4.08 2.35-3.423.73h0l3.423-.73-2.765 3.811 6.188-4.542h0z"/><text x="225" y="-69.4" font-family="Lato" font-size="12">!a &amp; b</text><text x="238" y="-56.4" font-family="Lato" font-size="12" fill="#ff4da0">❶</text></g><g class="edge" transform="translate(4 392)"><path fill="none" stroke="#000" d="M335.164-52.962C357.48-48.222 397.124-41 431.5-41h336c29.556 0 63-6.407 85.171-11.576"/><path stroke="#000" d="M859.736-54.27l-7.541-1.431 4.138 2.247-3.404.816h0l3.404-.816-2.669 3.88 6.072-4.697h0z"/><text x="581" y="-57.4" font-family="Lato" font-size="12">!a &amp; !b</text><text x="596" y="-44.4" font-family="Lato" font-size="12" fill="#6a3d9a">❸</text></g><g class="edge" transform="translate(4 392)"><path fill="none" stroke="#000" d="M331.145-44.912C351.491-28.18 391.67 0 431.5 0h520c7.918 0 48.239-99.591 66.721-146.32"/><path stroke="#000" d="M1020.888-153.078l-5.5 5.355 4.215-2.1-1.285 3.256h0l1.285-3.255 1.646 4.411-.361-7.667h0z"/><text x="694" y="-16.4" font-family="Lato" font-size="12">a &amp; !b</text><text x="707" y="-3.4" font-family="Lato" font-size="12" fill="#ff7f00">❷</text></g><g class="edge" transform="translate(4 392)"><path fill="none" stroke="#000" d="M334.98-62.368C351.056-67.629 375.315-76.388 395-87c49.945-26.928 102.693-67.911 130.38-90.543"/><path stroke="#000" d="M530.898-182.083l-7.407 2.015 4.704.21-2.703 2.223h0l2.703-2.224-.702 4.656 3.405-6.88h0z"/><text x="413" y="-142.4" font-family="Lato" font-size="12">a &amp; !b</text><text x="426" y="-129.4" font-family="Lato" font-size="12" fill="#6a3d9a">❸</text></g><g class="edge" transform="translate(4 392)"><path fill="none" stroke="#000" d="M331.768-68.202C338.39-73.232 346.455-79.12 354-84c17.544-11.346 27.092-7.408 41-23 15.786-17.697 25.391-43.203 30.757-62.026"/><path stroke="#000" d="M427.675-176.135l-4.865 5.939 3.953-2.56-.911 3.38h0l.911-3.38 2.13 4.2-1.218-7.578h0z"/><text x="354" y="-123.4" font-family="Lato" font-size="12">!a &amp; !b</text><text x="369" y="-110.4" font-family="Lato" font-size="12" fill="#ff4da0">❶</text></g><g class="edge" transform="translate(4 392)"><path fill="none" stroke="#000" d="M301.355-65.26C292.18-69.736 280.381-75.126 269.5-79c-24.984-8.896-54.463-16.188-74.913-20.763"/><path stroke="#000" d="M187.487-101.323l6.16 4.58-2.742-3.828 3.419.75h0l-3.419-.75 4.095-2.326-7.513 1.574h0z"/><text x="225" y="-109.4" font-family="Lato" font-size="12">!a &amp; b</text><text x="238" y="-96.4" font-family="Lato" font-size="12" fill="#ff4da0">❶</text></g><g class="edge" transform="translate(4 392)"><path fill="none" stroke="#000" d="M225.001-246.417c-10.791-.222-24.666-.472-37.001-.583-19.777-.178-24.748-1.013-44.5 0-21.085 1.082-44.915 3.62-62.376 5.726"/><path stroke="#000" d="M74.057-240.404l7.333 2.27-3.86-2.698 3.474-.428h0l-3.473.428 3.088-3.554-6.562 3.982h0z"/><text x="151" y="-263.4" font-family="Lato" font-size="12">!a &amp; b</text><text x="164" y="-250.4" font-family="Lato" font-size="12" fill="#6a3d9a">❸</text></g><g class="edge" transform="translate(4 392)"><path fill="none" stroke="#000" d="M260.502-252.69C297.563-266.223 387.883-293.49 457.5-268c29.46 10.787 55.826 36.362 71.732 54.414"/><path stroke="#000" d="M533.824-208.25l-2.178-7.36-.105 4.708-2.283-2.653h0l2.283 2.653-4.67-.599 6.953 3.251h0z"/><text x="356" y="-294.4" font-family="Lato" font-size="12">!a &amp; b</text><text x="369" y="-281.4" font-family="Lato" font-size="12" fill="#ff4da0">❶</text></g><g class="edge" transform="translate(4 392)"><path fill="none" stroke="#000" d="M260.85-241.201l146.305 40.467"/><path stroke="#000" d="M413.919-198.863l-5.907-4.902 2.534 3.97-3.374-.934h0l3.374.933-4.214 2.103 7.587-1.17h0z"/><text x="299" y="-246.4" font-family="Lato" font-size="12">a &amp; !b</text><text x="311" y="-233.4" font-family="Lato" font-size="12" fill="#1f78b4">⓿</text></g></g></svg>