<?xml-stylesheet href="spot.css" type="text/css"?><svg width="290pt" height="149pt" viewBox="0 0 290 148.69" xmlns="http://www.w3.org/2000/svg"><g class="graph"><path fill="#fff" stroke="transparent" d="M0 148.693V0h290v148.693H0z"/><text x="99" y="-128.093" font-family="Lato" font-size="12" transform="translate(4 144.693)">Inf(</text><text x="120" y="-128.093" font-family="Lato" font-size="12" fill="#1f78b4" transform="translate(4 144.693)">⓿</text><text x="133" y="-128.093" font-family="Lato" font-size="12" transform="translate(4 144.693)">)&amp;Inf(</text><text x="167" y="-128.093" font-family="Lato" font-size="12" fill="#ff4da0" transform="translate(4 144.693)">❶</text><text x="178" y="-128.093" font-family="Lato" font-size="12" transform="translate(4 144.693)">)</text><text x="99" y="-116.093" font-family="Lato" font-size="12" transform="translate(4 144.693)">[gen. Büchi 2]</text><g class="node" transform="translate(4 144.693)"><circle fill="#ffffa0" stroke="#000" cx="56" cy="-33.693" r="18"/><text text-anchor="middle" x="56" y="-30.593" font-family="Lato" font-size="12">0</text></g><g class="edge" transform="translate(4 144.693)"><path fill="none" stroke="#000" d="M1.123-33.693h29.801"/><path stroke="#000" d="M37.98-33.693l-7-3.15 3.5 3.15h-3.5 3.5l-3.5 3.15 7-3.15h0z"/></g><g class="node" transform="translate(4 144.693)"><circle fill="#ffffa0" stroke="#000" cx="158" cy="-83.693" r="18"/><text text-anchor="middle" x="158" y="-80.593" font-family="Lato" font-size="12">1</text></g><g class="edge" transform="translate(4 144.693)"><path fill="none" stroke="#000" d="M64.775-49.923C71.001-59.73 80.317-71.493 92-77.693c12.319-6.537 27.769-8.229 40.622-8.198"/><path stroke="#000" d="M139.847-85.698l-6.913-3.336 3.415 3.243-3.5-.094h0l3.5.094-3.584 3.055 7.082-2.962h0z"/><text x="94" y="-87.093" font-family="Lato" font-size="12">p0</text></g><g class="node" transform="translate(4 144.693)"><circle fill="#ffffa0" stroke="#000" cx="256" cy="-33.693" r="18"/><text text-anchor="middle" x="256" y="-30.593" font-family="Lato" font-size="12">2</text></g><g class="edge" transform="translate(4 144.693)"><path fill="none" stroke="#000" d="M74.101-33.693h156.512"/><path stroke="#000" d="M237.795-33.693l-7-3.15 3.5 3.15h-3.5 3.5l-3.5 3.15 7-3.15h0z"/><text x="148" y="-37.093" font-family="Lato" font-size="12">!p0</text></g><g class="edge" transform="translate(4 144.693)"><path fill="none" stroke="#000" d="M144.935-71.022C136.24-63.242 124.209-53.66 112-47.693c-9.636 4.709-21.003 7.927-30.969 10.078"/><path stroke="#000" d="M74.067-36.23l7.48 1.725-4.047-2.408 3.432-.682h0l-3.432.682 2.818-3.772-6.251 4.454h0z"/><text x="92" y="-64.093" font-family="Lato" font-size="12">!p0</text><text x="95.5" y="-51.093" font-family="Lato" font-size="12" fill="#1f78b4">⓿</text></g><g class="edge" transform="translate(4 144.693)"><path fill="none" stroke="#000" d="M176.152-85.5c12.957-.47 30.4.62 43.848 7.807 9.295 4.967 17.1 13.446 23.04 21.642"/><path stroke="#000" d="M247.212-49.9l-1.323-7.562-.642 4.665-1.965-2.896h0l1.965 2.896-4.572-1.127 6.537 4.024h0z"/><text x="204" y="-99.093" font-family="Lato" font-size="12">p0</text><text x="206.5" y="-86.093" font-family="Lato" font-size="12" fill="#ff4da0">❶</text></g><g class="edge" transform="translate(4 144.693)"><path fill="none" stroke="#000" d="M240.202-24.718C226.397-17.424 205.557-7.708 186-3.693c-24.38 5.004-31.571 4.764-56 0-18.007-3.511-37.173-11.41-51.487-18.221"/><path stroke="#000" d="M71.902-25.146l4.905 5.904-1.76-4.367 3.144 1.537h0l-3.145-1.537 4.528-1.292-7.672-.245h0z"/><text x="130" y="-20.093" font-family="Lato" font-size="12">!p0 &amp; !p1</text><text x="152.5" y="-7.093" font-family="Lato" font-size="12" fill="#ff4da0">❶</text></g><g class="edge" transform="translate(4 144.693)"><path fill="none" stroke="#000" d="M238.028-36.68c-10.324-2.163-23.324-5.663-34.028-11.013-9.686-4.842-19.295-11.908-27.206-18.5"/><path stroke="#000" d="M171.102-71.097l3.247 6.955-.595-4.67 2.651 2.284h0l-2.651-2.285 4.708-.101-7.36-2.183h0z"/><text x="204" y="-64.093" font-family="Lato" font-size="12">p0</text><text x="205.5" y="-51.093" font-family="Lato" font-size="12" fill="#1f78b4">⓿</text></g><g class="edge" transform="translate(4 144.693)"><path fill="none" stroke="#000" d="M248.332-49.983c-1.849-10.1.707-19.71 7.668-19.71 5.22 0 7.964 5.406 8.229 12.37"/><path stroke="#000" d="M263.668-49.983l3.674-6.74-3.407 3.25.266-3.49h0l-.266 3.49-2.875-3.73 2.608 7.22h0z"/><text x="230" y="-86.093" font-family="Lato" font-size="12">!p0 &amp; p1</text><text x="249.5" y="-73.093" font-family="Lato" font-size="12" fill="#1f78b4">⓿</text></g></g></svg>