<?xml-stylesheet href="spot.css" type="text/css"?><svg width="215pt" height="205pt" viewBox="0 0 214.6 205" xmlns="http://www.w3.org/2000/svg"><g class="graph"><path fill="#fff" stroke="transparent" d="M0 205V0h214.6v205H0z"/><text x="83.3" y="-184.4" font-family="Lato" font-size="12" transform="translate(4 201)">Fin(</text><text x="105.3" y="-184.4" font-family="Lato" font-size="12" fill="#1f78b4" transform="translate(4 201)">⓿</text><text x="118.3" y="-184.4" font-family="Lato" font-size="12" transform="translate(4 201)">)</text><text x="72.8" y="-172.4" font-family="Lato" font-size="12" transform="translate(4 201)">[co-Büchi]</text><g class="node" transform="translate(4 201)"><circle fill="#ffffa0" stroke="#000" cx="39.8" cy="-88" r="1.8"/></g><g class="edge" transform="translate(4 201)"><path fill="none" stroke="#000" d="M1.182-88h29.673M30.99-90.45l7 2.45-7 2.45v-4.9z"/></g><g class="node" transform="translate(4 201)"><circle fill="#ffffa0" stroke="#000" cx="108.6" cy="-116" r="18"/><text text-anchor="middle" x="108.6" y="-112.9" font-family="Lato" font-size="12">0</text></g><g class="edge" transform="translate(4 201)"><path fill="none" stroke="#000" d="M41.527-89.532C44.817-92.379 52.311-98.507 59.6-102c7.575-3.63 16.27-6.493 24.213-8.659"/><path stroke="#000" d="M90.843-112.454l-7.562-1.32 4.17 2.186-3.39.866h0l3.39-.866-2.611 3.918 6.003-4.784h0z"/></g><g class="node" transform="translate(4 201)"><circle fill="#ffffa0" stroke="#000" cx="108.6" cy="-18" r="18"/><text text-anchor="middle" x="108.6" y="-14.9" font-family="Lato" font-size="12">1</text></g><g class="edge" transform="translate(4 201)"><path fill="none" stroke="#000" d="M41.237-86.538L90.624-36.29"/><path stroke="#000" d="M95.858-30.964l-2.66-7.2.207 4.704-2.454-2.496h0l2.454 2.496-4.7-.288 7.153 2.784h0z"/></g><g class="edge" transform="translate(4 201)"><path fill="none" stroke="#000" d="M96.77-101.965C90.37-95.471 81.88-88.445 72.6-85c-7.84 2.91-17.427 1.516-24.206-.214M47.622-82.888l-5.971-4.399 7.41-.284-1.439 4.683z"/><text x="59.6" y="-88.4" font-family="Lato" font-size="12">!a</text></g><g class="edge" transform="translate(4 201)"><path fill="none" stroke="#000" d="M101.569-132.664c-1.563-9.961.781-19.336 7.031-19.336 4.688 0 7.178 5.273 7.47 12.112"/><path stroke="#000" d="M115.631-132.664l3.57-6.796-3.357 3.302.212-3.493h0l-.212 3.493-2.932-3.685 2.72 7.179h0z"/><text x="104.6" y="-155.4" font-family="Lato" font-size="12">a</text></g><g class="edge" transform="translate(4 201)"><path fill="none" stroke="#000" d="M101.569-34.664C100.006-44.625 102.35-54 108.6-54c4.688 0 7.178 5.273 7.47 12.112"/><path stroke="#000" d="M115.631-34.664l3.57-6.796-3.357 3.302.212-3.493h0l-.212 3.493-2.932-3.684 2.72 7.178h0z"/><text x="102.1" y="-70.4" font-family="Lato" font-size="12">!a</text><text x="102.1" y="-57.4" font-family="Lato" font-size="12" fill="#1f78b4">⓿</text></g><g class="node" transform="translate(4 201)"><circle fill="#ffffa0" stroke="#000" cx="188.6" cy="-18" r="18"/><text text-anchor="middle" x="188.6" y="-14.9" font-family="Lato" font-size="12">2</text></g><g class="edge" transform="translate(4 201)"><path fill="none" stroke="#000" d="M126.753-18h36.669"/><path stroke="#000" d="M170.519-18l-7-3.15 3.5 3.15h-3.5 3.5l-3.5 3.15 7-3.15h0z"/><text x="144.6" y="-21.4" font-family="Lato" font-size="12">a</text></g><g class="edge" transform="translate(4 201)"><path fill="none" stroke="#000" d="M181.569-34.664C180.006-44.625 182.35-54 188.6-54c4.688 0 7.178 5.273 7.47 12.112"/><path stroke="#000" d="M195.631-34.664l3.57-6.796-3.357 3.302.212-3.493h0l-.212 3.493-2.932-3.684 2.72 7.178h0z"/><text text-anchor="middle" x="188.6" y="-57.4" font-family="Lato" font-size="12">1</text></g></g></svg>