<?xml-stylesheet href="spot.css" type="text/css"?><svg width="628" height="205pt" viewBox="0 0 471 205.06" xmlns="http://www.w3.org/2000/svg"><g class="graph" transform="translate(4 201.058)"><path fill="#fff" stroke="transparent" d="M-4 4v-205.058h471V4H-4z"/><text x="70.5" y="-184.458" font-family="Lato" font-size="12">(Fin(</text><text x="96.5" y="-184.458" font-family="Lato" font-size="12" fill="#1f78b4">⓿</text><text x="109.5" y="-184.458" font-family="Lato" font-size="12">) &amp; Inf(</text><text x="151.5" y="-184.458" font-family="Lato" font-size="12" fill="#ff4da0">❶</text><text x="162.5" y="-184.458" font-family="Lato" font-size="12">)) | (Fin(</text><text x="208.5" y="-184.458" font-family="Lato" font-size="12" fill="#ff7f00">❷</text><text x="219.5" y="-184.458" font-family="Lato" font-size="12">) &amp; Inf(</text><text x="261.5" y="-184.458" font-family="Lato" font-size="12" fill="#6a3d9a">❸</text><text x="272.5" y="-184.458" font-family="Lato" font-size="12">)) | (Fin(</text><text x="318.5" y="-184.458" font-family="Lato" font-size="12" fill="#33a02c">❹</text><text x="329.5" y="-184.458" font-family="Lato" font-size="12">) &amp; Inf(</text><text x="371.5" y="-184.458" font-family="Lato" font-size="12" fill="#e31a1c">❺</text><text x="382.5" y="-184.458" font-family="Lato" font-size="12">))</text><text x="204" y="-172.458" font-family="Lato" font-size="12">[Rabin 3]</text><g class="node"><path fill="#ffffa0" stroke="#000" d="M64-97.058H50c-6 0-12 6-12 12v12c0 6 6 12 12 12h14c6 0 12-6 12-12v-12c0-6-6-12-12-12"/><text x="53" y="-82.458" font-family="Lato" font-size="12">6</text><text x="46" y="-70.458" font-family="Lato" font-size="12" fill="#ff7f00">❷</text><text x="57" y="-70.458" font-family="Lato" font-size="12" fill="#33a02c">❹</text></g><g class="edge"><path fill="none" stroke="#000" d="M1.135-79.058h29.554"/><path stroke="#000" d="M37.773-79.058l-7-3.15 3.5 3.15h-3.5 3.5l-3.5 3.15 7-3.15h0z"/></g><g class="node"><path fill="#ffffa0" stroke="#000" d="M158-97.058h-14c-6 0-12 6-12 12v12c0 6 6 12 12 12h14c6 0 12-6 12-12v-12c0-6-6-12-12-12"/><text x="147" y="-82.458" font-family="Lato" font-size="12">5</text><text x="140" y="-70.458" font-family="Lato" font-size="12" fill="#ff7f00">❷</text><text x="151" y="-70.458" font-family="Lato" font-size="12" fill="#33a02c">❹</text></g><g class="edge"><path fill="none" stroke="#000" d="M76.022-79.058h48.42"/><path stroke="#000" d="M131.683-79.058l-7-3.15 3.5 3.15h-3.5 3.5l-3.5 3.15 7-3.15h0z"/><text x="94" y="-82.458" font-family="Lato" font-size="12">!p1</text></g><g class="edge"><path fill="none" stroke="#000" d="M76.038-68.421c5.614 2.61 11.885 5.033 17.962 6.363 8.684 1.899 11.316 1.899 20 0 3.798-.831 7.672-2.09 11.414-3.554"/><path stroke="#000" d="M131.962-68.421l-7.675-.135 4.459 1.515-3.217 1.38h0l3.217-1.38-1.975 4.275 5.191-5.655h0z"/><text x="96" y="-65.458" font-family="Lato" font-size="12">p1</text></g><g class="node"><path fill="#ffffa0" stroke="#000" d="M346-165.058h-14c-6 0-12 6-12 12v12c0 6 6 12 12 12h14c6 0 12-6 12-12v-12c0-6-6-12-12-12"/><text x="335" y="-150.458" font-family="Lato" font-size="12">0</text><text x="328" y="-138.458" font-family="Lato" font-size="12" fill="#ff7f00">❷</text><text x="339" y="-138.458" font-family="Lato" font-size="12" fill="#e31a1c">❺</text></g><g class="node"><path fill="#ffffa0" stroke="#000" d="M252-130.058h-14c-6 0-12 6-12 12v12c0 6 6 12 12 12h14c6 0 12-6 12-12v-12c0-6-6-12-12-12"/><text x="241" y="-115.458" font-family="Lato" font-size="12">2</text><text x="234" y="-103.458" font-family="Lato" font-size="12" fill="#6a3d9a">❸</text><text x="245" y="-103.458" font-family="Lato" font-size="12" fill="#33a02c">❹</text></g><g class="edge"><path fill="none" stroke="#000" d="M319.865-139.098c-5.724 2.326-12.03 4.834-17.865 7.04-10.104 3.818-21.305 7.801-31.084 11.199"/><path stroke="#000" d="M264.082-118.5l7.645.693-4.337-1.835 3.309-1.142h0l-3.309 1.142 2.28-4.12-5.588 5.263h0z"/><text x="282" y="-135.458" font-family="Lato" font-size="12">!p1</text></g><g class="node"><path fill="#ffffa0" stroke="#000" d="M451-102.058h-25c-6 0-12 6-12 12v12c0 6 6 12 12 12h25c6 0 12-6 12-12v-12c0-6-6-12-12-12"/><text x="434.5" y="-87.458" font-family="Lato" font-size="12">4</text><text x="422" y="-75.458" font-family="Lato" font-size="12" fill="#ff4da0">❶</text><text x="433" y="-75.458" font-family="Lato" font-size="12" fill="#ff7f00">❷</text><text x="444" y="-75.458" font-family="Lato" font-size="12" fill="#33a02c">❹</text></g><g class="edge"><path fill="none" stroke="#000" d="M358.094-135.542c11.115 6.755 25.365 15.505 37.906 23.484 3.816 2.427 7.805 5.004 11.746 7.572"/><path stroke="#000" d="M413.866-100.479l-4.131-6.47 1.203 4.553-2.928-1.917h0l2.928 1.917-4.654.718 7.582 1.2h0z"/><text x="378" y="-126.458" font-family="Lato" font-size="12">p1</text></g><g class="edge"><path fill="none" stroke="#000" d="M260.575-130.314c6.044-5.802 13.437-11.538 21.425-14.744 9.52-3.821 20.669-4.877 30.57-4.78"/><path stroke="#000" d="M319.85-149.566l-6.878-3.41 3.38 3.279-3.497-.131h0l3.497.13-3.615 3.018 7.113-2.886h0z"/><text x="282" y="-152.458" font-family="Lato" font-size="12">!p1</text></g><g class="edge"><path fill="none" stroke="#000" d="M264.26-109.271c33.367 4.828 102.217 14.79 142.664 20.644"/><path stroke="#000" d="M413.889-87.62l-6.477-4.12 3.013 3.619-3.464-.501h0l3.464.501-3.915 2.616 7.379-2.115h0z"/><text x="331" y="-103.458" font-family="Lato" font-size="12">p1</text></g><g class="edge"><path fill="none" stroke="#000" d="M433.796-102.211c-.723-9.386.845-17.847 4.704-17.847 2.834 0 4.433 4.563 4.795 10.704"/><path stroke="#000" d="M443.204-102.211l3.24-6.96-3.196 3.46.046-3.5h0l-.046 3.5-3.104-3.54 3.06 7.04h0z"/><text x="428.5" y="-123.458" font-family="Lato" font-size="12">!p1</text></g><g class="edge"><path fill="none" stroke="#000" d="M430.616-102.316c-4.088-17.145-1.46-35.742 7.884-35.742 8.03 0 11.1 13.734 9.21 28.479"/><path stroke="#000" d="M446.384-102.316l4.356-6.32-3.728 2.877.63-3.443h0l-.63 3.443-2.47-4.009 1.842 7.452h0z"/><text x="430.5" y="-141.458" font-family="Lato" font-size="12">p1</text></g><g class="node"><path fill="#ffffa0" stroke="#000" d="M346-62.058h-14c-6 0-12 6-12 12v12c0 6 6 12 12 12h14c6 0 12-6 12-12v-12c0-6-6-12-12-12"/><text x="335" y="-47.458" font-family="Lato" font-size="12">1</text><text x="328" y="-35.458" font-family="Lato" font-size="12" fill="#ff7f00">❷</text><text x="339" y="-35.458" font-family="Lato" font-size="12" fill="#e31a1c">❺</text></g><g class="edge"><path fill="none" stroke="#000" d="M358.185-51.77l48.858-19.642"/><path stroke="#000" d="M413.713-74.094l-7.67-.311 4.422 1.617-3.247 1.305h0l3.247-1.305-2.072 4.228 5.32-5.534h0z"/><text x="376" y="-69.458" font-family="Lato" font-size="12">!p1</text></g><g class="node"><path fill="#ffffa0" stroke="#000" d="M252-70.058h-14c-6 0-12 6-12 12v12c0 6 6 12 12 12h14c6 0 12-6 12-12v-12c0-6-6-12-12-12"/><text x="241" y="-55.458" font-family="Lato" font-size="12">3</text><text x="234" y="-43.458" font-family="Lato" font-size="12" fill="#6a3d9a">❸</text><text x="245" y="-43.458" font-family="Lato" font-size="12" fill="#33a02c">❹</text></g><g class="edge"><path fill="none" stroke="#000" d="M319.912-35.678c-11.113 3.794-25.363 6.794-37.912 3.62-3.805-.963-7.643-2.403-11.333-4.078"/><path stroke="#000" d="M264.225-39.35l4.856 5.944-1.725-4.382 3.132 1.563h0l-3.132-1.563 4.539-1.255-7.67-.308h0z"/><text x="284" y="-35.458" font-family="Lato" font-size="12">p1</text></g><g class="edge"><path fill="none" stroke="#000" d="M264.143-34.103C286.576-15.345 324.896 9.593 358-4.058c27.402-11.3 50.398-36.946 64.703-56.175"/><path stroke="#000" d="M426.859-65.971l-6.657 3.822 4.604-.987-2.053 2.834h0l2.053-2.834.498 4.682 1.555-7.517h0z"/><text x="329" y="-7.458" font-family="Lato" font-size="12">!p1</text></g><g class="edge"><path fill="none" stroke="#000" d="M264.022-50.44l48.42 4.121"/><path stroke="#000" d="M319.683-45.702l-6.707-3.733 3.22 3.436-3.487-.297h0l3.487.297-3.755 2.842 7.242-2.545h0z"/><text x="284" y="-52.458" font-family="Lato" font-size="12">p1</text></g><g class="edge"><path fill="none" stroke="#000" d="M170.022-85.736l48.84-17.146"/><path stroke="#000" d="M225.683-105.277l-7.648-.653 4.346 1.812-3.303 1.16h0l3.303-1.16-2.259 4.132 5.561-5.291h0z"/><text x="188" y="-101.458" font-family="Lato" font-size="12">!p1</text></g><g class="edge"><path fill="none" stroke="#000" d="M170.022-73.594l48.84 14.028"/><path stroke="#000" d="M225.683-57.607l-5.858-4.96 2.494 3.994-3.364-.966h0l3.364.966-4.233 2.061 7.597-1.095h0z"/><text x="190" y="-70.458" font-family="Lato" font-size="12">p1</text></g></g></svg>