<?xml-stylesheet href="spot.css" type="text/css"?><svg width="310pt" height="310pt" viewBox="0 0 310 310.24" xmlns="http://www.w3.org/2000/svg"><g class="graph" transform="translate(4 306.244)"><path fill="#fff" stroke="transparent" d="M-4 4v-310.244h310V4H-4z"/><text x="129.5" y="-275.644" font-family="Lato" font-size="12">[Büchi]</text><g class="node"><circle fill="#ffffa0" stroke="#000" cx="56" cy="-111.844" r="18"/><text text-anchor="middle" x="56" y="-108.744" font-family="Lato" font-size="12">0</text></g><g class="edge"><path fill="none" stroke="#000" d="M1.123-111.844h29.801"/><path stroke="#000" d="M37.98-111.844l-7-3.15 3.5 3.15h-3.5 3.5l-3.5 3.15 7-3.15h0z"/></g><g class="node"><circle fill="#ffffa0" stroke="#000" cx="159" cy="-186.844" r="18"/><circle fill="none" stroke="#000" cx="159" cy="-186.844" r="22"/><text text-anchor="middle" x="159" y="-183.744" font-family="Lato" font-size="12">1</text></g><g class="edge"><path fill="none" stroke="#000" d="M67.918-125.353c6.68-7.148 15.399-15.803 24.082-22.49 12.622-9.721 27.895-18.79 40.67-25.733"/><path stroke="#000" d="M139.096-177.004l-7.66.516 4.572 1.131-3.088 1.648h0l3.088-1.648-1.605 4.427 4.693-6.074h0z"/><text text-anchor="middle" x="105.5" y="-168.244" font-family="Lato" font-size="12">1</text></g><g class="node"><circle fill="#ffffa0" stroke="#000" cx="159" cy="-48.844" r="18"/><text text-anchor="middle" x="159" y="-45.744" font-family="Lato" font-size="12">2</text></g><g class="edge"><path fill="none" stroke="#000" d="M71.644-102.275l65.859 40.282"/><path stroke="#000" d="M143.547-58.296l-4.328-6.34 1.342 4.514-2.986-1.826h0l2.986 1.826-4.63.86 7.616.966h0z"/><text x="92" y="-92.244" font-family="Lato" font-size="12">a | b</text></g><g class="node"><circle fill="#ffffa0" stroke="#000" cx="280" cy="-32.844" r="18"/><text text-anchor="middle" x="280" y="-29.744" font-family="Lato" font-size="12">3</text></g><g class="edge"><path fill="none" stroke="#000" d="M63.246-95.135C74.808-70.875 99.963-26.835 137-8.844c39.41 19.145 91.33 1.164 120.534-12.31"/><path stroke="#000" d="M264.102-24.286l-7.674.17 4.515 1.337-3.16 1.506h0l3.16-1.506-1.803 4.35 4.962-5.857h0z"/><text x="138.5" y="-12.244" font-family="Lato" font-size="12">!a &amp; !b</text></g><g class="node"><circle fill="#ffffa0" stroke="#000" cx="280" cy="-127.844" r="18"/><circle fill="none" stroke="#000" cx="280" cy="-127.844" r="22"/><text text-anchor="middle" x="280" y="-124.744" font-family="Lato" font-size="12">4</text></g><g class="edge"><path fill="none" stroke="#000" d="M74.33-113.153l176.342-12.596"/><path stroke="#000" d="M257.814-126.26l-7.207-2.642 3.716 2.892-3.491.25h0l3.491-.25-3.267 3.392 6.758-3.641h0z"/><text x="138.5" y="-123.244" font-family="Lato" font-size="12">!a &amp; !b</text></g><g class="edge"><path fill="none" stroke="#000" d="M149.593-207.013c-1.447-10.43 1.688-19.83 9.407-19.83 5.91 0 9.133 5.51 9.67 12.774"/><path stroke="#000" d="M168.407-207.013l3.408-6.879-3.278 3.381.13-3.498h0l-.13 3.498-3.017-3.615 2.887 7.113h0z"/><text x="155" y="-230.244" font-family="Lato" font-size="12">b</text></g><g class="node"><circle fill="#ffffa0" stroke="#000" cx="280" cy="-217.844" r="18"/><text text-anchor="middle" x="280" y="-214.744" font-family="Lato" font-size="12">5</text></g><g class="edge"><path fill="none" stroke="#000" d="M180.106-193.438c6.077-1.828 12.73-3.76 18.894-5.406 18.758-5.008 40.148-9.995 56.235-13.603"/><path stroke="#000" d="M262.225-214.002l-7.517-1.554 4.1 2.314-3.416.76h0l3.417-.76-2.732 3.835 6.148-4.595h0z"/><text x="213" y="-211.244" font-family="Lato" font-size="12">!b</text></g><g class="edge"><path fill="none" stroke="#000" d="M150.021-64.76c-2.342-10.234.65-20.084 8.979-20.084 6.376 0 9.625 5.774 9.746 13.073"/><path stroke="#000" d="M167.979-64.76l3.893-6.615-3.512 3.136.38-3.48h0l-.38 3.48-2.75-3.822 2.369 7.301h0z"/><text x="145.5" y="-88.244" font-family="Lato" font-size="12">a | b</text></g><g class="edge"><path fill="none" stroke="#000" d="M177.18-49.998c16.526-.672 41.51-.739 62.82 3.154 5.374.982 10.996 2.572 16.269 4.335"/><path stroke="#000" d="M263.188-40.04l-5.533-5.32 2.237 4.144-3.296-1.177h0l3.296 1.177-4.355 1.79 7.651-.613h0z"/><text x="199" y="-54.244" font-family="Lato" font-size="12">!a &amp; !b</text></g><g class="edge"><path fill="none" stroke="#000" d="M174.325-58.85l81.008-52.89"/><path stroke="#000" d="M261.23-115.59l-7.583 1.19 4.653.724-2.93 1.913h0l2.93-1.913-1.209 4.551 4.14-6.464h0z"/><text x="199" y="-103.244" font-family="Lato" font-size="12">!a &amp; !b</text></g><g class="edge"><path fill="none" stroke="#000" d="M262.06-29.572c-16.577 2.413-41.782 4.525-63.06-.272-6.037-1.36-12.233-3.745-17.89-6.373"/><path stroke="#000" d="M174.757-39.37l4.87 5.934-1.734-4.377 3.135 1.555h0l-3.135-1.555 4.535-1.267-7.67-.29h0z"/><text x="206" y="-33.244" font-family="Lato" font-size="12">a | b</text></g><g class="edge"><path fill="none" stroke="#000" d="M269.849-48.01c-3.077-10.498.307-20.834 10.151-20.834 7.537 0 11.286 6.059 11.25 13.61"/><path stroke="#000" d="M290.151-48.01l4.167-6.447-3.64 2.986.526-3.46h0l-.526 3.46-2.589-3.933 2.062 7.394h0z"/><text x="259.5" y="-72.244" font-family="Lato" font-size="12">!a &amp; !b</text></g><g class="edge"><path fill="none" stroke="#000" d="M269.288-147.188c-2-10.753 1.571-20.656 10.712-20.656 6.998 0 10.731 5.805 11.2 13.352"/><path stroke="#000" d="M290.712-147.188l3.61-6.775-3.377 3.283.233-3.493h0l-.233 3.493-2.91-3.703 2.677 7.195h0z"/><text x="259.5" y="-171.244" font-family="Lato" font-size="12">!a &amp; !b</text></g><g class="edge"><path fill="none" stroke="#000" d="M268.71-203.428c-7.233 8.017-17.37 17.233-28.71 21.584-16.654 6.391-36.648 5.237-52.604 2.439"/><path stroke="#000" d="M180.376-180.786l6.26 4.442-2.826-3.766 3.434.675h0l-3.434-.675 4.042-2.416-7.476 1.74h0z"/><text x="215.5" y="-185.244" font-family="Lato" font-size="12">b</text></g><g class="edge"><path fill="none" stroke="#000" d="M269.849-233.01c-3.077-10.498.307-20.834 10.151-20.834 7.537 0 11.286 6.059 11.25 13.61"/><path stroke="#000" d="M290.151-233.01l4.167-6.447-3.64 2.986.526-3.46h0l-.526 3.46-2.589-3.933 2.062 7.394h0z"/><text x="273.5" y="-257.244" font-family="Lato" font-size="12">!b</text></g></g></svg>