<?xml-stylesheet href="spot.css" type="text/css"?><svg width="260pt" height="211pt" viewBox="0 0 260 211.4" xmlns="http://www.w3.org/2000/svg"><g class="graph" transform="translate(4 207.4)"><path fill="#fff" stroke="transparent" d="M-4 4v-211.4h260V4H-4z"/><text x="104.5" y="-176.8" font-family="Lato" font-size="12">[Büchi]</text><g class="node"><circle fill="#ffffa0" stroke="#000" cx="56" cy="-68" r="18"/><text text-anchor="middle" x="56" y="-64.9" font-family="Lato" font-size="12">0</text></g><g class="edge"><path fill="none" stroke="#000" d="M1.123-68h29.801"/><path stroke="#000" d="M37.98-68l-7-3.15 3.5 3.15h-3.5 3.5l-3.5 3.15 7-3.15h0z"/></g><g class="edge"><path fill="none" stroke="#000" d="M49.62-85.037C48.32-94.857 50.446-104 56-104c4.166 0 6.404 5.142 6.713 11.857"/><path stroke="#000" d="M62.38-85.037l3.474-6.845-3.31 3.349.164-3.497h0l-.165 3.496-2.982-3.643 2.818 7.14h0z"/><text x="52" y="-107.4" font-family="Lato" font-size="12">1</text></g><g class="node"><circle fill="#ffffa0" stroke="#000" cx="145" cy="-115" r="18"/><circle fill="none" stroke="#000" cx="145" cy="-115" r="22"/><text x="141" y="-111.9" font-family="Lato" font-size="12">1</text></g><g class="edge"><path fill="none" stroke="#000" d="M72.324-76.62l46.802-24.716"/><path stroke="#000" d="M125.362-104.63l-7.661.484 4.566 1.151-3.095 1.635h0l3.095-1.635-1.624 4.42 4.719-6.054h0z"/><text x="94.5" y="-95.4" font-family="Lato" font-size="12">b</text></g><g class="node"><circle fill="#ffffa0" stroke="#000" cx="145" cy="-22" r="18"/><circle fill="none" stroke="#000" cx="145" cy="-22" r="22"/><text text-anchor="middle" x="145" y="-18.9" font-family="Lato" font-size="12">2</text></g><g class="edge"><path fill="none" stroke="#000" d="M72.324-59.563l46.802 24.19"/><path stroke="#000" d="M125.362-32.15l-4.772-6.013 1.663 4.406-3.11-1.607h0l3.11 1.607-4.556 1.191 7.665.416h0z"/><text x="92" y="-53.4" font-family="Lato" font-size="12">!a</text></g><g class="edge"><path fill="none" stroke="#000" d="M136.63-135.58C135.472-145.846 138.262-155 145-155c5.054 0 7.887 5.15 8.499 12.055"/><path stroke="#000" d="M153.37-135.58l3.272-6.945-3.21 3.445.06-3.5h0l-.06 3.5-3.09-3.555 3.028 7.054h0z"/><text x="141" y="-158.4" font-family="Lato" font-size="12">b</text></g><g class="node"><circle fill="#ffffa0" stroke="#000" cx="234" cy="-115" r="18"/><text text-anchor="middle" x="234" y="-111.9" font-family="Lato" font-size="12">3</text></g><g class="edge"><path fill="none" stroke="#000" d="M167-115h41.485"/><path stroke="#000" d="M215.845-115l-7-3.15 3.5 3.15h-3.5 3.5l-3.5 3.15 7-3.15h0z"/><text x="185" y="-118.4" font-family="Lato" font-size="12">!b</text></g><g class="edge"><path fill="none" stroke="#000" d="M136.63-42.58C135.472-52.846 138.262-62 145-62c5.054 0 7.887 5.15 8.499 12.055"/><path stroke="#000" d="M153.37-42.58l3.272-6.945-3.21 3.445.06-3.5h0l-.06 3.5-3.09-3.555 3.028 7.054h0z"/><text x="138.5" y="-65.4" font-family="Lato" font-size="12">!a</text></g><g class="edge"><path fill="none" stroke="#000" d="M218.415-105.8c-6.144 3.127-13.4 6.227-20.415 7.8-8.928 2.002-18.502.197-27.023-2.872"/><path stroke="#000" d="M164.401-103.556l5.29 5.562-2.05-4.24 3.241 1.323h0l-3.24-1.322 4.43-1.594-7.67.271h0z"/><text x="187.5" y="-101.4" font-family="Lato" font-size="12">b</text></g><g class="edge"><path fill="none" stroke="#000" d="M226.617-131.664c-1.64-9.961.82-19.336 7.383-19.336 4.922 0 7.537 5.273 7.844 12.112"/><path stroke="#000" d="M241.383-131.664l3.59-6.785-3.367 3.292.223-3.493h0l-.223 3.493-2.92-3.694 2.697 7.187h0z"/><text x="227.5" y="-154.4" font-family="Lato" font-size="12">!b</text></g></g></svg>