<?xml-stylesheet href="spot.css" type="text/css"?><svg width="247pt" height="157pt" viewBox="0 0 247 156.56" xmlns="http://www.w3.org/2000/svg"><g class="graph"><path fill="#fff" stroke="transparent" d="M0 156.563V0h247v156.563H0z"/><text x="44.5" y="-135.963" font-family="Lato" font-size="12" transform="translate(4 152.563)">Inf(</text><text x="65.5" y="-135.963" font-family="Lato" font-size="12" fill="#ff7f00" transform="translate(4 152.563)">❷</text><text x="76.5" y="-135.963" font-family="Lato" font-size="12" transform="translate(4 152.563)">) | (Fin(</text><text x="118.5" y="-135.963" font-family="Lato" font-size="12" fill="#ff4da0" transform="translate(4 152.563)">❶</text><text x="129.5" y="-135.963" font-family="Lato" font-size="12" transform="translate(4 152.563)">) &amp; Inf(</text><text x="171.5" y="-135.963" font-family="Lato" font-size="12" fill="#1f78b4" transform="translate(4 152.563)">⓿</text><text x="184.5" y="-135.963" font-family="Lato" font-size="12" transform="translate(4 152.563)">))</text><text x="60.5" y="-123.963" font-family="Lato" font-size="12" transform="translate(4 152.563)">[parity max even 3]</text><g class="node" transform="translate(4 152.563)"><path fill="#ffffa0" stroke="#000" d="M62-36.563H50c-6 0-12 6-12 12v12c0 6 6 12 12 12h12c6 0 12-6 12-12v-12c0-6-6-12-12-12"/><text x="52" y="-21.963" font-family="Lato" font-size="12">0</text><text x="50.5" y="-8.963" font-family="Lato" font-size="12" fill="#ff7f00">❷</text></g><g class="edge" transform="translate(4 152.563)"><path fill="none" stroke="#000" d="M1.123-18.563h29.801"/><path stroke="#000" d="M37.98-18.563l-7-3.15 3.5 3.15h-3.5 3.5l-3.5 3.15 7-3.15h0z"/></g><g class="node" transform="translate(4 152.563)"><path fill="#ffffa0" stroke="#000" d="M147-85.563h-12c-6 0-12 6-12 12v12c0 6 6 12 12 12h12c6 0 12-6 12-12v-12c0-6-6-12-12-12"/><text x="137" y="-70.963" font-family="Lato" font-size="12">1</text><text x="135.5" y="-57.963" font-family="Lato" font-size="12" fill="#ff4da0">❶</text></g><g class="edge" transform="translate(4 152.563)"><path fill="none" stroke="#000" d="M74.026-28.955l42.584-24.548"/><path stroke="#000" d="M123-57.186l-7.638.767 4.605.98-3.032 1.749h0l3.032-1.748-1.459 4.477L123-57.186h0z"/><text x="92" y="-48.963" font-family="Lato" font-size="12">!b</text></g><g class="node" transform="translate(4 152.563)"><path fill="#ffffa0" stroke="#000" d="M227-36.563h-12c-6 0-12 6-12 12v12c0 6 6 12 12 12h12c6 0 12-6 12-12v-12c0-6-6-12-12-12"/><text x="217" y="-21.963" font-family="Lato" font-size="12">2</text><text x="215.5" y="-8.963" font-family="Lato" font-size="12" fill="#ff4da0">❶</text></g><g class="edge" transform="translate(4 152.563)"><path fill="none" stroke="#000" d="M74.288-18.563h121.438"/><path stroke="#000" d="M202.881-18.563l-7-3.15 3.5 3.15h-3.5 3.5l-3.5 3.15 7-3.15h0z"/><text x="137" y="-21.963" font-family="Lato" font-size="12">b</text></g><g class="edge" transform="translate(4 152.563)"><path fill="none" stroke="#000" d="M133.764-85.716c-1.114-9.386 1.298-17.847 7.236-17.847 4.36 0 6.82 4.563 7.377 10.705"/><path stroke="#000" d="M148.236-85.716l3.288-6.936-3.219 3.437.07-3.5h0l-.07 3.5-3.08-3.561 3.011 7.06h0z"/><text x="134.5" y="-106.963" font-family="Lato" font-size="12">!b</text></g><g class="edge" transform="translate(4 152.563)"><path fill="none" stroke="#000" d="M159.153-56.444l37.673 23.075"/><path stroke="#000" d="M202.919-29.638l-4.324-6.342 1.339 4.514-2.985-1.828h0l2.985 1.828-4.63.858 7.615.97h0z"/><text x="177" y="-46.963" font-family="Lato" font-size="12">b</text></g><g class="edge" transform="translate(4 152.563)"><path fill="none" stroke="#000" d="M202.819-12.194C190.6-8.259 174.044-3.588 159-1.563c-15.857 2.135-20.123 1.983-36 0-14.036-1.753-29.35-5.495-41.79-9.024"/><path stroke="#000" d="M74.25-12.623l5.833 4.989-2.474-4.006 3.359.982h0l-3.36-.982 4.244-2.041-7.603 1.058h0z"/><text x="137" y="-4.963" font-family="Lato" font-size="12">a</text></g><g class="edge" transform="translate(4 152.563)"><path fill="none" stroke="#000" d="M213.764-36.716c-1.114-9.386 1.298-17.847 7.236-17.847 4.36 0 6.82 4.563 7.377 10.705"/><path stroke="#000" d="M228.236-36.716l3.288-6.936-3.219 3.437.07-3.5h0l-.07 3.5-3.08-3.561 3.011 7.06h0z"/><text x="214.5" y="-57.963" font-family="Lato" font-size="12">!a</text></g></g></svg>