<?xml-stylesheet href="spot.css" type="text/css"?><svg width="271pt" height="140pt" viewBox="0 0 271 140" xmlns="http://www.w3.org/2000/svg"><g class="graph"><path fill="#fff" stroke="transparent" d="M0 140V0h271v140H0z"/><text x="56.5" y="-119.4" font-family="Lato" font-size="12" transform="translate(4 136)">Inf(</text><text x="77.5" y="-119.4" font-family="Lato" font-size="12" fill="#ff7f00" transform="translate(4 136)">❷</text><text x="88.5" y="-119.4" font-family="Lato" font-size="12" transform="translate(4 136)">) | (Fin(</text><text x="130.5" y="-119.4" font-family="Lato" font-size="12" fill="#ff4da0" transform="translate(4 136)">❶</text><text x="141.5" y="-119.4" font-family="Lato" font-size="12" transform="translate(4 136)">) &amp; Inf(</text><text x="183.5" y="-119.4" font-family="Lato" font-size="12" fill="#1f78b4" transform="translate(4 136)">⓿</text><text x="196.5" y="-119.4" font-family="Lato" font-size="12" transform="translate(4 136)">))</text><text x="72.5" y="-107.4" font-family="Lato" font-size="12" transform="translate(4 136)">[parity max even 3]</text><g class="node" transform="translate(4 136)"><path fill="#ffffa0" stroke="#000" d="M62-36H50c-6 0-12 6-12 12v12c0 6 6 12 12 12h12c6 0 12-6 12-12v-12c0-6-6-12-12-12"/><text text-anchor="middle" x="56" y="-14.9" font-family="Lato" font-size="12">0</text></g><g class="edge" transform="translate(4 136)"><path fill="none" stroke="#000" d="M1.123-18h29.801"/><path stroke="#000" d="M37.98-18l-7-3.15 3.5 3.15h-3.5 3.5l-3.5 3.15 7-3.15h0z"/></g><g class="edge" transform="translate(4 136)"><path fill="none" stroke="#000" d="M49.487-36.153C48.485-45.539 50.657-54 56-54c3.924 0 6.138 4.563 6.64 10.705"/><path stroke="#000" d="M62.513-36.153l3.274-6.943-3.212 3.444.062-3.5h0l-.062 3.5-3.087-3.556 3.025 7.055h0z"/><text x="49.5" y="-57.4" font-family="Lato" font-size="12">!b</text></g><g class="node" transform="translate(4 136)"><path fill="#ffffa0" stroke="#000" d="M142-69h-12c-6 0-12 6-12 12v12c0 6 6 12 12 12h12c6 0 12-6 12-12v-12c0-6-6-12-12-12"/><text text-anchor="middle" x="136" y="-47.9" font-family="Lato" font-size="12">1</text></g><g class="edge" transform="translate(4 136)"><path fill="none" stroke="#000" d="M74.153-25.488l37.005-15.264"/><path stroke="#000" d="M117.919-43.541l-7.673-.243 4.437 1.577-3.236 1.335h0l3.236-1.335-2.034 4.247 5.27-5.581h0z"/><text x="92" y="-38.4" font-family="Lato" font-size="12">b</text></g><g class="edge" transform="translate(4 136)"><path fill="none" stroke="#000" d="M128.764-69.153C127.65-78.539 130.062-87 136-87c4.36 0 6.82 4.563 7.377 10.705"/><path stroke="#000" d="M143.236-69.153l3.288-6.936-3.219 3.437.07-3.5h0l-.07 3.5-3.08-3.561 3.011 7.06h0z"/><text x="129.5" y="-90.4" font-family="Lato" font-size="12">!a</text></g><g class="node" transform="translate(4 136)"><path fill="#ffffa0" stroke="#000" d="M251-53h-12c-6 0-12 6-12 12v12c0 6 6 12 12 12h12c6 0 12-6 12-12v-12c0-6-6-12-12-12"/><text x="241" y="-38.4" font-family="Lato" font-size="12">2</text><text x="238.5" y="-25.4" font-family="Lato" font-size="12" fill="#1f78b4">⓿</text></g><g class="edge" transform="translate(4 136)"><path fill="none" stroke="#000" d="M154.194-52.215C169.082-52.8 190.607-52.712 209-49c3.605.728 7.318 1.786 10.927 3"/><path stroke="#000" d="M226.683-43.52l-5.486-5.37 2.2 4.164-3.286-1.206h0l3.286 1.206-4.371 1.75 7.656-.544h0z"/><text x="186.5" y="-55.4" font-family="Lato" font-size="12">a</text></g><g class="edge" transform="translate(4 136)"><path fill="none" stroke="#000" d="M226.803-28.713C208.627-22.789 179.763-14.34 154-11c-15.867 2.057-20.025.899-36 0-12.154-.684-25.586-2.116-36.83-3.508"/><path stroke="#000" d="M74.131-15.409l6.544 4.013-3.072-3.569 3.471.444h0l-3.471-.444 3.871-2.68-7.343 2.236h0z"/><text x="120.5" y="-14.4" font-family="Lato" font-size="12">a | !b</text></g><g class="edge" transform="translate(4 136)"><path fill="none" stroke="#000" d="M226.714-31.439C211.774-29.194 190.222-27.486 172-32c-3.773-.934-7.586-2.344-11.249-3.983"/><path stroke="#000" d="M154.364-39.124l4.891 5.916-1.75-4.371 3.14 1.544h0l-3.14-1.544 4.53-1.282-7.671-.263h0z"/><text x="172" y="-35.4" font-family="Lato" font-size="12">!a &amp; b</text></g></g></svg>