<?xml-stylesheet href="spot.css" type="text/css"?><svg width="236pt" height="107pt" viewBox="0 0 236 107.14" xmlns="http://www.w3.org/2000/svg"><g class="graph"><path fill="#fff" stroke="transparent" d="M0 107.137V0h236v107.137H0z"/><text x="8" y="-86.537" font-family="Lato" font-size="12" transform="translate(4 103.137)">(Fin(</text><text x="34" y="-86.537" font-family="Lato" font-size="12" fill="#1f78b4" transform="translate(4 103.137)">⓿</text><text x="47" y="-86.537" font-family="Lato" font-size="12" transform="translate(4 103.137)">) &amp; Inf(</text><text x="89" y="-86.537" font-family="Lato" font-size="12" fill="#ff4da0" transform="translate(4 103.137)">❶</text><text x="100" y="-86.537" font-family="Lato" font-size="12" transform="translate(4 103.137)">)) | (Fin(</text><text x="146" y="-86.537" font-family="Lato" font-size="12" fill="#ff7f00" transform="translate(4 103.137)">❷</text><text x="157" y="-86.537" font-family="Lato" font-size="12" transform="translate(4 103.137)">) &amp; Inf(</text><text x="199" y="-86.537" font-family="Lato" font-size="12" fill="#6a3d9a" transform="translate(4 103.137)">❸</text><text x="210" y="-86.537" font-family="Lato" font-size="12" transform="translate(4 103.137)">))</text><text x="86.5" y="-74.537" font-family="Lato" font-size="12" transform="translate(4 103.137)">[Rabin 2]</text><g class="node" transform="translate(4 103.137)"><path fill="#ffffa0" stroke="#000" d="M95.5-36.137h-14c-6 0-12 6-12 12v12c0 6 6 12 12 12h14c6 0 12-6 12-12v-12c0-6-6-12-12-12"/><text x="84.5" y="-21.537" font-family="Lato" font-size="12">0</text><text x="77.5" y="-9.537" font-family="Lato" font-size="12" fill="#ff4da0">❶</text><text x="88.5" y="-9.537" font-family="Lato" font-size="12" fill="#ff7f00">❷</text></g><g class="edge" transform="translate(4 103.137)"><path fill="none" stroke="#000" d="M32.635-18.137h29.554"/><path stroke="#000" d="M69.273-18.137l-7-3.15 3.5 3.15h-3.5 3.5l-3.5 3.15 7-3.15h0z"/></g><g class="edge" transform="translate(4 103.137)"><path fill="none" stroke="#000" d="M81.987-36.29c-1.002-9.386 1.17-17.847 6.513-17.847 3.924 0 6.138 4.563 6.64 10.705"/><path stroke="#000" d="M95.013-36.29l3.274-6.942-3.212 3.443.062-3.5h0l-.062 3.5-3.087-3.555 3.025 7.055h0z"/><text x="84.5" y="-57.537" font-family="Lato" font-size="12">a</text></g><g class="node" transform="translate(4 103.137)"><path fill="#ffffa0" stroke="#000" d="M184.5-36.137h-16c-6 0-12 6-12 12v12c0 6 6 12 12 12h16c6 0 12-6 12-12v-12c0-6-6-12-12-12"/><text x="172.5" y="-21.537" font-family="Lato" font-size="12">1</text><text x="164.5" y="-9.537" font-family="Lato" font-size="12" fill="#1f78b4">⓿</text><text x="177.5" y="-9.537" font-family="Lato" font-size="12" fill="#6a3d9a">❸</text></g><g class="edge" transform="translate(4 103.137)"><path fill="none" stroke="#000" d="M107.595-18.137h41.435"/><path stroke="#000" d="M156.218-18.137l-7-3.15 3.5 3.15h-3.5 3.5l-3.5 3.15 7-3.15h0z"/><text x="125.5" y="-21.537" font-family="Lato" font-size="12">!a</text></g><g class="edge" transform="translate(4 103.137)"><path fill="none" stroke="#000" d="M156.427-6.15c-9.283 4.164-20.533 7.287-30.927 5.013-3.798-.83-7.672-2.09-11.414-3.553"/><path stroke="#000" d="M107.538-7.5l5.19 5.655-1.974-4.275 3.217 1.38h0l-3.217-1.38 4.459-1.514-7.675.134h0z"/><text x="125.5" y="-4.537" font-family="Lato" font-size="12">!b</text></g><g class="edge" transform="translate(4 103.137)"><path fill="none" stroke="#000" d="M168.54-36.29c-1.225-9.386 1.429-17.847 7.96-17.847 4.796 0 7.501 4.563 8.115 10.705"/><path stroke="#000" d="M184.46-36.29l3.301-6.93-3.225 3.431.076-3.499h0l-.076 3.5-3.073-3.568 2.997 7.067h0z"/><text x="172.5" y="-57.537" font-family="Lato" font-size="12">b</text></g></g></svg>