<?xml-stylesheet href="spot.css" type="text/css"?><svg width="216" height="107pt" viewBox="0 0 162 107" xmlns="http://www.w3.org/2000/svg"><g class="graph"><path fill="#fff" stroke="transparent" d="M0 107V0h162v107H0z"/><text x="35" y="-86.4" font-family="Lato" font-size="12" transform="translate(4 103)">Inf(</text><text x="56" y="-86.4" font-family="Lato" font-size="12" fill="#1f78b4" transform="translate(4 103)">⓿</text><text x="69" y="-86.4" font-family="Lato" font-size="12" transform="translate(4 103)">)&amp;Inf(</text><text x="103" y="-86.4" font-family="Lato" font-size="12" fill="#ff4da0" transform="translate(4 103)">❶</text><text x="114" y="-86.4" font-family="Lato" font-size="12" transform="translate(4 103)">)</text><text x="35" y="-74.4" font-family="Lato" font-size="12" transform="translate(4 103)">[gen. Büchi 2]</text><g class="node" transform="translate(4 103)"><path fill="#ffffa0" stroke="#000" d="M62-36H50c-6 0-12 6-12 12v12c0 6 6 12 12 12h12c6 0 12-6 12-12v-12c0-6-6-12-12-12"/><text x="52" y="-21.4" font-family="Lato" font-size="12">0</text><text x="50.5" y="-8.4" font-family="Lato" font-size="12" fill="#ff4da0">❶</text></g><g class="edge" transform="translate(4 103)"><path fill="none" stroke="#000" d="M1.123-18h29.801"/><path stroke="#000" d="M37.98-18l-7-3.15 3.5 3.15h-3.5 3.5l-3.5 3.15 7-3.15h0z"/></g><g class="edge" transform="translate(4 103)"><path fill="none" stroke="#000" d="M49.487-36.153C48.485-45.539 50.657-54 56-54c3.924 0 6.138 4.563 6.64 10.705"/><path stroke="#000" d="M62.513-36.153l3.274-6.943-3.212 3.444.062-3.5h0l-.062 3.5-3.087-3.556 3.025 7.055h0z"/><text x="49.5" y="-57.4" font-family="Lato" font-size="12">!a</text></g><g class="node" transform="translate(4 103)"><path fill="#ffffa0" stroke="#000" d="M142-36h-12c-6 0-12 6-12 12v12c0 6 6 12 12 12h12c6 0 12-6 12-12v-12c0-6-6-12-12-12"/><text x="132" y="-21.4" font-family="Lato" font-size="12">1</text><text x="129.5" y="-8.4" font-family="Lato" font-size="12" fill="#1f78b4">⓿</text></g><g class="edge" transform="translate(4 103)"><path fill="none" stroke="#000" d="M74.153-18h36.668"/><path stroke="#000" d="M117.919-18l-7-3.15 3.5 3.15h-3.5 3.5l-3.5 3.15 7-3.15h0z"/><text x="92" y="-21.4" font-family="Lato" font-size="12">a</text></g><g class="edge" transform="translate(4 103)"><path fill="none" stroke="#000" d="M117.967-5.796C110.15-1.89 100.79.971 92-1c-3.794-.85-7.658-2.148-11.38-3.655"/><path stroke="#000" d="M74.124-7.543l5.117 5.722-1.92-4.3 3.2 1.421h0l-3.2-1.421L81.8-7.578l-7.675.035h0z"/><text x="92" y="-4.4" font-family="Lato" font-size="12">b</text></g><g class="edge" transform="translate(4 103)"><path fill="none" stroke="#000" d="M128.764-36.153C127.65-45.539 130.062-54 136-54c4.36 0 6.82 4.563 7.377 10.705"/><path stroke="#000" d="M143.236-36.153l3.288-6.936-3.219 3.437.07-3.5h0l-.07 3.5-3.08-3.562 3.011 7.061h0z"/><text x="129.5" y="-57.4" font-family="Lato" font-size="12">!b</text></g></g></svg>