<?xml-stylesheet href="spot.css" type="text/css"?><svg width="194pt" height="180" viewBox="0 0 193.5 135.15" xmlns="http://www.w3.org/2000/svg"><g class="graph"><path fill="#fff" stroke="transparent" d="M0 135.154V0h193.5v135.154H0z"/><g class="node" transform="translate(4 131.154)"><circle fill="#ffffa0" stroke="#000" cx="56" cy="-47.154" r="18"/><text text-anchor="middle" x="56" y="-44.054" font-family="Lato" font-size="12">0</text></g><g class="edge" transform="translate(4 131.154)"><path fill="none" stroke="#000" d="M1.123-47.154h29.801"/><path stroke="#000" d="M37.98-47.154l-7-3.15 3.5 3.15h-3.5 3.5l-3.5 3.15 7-3.15h0z"/></g><g class="edge" transform="translate(4 131.154)"><path fill="none" stroke="#000" d="M52.764-64.935c-.55-9.534.529-18.219 3.236-18.219 1.988 0 3.098 4.684 3.33 10.948"/><path stroke="#000" d="M59.236-64.935l3.24-6.96-3.195 3.46.045-3.5h0l-.045 3.5-3.105-3.54 3.06 7.04h0z"/><text x="35.5" y="-86.554" font-family="Lato" font-size="12">!a &amp; !b</text></g><g class="edge" transform="translate(4 131.154)"><path fill="none" stroke="#000" d="M50.684-64.574c-3.03-17.37-1.258-36.58 5.316-36.58 5.701 0 7.79 14.446 6.27 29.611"/><path stroke="#000" d="M61.316-64.574l4.07-6.508-3.596 3.04.475-3.467h0l-.475 3.467-2.646-3.894 2.172 7.362h0z"/><text x="37.5" y="-104.554" font-family="Lato" font-size="12">a &amp; !b</text></g><g class="node" transform="translate(4 131.154)"><circle fill="#ffffa0" stroke="#000" cx="165" cy="-47.154" r="18"/><text text-anchor="middle" x="165" y="-44.054" font-family="Lato" font-size="12">1</text></g><g class="edge" transform="translate(4 131.154)"><path fill="none" stroke="#000" d="M63.016-63.949C68.883-75.602 78.481-90.229 92-97.154c14.636-7.497 22.364-7.497 37 0 11.195 5.735 19.701 16.751 25.627 26.987"/><path stroke="#000" d="M157.984-63.949l-.554-7.656-1.109 4.576-1.663-3.08h0l1.663 3.08-4.434-1.583 6.097 4.663h0z"/><text x="92" y="-105.554" font-family="Lato" font-size="12">!a &amp; b</text></g><g class="edge" transform="translate(4 131.154)"><path fill="none" stroke="#000" d="M72.47-55.036c6.004-2.474 12.939-4.881 19.53-6.118 16.162-3.032 20.838-3.032 37 0 4.222.793 8.586 2.065 12.756 3.528"/><path stroke="#000" d="M148.53-55.036l-5.413-5.442 2.144 4.192-3.27-1.25h0l3.27 1.25-4.394 1.692 7.663-.442h0z"/><text x="94.5" y="-66.554" font-family="Lato" font-size="12">a &amp; b</text></g><g class="edge" transform="translate(4 131.154)"><path fill="none" stroke="#000" d="M147.073-45.364c-5.764.496-12.183.965-18.073 1.21-16.43.684-20.57.684-37 0-3.59-.149-7.375-.382-11.089-.653"/><path stroke="#000" d="M73.927-45.364l6.727 3.697-3.238-3.419 3.489.279h0l-3.49-.279 3.74-2.861-7.228 2.583h0z"/><text x="92" y="-47.554" font-family="Lato" font-size="12">a &amp; !b</text></g><g class="edge" transform="translate(4 131.154)"><path fill="none" stroke="#000" d="M150.38-36.258c-6.25 4.009-13.836 8.065-21.38 10.104-15.874 4.292-21.126 4.292-37 0-5.186-1.402-10.392-3.757-15.17-6.395"/><path stroke="#000" d="M70.62-36.258l4.394 6.295-1.389-4.5 3.005 1.795h0l-3.005-1.795 4.62-.909-7.624-.886h0z"/><text x="92" y="-29.554" font-family="Lato" font-size="12">!a &amp; b</text></g><g class="edge" transform="translate(4 131.154)"><path fill="none" stroke="#000" d="M156.23-31.293c-6.223 9.507-15.538 20.762-27.23 26.14-14.94 6.87-22.06 6.87-37 0-9.317-4.286-17.125-12.303-23.061-20.194"/><path stroke="#000" d="M64.77-31.293l1.44 7.54.569-4.674 2.01 2.866h0l-2.01-2.866 4.589 1.057-6.599-3.923h0z"/><text x="94.5" y="-8.554" font-family="Lato" font-size="12">a &amp; b</text></g><g class="edge" transform="translate(4 131.154)"><path fill="none" stroke="#000" d="M155.767-62.695c-2.599-10.367.48-20.459 9.233-20.459 6.702 0 10.077 5.916 10.125 13.341"/><path stroke="#000" d="M174.233-62.695l3.996-6.554-3.561 3.081.435-3.473h0l-.435 3.473-2.69-3.864 2.255 7.337h0z"/><text x="144.5" y="-86.554" font-family="Lato" font-size="12">!a &amp; !b</text></g></g></svg>