<?xml-stylesheet href="spot.css" type="text/css"?><svg width="274pt" height="211pt" viewBox="0 0 274 211.4" xmlns="http://www.w3.org/2000/svg"><g class="graph" transform="translate(4 207.4)"><path fill="#fff" stroke="transparent" d="M-4 4v-211.4h274V4H-4z"/><text x="111.5" y="-176.8" font-family="Lato" font-size="12">[Büchi]</text><g class="node"><circle fill="#ffffa0" stroke="#000" cx="56" cy="-68" r="18"/><text text-anchor="middle" x="56" y="-64.9" font-family="Lato" font-size="12">0</text></g><g class="edge"><path fill="none" stroke="#000" d="M1.123-68h29.801"/><path stroke="#000" d="M37.98-68l-7-3.15 3.5 3.15h-3.5 3.5l-3.5 3.15 7-3.15h0z"/></g><g class="node"><circle fill="#ffffa0" stroke="#000" cx="152" cy="-115" r="18"/><circle fill="none" stroke="#000" cx="152" cy="-115" r="22"/><text text-anchor="middle" x="152" y="-111.9" font-family="Lato" font-size="12">1</text></g><g class="edge"><path fill="none" stroke="#000" d="M72.285-75.973L125.448-102"/><path stroke="#000" d="M131.967-105.192l-7.673.249 4.53 1.29-3.144 1.54h0l3.143-1.54-1.758 4.368 4.902-5.907h0z"/><text x="94" y="-97.4" font-family="Lato" font-size="12">p0</text></g><g class="node"><circle fill="#ffffa0" stroke="#000" cx="152" cy="-22" r="18"/><circle fill="none" stroke="#000" cx="152" cy="-22" r="22"/><text text-anchor="middle" x="152" y="-18.9" font-family="Lato" font-size="12">2</text></g><g class="edge"><path fill="none" stroke="#000" d="M72.285-60.197l53.163 25.474"/><path stroke="#000" d="M131.967-31.6l-4.952-5.865 1.795 4.353-3.156-1.512h0l3.156 1.512-4.517 1.329 7.674.184h0z"/><text x="92" y="-53.4" font-family="Lato" font-size="12">!p0</text></g><g class="edge"><path fill="none" stroke="#000" d="M142.955-135.17C141.563-145.599 144.578-155 152-155c5.682 0 8.782 5.51 9.298 12.774"/><path stroke="#000" d="M161.045-135.17l3.399-6.883-3.273 3.386.125-3.498h0l-.125 3.498-3.023-3.61 2.897 7.107h0z"/><text text-anchor="middle" x="152" y="-158.4" font-family="Lato" font-size="12">1</text></g><g class="edge"><path fill="none" stroke="#000" d="M142.955-42.17C141.563-52.599 144.578-62 152-62c5.682 0 8.782 5.51 9.298 12.775"/><path stroke="#000" d="M161.045-42.17l3.399-6.883-3.273 3.386.125-3.498h0l-.125 3.498-3.023-3.61 2.897 7.107h0z"/><text x="144" y="-65.4" font-family="Lato" font-size="12">p1</text></g><g class="node"><circle fill="#ffffa0" stroke="#000" cx="248" cy="-22" r="18"/><text text-anchor="middle" x="248" y="-18.9" font-family="Lato" font-size="12">3</text></g><g class="edge"><path fill="none" stroke="#000" d="M174.266-22h48.413"/><path stroke="#000" d="M229.717-22l-7-3.15 3.5 3.15h-3.5 3.5l-3.5 3.15 7-3.15h0z"/><text x="192" y="-25.4" font-family="Lato" font-size="12">!p1</text></g><g class="edge"><path fill="none" stroke="#000" d="M232.415-12.8C226.271-9.674 219.015-6.574 212-5c-11.266 2.526-23.557-.002-34.065-3.812"/><path stroke="#000" d="M171.316-11.461l5.329 5.525-2.08-4.225 3.25 1.3h0l-3.25-1.3 4.42-1.624-7.669.324h0z"/><text x="194" y="-8.4" font-family="Lato" font-size="12">p1</text></g><g class="edge"><path fill="none" stroke="#000" d="M239.984-38.29C238.05-48.39 240.723-58 248-58c5.458 0 8.326 5.406 8.603 12.37"/><path stroke="#000" d="M256.016-38.29l3.698-6.727-3.419 3.238.279-3.489h0l-.279 3.489-2.861-3.74 2.582 7.229h0z"/><text x="238" y="-61.4" font-family="Lato" font-size="12">!p1</text></g></g></svg>