<?xml-stylesheet href="spot.css" type="text/css"?><svg width="299pt" height="118pt" viewBox="0 0 298.81 118.4" xmlns="http://www.w3.org/2000/svg"><g class="graph" transform="translate(4 114.4)"><path fill="#fff" stroke="transparent" d="M-4 4v-118.4h298.814V4H-4z"/><text x="123.907" y="-83.8" font-family="Lato" font-size="12">[Büchi]</text><g class="node"><circle fill="#ffffa0" stroke="#000" cx="63.5" cy="-22" r="18"/><circle fill="none" stroke="#000" cx="63.5" cy="-22" r="22"/><text text-anchor="middle" x="63.5" y="-18.9" font-family="Lato" font-size="12">0</text></g><g class="edge"><path fill="none" stroke="#000" d="M4.668-22h29.47"/><path stroke="#000" d="M41.365-22l-7-3.15 3.5 3.15h-3.5 3.5l-3.5 3.15 7-3.15h0z"/></g><g class="edge"><path fill="none" stroke="#000" d="M56.183-42.99C55.28-53.088 57.72-62 63.5-62c4.336 0 6.792 5.013 7.368 11.78"/><path stroke="#000" d="M70.817-42.99l3.2-6.978-3.175 3.477.024-3.5h0l-.025 3.5-3.125-3.522 3.1 7.022h0z"/><text y="-65.4" font-family="Lato" font-size="12">!door_open | light_on</text></g><g class="node"><circle fill="#ffffa0" stroke="#000" cx="271.5" cy="-22" r="18"/><text text-anchor="middle" x="271.5" y="-18.9" font-family="Lato" font-size="12">1</text></g><g class="edge"><path fill="none" stroke="#000" d="M85.76-22h160.37"/><path stroke="#000" d="M253.32-22l-7-3.15 3.5 3.15h-3.5 3.5l-3.5 3.15 7-3.15h0z"/><text x="103.5" y="-25.4" font-family="Lato" font-size="12">door_open &amp; !light_on</text></g><g class="edge"><path fill="none" stroke="#000" d="M256.862-33.057C247.695-44.78 252.574-58 271.5-58c15.673 0 21.713 9.066 18.12 18.84"/><path stroke="#000" d="M286.138-33.057l6.205-4.519-4.47 1.479 1.734-3.04h0l-1.735 3.04-1-4.601-.734 7.64h0z"/><text text-anchor="middle" x="271.5" y="-61.4" font-family="Lato" font-size="12">1</text></g></g></svg>