<?xml-stylesheet href="spot.css" type="text/css"?><svg width="428pt" height="259pt" viewBox="0 0 427.5 259.24" xmlns="http://www.w3.org/2000/svg"><g class="graph" transform="translate(4 255.245)"><path fill="#fff" stroke="transparent" d="M-4 4v-259.245h427.5V4H-4z"/><text x="167.75" y="-238.645" font-family="Lato" font-size="12">Inf(</text><text x="188.75" y="-238.645" font-family="Lato" font-size="12" fill="#1f78b4">⓿</text><text x="201.75" y="-238.645" font-family="Lato" font-size="12">)&amp;Inf(</text><text x="235.75" y="-238.645" font-family="Lato" font-size="12" fill="#ff4da0">❶</text><text x="246.75" y="-238.645" font-family="Lato" font-size="12">)</text><text x="167.75" y="-226.645" font-family="Lato" font-size="12">[gen. Büchi 2]</text><g class="node"><path fill="#ffffa0" stroke="#000" d="M66-62.245H50c-6 0-12 6-12 12v12c0 6 6 12 12 12h16c6 0 12-6 12-12v-12c0-6-6-12-12-12"/><text x="54" y="-47.645" font-family="Lato" font-size="12">0</text><text x="46" y="-35.645" font-family="Lato" font-size="12" fill="#1f78b4">⓿</text><text x="59" y="-35.645" font-family="Lato" font-size="12" fill="#ff4da0">❶</text></g><g class="edge"><path fill="none" stroke="#000" d="M1.146-44.245H30.69"/><path stroke="#000" d="M37.829-44.245l-7-3.15 3.5 3.15h-3.5 3.5l-3.5 3.15 7-3.15h0z"/></g><g class="edge"><path fill="none" stroke="#000" d="M51.126-62.397C50.068-71.784 52.358-80.245 58-80.245c4.142 0 6.478 4.563 7.008 10.705"/><path stroke="#000" d="M64.874-62.397l3.281-6.94-3.215 3.44.066-3.5h0l-.066 3.5-3.084-3.558 3.018 7.058h0z"/><text x="42" y="-83.645" font-family="Lato" font-size="12">a &amp; b</text></g><g class="node"><path fill="#ffffa0" stroke="#000" d="M177.5-156.245h-12c-6 0-12 6-12 12v12c0 6 6 12 12 12h12c6 0 12-6 12-12v-12c0-6-6-12-12-12"/><text x="167.5" y="-141.645" font-family="Lato" font-size="12">1</text><text x="165" y="-128.645" font-family="Lato" font-size="12" fill="#1f78b4">⓿</text></g><g class="edge"><path fill="none" stroke="#000" d="M63.15-62.556c5.525-16.366 15.875-39.84 32.85-53.689 14.31-11.676 34.58-17.155 50.514-19.726"/><path stroke="#000" d="M153.493-136.96l-7.372-2.137 3.907 2.628-3.465.49h0l3.465-.49-3.024 3.61 6.49-4.101h0z"/><text x="96" y="-135.645" font-family="Lato" font-size="12">a &amp; !b</text></g><g class="node"><path fill="#ffffa0" stroke="#000" d="M407-93.245h-12c-6 0-12 6-12 12v12c0 6 6 12 12 12h12c6 0 12-6 12-12v-12c0-6-6-12-12-12"/><text x="397" y="-78.645" font-family="Lato" font-size="12">2</text><text x="395.5" y="-65.645" font-family="Lato" font-size="12" fill="#ff4da0">❶</text></g><g class="edge"><path fill="none" stroke="#000" d="M78.22-36.133c5.666 1.943 11.888 3.775 17.78 4.888 67.727 12.796 86.476 12.426 155 5 51.569-5.588 66.263-4.708 114-25 3.897-1.656 7.824-3.747 11.578-6"/><path stroke="#000" d="M382.697-61.144L375.1-60.04l4.644.777-2.952 1.88h0l2.952-1.88-1.26 4.537 4.212-6.418h0z"/><text x="212" y="-29.645" font-family="Lato" font-size="12">!a &amp; b</text></g><g class="node"><path fill="#ffffa0" stroke="#000" d="M293.5-93.245h-12c-6 0-12 6-12 12v12c0 6 6 12 12 12h12c6 0 12-6 12-12v-12c0-6-6-12-12-12"/><text text-anchor="middle" x="287.5" y="-72.145" font-family="Lato" font-size="12">3</text></g><g class="edge"><path fill="none" stroke="#000" d="M78.367-46.996l183.887-24.839"/><path stroke="#000" d="M269.426-72.803l-7.359-2.185 3.89 2.653-3.468.469h0l3.468-.469-3.047 3.59 6.516-4.058h0z"/><text x="151" y="-65.645" font-family="Lato" font-size="12">!a &amp; !b</text></g><g class="edge"><path fill="none" stroke="#000" d="M155.71-119.913c-6.581 6.99-14.58 14.701-22.71 20.668-14.903 10.938-21.916 8.314-37 19-5.337 3.781-10.676 8.281-15.595 12.798"/><path stroke="#000" d="M75.253-62.574l7.25-2.522-4.707.117 2.542-2.405h0l-2.542 2.405.378-4.693-2.921 7.098h0z"/><text x="98.5" y="-102.645" font-family="Lato" font-size="12">a &amp; b</text></g><g class="edge"><path fill="none" stroke="#000" d="M161.37-156.397c-1.56-9.387 1.817-17.848 10.13-17.848 6.105 0 9.547 4.563 10.328 10.705"/><path stroke="#000" d="M181.63-156.397l3.343-6.91-3.246 3.41.097-3.498h0l-.097 3.499-3.052-3.586 2.956 7.085h0z"/><text x="153" y="-177.645" font-family="Lato" font-size="12">a &amp; !b</text></g><g class="edge"><path fill="none" stroke="#000" d="M183.127-156.497c6.698-8.83 15.954-18.61 26.873-23.748 62.332-29.331 99.978-41.451 155 0 12.928 9.74 24.391 51.91 30.745 79.756"/><path stroke="#000" d="M397.323-93.401l1.553-7.517-2.314 4.1-.76-3.416h0l.76 3.416-3.835-2.731 4.596 6.148h0z"/><text x="269" y="-209.645" font-family="Lato" font-size="12">!a &amp; b</text></g><g class="edge"><path fill="none" stroke="#000" d="M189.732-136.2c16.928 2.564 42.3 8.151 61.268 19.955 7.186 4.472 13.779 10.776 19.325 17.102"/><path stroke="#000" d="M275.112-93.378l-2.049-7.398-.187 4.705-2.236-2.693h0l2.236 2.693-4.66-.68 6.896 3.373h0z"/><text x="210" y="-134.645" font-family="Lato" font-size="12">!a &amp; !b</text></g><g class="edge"><path fill="none" stroke="#000" d="M389.731-56.929c-6.258 8.714-14.79 18.546-24.731 24.684-44.303 27.356-62.283 20.96-114 27-68.743 8.03-89.916 8.542-155-15-3.948-1.428-7.916-3.316-11.72-5.408"/><path stroke="#000" d="M78.064-29.32l4.428 6.27-1.413-4.492 3.014 1.779h0l-3.014-1.779 4.615-.934-7.63-.844h0z"/><text x="214.5" y="-8.645" font-family="Lato" font-size="12">a &amp; b</text></g><g class="edge"><path fill="none" stroke="#000" d="M382.919-88.43C364.402-101.406 334.39-121 306-133.246c-23.266-10.034-29.887-11.637-55-15-18.061-2.418-22.925-2.309-41 0-4.405.563-9.027 1.474-13.479 2.523"/><path stroke="#000" d="M189.722-143.99l7.561 1.325-4.17-2.19 3.393-.863h0l-3.392.864 2.614-3.916-6.006 4.78h0z"/><text x="269" y="-148.645" font-family="Lato" font-size="12">a &amp; !b</text></g><g class="edge"><path fill="none" stroke="#000" d="M390.87-93.397c-1.56-9.387 1.817-17.848 10.13-17.848 6.104 0 9.547 4.563 10.328 10.705"/><path stroke="#000" d="M411.13-93.397l3.343-6.91-3.245 3.41.096-3.498h0l-.096 3.499-3.053-3.586 2.956 7.085h0z"/><text x="382.5" y="-114.645" font-family="Lato" font-size="12">!a &amp; b</text></g><g class="edge"><path fill="none" stroke="#000" d="M382.81-75.245h-69.952"/><path stroke="#000" d="M305.736-75.245l7 3.15-3.5-3.15h3.5-3.5l3.5-3.15-7 3.15h0z"/><text x="324" y="-78.645" font-family="Lato" font-size="12">!a &amp; !b</text></g><g class="edge"><path fill="none" stroke="#000" d="M269.42-66.057c-18.784 8.971-49.309 21.959-77.42 26.812-36.486 6.3-79.358 2.842-106.599-.68"/><path stroke="#000" d="M78.151-40.913l6.511 4.066-3.043-3.594 3.468.473h0l-3.468-.473 3.893-2.649-7.36 2.177h0z"/><text x="155.5" y="-42.645" font-family="Lato" font-size="12">a &amp; b</text></g><g class="edge"><path fill="none" stroke="#000" d="M269.223-78.274c-16.406-3.309-40.686-9.706-59.223-20.97-6.847-4.162-13.356-9.806-19.008-15.507"/><path stroke="#000" d="M186.057-119.962l2.526 7.248-.12-4.707 2.407 2.541h0l-2.406-2.54 4.693.374-7.1-2.916h0z"/><text x="212" y="-102.645" font-family="Lato" font-size="12">a &amp; !b</text></g><g class="edge"><path fill="none" stroke="#000" d="M305.515-64.965c5.726 2.743 12.206 5.33 18.485 6.72 17.791 3.94 23.22 3.987 41 0 3.794-.85 7.658-2.148 11.38-3.655"/><path stroke="#000" d="M382.877-64.788l-7.677-.035 4.478 1.457-3.198 1.421h0l3.198-1.421-1.919 4.3 5.118-5.722h0z"/><text x="326" y="-61.645" font-family="Lato" font-size="12">!a &amp; b</text></g><g class="edge"><path fill="none" stroke="#000" d="M277.37-93.397c-1.56-9.387 1.817-17.848 10.13-17.848 6.104 0 9.547 4.563 10.328 10.705"/><path stroke="#000" d="M297.63-93.397l3.343-6.91-3.245 3.41.096-3.498h0l-.096 3.499-3.053-3.586 2.956 7.085h0z"/><text x="267" y="-114.645" font-family="Lato" font-size="12">!a &amp; !b</text></g></g></svg>