<?xml-stylesheet href="spot.css" type="text/css"?><svg width="242pt" height="109pt" viewBox="0 0 242 109" xmlns="http://www.w3.org/2000/svg"><g class="graph"><path fill="#fff" stroke="transparent" d="M0 109V0h242v109H0z"/><text x="114.5" y="-87.4" font-family="Lato" font-size="12" transform="translate(4 105)">t</text><text x="105.5" y="-74.4" font-family="Lato" font-size="12" transform="translate(4 105)">[all]</text><g class="node" transform="translate(4 105)"><circle fill="#ffffa0" stroke="#1f78b4" stroke-width="2" cx="56" cy="-18" r="18"/><text text-anchor="middle" x="56" y="-14.9" font-family="Lato" font-size="12">1</text></g><g class="edge" transform="translate(4 105)"><path fill="none" stroke="#000" d="M1.123-18h29.801"/><path stroke="#000" d="M37.98-18l-7-3.15 3.5 3.15h-3.5 3.5l-3.5 3.15 7-3.15h0z"/></g><g class="node" transform="translate(4 105)"><circle fill="#ffffa0" stroke="#6a3d9a" stroke-width="2" cx="136" cy="-18" r="18"/><text text-anchor="middle" x="136" y="-14.9" font-family="Lato" font-size="12">2</text></g><g class="edge" transform="translate(4 105)"><path fill="none" stroke="#ff7f00" stroke-width="2" d="M74.153-18h36.668"/><path fill="#ff7f00" stroke="#ff7f00" stroke-width="2" d="M117.919-18l-7-3.15 3.5 2.65h-3.5v1h3.5l-3.5 2.65 7-3.15h0z"/><text text-anchor="middle" x="96" y="-21.4" font-family="Lato" font-size="12">1</text><text text-anchor="middle" x="83.153" y="-8.4" font-family="Lato" font-size="12">#2</text></g><g class="node" transform="translate(4 105)"><circle fill="#ffffa0" stroke="#000" cx="216" cy="-18" r="18"/><text text-anchor="middle" x="216" y="-14.9" font-family="Lato" font-size="12">0</text></g><g class="edge" transform="translate(4 105)"><path fill="none" stroke="#ff4da0" stroke-width="2" d="M208.969-34.664C207.406-44.625 209.75-54 216-54c4.688 0 7.178 5.273 7.47 12.112"/><path fill="#ff4da0" stroke="#ff4da0" stroke-width="2" d="M223.031-34.664l3.57-6.796-2.858 3.333.213-3.494-.5-.03-.499-.03-.212 3.493-2.433-3.654 2.72 7.178h0z"/><text text-anchor="middle" x="216" y="-57.4" font-family="Lato" font-size="12">1</text><text text-anchor="middle" x="199.969" y="-38.064" font-family="Lato" font-size="12">#1</text></g><g class="edge" transform="translate(4 105)"><path fill="none" stroke="#000" d="M154.153-18h36.668"/><path stroke="#000" d="M197.919-18l-7-3.15 3.5 3.15h-3.5 3.5l-3.5 3.15 7-3.15h0z"/><text x="172" y="-21.4" font-family="Lato" font-size="12">b</text><text text-anchor="middle" x="163.153" y="-8.4" font-family="Lato" font-size="12">#3</text></g><g class="edge" transform="translate(4 105)"><path fill="none" stroke="#000" d="M128.969-34.664C127.406-44.625 129.75-54 136-54c4.688 0 7.178 5.273 7.47 12.112"/><path stroke="#000" d="M143.031-34.664l3.57-6.796-3.357 3.302.212-3.493h0l-.212 3.493-2.932-3.684 2.72 7.178h0z"/><text x="117.5" y="-57.4" font-family="Lato" font-size="12">a &amp; !b</text><text text-anchor="middle" x="119.969" y="-38.064" font-family="Lato" font-size="12">#4</text></g></g></svg>