<?xml-stylesheet href="spot.css" type="text/css"?><svg width="216" height="151pt" viewBox="0 0 162 151" xmlns="http://www.w3.org/2000/svg"><g class="graph" transform="translate(4 147)"><path fill="#fff" stroke="transparent" d="M-4 4v-151h162V4H-4z"/><text x="57.5" y="-130.4" font-family="Lato" font-size="12">Inf(</text><text x="78.5" y="-130.4" font-family="Lato" font-size="12" fill="#1f78b4">⓿</text><text x="91.5" y="-130.4" font-family="Lato" font-size="12">)</text><text x="55.5" y="-118.4" font-family="Lato" font-size="12">[Büchi]</text><g class="node"><circle fill="#ffffa0" stroke="#000" cx="56" cy="-18" r="18"/><text text-anchor="middle" x="56" y="-14.9" font-family="Lato" font-size="12">0</text></g><g class="edge"><path fill="none" stroke="#000" d="M1.123-18h29.801"/><path stroke="#000" d="M37.98-18l-7-3.15 3.5 3.15h-3.5 3.5l-3.5 3.15 7-3.15h0z"/></g><g class="edge"><path fill="none" stroke="#000" d="M49.62-35.037C48.32-44.857 50.446-54 56-54c4.166 0 6.404 5.142 6.713 11.857"/><path stroke="#000" d="M62.38-35.037l3.474-6.845-3.31 3.349.164-3.497h0l-.165 3.497-2.982-3.644 2.818 7.14h0z"/><text x="49.5" y="-57.4" font-family="Lato" font-size="12">!a</text></g><g class="node"><circle fill="#ffffa0" stroke="#000" cx="136" cy="-18" r="18"/><text text-anchor="middle" x="136" y="-14.9" font-family="Lato" font-size="12">1</text></g><g class="edge"><path fill="none" stroke="#000" d="M74.153-18h36.668"/><path stroke="#000" d="M117.919-18l-7-3.15 3.5 3.15h-3.5 3.5l-3.5 3.15 7-3.15h0z"/><text x="92" y="-21.4" font-family="Lato" font-size="12">a</text></g><g class="edge"><path fill="none" stroke="#000" d="M132.405-35.782C131.794-45.315 132.992-54 136-54c2.209 0 3.442 4.684 3.7 10.948"/><path stroke="#000" d="M139.595-35.782l3.25-6.954-3.2 3.455.05-3.5h0l-.05 3.5-3.1-3.545 3.05 7.044h0z"/><text x="129.5" y="-57.4" font-family="Lato" font-size="12">!b</text></g><g class="edge"><path fill="none" stroke="#000" d="M130.148-35.142C126.706-52.585 128.656-72 136-72c6.368 0 8.681 14.6 6.938 29.854"/><path stroke="#000" d="M141.852-35.142l4.186-6.434-3.65 2.976.537-3.46h0l-.537 3.46-2.576-3.942 2.04 7.4h0z"/><text x="132" y="-88.4" font-family="Lato" font-size="12">b</text><text x="129.5" y="-75.4" font-family="Lato" font-size="12" fill="#1f78b4">⓿</text></g></g></svg>