<?xml-stylesheet href="spot.css" type="text/css"?><svg width="304pt" height="212" viewBox="0 0 304 159.4" xmlns="http://www.w3.org/2000/svg"><g class="graph" transform="translate(4 155.4)"><path fill="#fff" stroke="transparent" d="M-4 4v-159.4h304V4H-4z"/><text x="126.5" y="-124.8" font-family="Lato" font-size="12">[Büchi]</text><g class="node"><circle fill="#ffffa0" stroke="#000" cx="60" cy="-34" r="18"/><circle fill="none" stroke="#000" cx="60" cy="-34" r="22"/><text text-anchor="middle" x="60" y="-30.9" font-family="Lato" font-size="12">0</text></g><g class="edge"><path fill="none" stroke="#000" d="M1.168-34h29.47"/><path stroke="#000" d="M37.865-34l-7-3.15 3.5 3.15h-3.5 3.5l-3.5 3.15 7-3.15h0z"/></g><g class="edge"><path fill="none" stroke="#000" d="M52.683-54.99C51.78-65.088 54.22-74 60-74c4.336 0 6.792 5.013 7.368 11.78"/><path stroke="#000" d="M67.317-54.99l3.2-6.978-3.175 3.477.024-3.5h0l-.025 3.5-3.125-3.522 3.1 7.022h0z"/><text x="44" y="-77.4" font-family="Lato" font-size="12">a &amp; b</text></g><g class="node"><circle fill="#ffffa0" stroke="#000" cx="168.5" cy="-67" r="18"/><text text-anchor="middle" x="168.5" y="-63.9" font-family="Lato" font-size="12">1</text></g><g class="edge"><path fill="none" stroke="#000" d="M75.693-49.892C82.553-55.78 91.068-61.798 100-65c13.796-4.946 30.176-5.595 43.46-4.938"/><path stroke="#000" d="M150.484-69.457l-6.769-3.62 3.277 3.381-3.492-.239h0l3.492.24-3.707 2.903 7.199-2.665h0z"/><text x="109.5" y="-73.4" font-family="Lato" font-size="12">!b</text></g><g class="node"><circle fill="#ffffa0" stroke="#000" cx="278" cy="-18" r="18"/><text text-anchor="middle" x="278" y="-14.9" font-family="Lato" font-size="12">2</text></g><g class="edge"><path fill="none" stroke="#000" d="M82.188-32.228C100.402-30.785 126.868-28.713 150-27c35.588 2.635 76.756 5.496 102.587 7.269"/><path stroke="#000" d="M259.768-19.24l-6.769-3.62 3.277 3.382-3.492-.24h0l3.492.24-3.707 2.903 7.199-2.664h0z"/><text x="150" y="-30.4" font-family="Lato" font-size="12">!a &amp; b</text></g><g class="edge"><path fill="none" stroke="#000" d="M152.955-57.647c-6.32 3.464-13.806 7.15-20.955 9.647-13.795 4.818-29.69 8.13-43.03 10.317"/><path stroke="#000" d="M81.852-36.58l7.4 2.041-3.941-2.577 3.458-.536h0l-3.458.536 2.976-3.649-6.435 4.184h0z"/><text x="100" y="-51.4" font-family="Lato" font-size="12">a &amp; b</text></g><g class="edge"><path fill="none" stroke="#000" d="M159.521-82.916C157.18-93.15 160.171-103 168.5-103c6.376 0 9.625 5.774 9.746 13.073"/><path stroke="#000" d="M177.479-82.916l3.893-6.615-3.512 3.136.38-3.48h0l-.38 3.48-2.75-3.822 2.369 7.301h0z"/><text x="162" y="-106.4" font-family="Lato" font-size="12">!b</text></g><g class="edge"><path fill="none" stroke="#000" d="M185.13-59.558c18.572 8.31 48.76 21.82 69.653 31.168"/><path stroke="#000" d="M261.213-25.512l-5.103-5.735 1.908 4.305-3.195-1.43h0l3.195 1.43-4.481 1.446 7.676-.016h0z"/><text x="205" y="-52.4" font-family="Lato" font-size="12">!a &amp; b</text></g><g class="edge"><path fill="none" stroke="#000" d="M260.114-13.866C235.297-8.72 189.06-1.267 150-7c-21.516-3.158-45.027-10.348-62.623-16.515"/><path stroke="#000" d="M80.702-25.905l5.528 5.325-2.233-4.145 3.295 1.18h0l-3.295-1.18 4.357-1.786-7.652.606h0z"/><text x="164.5" y="-10.4" font-family="Lato" font-size="12">a</text></g><g class="edge"><path fill="none" stroke="#000" d="M268.767-33.541C266.168-43.91 269.247-54 278-54c6.702 0 10.077 5.915 10.125 13.34"/><path stroke="#000" d="M287.233-33.541l3.996-6.555-3.561 3.082.435-3.473h0l-.435 3.473-2.69-3.865 2.255 7.338h0z"/><text x="271.5" y="-57.4" font-family="Lato" font-size="12">!a</text></g></g></svg>