<?xml-stylesheet href="spot.css" type="text/css"?><svg width="340" height="118pt" viewBox="0 0 255 118.4" xmlns="http://www.w3.org/2000/svg"><g class="graph"><path fill="#fff" stroke="transparent" d="M0 118.4V0h255v118.4H0z"/><text x="102" y="-83.8" font-family="Lato" font-size="12" transform="translate(4 114.4)">[Büchi]</text><g class="node" transform="translate(4 114.4)"><circle fill="#ffffa0" stroke="#000" cx="56" cy="-22" r="18"/><text text-anchor="middle" x="56" y="-18.9" font-family="Lato" font-size="12">0</text></g><g class="edge" transform="translate(4 114.4)"><path fill="none" stroke="#000" d="M1.123-22h29.801"/><path stroke="#000" d="M37.98-22l-7-3.15 3.5 3.15h-3.5 3.5l-3.5 3.15 7-3.15h0z"/></g><g class="edge" transform="translate(4 114.4)"><path fill="none" stroke="#000" d="M49.62-39.037C48.32-48.857 50.446-58 56-58c4.166 0 6.404 5.142 6.713 11.857"/><path stroke="#000" d="M62.38-39.037l3.474-6.845-3.31 3.349.164-3.497h0l-.165 3.497-2.982-3.644 2.818 7.14h0z"/><text x="37.5" y="-61.4" font-family="Lato" font-size="12">a &amp; !b</text></g><g class="node" transform="translate(4 114.4)"><circle fill="#ffffa0" stroke="#000" cx="140" cy="-22" r="18"/><circle fill="none" stroke="#000" cx="140" cy="-22" r="22"/><text text-anchor="middle" x="140" y="-18.9" font-family="Lato" font-size="12">2</text></g><g class="edge" transform="translate(4 114.4)"><path fill="none" stroke="#000" d="M74.227-22h36.4"/><path stroke="#000" d="M117.928-22l-7-3.15 3.5 3.15h-3.5 3.5l-3.5 3.15 7-3.15h0z"/><text x="92" y="-25.4" font-family="Lato" font-size="12">b</text></g><g class="edge" transform="translate(4 114.4)"><path fill="none" stroke="#000" d="M131.994-42.58C130.886-52.846 133.554-62 140-62c4.834 0 7.544 5.15 8.129 12.055"/><path stroke="#000" d="M148.006-42.58l3.267-6.947-3.208 3.447.058-3.5h0l-.058 3.5-3.091-3.552 3.032 7.051h0z"/><text x="136" y="-65.4" font-family="Lato" font-size="12">b</text></g><g class="node" transform="translate(4 114.4)"><circle fill="#ffffa0" stroke="#000" cx="229" cy="-22" r="18"/><text text-anchor="middle" x="229" y="-18.9" font-family="Lato" font-size="12">1</text></g><g class="edge" transform="translate(4 114.4)"><path fill="none" stroke="#000" d="M162-22h41.485"/><path stroke="#000" d="M210.845-22l-7-3.15 3.5 3.15h-3.5 3.5l-3.5 3.15 7-3.15h0z"/><text x="180" y="-25.4" font-family="Lato" font-size="12">!b</text></g><g class="edge" transform="translate(4 114.4)"><path fill="none" stroke="#000" d="M213.415-12.8C207.271-9.674 200.015-6.574 193-5c-8.928 2.002-18.502.197-27.023-2.872"/><path stroke="#000" d="M159.401-10.556l5.29 5.562-2.05-4.24 3.241 1.324h0l-3.24-1.323 4.43-1.594-7.67.271h0z"/><text x="182.5" y="-8.4" font-family="Lato" font-size="12">b</text></g><g class="edge" transform="translate(4 114.4)"><path fill="none" stroke="#000" d="M221.617-38.664C219.977-48.625 222.437-58 229-58c4.922 0 7.537 5.273 7.844 12.112"/><path stroke="#000" d="M236.383-38.664l3.59-6.785-3.367 3.292.223-3.493h0l-.223 3.493-2.92-3.694 2.697 7.187h0z"/><text x="222.5" y="-61.4" font-family="Lato" font-size="12">!b</text></g></g></svg>