<?xml-stylesheet href="spot.css" type="text/css"?><svg width="280pt" height="256" viewBox="0 0 280 192.16" xmlns="http://www.w3.org/2000/svg"><g class="graph"><path fill="#fff" stroke="transparent" d="M0 192.162V0h280v192.162H0z"/><text x="89.5" y="-171.562" font-family="Lato" font-size="12" transform="translate(4 188.162)">Fin(</text><text x="111.5" y="-171.562" font-family="Lato" font-size="12" fill="#1f78b4" transform="translate(4 188.162)">⓿</text><text x="124.5" y="-171.562" font-family="Lato" font-size="12" transform="translate(4 188.162)">) &amp; Inf(</text><text x="166.5" y="-171.562" font-family="Lato" font-size="12" fill="#ff4da0" transform="translate(4 188.162)">❶</text><text x="177.5" y="-171.562" font-family="Lato" font-size="12" transform="translate(4 188.162)">)</text><text x="108.5" y="-159.562" font-family="Lato" font-size="12" transform="translate(4 188.162)">[Rabin 1]</text><g class="node" transform="translate(4 188.162)"><path fill="#ffffa0" stroke="#000" d="M62-78.162H50c-6 0-12 6-12 12v12c0 6 6 12 12 12h12c6 0 12-6 12-12v-12c0-6-6-12-12-12"/><text text-anchor="middle" x="56" y="-57.062" font-family="Lato" font-size="12">1</text></g><g class="edge" transform="translate(4 188.162)"><path fill="none" stroke="#000" d="M1.123-60.162h29.801"/><path stroke="#000" d="M37.98-60.162l-7-3.15 3.5 3.15h-3.5 3.5l-3.5 3.15 7-3.15h0z"/></g><g class="edge" transform="translate(4 188.162)"><path fill="none" stroke="#000" d="M49.487-78.315c-1.002-9.386 1.17-17.847 6.513-17.847 3.924 0 6.138 4.563 6.64 10.704"/><path stroke="#000" d="M62.513-78.315l3.274-6.943-3.212 3.443.062-3.499h0l-.062 3.5-3.087-3.556 3.025 7.055h0z"/><text x="37.5" y="-99.562" font-family="Lato" font-size="12">a &amp; !b</text></g><g class="node" transform="translate(4 188.162)"><path fill="#ffffa0" stroke="#000" d="M175-121.162h-12c-6 0-12 6-12 12v12c0 6 6 12 12 12h12c6 0 12-6 12-12v-12c0-6-6-12-12-12"/><text text-anchor="middle" x="169" y="-100.062" font-family="Lato" font-size="12">0</text></g><g class="edge" transform="translate(4 188.162)"><path fill="none" stroke="#000" d="M74.155-67.071l69.926-26.609"/><path stroke="#000" d="M150.89-96.27l-7.663-.455 4.392 1.699-3.272 1.245h0l3.272-1.245-2.151 4.189 5.422-5.434h0z"/><text x="92" y="-92.562" font-family="Lato" font-size="12">!a &amp; !b</text></g><g class="node" transform="translate(4 188.162)"><path fill="#ffffa0" stroke="#000" d="M175-36.162h-12c-6 0-12 6-12 12v12c0 6 6 12 12 12h12c6 0 12-6 12-12v-12c0-6-6-12-12-12"/><text x="165" y="-21.562" font-family="Lato" font-size="12">3</text><text x="163.5" y="-8.562" font-family="Lato" font-size="12" fill="#ff4da0">❶</text></g><g class="edge" transform="translate(4 188.162)"><path fill="none" stroke="#000" d="M74.155-53.414c18.946 7.041 48.782 18.13 69.926 25.99"/><path stroke="#000" d="M150.89-24.894l-5.464-5.391 2.183 4.172-3.28-1.22h0l3.28 1.22-4.378 1.733 7.659-.514h0z"/><text x="108.5" y="-49.562" font-family="Lato" font-size="12">b</text></g><g class="edge" transform="translate(4 188.162)"><path fill="none" stroke="#000" d="M161.402-121.315c-1.17-9.387 1.364-17.847 7.598-17.847 4.578 0 7.16 4.563 7.746 10.704"/><path stroke="#000" d="M176.598-121.315l3.295-6.933-3.222 3.434.072-3.5h0l-.072 3.5-3.077-3.565 3.004 7.064h0z"/><text text-anchor="middle" x="169" y="-142.562" font-family="Lato" font-size="12">1</text></g><g class="edge" transform="translate(4 188.162)"><path fill="none" stroke="#000" d="M161.402-36.315c-1.17-9.387 1.364-17.847 7.598-17.847 4.578 0 7.16 4.563 7.746 10.704"/><path stroke="#000" d="M176.598-36.315l3.295-6.933-3.222 3.434.072-3.5h0l-.072 3.5-3.077-3.565 3.004 7.064h0z"/><text x="165" y="-57.562" font-family="Lato" font-size="12">b</text></g><g class="node" transform="translate(4 188.162)"><path fill="#ffffa0" stroke="#000" d="M260-36.162h-12c-6 0-12 6-12 12v12c0 6 6 12 12 12h12c6 0 12-6 12-12v-12c0-6-6-12-12-12"/><text text-anchor="middle" x="254" y="-15.062" font-family="Lato" font-size="12">2</text></g><g class="edge" transform="translate(4 188.162)"><path fill="none" stroke="#000" d="M187.026-18.162h41.84"/><path stroke="#000" d="M236-18.162l-7-3.15 3.5 3.15H229h3.5l-3.5 3.15 7-3.15h0z"/><text x="205" y="-21.562" font-family="Lato" font-size="12">!b</text></g><g class="edge" transform="translate(4 188.162)"><path fill="none" stroke="#000" d="M235.673-6.642c-9.085 4.374-20.305 7.804-30.673 5.48-3.794-.851-7.658-2.149-11.38-3.656"/><path stroke="#000" d="M187.124-7.705l5.117 5.721-1.92-4.3 3.2 1.422h0l-3.2-1.422L194.8-7.74l-7.675.036h0z"/><text x="207.5" y="-4.562" font-family="Lato" font-size="12">b</text></g><g class="edge" transform="translate(4 188.162)"><path fill="none" stroke="#000" d="M246.402-36.315c-1.17-9.387 1.364-17.847 7.598-17.847 4.578 0 7.16 4.563 7.746 10.704"/><path stroke="#000" d="M261.598-36.315l3.295-6.933-3.222 3.434.072-3.5h0l-.072 3.5-3.077-3.565 3.004 7.064h0z"/><text x="247.5" y="-57.562" font-family="Lato" font-size="12">!b</text></g></g></svg>