<?xml-stylesheet href="spot.css" type="text/css"?><svg width="367pt" height="434pt" viewBox="0 0 367 434.3" xmlns="http://www.w3.org/2000/svg"><g class="graph" transform="translate(4 430.296)"><path fill="#fff" stroke="transparent" d="M-4 4v-434.296h367V4H-4z"/><text x="158" y="-399.696" font-family="Lato" font-size="12">[Büchi]</text><g class="node"><circle fill="#ffffa0" stroke="#000" cx="60" cy="-209.896" r="18"/><circle fill="none" stroke="#000" cx="60" cy="-209.896" r="22"/><text text-anchor="middle" x="60" y="-206.796" font-family="Lato" font-size="12">6</text></g><g class="edge"><path fill="none" stroke="#000" d="M1.168-209.896h29.47"/><path stroke="#000" d="M37.865-209.896l-7-3.15 3.5 3.15h-3.5 3.5l-3.5 3.15 7-3.15h0z"/></g><g class="edge"><path fill="none" stroke="#000" d="M52.683-230.887c-.903-10.097 1.536-19.01 7.317-19.01 4.336 0 6.792 5.014 7.368 11.78"/><path stroke="#000" d="M67.317-230.887l3.2-6.978-3.175 3.478.024-3.5h0l-.025 3.5-3.125-3.522 3.1 7.022h0z"/><text x="32.5" y="-253.296" font-family="Lato" font-size="12">a &amp; b &amp; c</text></g><g class="node"><circle fill="#ffffa0" stroke="#000" cx="337" cy="-337.896" r="18"/><circle fill="none" stroke="#000" cx="337" cy="-337.896" r="22"/><text text-anchor="middle" x="337" y="-334.796" font-family="Lato" font-size="12">0</text></g><g class="edge"><path fill="none" stroke="#000" d="M67.562-230.89c6.761-16.87 17.851-40.545 32.438-58.006 27.867-33.359 36.792-45.17 78-59 43.88-14.727 98.334-5.927 130.788 1.934"/><path stroke="#000" d="M315.76-344.205l-6.018-4.766 2.624 3.91-3.394-.855h0l3.394.855-4.164 2.2 7.558-1.344h0z"/><text x="178" y="-358.296" font-family="Lato" font-size="12">!a &amp; !b &amp; c</text></g><g class="node"><circle fill="#ffffa0" stroke="#000" cx="210" cy="-285.896" r="18"/><circle fill="none" stroke="#000" cx="210" cy="-285.896" r="22"/><text text-anchor="middle" x="210" y="-282.796" font-family="Lato" font-size="12">1</text></g><g class="edge"><path fill="none" stroke="#000" d="M74.749-226.271c7.08-7.1 16.021-15.048 25.251-20.625 25.617-15.48 58.296-26.082 81.358-32.28"/><path stroke="#000" d="M188.188-280.958l-7.569-1.28 4.182 2.164-3.386.884h0l3.386-.884-2.59 3.932 5.977-4.816h0z"/><text x="100" y="-275.296" font-family="Lato" font-size="12">!a &amp; b &amp; c</text></g><g class="node"><circle fill="#ffffa0" stroke="#000" cx="337" cy="-232.896" r="18"/><circle fill="none" stroke="#000" cx="337" cy="-232.896" r="22"/><text text-anchor="middle" x="337" y="-229.796" font-family="Lato" font-size="12">2</text></g><g class="edge"><path fill="none" stroke="#000" d="M82.2-211.74l225.383-18.714"/><path stroke="#000" d="M314.694-231.044l-7.236-2.56 3.748 2.85-3.488.289h0l3.488-.29-3.227 3.43 6.715-3.72h0z"/><text x="178" y="-227.296" font-family="Lato" font-size="12">!a &amp; b &amp; !c</text></g><g class="node"><circle fill="#ffffa0" stroke="#000" cx="337" cy="-50.896" r="18"/><circle fill="none" stroke="#000" cx="337" cy="-50.896" r="22"/><text text-anchor="middle" x="337" y="-47.796" font-family="Lato" font-size="12">3</text></g><g class="edge"><path fill="none" stroke="#000" d="M64.093-187.946C73.996-142.326 104.106-38.857 178-6.896c45.84 19.826 103.003-7.772 134.795-27.386"/><path stroke="#000" d="M318.805-38.083l-7.6 1.08 4.641.791-2.958 1.87h0l2.958-1.87-1.274 4.533 4.233-6.404h0z"/><text x="178" y="-10.296" font-family="Lato" font-size="12">a &amp; !b &amp; !c</text></g><g class="node"><circle fill="#ffffa0" stroke="#000" cx="210" cy="-143.896" r="18"/><circle fill="none" stroke="#000" cx="210" cy="-143.896" r="22"/><text text-anchor="middle" x="210" y="-140.796" font-family="Lato" font-size="12">4</text></g><g class="edge"><path fill="none" stroke="#000" d="M80.23-200.995l102.622 45.153"/><path stroke="#000" d="M189.612-152.867l-5.139-5.703 1.935 4.293-3.203-1.41h0l3.203 1.41-4.472 1.474 7.676-.064h0z"/><text x="100" y="-195.296" font-family="Lato" font-size="12">a &amp; !b &amp; c</text></g><g class="node"><circle fill="#ffffa0" stroke="#000" cx="210" cy="-50.896" r="18"/><circle fill="none" stroke="#000" cx="210" cy="-50.896" r="22"/><text text-anchor="middle" x="210" y="-47.796" font-family="Lato" font-size="12">5</text></g><g class="edge"><path fill="none" stroke="#000" d="M71.118-190.65c7.464 12.22 17.909 28.064 28.882 40.754 26.957 31.173 63.32 62.15 86.717 80.936"/><path stroke="#000" d="M192.373-64.453l-3.512-6.826.774 4.645-2.737-2.181h0l2.737 2.18-4.7.283 7.438 1.899h0z"/><text x="100" y="-153.296" font-family="Lato" font-size="12">a &amp; b &amp; !c</text></g><g class="edge"><path fill="none" stroke="#000" d="M326.574-357.654c-1.772-10.592 1.703-20.242 10.426-20.242 6.678 0 10.28 5.656 10.807 13.062"/><path stroke="#000" d="M347.426-357.654l3.517-6.823-3.331 3.328.185-3.495h0l-.185 3.495-2.96-3.662 2.774 7.157h0z"/><text x="333.5" y="-381.296" font-family="Lato" font-size="12">c</text></g><g class="edge"><path fill="none" stroke="#000" d="M228.37-298.506c9.192-5.89 20.672-12.636 31.63-17.39 15.455-6.706 33.53-11.992 48.283-15.7"/><path stroke="#000" d="M315.232-333.29l-7.547-1.403 4.147 2.231-3.4.83h0l3.4-.83-2.655 3.89 6.055-4.718h0z"/><text x="260.5" y="-331.296" font-family="Lato" font-size="12">!b &amp; c</text></g><g class="edge"><path fill="none" stroke="#000" d="M198.047-304.412c-2.656-11.068 1.328-21.484 11.953-21.484 8.3 0 12.548 6.357 12.743 14.416"/><path stroke="#000" d="M221.953-304.412l3.908-6.607-3.52 3.129.39-3.479h0l-.39 3.479-2.74-3.829 2.352 7.307h0z"/><text x="194.5" y="-329.296" font-family="Lato" font-size="12">b &amp; c</text></g><g class="edge"><path fill="none" stroke="#000" d="M231.967-288.924c18.373-1.504 44.757-1.202 65.033 9.028 9.793 4.94 18.15 13.446 24.655 21.875"/><path stroke="#000" d="M325.856-252.243l-1.569-7.514-.49 4.684-2.058-2.831h0l2.059 2.83-4.606-.978 6.664 3.81h0z"/><text x="260.5" y="-292.296" font-family="Lato" font-size="12">b &amp; !c</text></g><g class="edge"><path fill="none" stroke="#000" d="M326.574-252.654c-1.772-10.592 1.703-20.242 10.426-20.242 6.678 0 10.28 5.656 10.807 13.062"/><path stroke="#000" d="M347.426-252.654l3.517-6.823-3.331 3.328.185-3.495h0l-.185 3.495-2.96-3.662 2.774 7.157h0z"/><text x="333" y="-276.296" font-family="Lato" font-size="12">b</text></g><g class="edge"><path fill="none" stroke="#000" d="M326.574-70.654c-1.772-10.592 1.703-20.242 10.426-20.242 6.678 0 10.28 5.656 10.807 13.062"/><path stroke="#000" d="M347.426-70.654l3.517-6.823-3.331 3.328.185-3.495h0l-.185 3.495-2.96-3.662 2.774 7.157h0z"/><text x="333" y="-94.296" font-family="Lato" font-size="12">a</text></g><g class="edge"><path fill="none" stroke="#000" d="M223.772-161.095c17.868-22.666 49.55-64.088 73.228-101.801 5.556-8.85 17.204-30.858 26.505-48.76"/><path stroke="#000" d="M326.81-318.033l-6.017 4.766 4.407-1.658-1.61 3.108h0l1.61-3.108 1.186 4.557.424-7.665h0z"/><text x="260.5" y="-266.296" font-family="Lato" font-size="12">!a &amp; c</text></g><g class="edge"><path fill="none" stroke="#000" d="M231.872-139.237c18.806 4.858 45.865 13.96 65.128 29.34 11.016 8.796 20.148 21.445 26.891 32.777"/><path stroke="#000" d="M327.389-70.993l-.735-7.64-1 4.6-1.735-3.039h0l1.735 3.04-4.47-1.478 6.205 4.517h0z"/><text x="260.5" y="-133.296" font-family="Lato" font-size="12">a &amp; !c</text></g><g class="edge"><path fill="none" stroke="#000" d="M198.047-162.412c-2.656-11.068 1.328-21.484 11.953-21.484 8.3 0 12.548 6.357 12.743 14.416"/><path stroke="#000" d="M221.953-162.412l3.908-6.607-3.52 3.129.39-3.479h0l-.39 3.479-2.74-3.829 2.352 7.307h0z"/><text x="194.5" y="-187.296" font-family="Lato" font-size="12">a &amp; c</text></g><g class="edge"><path fill="none" stroke="#000" d="M230.964-58.71c22.742-8.863 57.017-23.472 66.036-34.186 14.095-16.746 27.426-74.905 34.575-110.782"/><path stroke="#000" d="M333.005-210.973l-4.438 6.264 3.765-2.829-.673 3.435h0l.673-3.435 2.418 4.04-1.745-7.475h0z"/><text x="260" y="-96.296" font-family="Lato" font-size="12">!a &amp; b</text></g><g class="edge"><path fill="none" stroke="#000" d="M232.122-50.896h75.431"/><path stroke="#000" d="M314.706-50.896l-7-3.15 3.5 3.15h-3.5 3.5l-3.5 3.15 7-3.15h0z"/><text x="260" y="-54.296" font-family="Lato" font-size="12">a &amp; !b</text></g><g class="edge"><path fill="none" stroke="#000" d="M198.047-69.412C195.39-80.48 199.375-90.896 210-90.896c8.3 0 12.548 6.357 12.743 14.416"/><path stroke="#000" d="M221.953-69.412l3.908-6.607-3.52 3.129.39-3.479h0l-.39 3.479-2.74-3.829 2.352 7.307h0z"/><text x="194" y="-94.296" font-family="Lato" font-size="12">a &amp; b</text></g></g></svg>