<?xml-stylesheet href="spot.css" type="text/css"?><svg width="216" height="372" viewBox="0 0 162 279" xmlns="http://www.w3.org/2000/svg"><g class="graph" transform="translate(4 275)"><path fill="#fff" stroke="transparent" d="M-4 4v-279h162V4H-4z"/><text x="74.5" y="-257.4" font-family="Lato" font-size="12">t</text><text x="65.5" y="-244.4" font-family="Lato" font-size="12">[all]</text><g class="node"><circle fill="#ffffa0" stroke="#000" cx="56" cy="-103" r="18"/><text text-anchor="middle" x="56" y="-99.9" font-family="Lato" font-size="12">0</text></g><g class="edge"><path fill="none" stroke="#000" d="M1.123-103h29.801"/><path stroke="#000" d="M37.98-103l-7-3.15 3.5 3.15h-3.5 3.5l-3.5 3.15 7-3.15h0z"/></g><g class="node"><circle fill="#ffffa0" stroke="#000" cx="136" cy="-188" r="18"/><text text-anchor="middle" x="136" y="-184.9" font-family="Lato" font-size="12">1</text></g><g class="edge"><path fill="none" stroke="#000" d="M68.5-116.281l50.23-53.37"/><path stroke="#000" d="M123.588-174.812l-7.092 2.939 4.693-.39-2.399 2.548h0l2.399-2.548-.105 4.707 2.504-7.256h0z"/><text x="92" y="-151.4" font-family="Lato" font-size="12">a</text></g><g class="node"><circle fill="#ffffa0" stroke="#000" cx="136" cy="-103" r="18"/><text text-anchor="middle" x="136" y="-99.9" font-family="Lato" font-size="12">2</text></g><g class="edge"><path fill="none" stroke="#000" d="M74.153-103h36.668"/><path stroke="#000" d="M117.919-103l-7-3.15 3.5 3.15h-3.5 3.5l-3.5 3.15 7-3.15h0z"/><text x="92" y="-106.4" font-family="Lato" font-size="12">b</text></g><g class="node"><circle fill="#ffffa0" stroke="#000" cx="136" cy="-18" r="18"/><text text-anchor="middle" x="136" y="-14.9" font-family="Lato" font-size="12">3</text></g><g class="edge"><path fill="none" stroke="#000" d="M68.5-89.719l50.23 53.37"/><path stroke="#000" d="M123.588-31.188l-2.504-7.256.105 4.707-2.399-2.548h0l2.399 2.548-4.693-.39 7.092 2.939h0z"/><text x="92.5" y="-66.4" font-family="Lato" font-size="12">c</text></g><g class="edge"><path fill="none" stroke="#000" d="M128.969-204.664C127.406-214.625 129.75-224 136-224c4.688 0 7.178 5.273 7.47 12.112"/><path stroke="#000" d="M143.031-204.664l3.57-6.796-3.357 3.302.212-3.493h0l-.212 3.493-2.932-3.685 2.72 7.179h0z"/><text x="132" y="-227.4" font-family="Lato" font-size="12">a</text></g><g class="edge"><path fill="none" stroke="#000" d="M128.969-119.664C127.406-129.625 129.75-139 136-139c4.688 0 7.178 5.273 7.47 12.112"/><path stroke="#000" d="M143.031-119.664l3.57-6.796-3.357 3.302.212-3.493h0l-.212 3.493-2.932-3.684 2.72 7.178h0z"/><text x="132" y="-142.4" font-family="Lato" font-size="12">b</text></g><g class="edge"><path fill="none" stroke="#000" d="M128.969-34.664C127.406-44.625 129.75-54 136-54c4.688 0 7.178 5.273 7.47 12.112"/><path stroke="#000" d="M143.031-34.664l3.57-6.796-3.357 3.302.212-3.493h0l-.212 3.493-2.932-3.684 2.72 7.178h0z"/><text x="132.5" y="-57.4" font-family="Lato" font-size="12">c</text></g></g></svg>