<?xml-stylesheet href="spot.css" type="text/css"?><svg width="461pt" height="211pt" viewBox="0 0 461 211.4" xmlns="http://www.w3.org/2000/svg"><g class="graph" transform="translate(4 207.4)"><path fill="#fff" stroke="transparent" d="M-4 4v-211.4h461V4H-4z"/><text x="205" y="-176.8" font-family="Lato" font-size="12">[Büchi]</text><g class="node"><circle fill="#ffffa0" stroke="#000" cx="56" cy="-67" r="18"/><text text-anchor="middle" x="56" y="-63.9" font-family="Lato" font-size="12">0</text></g><g class="edge"><path fill="none" stroke="#000" d="M1.123-67h29.801"/><path stroke="#000" d="M37.98-67l-7-3.15 3.5 3.15h-3.5 3.5l-3.5 3.15 7-3.15h0z"/></g><g class="node"><circle fill="#ffffa0" stroke="#000" cx="257" cy="-84" r="18"/><text text-anchor="middle" x="257" y="-80.9" font-family="Lato" font-size="12">1</text></g><g class="edge"><path fill="none" stroke="#000" d="M73.115-73.024C85.423-77.027 102.514-81.915 118-84c39.518-5.32 85.93-3.772 113.873-2.006"/><path stroke="#000" d="M238.904-85.532l-6.772-3.614 3.28 3.378-3.492-.235h0l3.492.235-3.704 2.908 7.196-2.672h0z"/><text x="133.5" y="-90.4" font-family="Lato" font-size="12">!a</text></g><g class="node"><circle fill="#ffffa0" stroke="#000" cx="140" cy="-22" r="18"/><circle fill="none" stroke="#000" cx="140" cy="-22" r="22"/><text text-anchor="middle" x="140" y="-18.9" font-family="Lato" font-size="12">2</text></g><g class="edge"><path fill="none" stroke="#000" d="M72.196-58.324l41.661 22.319"/><path stroke="#000" d="M120.306-32.55l-4.683-6.083 1.597 4.43-3.085-1.653h0l3.085 1.653-4.572 1.124 7.658.529h0z"/><text x="92" y="-51.4" font-family="Lato" font-size="12">a</text></g><g class="node"><circle fill="#ffffa0" stroke="#000" cx="346" cy="-115" r="18"/><circle fill="none" stroke="#000" cx="346" cy="-115" r="22"/><text text-anchor="middle" x="346" y="-111.9" font-family="Lato" font-size="12">4</text></g><g class="edge"><path fill="none" stroke="#000" d="M274.16-89.977l44.141-15.375"/><path stroke="#000" d="M325.134-107.732l-7.647-.672 4.341 1.823-3.305 1.152h0l3.305-1.152-2.269 4.126 5.575-5.277h0z"/><text x="293" y="-103.4" font-family="Lato" font-size="12">!b</text></g><g class="node"><circle fill="#ffffa0" stroke="#000" cx="346" cy="-22" r="18"/><circle fill="none" stroke="#000" cx="346" cy="-22" r="22"/><text text-anchor="middle" x="346" y="-18.9" font-family="Lato" font-size="12">5</text></g><g class="edge"><path fill="none" stroke="#000" d="M272.098-73.483l49.593 34.549"/><path stroke="#000" d="M327.746-34.716l-3.943-6.586 1.071 4.585-2.872-2h0l2.872 2-4.672.584 7.544 1.417h0z"/><text x="295.5" y="-62.4" font-family="Lato" font-size="12">b</text></g><g class="edge"><path fill="none" stroke="#000" d="M159.583-32.377l74.8-39.638"/><path stroke="#000" d="M240.752-75.39l-7.66.495 4.567 1.144-3.092 1.639h0l3.092-1.639-1.617 4.422 4.71-6.06h0z"/><text x="180" y="-67.4" font-family="Lato" font-size="12">!a &amp; !b</text></g><g class="edge"><path fill="none" stroke="#000" d="M131.994-42.58C130.886-52.846 133.554-62 140-62c4.834 0 7.544 5.15 8.129 12.055"/><path stroke="#000" d="M148.006-42.58l3.267-6.947-3.208 3.447.058-3.5h0l-.058 3.5-3.091-3.552 3.032 7.051h0z"/><text x="121.5" y="-65.4" font-family="Lato" font-size="12">a &amp; !b</text></g><g class="edge"><path fill="none" stroke="#000" d="M162.046-22h154.62"/><path stroke="#000" d="M323.801-22l-7-3.15 3.5 3.15h-3.5 3.5l-3.5 3.15 7-3.15h0z"/><text x="253" y="-25.4" font-family="Lato" font-size="12">b</text></g><g class="edge"><path fill="none" stroke="#000" d="M337.63-135.58C336.472-145.846 339.262-155 346-155c5.054 0 7.887 5.15 8.498 12.055"/><path stroke="#000" d="M354.37-135.58l3.272-6.945-3.21 3.445.06-3.5h0l-.06 3.5-3.09-3.555 3.028 7.054h0z"/><text x="339.5" y="-158.4" font-family="Lato" font-size="12">!b</text></g><g class="node"><circle fill="#ffffa0" stroke="#000" cx="435" cy="-115" r="18"/><text text-anchor="middle" x="435" y="-111.9" font-family="Lato" font-size="12">3</text></g><g class="edge"><path fill="none" stroke="#000" d="M368-115h41.485"/><path stroke="#000" d="M416.845-115l-7-3.15 3.5 3.15h-3.5 3.5l-3.5 3.15 7-3.15h0z"/><text x="388.5" y="-118.4" font-family="Lato" font-size="12">b</text></g><g class="edge"><path fill="none" stroke="#000" d="M337.63-42.58C336.472-52.846 339.262-62 346-62c5.054 0 7.887 5.15 8.498 12.055"/><path stroke="#000" d="M354.37-42.58l3.272-6.945-3.21 3.445.06-3.5h0l-.06 3.5-3.09-3.555 3.028 7.054h0z"/><text text-anchor="middle" x="346" y="-65.4" font-family="Lato" font-size="12">1</text></g><g class="edge"><path fill="none" stroke="#000" d="M419.415-105.8c-6.144 3.127-13.4 6.227-20.415 7.8-8.928 2.002-18.502.197-27.023-2.872"/><path stroke="#000" d="M365.401-103.556l5.29 5.562-2.05-4.24 3.241 1.323h0l-3.24-1.322 4.43-1.594-7.67.271h0z"/><text x="386" y="-101.4" font-family="Lato" font-size="12">!b</text></g><g class="edge"><path fill="none" stroke="#000" d="M427.617-131.664c-1.64-9.961.82-19.336 7.383-19.336 4.922 0 7.537 5.273 7.844 12.112"/><path stroke="#000" d="M442.383-131.664l3.59-6.785-3.367 3.292.223-3.493h0l-.223 3.493-2.92-3.694 2.697 7.187h0z"/><text x="431" y="-154.4" font-family="Lato" font-size="12">b</text></g></g></svg>