<?xml-stylesheet href="spot.css" type="text/css"?><svg width="480" height="332" viewBox="0 0 360 249" xmlns="http://www.w3.org/2000/svg"><g class="graph" transform="translate(4 245)"><path fill="#fff" stroke="transparent" d="M-4 4v-249h360V4H-4z"/><text x="156.5" y="-228.4" font-family="Lato" font-size="12">Inf(</text><text x="177.5" y="-228.4" font-family="Lato" font-size="12" fill="#1f78b4">⓿</text><text x="190.5" y="-228.4" font-family="Lato" font-size="12">)</text><text x="154.5" y="-216.4" font-family="Lato" font-size="12">[Büchi]</text><g class="node"><circle fill="#ffffa0" stroke="#000" cx="56" cy="-67" r="18"/><text text-anchor="middle" x="56" y="-63.9" font-family="Lato" font-size="12">0</text></g><g class="edge"><path fill="none" stroke="#000" d="M1.123-67h29.801"/><path stroke="#000" d="M37.98-67l-7-3.15 3.5 3.15h-3.5 3.5l-3.5 3.15 7-3.15h0z"/></g><g class="node"><circle fill="#ffffa0" stroke="#000" cx="249" cy="-84" r="18"/><text text-anchor="middle" x="249" y="-80.9" font-family="Lato" font-size="12">1</text></g><g class="edge"><path fill="none" stroke="#000" d="M72.426-74.566C84.689-79.78 102.016-86.248 118-89c36.494-6.283 79.515-2.56 106.026.988"/><path stroke="#000" d="M231.046-87.024l-6.493-4.094 3.027 3.606-3.466-.487h0l3.466.487-3.905 2.632 7.371-2.144h0z"/><text x="129.5" y="-95.4" font-family="Lato" font-size="12">!a</text></g><g class="node"><circle fill="#ffffa0" stroke="#000" cx="136" cy="-18" r="18"/><text text-anchor="middle" x="136" y="-14.9" font-family="Lato" font-size="12">3</text></g><g class="edge"><path fill="none" stroke="#000" d="M71.425-57.552l42.866 26.255"/><path stroke="#000" d="M120.623-27.419l-4.324-6.342 1.339 4.514-2.985-1.828h0l2.985 1.828-4.63.858 7.615.97h0z"/><text x="92" y="-46.4" font-family="Lato" font-size="12">a</text></g><g class="node"><circle fill="#ffffa0" stroke="#000" cx="334" cy="-116" r="18"/><text text-anchor="middle" x="334" y="-112.9" font-family="Lato" font-size="12">2</text></g><g class="edge"><path fill="none" stroke="#000" d="M266.201-90.476l44.337-16.691"/><path stroke="#000" d="M317.115-109.643l-7.661-.482 4.385 1.715-3.276 1.233h0l3.276-1.233-2.166 4.181 5.442-5.414h0z"/><text x="285" y="-104.4" font-family="Lato" font-size="12">!b</text></g><g class="node"><circle fill="#ffffa0" stroke="#000" cx="334" cy="-18" r="18"/><text text-anchor="middle" x="334" y="-14.9" font-family="Lato" font-size="12">4</text></g><g class="edge"><path fill="none" stroke="#000" d="M263.42-72.804l50.238 39.01"/><path stroke="#000" d="M319.51-29.25l-3.597-6.782.833 4.634-2.765-2.146h0l2.765 2.146-4.697.342 7.461 1.805h0z"/><text x="287.5" y="-57.4" font-family="Lato" font-size="12">b</text></g><g class="edge"><path fill="none" stroke="#000" d="M151.712-27.177c19.65-11.477 53.392-31.184 75.52-44.11"/><path stroke="#000" d="M233.421-74.9l-7.633.81 4.611.954-3.022 1.765h0l3.022-1.765-1.434 4.486 4.456-6.25h0z"/><text x="172" y="-65.4" font-family="Lato" font-size="12">!a &amp; !b</text></g><g class="edge"><path fill="none" stroke="#000" d="M128.969-34.664C127.406-44.625 129.75-54 136-54c4.688 0 7.178 5.273 7.47 12.112"/><path stroke="#000" d="M143.031-34.664l3.57-6.796-3.357 3.302.212-3.493h0l-.212 3.493-2.932-3.684 2.72 7.178h0z"/><text x="117.5" y="-70.4" font-family="Lato" font-size="12">a &amp; !b</text><text x="129.5" y="-57.4" font-family="Lato" font-size="12" fill="#1f78b4">⓿</text></g><g class="edge"><path fill="none" stroke="#000" d="M154.273-18h154.396"/><path stroke="#000" d="M315.772-18l-7-3.15 3.5 3.15h-3.5 3.5l-3.5 3.15 7-3.15h0z"/><text x="245" y="-21.4" font-family="Lato" font-size="12">b</text></g><g class="edge"><path fill="none" stroke="#000" d="M330.225-133.782c-.642-9.533.617-18.218 3.775-18.218 2.32 0 3.614 4.684 3.884 10.948"/><path stroke="#000" d="M337.775-133.782l3.255-6.952-3.202 3.453.052-3.5h0l-.052 3.5-3.097-3.547 3.044 7.046h0z"/><text x="327.5" y="-168.4" font-family="Lato" font-size="12">!b</text><text x="327.5" y="-155.4" font-family="Lato" font-size="12" fill="#1f78b4">⓿</text></g><g class="edge"><path fill="none" stroke="#000" d="M328.094-133.281C324.156-153.25 326.125-178 334-178c6.952 0 9.301 19.29 7.047 37.549"/><path stroke="#000" d="M339.906-133.281l4.211-6.418-3.66 2.961.55-3.456h0l-.55 3.456-2.561-3.951 2.01 7.408h0z"/><text x="330" y="-181.4" font-family="Lato" font-size="12">b</text></g><g class="edge"><path fill="none" stroke="#000" d="M326.617-34.664C324.977-44.625 327.437-54 334-54c4.922 0 7.537 5.273 7.844 12.112"/><path stroke="#000" d="M341.383-34.664l3.59-6.785-3.367 3.292.223-3.493h0l-.223 3.493-2.92-3.694 2.697 7.187h0z"/><text x="330" y="-70.4" font-family="Lato" font-size="12">1</text><text x="327.5" y="-57.4" font-family="Lato" font-size="12" fill="#1f78b4">⓿</text></g></g></svg>