<?xml-stylesheet href="spot.css" type="text/css"?><svg width="643pt" height="421pt" viewBox="0 0 643 420.72" xmlns="http://www.w3.org/2000/svg"><g class="graph" transform="translate(4 416.722)"><path fill="#fff" stroke="transparent" d="M-4 4v-420.722h643V4H-4z"/><g class="node"><ellipse fill="#ffffa0" stroke="#000" cx="118" cy="-313.722" rx="27" ry="18"/><text text-anchor="middle" x="118" y="-310.622" font-family="Lato" font-size="12">init</text></g><g class="edge"><path fill="none" stroke="#000" d="M54.303-313.722h29.196"/><path stroke="#000" d="M90.716-313.722l-7-3.15 3.5 3.15h-3.5 3.5l-3.5 3.15 7-3.15h0z"/></g><g class="node"><ellipse fill="#ffffa0" stroke="#000" cx="240" cy="-163.722" rx="27" ry="18"/><text text-anchor="middle" x="240" y="-160.622" font-family="Lato" font-size="12">1</text></g><g class="edge"><path fill="none" stroke="#000" d="M128.22-296.971c8.702 13.868 21.82 33.88 34.78 50.249 17.868 22.568 40.49 46.477 56.581 62.807"/><path stroke="#000" d="M224.771-178.68l-2.691-7.189.227 4.704-2.464-2.486h0l2.464 2.486-4.701-.268 7.165 2.753h0z"/><text text-anchor="middle" x="179" y="-263.122" font-family="Lato" font-size="12">a &amp; b</text><text text-anchor="middle" x="179" y="-250.122" font-family="Lato" font-size="12">{}</text></g><g class="node"><ellipse fill="#ffffa0" stroke="#000" cx="371" cy="-245.722" rx="27" ry="18"/><text text-anchor="middle" x="371" y="-242.622" font-family="Lato" font-size="12">3</text></g><g class="edge"><path fill="none" stroke="#000" d="M144.6-310.536c40.209 5.356 118.451 17.892 181.4 40.814 6.232 2.269 12.67 5.265 18.66 8.368"/><path stroke="#000" d="M350.952-257.974l-4.676-6.087 1.592 4.431-3.083-1.656h0l3.083 1.656-4.574 1.119 7.658.538h0z"/><text text-anchor="middle" x="240" y="-315.122" font-family="Lato" font-size="12">!a &amp; b</text><text text-anchor="middle" x="240" y="-302.122" font-family="Lato" font-size="12">{}</text></g><g class="node"><ellipse fill="#ffffa0" stroke="#000" cx="608" cy="-212.722" rx="27" ry="18"/><text text-anchor="middle" x="608" y="-209.622" font-family="Lato" font-size="12">4</text></g><g class="edge"><path fill="none" stroke="#000" d="M132.126-329.204c21.18-21.428 63.445-57.518 107.874-57.518h255c70.235 0 99.034 100.947 108.772 149.062"/><path stroke="#000" d="M605.124-230.688l1.76-7.472-2.426 4.036-.666-3.436h0l.666 3.436-3.759-2.836 4.425 6.272h0z"/><text text-anchor="middle" x="371" y="-403.122" font-family="Lato" font-size="12">a &amp; !b</text><text text-anchor="middle" x="371" y="-390.122" font-family="Lato" font-size="12">{}</text></g><g class="node"><ellipse fill="#ffffa0" stroke="#000" cx="495" cy="-163.722" rx="27" ry="18"/><text text-anchor="middle" x="495" y="-160.622" font-family="Lato" font-size="12">2</text></g><g class="edge"><path fill="none" stroke="#000" d="M142.85-321.083c50.959-13.63 169.688-37.773 255.15 4.36 51.305 25.295 78.67 91.873 90.216 128.309"/><path stroke="#000" d="M490.317-181.55l.964-7.616-1.988 4.269-1.024-3.347h0l1.024 3.347-4.037-2.425 5.061 5.772h0z"/><text text-anchor="middle" x="305.5" y="-356.122" font-family="Lato" font-size="12">!a &amp; !b</text><text text-anchor="middle" x="305.5" y="-343.122" font-family="Lato" font-size="12">{}</text></g><g class="edge"><path fill="none" stroke="#000" d="M229.453-180.386c-2.344-9.961 1.172-19.336 10.547-19.336 7.031 0 10.767 5.273 11.206 12.112"/><path stroke="#000" d="M250.547-180.386l3.773-6.685-3.455 3.2.318-3.486h0l-.318 3.485-2.819-3.772 2.5 7.258h0z"/><text text-anchor="middle" x="240" y="-216.122" font-family="Lato" font-size="12">{}</text><text text-anchor="middle" x="240" y="-203.122" font-family="Lato" font-size="12">{0,1}</text></g><g class="edge"><path fill="none" stroke="#000" d="M265.138-170.436c17.953-5.537 42.141-14.559 60.862-27.286 10.483-7.127 20.333-17.094 28.13-26.1"/><path stroke="#000" d="M358.705-229.272l-6.913 3.335 4.663-.655-2.251 2.68h0l2.25-2.68.162 4.707 2.09-7.387h0z"/><text text-anchor="middle" x="305.5" y="-214.122" font-family="Lato" font-size="12">{a}</text><text text-anchor="middle" x="305.5" y="-201.122" font-family="Lato" font-size="12">{0,1}</text></g><g class="edge"><path fill="none" stroke="#000" d="M241.524-145.505c3.23 26.728 13.182 76.36 43.476 103.783 55.51 50.247 90.924 44.903 165 34 51.887-7.637 76.568 3.727 113-34 20.066-20.78 34.95-103.425 41.425-145.743"/><path stroke="#000" d="M605.5-194.63l-4.154 6.456 3.635-2.994-.52 3.46h0l.52-3.46 2.596 3.928-2.077-7.39h0z"/><text text-anchor="middle" x="433" y="-24.122" font-family="Lato" font-size="12">{b}</text><text text-anchor="middle" x="433" y="-11.122" font-family="Lato" font-size="12">{0,1}</text></g><g class="edge"><path fill="none" stroke="#000" d="M259.796-151.414c20.272 11.822 53.127 28.866 84.204 35.692 23.441 5.148 30.44 4.577 54 0 26.182-5.088 53.153-19.292 71.988-30.938"/><path stroke="#000" d="M476.05-150.495l-7.6 1.08 4.643.791-2.958 1.871h0l2.958-1.87-1.275 4.532 4.233-6.404h0z"/><text text-anchor="middle" x="371" y="-132.122" font-family="Lato" font-size="12">{a, b}</text><text text-anchor="middle" x="371" y="-119.122" font-family="Lato" font-size="12">{0,1}</text></g><g class="edge"><path fill="none" stroke="#000" d="M343.91-243.482c-17.957 2.557-41.353 8.033-58.91 19.76-13.646 9.114-24.763 23.797-32.533 36.356"/><path stroke="#000" d="M248.713-181.033l6.28-4.416-4.495 1.405 1.785-3.011h0l-1.785 3.01-.925-4.616-.86 7.628h0z"/><text text-anchor="middle" x="305.5" y="-256.122" font-family="Lato" font-size="12">{a}</text><text text-anchor="middle" x="305.5" y="-243.122" font-family="Lato" font-size="12">{1}</text></g><g class="edge"><path fill="none" stroke="#000" d="M360.102-262.386c-2.422-9.961 1.21-19.336 10.898-19.336 7.266 0 11.125 5.273 11.58 12.112"/><path stroke="#000" d="M381.898-262.386l3.794-6.674-3.465 3.19.329-3.485h0l-.329 3.484-2.807-3.78 2.478 7.265h0z"/><text text-anchor="middle" x="371" y="-298.122" font-family="Lato" font-size="12">{}</text><text text-anchor="middle" x="371" y="-285.122" font-family="Lato" font-size="12">{}</text></g><g class="edge"><path fill="none" stroke="#000" d="M395.016-254.01c6.709-1.943 14.06-3.732 20.984-4.712 14.962-2.118 19.016-1.956 34 0 45.695 5.962 96.534 22.673 127.893 34.22"/><path stroke="#000" d="M584.663-221.977l-5.458-5.397 2.178 4.174-3.28-1.223h0l3.28 1.223-4.38 1.729 7.66-.506h0z"/><text text-anchor="middle" x="495" y="-271.122" font-family="Lato" font-size="12">{a, b}</text><text text-anchor="middle" x="495" y="-258.122" font-family="Lato" font-size="12">{1}</text></g><g class="edge"><path fill="none" stroke="#000" d="M395.437-237.72c16.3 5.996 37.743 15.19 54.563 26.998 9.916 6.961 19.422 16.339 27.12 24.887"/><path stroke="#000" d="M482.144-180.09l-2.236-7.344-.067 4.709-2.305-2.635h0l2.305 2.635-4.676-.561 6.98 3.196h0z"/><text text-anchor="middle" x="433" y="-245.122" font-family="Lato" font-size="12">{b}</text><text text-anchor="middle" x="433" y="-232.122" font-family="Lato" font-size="12">{1}</text></g><g class="edge"><path fill="none" stroke="#000" d="M597.667-196.026c-8.284 12.447-20.787 29.297-34.667 41.304-43.653 37.76-57.188 49.292-113 64-71.788 18.917-99.904 9.691-165-26-11.156-6.117-21.206-15.949-28.963-25.042"/><path stroke="#000" d="M251.513-147.292l1.996 7.413.22-4.704 2.218 2.709h0l-2.217-2.709 4.654.714-6.87-3.423h0z"/><text text-anchor="middle" x="433" y="-107.122" font-family="Lato" font-size="12">{b}</text><text text-anchor="middle" x="433" y="-94.122" font-family="Lato" font-size="12">{0}</text></g><g class="edge"><path fill="none" stroke="#000" d="M595.126-228.752c-15.277-17.609-42.562-44.865-73.126-55.97-44.562-16.191-62.034-5.745-106 12-6.717 2.71-13.601 6.342-19.902 10.06"/><path stroke="#000" d="M390.02-258.946l7.615-.964-4.63-.861 2.987-1.826h0l-2.986 1.825 1.343-4.513-4.33 6.34h0z"/><text text-anchor="middle" x="495" y="-309.122" font-family="Lato" font-size="12">{a, b}</text><text text-anchor="middle" x="495" y="-296.122" font-family="Lato" font-size="12">{0}</text></g><g class="edge"><path fill="none" stroke="#000" d="M598.077-229.76c-2.025-9.82 1.282-18.962 9.923-18.962 6.48 0 9.961 5.142 10.442 11.856"/><path stroke="#000" d="M617.923-229.76l3.652-6.752-3.397 3.262.255-3.491h0l-.255 3.49-2.886-3.72 2.631 7.211h0z"/><text text-anchor="middle" x="608" y="-265.122" font-family="Lato" font-size="12">{}</text><text text-anchor="middle" x="608" y="-252.122" font-family="Lato" font-size="12">{}</text></g><g class="edge"><path fill="none" stroke="#000" d="M597.664-196.07c-7.95 11.133-20.037 24.883-34.664 31.348-10.542 4.66-22.931 5.91-34.227 5.675"/><path stroke="#000" d="M521.539-159.395l6.84 3.483-3.344-3.314 3.496.168h0l-3.496-.168 3.647-2.978-7.143 2.81h0z"/><text text-anchor="middle" x="551.5" y="-181.122" font-family="Lato" font-size="12">{a}</text><text text-anchor="middle" x="551.5" y="-168.122" font-family="Lato" font-size="12">{0}</text></g><g class="edge"><path fill="none" stroke="#000" d="M467.907-163.722H274.533"/><path stroke="#000" d="M267.29-163.722l7 3.15-3.5-3.15h3.5-3.5l3.5-3.15-7 3.15h0z"/><text text-anchor="middle" x="371" y="-180.122" font-family="Lato" font-size="12">{a, b}</text><text text-anchor="middle" x="371" y="-167.122" font-family="Lato" font-size="12">{}</text></g><g class="edge"><path fill="none" stroke="#000" d="M467.822-164.625c-16.208-1.681-36.536-5.894-51.822-16.097-15.146-10.11-26.68-27.201-34.277-41.32"/><path stroke="#000" d="M378.51-228.285l.402 7.666 1.2-4.554 1.601 3.112h0l-1.601-3.112 4.402 1.67-6.004-4.782h0z"/><text text-anchor="middle" x="433" y="-197.122" font-family="Lato" font-size="12">{b}</text><text text-anchor="middle" x="433" y="-184.122" font-family="Lato" font-size="12">{}</text></g><g class="edge"><path fill="none" stroke="#000" d="M514.188-176.552c7.794-4.858 17.02-10.174 25.812-14.17 11.319-5.146 24.195-9.633 35.675-13.19"/><path stroke="#000" d="M582.616-206.004l-7.61-.996 4.26 2.006-3.352 1.01h0l3.351-1.01-2.442 4.026 5.793-5.036h0z"/><text text-anchor="middle" x="551.5" y="-215.122" font-family="Lato" font-size="12">{a}</text><text text-anchor="middle" x="551.5" y="-202.122" font-family="Lato" font-size="12">{}</text></g><g class="edge"><path fill="none" stroke="#000" d="M485.077-180.76c-2.025-9.82 1.282-18.962 9.923-18.962 6.48 0 9.961 5.142 10.442 11.856"/><path stroke="#000" d="M504.923-180.76l3.652-6.752-3.397 3.262.255-3.491h0l-.255 3.49-2.887-3.72 2.632 7.211h0z"/><text text-anchor="middle" x="495" y="-216.122" font-family="Lato" font-size="12">{}</text><text text-anchor="middle" x="495" y="-203.122" font-family="Lato" font-size="12">{}</text></g></g></svg>