<?xml-stylesheet href="spot.css" type="text/css"?><svg width="250pt" height="118pt" viewBox="0 0 250 118.4" xmlns="http://www.w3.org/2000/svg"><g class="graph" transform="translate(4 114.4)"><path fill="#fff" stroke="transparent" d="M-4 4v-118.4h250V4H-4z"/><text x="99.5" y="-83.8" font-family="Lato" font-size="12">[Büchi]</text><g class="node"><circle fill="#ffffa0" stroke="#ff4da0" stroke-width="2" cx="56" cy="-22" r="18"/><text text-anchor="middle" x="56" y="-18.9" font-family="Lato" font-size="12">0</text></g><g class="edge"><path fill="none" stroke="#000" d="M1.123-22h29.801"/><path stroke="#000" d="M37.98-22l-7-3.15 3.5 3.15h-3.5 3.5l-3.5 3.15 7-3.15h0z"/></g><g class="edge"><path fill="none" stroke="#ff4da0" stroke-width="2" d="M49.62-39.037C48.32-48.857 50.446-58 56-58c4.166 0 6.404 5.142 6.713 11.857"/><path fill="#ff4da0" stroke="#ff4da0" stroke-width="2" d="M62.38-39.037l3.474-6.845-2.811 3.372.164-3.496-.5-.024-.499-.023-.164 3.496-2.483-3.62 2.818 7.14h0z"/><text x="52" y="-61.4" font-family="Lato" font-size="12">a</text></g><g class="node"><circle fill="#ffffa0" stroke="#000" cx="136" cy="-22" r="18"/><text text-anchor="middle" x="136" y="-18.9" font-family="Lato" font-size="12">1</text></g><g class="edge"><path fill="none" stroke="#ff4da0" stroke-width="2" d="M74.153-22h36.668"/><path fill="#ff4da0" stroke="#ff4da0" stroke-width="2" d="M117.919-22l-7-3.15 3.5 2.65h-3.5v1h3.5l-3.5 2.65 7-3.15h0z"/><text text-anchor="middle" x="96" y="-25.4" font-family="Lato" font-size="12">1</text></g><g class="node"><circle fill="#ffffa0" stroke="#000" cx="220" cy="-22" r="18"/><circle fill="none" stroke="#000" cx="220" cy="-22" r="22"/><text text-anchor="middle" x="220" y="-18.9" font-family="Lato" font-size="12">2</text></g><g class="edge"><path fill="none" stroke="#000" d="M154.227-22h36.4"/><path stroke="#000" d="M197.928-22l-7-3.15 3.5 3.15h-3.5 3.5l-3.5 3.15 7-3.15h0z"/><text x="172" y="-25.4" font-family="Lato" font-size="12">b</text></g><g class="edge"><path fill="none" stroke="#000" d="M211.994-42.58C210.886-52.846 213.554-62 220-62c4.834 0 7.544 5.15 8.129 12.055"/><path stroke="#000" d="M228.006-42.58l3.267-6.947-3.208 3.447.058-3.5h0l-.058 3.5-3.091-3.552 3.032 7.051h0z"/><text text-anchor="middle" x="220" y="-65.4" font-family="Lato" font-size="12">1</text></g></g></svg>