<?xml-stylesheet href="spot.css" type="text/css"?><svg width="224" height="332" viewBox="0 0 167.5 249" xmlns="http://www.w3.org/2000/svg"><g class="graph" transform="translate(4 245)"><path fill="#fff" stroke="transparent" d="M-4 4v-249h167.5V4H-4z"/><text x="60.25" y="-228.4" font-family="Lato" font-size="12">Inf(</text><text x="81.25" y="-228.4" font-family="Lato" font-size="12" fill="#1f78b4">⓿</text><text x="94.25" y="-228.4" font-family="Lato" font-size="12">)</text><text x="58.25" y="-216.4" font-family="Lato" font-size="12">[Büchi]</text><g class="node"><circle fill="#ffffa0" stroke="#000" cx="56" cy="-82" r="18"/><text text-anchor="middle" x="56" y="-78.9" font-family="Lato" font-size="12">0</text></g><g class="edge"><path fill="none" stroke="#000" d="M1.123-82h29.801"/><path stroke="#000" d="M37.98-82l-7-3.15 3.5 3.15h-3.5 3.5l-3.5 3.15 7-3.15h0z"/></g><g class="edge"><path fill="none" stroke="#000" d="M49.62-99.037C48.32-108.857 50.446-118 56-118c4.166 0 6.404 5.142 6.713 11.857"/><path stroke="#000" d="M62.38-99.037l3.474-6.845-3.31 3.349.164-3.497h0l-.165 3.496-2.982-3.643 2.818 7.14h0z"/><text x="52" y="-121.4" font-family="Lato" font-size="12">1</text></g><g class="node"><circle fill="#ffffa0" stroke="#000" cx="141" cy="-147" r="18"/><text x="137" y="-143.9" font-family="Lato" font-size="12">1</text></g><g class="edge"><path fill="none" stroke="#000" d="M70.42-93.026l50.238-38.418"/><path stroke="#000" d="M126.51-135.92l-7.474 1.75 4.694.376-2.78 2.127h0l2.78-2.126-.867 4.628 3.647-6.755h0z"/><text x="92" y="-121.4" font-family="Lato" font-size="12">!a</text></g><g class="node"><circle fill="#ffffa0" stroke="#000" cx="141" cy="-18" r="18"/><text text-anchor="middle" x="141" y="-14.9" font-family="Lato" font-size="12">2</text></g><g class="edge"><path fill="none" stroke="#000" d="M70.42-71.143l50.238 37.827"/><path stroke="#000" d="M126.51-28.91l-3.697-6.727.901 4.622-2.796-2.105h0l2.796 2.105-4.69.41 7.486 1.695h0z"/><text x="94.5" y="-56.4" font-family="Lato" font-size="12">a</text></g><g class="edge"><path fill="none" stroke="#000" d="M133.617-163.664c-1.64-9.961.82-19.336 7.383-19.336 4.922 0 7.537 5.273 7.844 12.112"/><path stroke="#000" d="M148.383-163.664l3.59-6.785-3.367 3.292.223-3.493h0l-.223 3.493-2.92-3.694 2.697 7.187h0z"/><text x="134.5" y="-199.4" font-family="Lato" font-size="12">!a</text><text x="134.5" y="-186.4" font-family="Lato" font-size="12" fill="#1f78b4">⓿</text></g><g class="edge"><path fill="none" stroke="#000" d="M137.225-35.782C136.583-45.315 137.842-54 141-54c2.32 0 3.614 4.684 3.884 10.948"/><path stroke="#000" d="M144.775-35.782l3.255-6.952-3.202 3.453.052-3.5h0l-.052 3.5-3.097-3.547 3.044 7.046h0z"/><text x="122.5" y="-57.4" font-family="Lato" font-size="12">!a &amp; b</text></g><g class="edge"><path fill="none" stroke="#000" d="M134.855-35.142C131.241-52.585 133.29-72 141-72c6.687 0 9.115 14.6 7.285 29.854"/><path stroke="#000" d="M147.145-35.142l4.234-6.402-3.672 2.948.563-3.455h0l-.563 3.455-2.546-3.961 1.984 7.415h0z"/><text x="137" y="-88.4" font-family="Lato" font-size="12">a</text><text x="134.5" y="-75.4" font-family="Lato" font-size="12" fill="#1f78b4">⓿</text></g></g></svg>