<?xml-stylesheet href="spot.css" type="text/css"?><svg width="588" height="118pt" viewBox="0 0 441 118.4" xmlns="http://www.w3.org/2000/svg"><g class="graph" transform="translate(4 114.4)"><path fill="#fff" stroke="transparent" d="M-4 4v-118.4h441V4H-4z"/><text x="195" y="-83.8" font-family="Lato" font-size="12">[Büchi]</text><g class="node"><circle fill="#ffffa0" stroke="#000" cx="60" cy="-22" r="18"/><circle fill="none" stroke="#000" cx="60" cy="-22" r="22"/><text text-anchor="middle" x="60" y="-18.9" font-family="Lato" font-size="12">2</text></g><g class="edge"><path fill="none" stroke="#000" d="M1.168-22h29.47"/><path stroke="#000" d="M37.865-22l-7-3.15 3.5 3.15h-3.5 3.5l-3.5 3.15 7-3.15h0z"/></g><g class="edge"><path fill="none" stroke="#000" d="M52.683-42.99C51.78-53.088 54.22-62 60-62c4.336 0 6.792 5.013 7.368 11.78"/><path stroke="#000" d="M67.317-42.99l3.2-6.978-3.175 3.477.024-3.5h0l-.025 3.5-3.125-3.522 3.1 7.022h0z"/><text x="41.5" y="-65.4" font-family="Lato" font-size="12">!a &amp; b</text></g><g class="node"><circle fill="#ffffa0" stroke="#000" cx="177" cy="-22" r="18"/><circle fill="none" stroke="#000" cx="177" cy="-22" r="22"/><text text-anchor="middle" x="177" y="-18.9" font-family="Lato" font-size="12">1</text></g><g class="edge"><path fill="none" stroke="#000" d="M82.007-22h65.498"/><path stroke="#000" d="M154.694-22l-7-3.15 3.5 3.15h-3.5 3.5l-3.5 3.15 7-3.15h0z"/><text x="102.5" y="-25.4" font-family="Lato" font-size="12">a &amp; b</text></g><g class="node"><circle fill="#ffffa0" stroke="#000" cx="411" cy="-22" r="18"/><circle fill="none" stroke="#000" cx="411" cy="-22" r="22"/><text text-anchor="middle" x="411" y="-18.9" font-family="Lato" font-size="12">0</text></g><g class="edge"><path fill="none" stroke="#000" d="M400.574-41.758C398.802-52.35 402.277-62 411-62c6.678 0 10.28 5.657 10.807 13.062"/><path stroke="#000" d="M421.426-41.758l3.517-6.823-3.331 3.328.185-3.495h0l-.185 3.495-2.96-3.662 2.774 7.157h0z"/><text x="407" y="-65.4" font-family="Lato" font-size="12">b</text></g><g class="edge"><path fill="none" stroke="#000" d="M157.16-11.714C150.88-8.971 143.802-6.385 137-5c-16.114 3.282-20.886 3.282-37 0-4.464-.91-9.047-2.335-13.445-3.983"/><path stroke="#000" d="M79.84-11.714l5.297 5.555-2.055-4.237 3.242 1.319h0l-3.242-1.319 4.43-1.6-7.672.282h0z"/><text x="100" y="-8.4" font-family="Lato" font-size="12">!a &amp; b</text></g><g class="edge"><path fill="none" stroke="#000" d="M166.574-41.758C164.802-52.35 168.277-62 177-62c6.678 0 10.28 5.657 10.807 13.062"/><path stroke="#000" d="M187.426-41.758l3.517-6.823-3.331 3.328.185-3.495h0l-.185 3.495-2.96-3.662 2.774 7.157h0z"/><text x="161" y="-65.4" font-family="Lato" font-size="12">a &amp; b</text></g><g class="node"><circle fill="#ffffa0" stroke="#000" cx="294" cy="-22" r="18"/><circle fill="none" stroke="#000" cx="294" cy="-22" r="22"/><text text-anchor="middle" x="294" y="-18.9" font-family="Lato" font-size="12">3</text></g><g class="edge"><path fill="none" stroke="#000" d="M199.007-22h65.498"/><path stroke="#000" d="M271.694-22l-7-3.15 3.5 3.15h-3.5 3.5l-3.5 3.15 7-3.15h0z"/><text x="217" y="-25.4" font-family="Lato" font-size="12">a &amp; !b</text></g><g class="edge"><path fill="none" stroke="#000" d="M316.007-22h65.498"/><path stroke="#000" d="M388.694-22l-7-3.15 3.5 3.15h-3.5 3.5l-3.5 3.15 7-3.15h0z"/><text x="334" y="-25.4" font-family="Lato" font-size="12">!a &amp; b</text></g><g class="edge"><path fill="none" stroke="#000" d="M283.574-41.758C281.802-52.35 285.277-62 294-62c6.678 0 10.28 5.657 10.807 13.062"/><path stroke="#000" d="M304.426-41.758l3.517-6.823-3.331 3.328.185-3.495h0l-.185 3.495-2.96-3.662 2.774 7.157h0z"/><text x="290" y="-65.4" font-family="Lato" font-size="12">a</text></g></g></svg>