<?xml-stylesheet href="spot.css" type="text/css"?><svg width="287pt" height="157pt" viewBox="0 0 287 157.4" xmlns="http://www.w3.org/2000/svg"><g class="graph" transform="translate(4 153.4)"><path fill="#fff" stroke="transparent" d="M-4 4v-157.4h287V4H-4z"/><text x="118" y="-122.8" font-family="Lato" font-size="12">[Büchi]</text><g class="node"><circle fill="#ffffa0" stroke="#ff4da0" stroke-width="2" cx="60" cy="-61" r="18"/><circle fill="none" stroke="#ff4da0" stroke-width="2" cx="60" cy="-61" r="22"/><text text-anchor="middle" x="60" y="-57.9" font-family="Lato" font-size="12">0</text></g><g class="edge"><path fill="none" stroke="#000" d="M1.168-61h29.47"/><path stroke="#000" d="M37.865-61l-7-3.15 3.5 3.15h-3.5 3.5l-3.5 3.15 7-3.15h0z"/></g><g class="edge"><path fill="none" stroke="#ff4da0" stroke-width="2" d="M52.683-81.99C51.78-92.088 54.22-101 60-101c4.336 0 6.792 5.013 7.368 11.78"/><path fill="#ff4da0" stroke="#ff4da0" stroke-width="2" d="M67.317-81.99l3.2-6.978-2.675 3.48.024-3.5-.5-.003-.5-.003-.024 3.5-2.626-3.519 3.1 7.022h0z"/><text x="41.5" y="-104.4" font-family="Lato" font-size="12">!a &amp; b</text></g><g class="node"><circle fill="#ffffa0" stroke="#000" cx="257" cy="-61" r="18"/><circle fill="none" stroke="#000" cx="257" cy="-61" r="22"/><text text-anchor="middle" x="257" y="-57.9" font-family="Lato" font-size="12">1</text></g><g class="edge"><path fill="none" stroke="#000" d="M81.326-66.41c25.922-5.89 71-13.93 109.674-9.59 12.571 1.41 26.241 4.287 37.863 7.148"/><path stroke="#000" d="M235.806-67.086l-6.008-4.779 2.616 3.916-3.392-.863h0l3.392.863-4.169 2.19 7.56-1.327h0z"/><text x="157" y="-80.4" font-family="Lato" font-size="12">a &amp; b</text></g><g class="node"><circle fill="#ffffa0" stroke="#000" cx="173" cy="-18" r="18"/><text text-anchor="middle" x="173" y="-14.9" font-family="Lato" font-size="12">2</text></g><g class="edge"><path fill="none" stroke="#ff4da0" stroke-width="2" d="M80.726-53.113l68.58 26.096"/><path fill="#ff4da0" stroke="#ff4da0" stroke-width="2" d="M156.09-24.435l-5.422-5.433 2.33 3.721-3.272-1.245-.178.468-.178.467 3.271 1.245-4.213 1.232 7.662-.455h0z"/><text x="100" y="-47.4" font-family="Lato" font-size="12">!a &amp; b</text></g><g class="edge"><path fill="none" stroke="#000" d="M248.994-81.58C247.886-91.846 250.554-101 257-101c4.834 0 7.544 5.15 8.129 12.055"/><path stroke="#000" d="M265.006-81.58l3.267-6.947-3.208 3.447.058-3.5h0l-.058 3.5-3.091-3.552 3.032 7.051h0z"/><text text-anchor="middle" x="257" y="-104.4" font-family="Lato" font-size="12">1</text></g><g class="edge"><path fill="none" stroke="#000" d="M189.196-26.29l41.661-21.327"/><path stroke="#000" d="M237.306-50.918l-7.667.385 4.551 1.21-3.115 1.594h0l3.115-1.595-1.68 4.4 4.796-5.994h0z"/><text x="209" y="-42.4" font-family="Lato" font-size="12">a</text></g><g class="edge"><path fill="none" stroke="#000" d="M165.969-34.664C164.406-44.625 166.75-54 173-54c4.688 0 7.178 5.273 7.47 12.112"/><path stroke="#000" d="M180.031-34.664l3.57-6.796-3.357 3.302.212-3.493h0l-.212 3.493-2.932-3.684 2.72 7.178h0z"/><text x="166.5" y="-57.4" font-family="Lato" font-size="12">!a</text></g></g></svg>