<?xml-stylesheet href="spot.css" type="text/css"?><svg width="371pt" height="167pt" viewBox="0 0 371 167.4" xmlns="http://www.w3.org/2000/svg"><g class="graph"><path fill="#fff" stroke="transparent" d="M0 167.4V0h371v167.4H0z"/><text x="160" y="-132.8" font-family="Lato" font-size="12" transform="translate(4 163.4)">[Büchi]</text><g class="node" transform="translate(4 163.4)"><circle fill="#ffffa0" stroke="#000" cx="56" cy="-34" r="18"/><text text-anchor="middle" x="56" y="-30.9" font-family="Lato" font-size="12">2</text></g><g class="edge" transform="translate(4 163.4)"><path fill="none" stroke="#000" d="M1.123-34h29.801"/><path stroke="#000" d="M37.98-34l-7-3.15 3.5 3.15h-3.5 3.5l-3.5 3.15 7-3.15h0z"/></g><g class="node" transform="translate(4 163.4)"><circle fill="#ffffa0" stroke="#000" cx="140" cy="-71" r="18"/><circle fill="none" stroke="#000" cx="140" cy="-71" r="22"/><text x="136" y="-67.9" font-family="Lato" font-size="12">1</text></g><g class="edge" transform="translate(4 163.4)"><path fill="none" stroke="#000" d="M72.596-41.31l40.285-17.745"/><path stroke="#000" d="M119.577-62.004l-7.676-.061 4.473 1.472-3.203 1.41h0l3.203-1.41-1.933 4.293 5.136-5.704h0z"/><text x="92" y="-55.4" font-family="Lato" font-size="12">a</text></g><g class="node" transform="translate(4 163.4)"><circle fill="#ffffa0" stroke="#000" cx="257" cy="-18" r="18"/><text text-anchor="middle" x="257" y="-14.9" font-family="Lato" font-size="12">3</text></g><g class="edge" transform="translate(4 163.4)"><path fill="none" stroke="#000" d="M73.884-31.752C86.257-30.252 103.11-28.322 118-27c39.801 3.533 86.13 6.255 113.98 7.74"/><path stroke="#000" d="M238.986-18.891l-6.825-3.513 3.33 3.33-3.496-.185h0l3.495.184-3.66 2.962 7.156-2.778h0z"/><text x="133.5" y="-30.4" font-family="Lato" font-size="12">!a</text></g><g class="node" transform="translate(4 163.4)"><circle fill="#ffffa0" stroke="#000" cx="341" cy="-61" r="18"/><circle fill="none" stroke="#000" cx="341" cy="-61" r="22"/><text text-anchor="middle" x="341" y="-57.9" font-family="Lato" font-size="12">0</text></g><g class="edge" transform="translate(4 163.4)"><path fill="none" stroke="#000" d="M332.994-81.58C331.886-91.846 334.554-101 341-101c4.834 0 7.544 5.15 8.129 12.055"/><path stroke="#000" d="M349.006-81.58l3.267-6.947-3.208 3.447.058-3.5h0l-.058 3.5-3.091-3.552 3.032 7.051h0z"/><text x="337" y="-104.4" font-family="Lato" font-size="12">1</text></g><g class="edge" transform="translate(4 163.4)"><path fill="none" stroke="#000" d="M162.055-73.819C188.846-76.782 235.378-80.446 275-76c12.571 1.41 26.241 4.287 37.863 7.148"/><path stroke="#000" d="M319.806-67.086l-6.008-4.779 2.616 3.916-3.392-.863h0l3.392.863-4.169 2.19 7.56-1.327h0z"/><text x="253" y="-81.4" font-family="Lato" font-size="12">b</text></g><g class="edge" transform="translate(4 163.4)"><path fill="none" stroke="#000" d="M131.994-91.58C130.886-101.846 133.554-111 140-111c4.834 0 7.544 5.15 8.129 12.055"/><path stroke="#000" d="M148.006-91.58l3.267-6.947-3.208 3.447.058-3.5h0l-.058 3.5-3.091-3.552 3.032 7.051h0z"/><text x="121.5" y="-114.4" font-family="Lato" font-size="12">a &amp; !b</text></g><g class="edge" transform="translate(4 163.4)"><path fill="none" stroke="#000" d="M160.113-61.889l73.833 33.446"/><path stroke="#000" d="M240.545-25.454l-5.077-5.758 1.889 4.314-3.189-1.445h0l3.189 1.445-4.488 1.425 7.676.019h0z"/><text x="180" y="-55.4" font-family="Lato" font-size="12">!a &amp; !b</text></g><g class="edge" transform="translate(4 163.4)"><path fill="none" stroke="#000" d="M273.196-26.29l41.661-21.327"/><path stroke="#000" d="M321.306-50.918l-7.667.385 4.551 1.21-3.115 1.594h0l3.115-1.595-1.68 4.4 4.796-5.994h0z"/><text x="293" y="-42.4" font-family="Lato" font-size="12">b</text></g><g class="edge" transform="translate(4 163.4)"><path fill="none" stroke="#000" d="M249.969-34.664C248.406-44.625 250.75-54 257-54c4.688 0 7.178 5.273 7.47 12.112"/><path stroke="#000" d="M264.031-34.664l3.57-6.796-3.357 3.302.212-3.493h0l-.212 3.493-2.932-3.684 2.72 7.178h0z"/><text x="250.5" y="-57.4" font-family="Lato" font-size="12">!b</text></g></g></svg>