<?xml-stylesheet href="spot.css" type="text/css"?><svg width="412" height="244" viewBox="0 0 309 183.32" xmlns="http://www.w3.org/2000/svg"><g class="graph" transform="translate(4 179.324)"><path fill="#fff" stroke="transparent" d="M-4 4v-183.324h309V4H-4z"/><text x="131" y="-162.724" font-family="Lato" font-size="12">Inf(</text><text x="152" y="-162.724" font-family="Lato" font-size="12" fill="#1f78b4">⓿</text><text x="165" y="-162.724" font-family="Lato" font-size="12">)</text><text x="129" y="-150.724" font-family="Lato" font-size="12">[Büchi]</text><g class="node"><circle fill="#ffffa0" stroke="#000" cx="56" cy="-65.324" r="18"/><text text-anchor="middle" x="56" y="-62.224" font-family="Lato" font-size="12">0</text></g><g class="edge"><path fill="none" stroke="#000" d="M1.123-65.324h29.801"/><path stroke="#000" d="M37.98-65.324l-7-3.15 3.5 3.15h-3.5 3.5l-3.5 3.15 7-3.15h0z"/></g><g class="edge"><path fill="none" stroke="#000" d="M49.62-82.361c-1.301-9.82.825-18.963 6.38-18.963 4.166 0 6.404 5.143 6.713 11.857"/><path stroke="#000" d="M62.38-82.361l3.474-6.845-3.31 3.349.164-3.496h0l-.165 3.496-2.982-3.644 2.818 7.14h0z"/><text x="52" y="-117.724" font-family="Lato" font-size="12">a</text><text x="49.5" y="-104.724" font-family="Lato" font-size="12" fill="#1f78b4">⓿</text></g><g class="node"><circle fill="#ffffa0" stroke="#000" cx="283" cy="-56.324" r="18"/><text text-anchor="middle" x="283" y="-53.224" font-family="Lato" font-size="12">1</text></g><g class="edge"><path fill="none" stroke="#000" d="M68.695-78.588C91.75-100.996 142.35-142.498 188-127.323c30.988 10.3 60.041 35.088 77.664 52.459"/><path stroke="#000" d="M270.756-69.736l-2.696-7.187.23 4.703-2.466-2.484h0l2.466 2.484-4.701-.265 7.167 2.749h0z"/><text x="147" y="-133.724" font-family="Lato" font-size="12">!a &amp; !b</text></g><g class="node"><circle fill="#ffffa0" stroke="#000" cx="167.5" cy="-56.324" r="18"/><text text-anchor="middle" x="167.5" y="-53.224" font-family="Lato" font-size="12">2</text></g><g class="edge"><path fill="none" stroke="#000" d="M74.106-67.984c14.836-1.72 36.335-3.165 54.894-.34 4.836.736 9.9 1.965 14.709 3.362"/><path stroke="#000" d="M150.512-62.833l-5.739-5.097 2.4 4.052-3.341-1.046h0l3.34 1.046-4.281 1.96 7.621-.915h0z"/><text x="92" y="-72.724" font-family="Lato" font-size="12">!a &amp; b</text></g><g class="edge"><path fill="none" stroke="#000" d="M268.56-45.135c-17.79 13.01-49.487 33.73-80.56 41.811-17.636 4.587-23.25 4.122-41 0-26.525-6.16-32.74-11.315-55-27-6.656-4.69-13.247-10.617-18.935-16.254"/><path stroke="#000" d="M68.12-51.63l2.645 7.206-.197-4.704 2.448 2.5h0l-2.448-2.5 4.7.297-7.149-2.798h0z"/><text x="163.5" y="-19.724" font-family="Lato" font-size="12">a</text><text x="161" y="-6.724" font-family="Lato" font-size="12" fill="#1f78b4">⓿</text></g><g class="edge"><path fill="none" stroke="#000" d="M273.425-71.865c-2.695-10.368.497-20.459 9.575-20.459 6.95 0 10.45 5.916 10.5 13.341"/><path stroke="#000" d="M292.575-71.865l4.025-6.536-3.574 3.065.45-3.47h0l-.45 3.47-2.673-3.877 2.222 7.348h0z"/><text x="276.5" y="-95.724" font-family="Lato" font-size="12">!a</text></g><g class="edge"><path fill="none" stroke="#000" d="M151.947-47.156c-6.802 3.5-15.024 7.072-22.947 8.832-16.053 3.567-21.4 5.2-37 0-6.18-2.06-12.152-5.642-17.398-9.536"/><path stroke="#000" d="M68.81-52.502l3.492 6.836-.76-4.647 2.73 2.189h0l-2.73-2.19 4.7-.268-7.432-1.92h0z"/><text x="106.5" y="-54.724" font-family="Lato" font-size="12">a</text><text x="104" y="-41.724" font-family="Lato" font-size="12" fill="#1f78b4">⓿</text></g><g class="edge"><path fill="none" stroke="#000" d="M185.547-56.324h72.135"/><path stroke="#000" d="M264.699-56.324l-7-3.15 3.5 3.15h-3.5 3.5l-3.5 3.15 7-3.15h0z"/><text x="206" y="-59.724" font-family="Lato" font-size="12">!a &amp; !b</text></g><g class="edge"><path fill="none" stroke="#000" d="M157.925-71.865c-2.695-10.368.497-20.459 9.575-20.459 6.95 0 10.45 5.916 10.5 13.341"/><path stroke="#000" d="M177.075-71.865l4.025-6.536-3.574 3.065.45-3.47h0l-.45 3.47-2.673-3.877 2.222 7.348h0z"/><text x="149" y="-108.724" font-family="Lato" font-size="12">!a &amp; b</text><text x="161" y="-95.724" font-family="Lato" font-size="12" fill="#1f78b4">⓿</text></g></g></svg>