<?xml-stylesheet href="spot.css" type="text/css"?><svg width="400pt" height="228" viewBox="0 0 400 171.1" xmlns="http://www.w3.org/2000/svg"><g class="graph" transform="translate(4 167.102)"><path fill="#fff" stroke="transparent" d="M-4 4v-171.102h400V4H-4z"/><text x="174.5" y="-136.502" font-family="Lato" font-size="12">[Büchi]</text><g class="node"><circle fill="#ffffa0" stroke="#000" cx="56" cy="-80.702" r="18"/><text text-anchor="middle" x="56" y="-77.602" font-family="Lato" font-size="12">2</text></g><g class="edge"><path fill="none" stroke="#000" d="M1.123-80.702h29.801"/><path stroke="#000" d="M37.98-80.702l-7-3.15 3.5 3.15h-3.5 3.5l-3.5 3.15 7-3.15h0z"/></g><g class="node"><circle fill="#ffffa0" stroke="#000" cx="370" cy="-43.702" r="18"/><circle fill="none" stroke="#000" cx="370" cy="-43.702" r="22"/><text text-anchor="middle" x="370" y="-40.602" font-family="Lato" font-size="12">1</text></g><g class="edge"><path fill="none" stroke="#000" d="M72.934-87.008c41.138-14.3 148.988-45.634 231.066-14.694 18.734 7.062 35.607 22.128 47.603 35.135"/><path stroke="#000" d="M356.436-61.148l-2.308-7.32-.022 4.708-2.33-2.612h0l2.33 2.612-4.68-.515 7.01 3.127h0z"/><text x="213.5" y="-118.102" font-family="Lato" font-size="12">a &amp; b</text></g><g class="node"><circle fill="#ffffa0" stroke="#000" cx="169" cy="-39.702" r="18"/><circle fill="none" stroke="#000" cx="169" cy="-39.702" r="22"/><text text-anchor="middle" x="169" y="-36.602" font-family="Lato" font-size="12">3</text></g><g class="edge"><path fill="none" stroke="#000" d="M73.162-74.475l68.418 24.824"/><path stroke="#000" d="M148.214-47.244l-5.505-5.349 2.215 4.155-3.29-1.194h0l3.29 1.194-4.364 1.768 7.654-.574h0z"/><text x="92" y="-70.102" font-family="Lato" font-size="12">!a &amp; b</text></g><g class="node"><circle fill="#ffffa0" stroke="#000" cx="286" cy="-43.702" r="18"/><text text-anchor="middle" x="286" y="-40.602" font-family="Lato" font-size="12">0</text></g><g class="edge"><path fill="none" stroke="#000" d="M278.969-60.366c-1.563-9.961.781-19.336 7.031-19.336 4.688 0 7.178 5.273 7.47 12.112"/><path stroke="#000" d="M293.031-60.366l3.57-6.796-3.357 3.302.212-3.493h0l-.212 3.493-2.932-3.685 2.72 7.179h0z"/><text x="279.5" y="-83.102" font-family="Lato" font-size="12">!a</text></g><g class="edge"><path fill="none" stroke="#000" d="M304.227-43.702h36.4"/><path stroke="#000" d="M347.928-43.702l-7-3.15 3.5 3.15h-3.5 3.5l-3.5 3.15 7-3.15h0z"/><text x="322" y="-47.102" font-family="Lato" font-size="12">a</text></g><g class="edge"><path fill="none" stroke="#000" d="M361.994-64.283c-1.108-10.264 1.56-19.42 8.006-19.42 4.834 0 7.544 5.15 8.129 12.056"/><path stroke="#000" d="M378.006-64.283l3.267-6.947-3.208 3.448.058-3.5h0l-.058 3.5-3.091-3.553 3.032 7.052h0z"/><text text-anchor="middle" x="370" y="-87.102" font-family="Lato" font-size="12">1</text></g><g class="edge"><path fill="none" stroke="#000" d="M191.007-40.455l69.68-2.382"/><path stroke="#000" d="M267.927-43.084l-7.103-2.91 3.605 3.03-3.498.119h0l3.498-.12-3.39 3.268 6.888-3.387h0z"/><text x="209" y="-45.102" font-family="Lato" font-size="12">!a &amp; !b</text></g><g class="edge"><path fill="none" stroke="#000" d="M187.82-28.233C213.943-13.782 262.65 7.85 304-3.703 319.384-8 334.753-16.97 346.785-25.327"/><path stroke="#000" d="M352.755-29.615l-7.523 1.524 4.68.517-2.843 2.042h0l2.843-2.042-1.005 4.6 3.848-6.641h0z"/><text x="282" y="-7.102" font-family="Lato" font-size="12">a</text></g><g class="edge"><path fill="none" stroke="#000" d="M158.574-59.46c-1.772-10.592 1.703-20.242 10.426-20.242 6.678 0 10.28 5.656 10.807 13.062"/><path stroke="#000" d="M179.426-59.46l3.517-6.823-3.331 3.328.185-3.495h0l-.185 3.495-2.96-3.662 2.774 7.157h0z"/><text x="150.5" y="-83.102" font-family="Lato" font-size="12">!a &amp; b</text></g></g></svg>