<?xml-stylesheet href="spot.css" type="text/css"?><svg width="568" height="320pt" viewBox="0 0 426 320" xmlns="http://www.w3.org/2000/svg"><g class="graph" transform="translate(4 316)"><path fill="#fff" stroke="transparent" d="M-4 4v-320h426V4H-4z"/><g class="node"><circle fill="#ffffa0" stroke="#000" cx="56" cy="-85" r="18"/><text text-anchor="middle" x="56" y="-81.9" font-family="Lato" font-size="12">0</text></g><g class="edge"><path fill="none" stroke="#000" d="M1.123-85h29.801"/><path stroke="#000" d="M37.98-85l-7-3.15 3.5 3.15h-3.5 3.5l-3.5 3.15 7-3.15h0z"/></g><g class="edge"><path fill="none" stroke="#000" d="M49.62-102.037C48.32-111.857 50.446-121 56-121c4.166 0 6.404 5.142 6.713 11.857"/><path stroke="#000" d="M62.38-102.037l3.474-6.845-3.31 3.349.164-3.497h0l-.165 3.496-2.982-3.643 2.818 7.14h0z"/><text x="36" y="-137.4" font-family="Lato" font-size="12">!a &amp; !c</text><text x="49.5" y="-124.4" font-family="Lato" font-size="12" fill="#1f78b4">⓿</text></g><g class="node"><circle fill="#ffffa0" stroke="#000" cx="400" cy="-103" r="18"/><text text-anchor="middle" x="400" y="-99.9" font-family="Lato" font-size="12">1</text></g><g class="edge"><path fill="none" stroke="#000" d="M67.91-98.974C86.937-120.082 126.499-159.204 170-174c76.77-26.111 169.3 28.15 209.593 55.947"/><path stroke="#000" d="M385.376-113.996l-3.921-6.599 1.056 4.589-2.865-2.01h0l2.865 2.01-4.674.569 7.54 1.44h0z"/><text x="260" y="-180.4" font-family="Lato" font-size="12">c</text></g><g class="node"><circle fill="#ffffa0" stroke="#000" cx="200" cy="-103" r="18"/><text text-anchor="middle" x="200" y="-99.9" font-family="Lato" font-size="12">2</text></g><g class="edge"><path fill="none" stroke="#000" d="M73.947-87.243l100.582-12.573"/><path stroke="#000" d="M181.827-100.728l-7.336-2.258 3.863 2.692-3.473.434h0l3.473-.434-3.082 3.56 6.555-3.994h0z"/><text x="92" y="-100.4" font-family="Lato" font-size="12">a &amp; b &amp; !c</text></g><g class="node"><circle fill="#ffffa0" stroke="#000" cx="200" cy="-18" r="18"/><text text-anchor="middle" x="200" y="-14.9" font-family="Lato" font-size="12">3</text></g><g class="edge"><path fill="none" stroke="#000" d="M72.914-78.649C92.3-71.209 124.896-58.213 152-45c8.594 4.19 17.799 9.226 25.825 13.808"/><path stroke="#000" d="M184.25-27.478l-4.484-6.23 1.454 4.479-3.03-1.752h0l3.03 1.752-4.606.976 7.637.775h0z"/><text x="104" y="-74.4" font-family="Lato" font-size="12">a &amp; !c</text></g><g class="edge"><path fill="none" stroke="#000" d="M392.617-119.664c-1.64-9.961.82-19.336 7.383-19.336 4.922 0 7.537 5.273 7.844 12.112"/><path stroke="#000" d="M407.383-119.664l3.59-6.785-3.367 3.292.223-3.493h0l-.223 3.493-2.92-3.694 2.697 7.187h0z"/><text x="396" y="-155.4" font-family="Lato" font-size="12">1</text><text x="393.5" y="-142.4" font-family="Lato" font-size="12" fill="#1f78b4">⓿</text></g><g class="edge"><path fill="none" stroke="#000" d="M189.627-117.792C186.249-128.417 189.707-139 200-139c7.88 0 11.755 6.204 11.622 13.88"/><path stroke="#000" d="M210.373-117.792l4.281-6.371-3.693 2.921.588-3.45h0l-.588 3.45-2.517-3.98 1.93 7.43h0z"/><text x="196" y="-155.4" font-family="Lato" font-size="12">b</text><text x="193.5" y="-142.4" font-family="Lato" font-size="12" fill="#1f78b4">⓿</text></g><g class="edge"><path fill="none" stroke="#000" d="M182.821-12.154C160.201-5.582 120.021 2.098 92-15c-16.085-9.815-25.286-29.364-30.353-45.314"/><path stroke="#000" d="M59.6-67.341l-1.067 7.602 2.046-4.242.979 3.36h0l-.98-3.36 4.004 2.48-4.982-5.84h0z"/><text x="102" y="-31.4" font-family="Lato" font-size="12">!a &amp; !c</text><text x="115.5" y="-18.4" font-family="Lato" font-size="12" fill="#1f78b4">⓿</text></g><g class="edge"><path fill="none" stroke="#000" d="M214.749-28.64C233.178-41.492 266.066-63.006 297-76c25.614-10.758 56.65-18.19 77.916-22.493"/><path stroke="#000" d="M382.005-99.885l-7.476-1.742 4.042 2.416-3.435.674h0l3.435-.674-2.828 3.765 6.262-4.44h0z"/><text x="297" y="-92.4" font-family="Lato" font-size="12">!a &amp; c</text></g><g class="edge"><path fill="none" stroke="#000" d="M189.627-32.792C186.249-43.416 189.707-54 200-54c7.88 0 11.755 6.204 11.622 13.88"/><path stroke="#000" d="M210.373-32.792l4.281-6.371-3.693 2.921.588-3.45h0l-.588 3.45-2.517-3.98 1.93 7.43h0z"/><text x="182" y="-57.4" font-family="Lato" font-size="12">a &amp; !c</text></g><g class="node"><circle fill="#ffffa0" stroke="#000" cx="315" cy="-18" r="18"/><text text-anchor="middle" x="315" y="-14.9" font-family="Lato" font-size="12">4</text></g><g class="edge"><path fill="none" stroke="#000" d="M218.222-18h71.402"/><path stroke="#000" d="M296.863-18l-7-3.15 3.5 3.15h-3.5 3.5l-3.5 3.15 7-3.15h0z"/><text x="248" y="-21.4" font-family="Lato" font-size="12">a &amp; c</text></g><g class="edge"><path fill="none" stroke="#000" d="M327.91-30.91l54.138-54.138"/><path stroke="#000" d="M387.247-90.247l-7.177 2.722 4.702-.247-2.474 2.474h0l2.474-2.474-.247 4.702 2.722-7.177h0z"/><text x="351" y="-69.4" font-family="Lato" font-size="12">!a</text></g><g class="edge"><path fill="none" stroke="#000" d="M307.617-34.664C305.977-44.625 308.437-54 315-54c4.922 0 7.537 5.273 7.844 12.112"/><path stroke="#000" d="M322.383-34.664l3.59-6.785-3.367 3.292.223-3.493h0l-.223 3.493-2.92-3.694 2.697 7.187h0z"/><text x="311" y="-57.4" font-family="Lato" font-size="12">a</text></g><g class="node"><circle fill="#ffffa0" stroke="#000" cx="56" cy="-251" r="18"/><text text-anchor="middle" x="56" y="-247.9" font-family="Lato" font-size="12">1</text></g><g class="edge"><path fill="none" stroke="#000" d="M1.123-251h29.801"/><path stroke="#000" d="M37.98-251l-7-3.15 3.5 3.15h-3.5 3.5l-3.5 3.15 7-3.15h0z"/></g><g class="edge"><path fill="none" stroke="#000" d="M49.62-268.037C48.32-277.857 50.446-287 56-287c4.166 0 6.404 5.142 6.713 11.857"/><path stroke="#000" d="M62.38-268.037l3.474-6.845-3.31 3.349.164-3.497h0l-.165 3.496-2.982-3.643 2.818 7.14h0z"/><text x="37.5" y="-290.4" font-family="Lato" font-size="12">a &amp; !b</text></g><g class="node"><circle fill="#ffffa0" stroke="#000" cx="200" cy="-251" r="26"/><circle fill="none" stroke="#000" cx="200" cy="-251" r="30"/><text text-anchor="middle" x="200" y="-247.9" font-family="Lato" font-size="12">0</text></g><g class="edge"><path fill="none" stroke="#000" d="M74.238-251h88.635"/><path stroke="#000" d="M169.881-251l-7-3.15 3.5 3.15h-3.5 3.5l-3.5 3.15 7-3.15h0z"/><text x="118" y="-254.4" font-family="Lato" font-size="12">b</text></g><g class="edge"><path fill="none" stroke="#000" d="M188.42-279.103C187.906-289.969 191.766-299 200-299c6.304 0 10.045 5.294 11.22 12.652"/><path stroke="#000" d="M211.58-279.103l2.8-7.147-2.974 3.651-.173-3.495h0l.173 3.495-3.32-3.34 3.494 6.836h0z"/><text text-anchor="middle" x="200" y="-302.4" font-family="Lato" font-size="12">1</text></g></g></svg>