<?xml-stylesheet href="spot.css" type="text/css"?><svg width="667pt" height="800" viewBox="0 0 666.5 599.93" xmlns="http://www.w3.org/2000/svg"><g class="graph"><path fill="#fff" stroke="transparent" d="M0 599.934V0h666.505v599.934H0z"/><text x="326.752" y="-578.334" font-family="Lato" font-size="12" transform="translate(4 595.934)">t</text><text x="317.752" y="-565.334" font-family="Lato" font-size="12" transform="translate(4 595.934)">[all]</text><g class="node" transform="translate(4 595.934)"><path fill="#ffffa0" stroke="#000" d="M135-296.967H46c-6 0-12 6-12 12v12c0 6 6 12 12 12h89c6 0 12-6 12-12v-12c0-6-6-12-12-12"/><text x="76" y="-282.367" font-family="Lato" font-size="12">x0y0</text><text x="42" y="-269.367" font-family="Lato" font-size="12">!odd_x &amp; !odd_y</text></g><g class="edge" transform="translate(4 595.934)"><path fill="none" stroke="#000" d="M1.075-278.967H26.44"/><path stroke="#000" d="M33.71-278.967l-7-3.15 3.5 3.15h-3.5 3.5l-3.501 3.15 7-3.15h0z"/></g><g class="node" transform="translate(4 595.934)"><path fill="#ffffa0" stroke="#000" d="M646.505-387.6h-84c-6 0-12 6-12 12v12c0 6 6 12 12 12h84c6 0 12-6 12-12v-12c0-6-6-12-12-12"/><text x="590.005" y="-373" font-family="Lato" font-size="12">x0y1</text><text x="558.505" y="-360" font-family="Lato" font-size="12">!odd_x &amp; odd_y</text></g><g class="edge" transform="translate(4 595.934)"><path fill="none" stroke="#000" d="M147.471-289.013l395.864-69.801"/><path stroke="#000" d="M550.386-360.057l-7.441-1.887 3.994 2.494-3.447.608h0l3.447-.608-2.9 3.71 6.347-4.317h0z"/></g><g class="node" transform="translate(4 595.934)"><path fill="#ffffa0" stroke="#000" d="M351.477-557.934h-84c-6 0-12 6-12 12v12c0 6 6 12 12 12h84c6 0 12-6 12-12v-12c0-6-6-12-12-12"/><text x="294.977" y="-543.334" font-family="Lato" font-size="12">x1y0</text><text x="263.477" y="-530.334" font-family="Lato" font-size="12">odd_x &amp; !odd_y</text></g><g class="edge" transform="translate(4 595.934)"><path fill="none" stroke="#000" d="M105.898-297.318l183.452-218.63"/><path stroke="#000" d="M294.096-521.604l-6.912 3.338 4.663-.657-2.25 2.682h0l2.25-2.682.163 4.706 2.086-7.387h0z"/></g><g class="node" transform="translate(4 595.934)"><path fill="#ffffa0" stroke="#000" d="M196.997-126.633h-89c-6 0-12 6-12 12v12c0 6 6 12 12 12h89c6 0 12-6 12-12v-12c0-6-6-12-12-12"/><text x="137.997" y="-112.033" font-family="Lato" font-size="12">x0y2</text><text x="103.997" y="-99.033" font-family="Lato" font-size="12">!odd_x &amp; !odd_y</text></g><g class="edge" transform="translate(4 595.934)"><path fill="none" stroke="#000" d="M573.08-351.457L190.015-130.295"/><path stroke="#000" d="M183.714-126.656l7.637-.772-4.606-.978 3.031-1.75h0l-3.03 1.75 1.455-4.478-4.487 6.228h0z"/></g><g class="node" transform="translate(4 595.934)"><path fill="#ffffa0" stroke="#000" d="M527.99-526.458h-80c-6 0-12 6-12 12v12c0 6 6 12 12 12h80c6 0 12-6 12-12v-12c0-6-6-12-12-12"/><text x="473.49" y="-511.858" font-family="Lato" font-size="12">x1y1</text><text x="443.99" y="-498.858" font-family="Lato" font-size="12">odd_x &amp; odd_y</text></g><g class="edge" transform="translate(4 595.934)"><path fill="none" stroke="#000" d="M589.273-387.753l-81.358-96.958"/><path stroke="#000" d="M503.226-490.3l2.086 7.387.163-4.706 2.25 2.681h0l-2.25-2.681 4.663.656-6.912-3.337h0z"/></g><g class="edge" transform="translate(4 595.934)"><path fill="none" stroke="#000" d="M363.521-530.405l65.397 11.531"/><path stroke="#000" d="M435.967-517.63l-6.347-4.319 2.9 3.71-3.447-.607h0l3.447.607-3.994 2.495 7.44-1.887h0z"/></g><g class="node" transform="translate(4 595.934)"><path fill="#ffffa0" stroke="#000" d="M196.997-467.301h-89c-6 0-12 6-12 12v12c0 6 6 12 12 12h89c6 0 12-6 12-12v-12c0-6-6-12-12-12"/><text x="137.997" y="-452.701" font-family="Lato" font-size="12">x2y0</text><text x="103.997" y="-439.701" font-family="Lato" font-size="12">!odd_x &amp; !odd_y</text></g><g class="edge" transform="translate(4 595.934)"><path fill="none" stroke="#000" d="M278.087-521.811l-87.971 50.79"/><path stroke="#000" d="M183.832-467.393l7.638-.772-4.607-.978 3.031-1.75h0l-3.03 1.75 1.456-4.478-4.488 6.228h0z"/></g><g class="edge" transform="translate(4 595.934)"><path fill="none" stroke="#000" d="M145.862-126.862l-46.24-127.042"/><path stroke="#000" d="M97.087-260.87l-.566 7.656 1.763-4.366 1.197 3.288h0l-1.197-3.288 4.157 2.211-5.354-5.5h0z"/></g><g class="node" transform="translate(4 595.934)"><path fill="#ffffa0" stroke="#000" d="M351.477-36h-84c-6 0-12 6-12 12v12c0 6 6 12 12 12h84c6 0 12-6 12-12v-12c0-6-6-12-12-12"/><text x="294.977" y="-21.4" font-family="Lato" font-size="12">x1y2</text><text x="263.477" y="-8.4" font-family="Lato" font-size="12">odd_x &amp; !odd_y</text></g><g class="edge" transform="translate(4 595.934)"><path fill="none" stroke="#000" d="M183.887-90.51l87.971 50.79"/><path stroke="#000" d="M278.142-36.092l-4.488-6.228 1.457 4.478-3.031-1.75h0l3.03 1.75-4.606.978 7.638.772h0z"/></g><g class="edge" transform="translate(4 595.934)"><path fill="none" stroke="#000" d="M481.424-490.42L318.586-43.028"/><path stroke="#000" d="M316.102-36.201l5.354-5.5-4.157 2.21 1.197-3.288h0L317.3-39.49l-1.763-4.367.566 7.656h0z"/></g><g class="node" transform="translate(4 595.934)"><path fill="#ffffa0" stroke="#000" d="M646.505-206.334h-84c-6 0-12 6-12 12v12c0 6 6 12 12 12h84c6 0 12-6 12-12v-12c0-6-6-12-12-12"/><text x="590.005" y="-191.734" font-family="Lato" font-size="12">x2y1</text><text x="558.505" y="-178.734" font-family="Lato" font-size="12">!odd_x &amp; odd_y</text></g><g class="edge" transform="translate(4 595.934)"><path fill="none" stroke="#000" d="M494.588-490.33l100.79 276.92"/><path stroke="#000" d="M597.835-206.66l.565-7.656-1.762 4.367-1.197-3.29h0l1.197 3.29-4.158-2.212 5.355 5.5h0z"/></g><g class="edge" transform="translate(4 595.934)"><path fill="none" stroke="#000" d="M145.862-431.073L99.622-304.03"/><path stroke="#000" d="M97.087-297.065l5.354-5.5-4.157 2.211 1.197-3.289h0l-1.197 3.29-1.763-4.367.566 7.655h0z"/></g><g class="edge" transform="translate(4 595.934)"><path fill="none" stroke="#000" d="M183.922-431.158l383.064 221.162"/><path stroke="#000" d="M573.288-206.358l-4.488-6.228 1.456 4.478-3.03-1.75h0l3.03 1.75-4.606.978 7.638.772h0z"/></g><g class="edge" transform="translate(4 595.934)"><path fill="none" stroke="#000" d="M309.477-36.27v-478.407"/><path stroke="#000" d="M309.477-521.813l-3.15 7 3.15-3.5v3.5h0v-3.5l3.15 3.5-3.15-7h0z"/></g><g class="node" transform="translate(4 595.934)"><path fill="#ffffa0" stroke="#000" d="M532.49-67.477h-89c-6 0-12 6-12 12v12c0 6 6 12 12 12h89c6 0 12-6 12-12v-12c0-6-6-12-12-12"/><text x="473.49" y="-52.877" font-family="Lato" font-size="12">x2y2</text><text x="439.49" y="-39.877" font-family="Lato" font-size="12">!odd_x &amp; !odd_y</text></g><g class="edge" transform="translate(4 595.934)"><path fill="none" stroke="#000" d="M363.521-27.53l60.865-10.731"/><path stroke="#000" d="M431.343-39.488l-7.44-1.887 3.993 2.495-3.446.607h0l3.447-.607-2.9 3.71 6.346-4.318h0z"/></g><g class="edge" transform="translate(4 595.934)"><path fill="none" stroke="#000" d="M604.505-206.377v-137.535"/><path stroke="#000" d="M604.505-351.36l-3.15 7 3.15-3.5v3.5h0v-3.5l3.15 3.5-3.15-7h0z"/></g><g class="edge" transform="translate(4 595.934)"><path fill="none" stroke="#000" d="M589.273-170.181l-81.358 96.958"/><path stroke="#000" d="M503.226-67.634l6.912-3.338-4.663.657 2.25-2.681h0l-2.25 2.68-.163-4.705-2.086 7.387h0z"/></g><g class="edge" transform="translate(4 595.934)"><path fill="none" stroke="#000" d="M431.457-59.445L216.3-97.383"/><path stroke="#000" d="M209.26-98.624l6.347 4.318-2.9-3.71 3.448.608h0l-3.447-.608 3.994-2.494-7.441 1.886h0z"/></g><g class="edge" transform="translate(4 595.934)"><path fill="none" stroke="#000" d="M472.702-67.695l-300.3-357.884"/><path stroke="#000" d="M167.874-430.976l2.086 7.387.163-4.706 2.25 2.682h0l-2.25-2.682 4.663.657-6.912-3.338h0z"/></g></g></svg>