<?xml-stylesheet href="spot.css" type="text/css"?><svg width="755pt" height="296pt" viewBox="0 0 755 296" xmlns="http://www.w3.org/2000/svg"><g class="graph" transform="translate(4 292)"><path fill="#fff" stroke="transparent" d="M-4 4v-296h755V4H-4z"/><text x="353.5" y="-275.4" font-family="Lato" font-size="12">Fin(</text><text x="375.5" y="-275.4" font-family="Lato" font-size="12" fill="#1f78b4">⓿</text><text x="388.5" y="-275.4" font-family="Lato" font-size="12">)</text><text x="343" y="-263.4" font-family="Lato" font-size="12">[co-Büchi]</text><g class="node"><circle fill="#ffffa0" stroke="#000" cx="56" cy="-194" r="18"/><text text-anchor="middle" x="56" y="-190.9" font-family="Lato" font-size="12">0</text></g><g class="edge"><path fill="none" stroke="#000" d="M1.123-194h29.801"/><path stroke="#000" d="M37.98-194l-7-3.15 3.5 3.15h-3.5 3.5l-3.5 3.15 7-3.15h0z"/></g><g class="edge"><path fill="none" stroke="#000" d="M49.62-211.037C48.32-220.857 50.446-230 56-230c4.166 0 6.404 5.142 6.713 11.857"/><path stroke="#000" d="M62.38-211.037l3.474-6.845-3.31 3.349.164-3.497h0l-.165 3.496-2.982-3.643 2.818 7.14h0z"/><text x="35.5" y="-246.4" font-family="Lato" font-size="12">!a &amp; !b</text><text x="49.5" y="-233.4" font-family="Lato" font-size="12" fill="#1f78b4">⓿</text></g><g class="node"><circle fill="#ffffa0" stroke="#000" cx="169" cy="-145" r="18"/><text text-anchor="middle" x="169" y="-141.9" font-family="Lato" font-size="12">1</text></g><g class="edge"><path fill="none" stroke="#000" d="M73.798-190.84c16.056 3.29 40.025 9.317 59.202 18.84 5.733 2.847 11.485 6.638 16.655 10.476"/><path stroke="#000" d="M155.422-157.05l-3.6-6.78.834 4.635-2.765-2.146h0l2.765 2.146-4.696.343 7.462 1.802h0z"/><text x="94" y="-189.4" font-family="Lato" font-size="12">!a &amp; b</text></g><g class="node"><circle fill="#ffffa0" stroke="#000" cx="385.5" cy="-181" r="18"/><text text-anchor="middle" x="385.5" y="-177.9" font-family="Lato" font-size="12">2</text></g><g class="edge"><path fill="none" stroke="#000" d="M73.416-199.267C79.265-200.79 85.862-202.244 92-203c99.092-12.199 217.897 7.04 268.599 16.833"/><path stroke="#000" d="M367.574-184.795l-6.26-4.442 2.826 3.766-3.434-.675h0l3.434.675-4.042 2.416 7.476-1.74h0z"/><text x="217" y="-208.4" font-family="Lato" font-size="12">a</text></g><g class="edge"><path fill="none" stroke="#000" d="M151.707-139.628C135.35-135.588 110.605-132.252 92-142c-11.598-6.077-20.203-17.776-26.086-28.54"/><path stroke="#000" d="M62.6-177.063l.362 7.667 1.224-4.547 1.585 3.12h0l-1.585-3.12 4.393 1.694-5.979-4.814h0z"/><text x="92" y="-158.4" font-family="Lato" font-size="12">!a &amp; !b</text><text x="106" y="-145.4" font-family="Lato" font-size="12" fill="#1f78b4">⓿</text></g><g class="edge"><path fill="none" stroke="#000" d="M160.021-160.916C157.68-171.15 160.671-181 169-181c6.376 0 9.625 5.774 9.746 13.073"/><path stroke="#000" d="M177.979-160.916l3.893-6.615-3.512 3.136.38-3.48h0l-.38 3.48-2.75-3.822 2.369 7.301h0z"/><text x="150.5" y="-184.4" font-family="Lato" font-size="12">!a &amp; b</text></g><g class="edge"><path fill="none" stroke="#000" d="M187.086-148.007l173.356-28.826"/><path stroke="#000" d="M367.617-178.026l-7.422-1.96 3.97 2.534-3.453.574h0l3.453-.574-2.936 3.681 6.388-4.256h0z"/><text x="255" y="-168.4" font-family="Lato" font-size="12">a &amp; !b</text></g><g class="node"><circle fill="#ffffa0" stroke="#000" cx="273.5" cy="-96" r="18"/><text text-anchor="middle" x="273.5" y="-92.9" font-family="Lato" font-size="12">3</text></g><g class="edge"><path fill="none" stroke="#000" d="M185.328-137.344l65.265 30.603"/><path stroke="#000" d="M256.942-103.764l-5-5.824 1.83 4.338-3.168-1.486h0l3.169 1.486-4.506 1.366 7.675.12h0z"/><text x="205" y="-131.4" font-family="Lato" font-size="12">a &amp; b</text></g><g class="edge"><path fill="none" stroke="#000" d="M375.925-196.541C373.23-206.91 376.422-217 385.5-217c6.95 0 10.45 5.915 10.5 13.34"/><path stroke="#000" d="M395.075-196.541l4.025-6.536-3.574 3.065.45-3.471h0l-.45 3.47-2.673-3.876 2.222 7.348h0z"/><text x="381.5" y="-220.4" font-family="Lato" font-size="12">a</text></g><g class="node"><circle fill="#ffffa0" stroke="#000" cx="501.5" cy="-103" r="18"/><text text-anchor="middle" x="501.5" y="-99.9" font-family="Lato" font-size="12">4</text></g><g class="edge"><path fill="none" stroke="#000" d="M400.665-170.803c20.408 13.722 56.8 38.194 79.833 53.68"/><path stroke="#000" d="M486.331-113.2l-4.05-6.52 1.146 4.567-2.905-1.953h0l2.905 1.953-4.662.661 7.566 1.292h0z"/><text x="424" y="-156.4" font-family="Lato" font-size="12">!a &amp; !b</text></g><g class="node"><circle fill="#ffffa0" stroke="#000" cx="617.5" cy="-166" r="18"/><text text-anchor="middle" x="617.5" y="-162.9" font-family="Lato" font-size="12">5</text></g><g class="edge"><path fill="none" stroke="#000" d="M403.255-185.292C437.826-192.88 516.284-206.307 579-189c6.15 1.697 12.307 4.664 17.837 7.914"/><path stroke="#000" d="M603.002-177.2l-4.242-6.397 1.281 4.53-2.96-1.865h0l2.96 1.866-4.64.798 7.601 1.068h0z"/><text x="483" y="-200.4" font-family="Lato" font-size="12">!a &amp; b</text></g><g class="edge"><path fill="none" stroke="#000" d="M288.142-107.112l77.08-58.499"/><path stroke="#000" d="M370.854-169.885l-7.48 1.723 4.692.393-2.788 2.116h0l2.788-2.116-.883 4.625 3.671-6.741h0z"/><text x="310" y="-154.4" font-family="Lato" font-size="12">a &amp; !b</text></g><g class="edge"><path fill="none" stroke="#000" d="M264.521-111.916C262.18-122.15 265.171-132 273.5-132c6.376 0 9.625 5.774 9.747 13.073"/><path stroke="#000" d="M282.479-111.916l3.893-6.615-3.512 3.136.38-3.48h0l-.38 3.48-2.75-3.822 2.369 7.301h0z"/><text x="257.5" y="-135.4" font-family="Lato" font-size="12">a &amp; b</text></g><g class="edge"><path fill="none" stroke="#000" d="M291.773-96.561c40.54-1.245 138.078-4.24 184.436-5.662"/><path stroke="#000" d="M483.457-102.446l-7.094-2.934 3.595 3.041-3.498.108h0l3.498-.108-3.401 3.256 6.9-3.363h0z"/><text x="365" y="-103.4" font-family="Lato" font-size="12">!a &amp; !b</text></g><g class="node"><circle fill="#ffffa0" stroke="#000" cx="385.5" cy="-18" r="18"/><text text-anchor="middle" x="385.5" y="-14.9" font-family="Lato" font-size="12">6</text></g><g class="edge"><path fill="none" stroke="#000" d="M288.605-85.48l76.15 53.032"/><path stroke="#000" d="M370.635-28.353l-3.945-6.585 1.072 4.585-2.872-2h0l2.872 2-4.672.585 7.545 1.415h0z"/><text x="310" y="-72.4" font-family="Lato" font-size="12">!a &amp; b</text></g><g class="edge"><path fill="none" stroke="#000" d="M491.925-118.541C489.23-128.91 492.422-139 501.5-139c6.95 0 10.45 5.915 10.5 13.34"/><path stroke="#000" d="M511.075-118.541l4.025-6.536-3.574 3.065.45-3.471h0l-.45 3.47-2.673-3.876 2.222 7.348h0z"/><text x="481" y="-155.4" font-family="Lato" font-size="12">!a &amp; !b</text><text x="495" y="-142.4" font-family="Lato" font-size="12" fill="#1f78b4">⓿</text></g><g class="edge"><path fill="none" stroke="#000" d="M519.302-107.292c16.3-4.414 40.705-12.264 59.698-23.708 7.464-4.497 14.77-10.575 20.977-16.404"/><path stroke="#000" d="M605.34-152.634l-7.21 2.631 4.705-.188-2.506 2.444h0l2.506-2.444-.307 4.7 2.813-7.143h0z"/><text x="554.5" y="-134.4" font-family="Lato" font-size="12">b</text></g><g class="node"><circle fill="#ffffa0" stroke="#000" cx="729" cy="-97" r="18"/><text text-anchor="middle" x="729" y="-93.9" font-family="Lato" font-size="12">7</text></g><g class="edge"><path fill="none" stroke="#000" d="M517.007-93.625C535.336-83.203 567.129-67.157 597-62c43.039 7.431 55.246-5.295 96-21 4.009-1.545 8.265-3.193 12.395-4.796"/><path stroke="#000" d="M712.159-90.426l-7.666-.4 4.404 1.668-3.262 1.269h0l3.262-1.269-2.121 4.204 5.383-5.472h0z"/><text x="599" y="-65.4" font-family="Lato" font-size="12">a &amp; !b</text></g><g class="edge"><path fill="none" stroke="#000" d="M599.592-164.004C582.665-161.463 557.089-155.88 538-144c-8.217 5.114-15.66 12.624-21.648 19.823"/><path stroke="#000" d="M511.678-118.262l6.811-3.54-4.641.794 2.17-2.747h0l-2.17 2.746-.302-4.699-1.868 7.446h0z"/><text x="538" y="-175.4" font-family="Lato" font-size="12">!a &amp; !b</text><text x="552" y="-162.4" font-family="Lato" font-size="12" fill="#1f78b4">⓿</text></g><g class="edge"><path fill="none" stroke="#000" d="M607.925-181.541C605.23-191.91 608.422-202 617.5-202c6.95 0 10.45 5.915 10.5 13.34"/><path stroke="#000" d="M627.075-181.541l4.025-6.536-3.574 3.065.45-3.471h0l-.45 3.47-2.673-3.876 2.222 7.348h0z"/><text x="613.5" y="-205.4" font-family="Lato" font-size="12">b</text></g><g class="edge"><path fill="none" stroke="#000" d="M635.462-168.095c16.307-.978 40.362-.024 57.538 11.095 13.026 8.432 22.015 23.388 27.754 36.257"/><path stroke="#000" d="M723.462-114.249l.213-7.673-1.56 4.443-1.347-3.23h0l1.347 3.23-4.254-2.018 5.601 5.248h0z"/><text x="656" y="-183.4" font-family="Lato" font-size="12">a &amp; !b</text><text x="668" y="-170.4" font-family="Lato" font-size="12" fill="#1f78b4">⓿</text></g><g class="edge"><path fill="none" stroke="#000" d="M400.174-28.661C416.144-40.274 442.419-59.411 465-76a6369.58 6369.58 0 0016.043-11.83"/><path stroke="#000" d="M486.952-92.204l-7.5 1.632 4.687.45-2.813 2.082h0l2.813-2.082-.94 4.614 3.753-6.696h0z"/><text x="424" y="-79.4" font-family="Lato" font-size="12">!a &amp; !b</text></g><g class="edge"><path fill="none" stroke="#000" d="M375.925-33.541C373.23-43.91 376.422-54 385.5-54c6.95 0 10.45 5.915 10.5 13.34"/><path stroke="#000" d="M395.075-33.541l4.025-6.536-3.574 3.065.45-3.471h0l-.45 3.47-2.673-3.876 2.222 7.348h0z"/><text x="381.5" y="-57.4" font-family="Lato" font-size="12">b</text></g><g class="edge"><path fill="none" stroke="#000" d="M403.544-17.134C452.674-15.5 591.912-15.764 693-64c7.002-3.341 13.597-8.51 19.183-13.772"/><path stroke="#000" d="M717.409-83.002l-7.177 2.725 4.703-.25-2.474 2.476h0l2.474-2.475-.246 4.702 2.72-7.178h0z"/><text x="540" y="-32.4" font-family="Lato" font-size="12">a &amp; !b</text></g><g class="edge"><path fill="none" stroke="#000" d="M710.996-97.475L527-102.328"/><path stroke="#000" d="M519.733-102.52l6.914 3.334-3.416-3.24 3.5.091h0l-3.5-.092 3.582-3.056-7.08 2.964h0z"/><text x="597" y="-117.4" font-family="Lato" font-size="12">!a &amp; !b</text><text x="611" y="-104.4" font-family="Lato" font-size="12" fill="#1f78b4">⓿</text></g><g class="edge"><path fill="none" stroke="#000" d="M711.512-101.99C696.084-106.886 673.41-115.32 656-127c-8.024-5.383-15.742-12.633-22.132-19.422"/><path stroke="#000" d="M628.834-151.965l2.374 7.3-.02-4.709 2.352 2.591h0l-2.353-2.59 4.685.473-7.038-3.065h0z"/><text x="656" y="-143.4" font-family="Lato" font-size="12">!a &amp; b</text><text x="668" y="-130.4" font-family="Lato" font-size="12" fill="#1f78b4">⓿</text></g><g class="edge"><path fill="none" stroke="#000" d="M719.767-112.541C717.168-122.91 720.247-133 729-133c6.702 0 10.077 5.915 10.125 13.34"/><path stroke="#000" d="M738.233-112.541l3.996-6.555-3.561 3.082.435-3.473h0l-.435 3.473-2.69-3.865 2.255 7.338h0z"/><text x="725" y="-136.4" font-family="Lato" font-size="12">a</text></g></g></svg>