<?xml-stylesheet href="spot.css" type="text/css"?><svg width="290pt" height="196" viewBox="0 0 290 147.4" xmlns="http://www.w3.org/2000/svg"><g class="graph" transform="translate(4 143.4)"><path fill="#fff" stroke="transparent" d="M-4 4v-147.4h290V4H-4z"/><text x="119.5" y="-112.8" font-family="Lato" font-size="12">[Büchi]</text><g class="node"><circle fill="#ffffa0" stroke="#000" cx="60" cy="-22" r="18"/><circle fill="none" stroke="#000" cx="60" cy="-22" r="22"/><text text-anchor="middle" x="60" y="-18.9" font-family="Lato" font-size="12">2</text></g><g class="edge"><path fill="none" stroke="#000" d="M1.168-22h29.47"/><path stroke="#000" d="M37.865-22l-7-3.15 3.5 3.15h-3.5 3.5l-3.5 3.15 7-3.15h0z"/></g><g class="edge"><path fill="none" stroke="#000" d="M52.683-42.99C51.78-53.088 54.22-62 60-62c4.336 0 6.792 5.013 7.368 11.78"/><path stroke="#000" d="M67.317-42.99l3.2-6.978-3.175 3.477.024-3.5h0l-.025 3.5-3.125-3.522 3.1 7.022h0z"/><text x="42" y="-65.4" font-family="Lato" font-size="12">!b &amp; c</text></g><g class="node"><circle fill="#ffffa0" stroke="#000" cx="176" cy="-55" r="18"/><text text-anchor="middle" x="176" y="-51.9" font-family="Lato" font-size="12">0</text></g><g class="edge"><path fill="none" stroke="#000" d="M81.276-28.053l70.4-20.027"/><path stroke="#000" d="M158.642-50.062l-7.595-1.114 4.228 2.072-3.366.958h0l3.366-.958-2.504 3.987 5.87-4.945h0z"/><text x="100" y="-47.4" font-family="Lato" font-size="12">!b &amp; !c</text></g><g class="node"><circle fill="#ffffa0" stroke="#000" cx="260" cy="-22" r="18"/><circle fill="none" stroke="#000" cx="260" cy="-22" r="22"/><text text-anchor="middle" x="260" y="-18.9" font-family="Lato" font-size="12">1</text></g><g class="edge"><path fill="none" stroke="#000" d="M82.288-19.404C108.88-16.637 154.685-12.92 194-15c12.082-.639 25.356-1.931 36.812-3.234"/><path stroke="#000" d="M238.046-19.084l-7.32-2.311 3.844 2.72-3.476.408h0l3.476-.409-3.108 3.538 6.584-3.946h0z"/><text x="172" y="-18.4" font-family="Lato" font-size="12">b</text></g><g class="edge"><path fill="none" stroke="#000" d="M168.969-71.664C167.406-81.625 169.75-91 176-91c4.688 0 7.178 5.273 7.47 12.112"/><path stroke="#000" d="M183.031-71.664l3.57-6.796-3.357 3.302.212-3.493h0l-.212 3.493-2.932-3.684 2.72 7.178h0z"/><text x="169.5" y="-94.4" font-family="Lato" font-size="12">!b</text></g><g class="edge"><path fill="none" stroke="#000" d="M192.999-48.322l39.848 15.655"/><path stroke="#000" d="M239.465-30.067L234.1-35.56l2.106 4.212-3.257-1.28h0l3.257 1.28-4.41 1.652 7.668-.372h0z"/><text x="212" y="-43.4" font-family="Lato" font-size="12">b</text></g><g class="edge"><path fill="none" stroke="#000" d="M251.994-42.58C250.886-52.846 253.554-62 260-62c4.834 0 7.544 5.15 8.129 12.055"/><path stroke="#000" d="M268.006-42.58l3.267-6.947-3.208 3.447.058-3.5h0l-.058 3.5-3.091-3.552 3.032 7.051h0z"/><text text-anchor="middle" x="260" y="-65.4" font-family="Lato" font-size="12">1</text></g></g></svg>