<?xml-stylesheet href="spot.css" type="text/css"?><svg width="191pt" height="172pt" viewBox="0 0 191 172.46" xmlns="http://www.w3.org/2000/svg"><g class="graph" transform="translate(4 168.459)"><path fill="#fff" stroke="transparent" d="M-4 4v-172.459h191V4H-4z"/><text x="16.5" y="-151.859" font-family="Lato" font-size="12">Fin(</text><text x="38.5" y="-151.859" font-family="Lato" font-size="12" fill="#1f78b4">⓿</text><text x="51.5" y="-151.859" font-family="Lato" font-size="12">) &amp; (Inf(</text><text x="97.5" y="-151.859" font-family="Lato" font-size="12" fill="#ff4da0">❶</text><text x="108.5" y="-151.859" font-family="Lato" font-size="12">) | Fin(</text><text x="145.5" y="-151.859" font-family="Lato" font-size="12" fill="#ff7f00">❷</text><text x="156.5" y="-151.859" font-family="Lato" font-size="12">))</text><text x="37.5" y="-139.859" font-family="Lato" font-size="12">[parity min odd 3]</text><g class="node"><circle fill="#ffffa0" stroke="#000" cx="56" cy="-26.459" r="18"/><text text-anchor="middle" x="56" y="-23.359" font-family="Lato" font-size="12">1</text></g><g class="edge"><path fill="none" stroke="#000" d="M1.123-26.459h29.801"/><path stroke="#000" d="M37.98-26.459l-7-3.15 3.5 3.15h-3.5 3.5l-3.5 3.15 7-3.15h0z"/></g><g class="edge"><path fill="none" stroke="#000" d="M52.764-44.24c-.55-9.534.529-18.219 3.236-18.219 1.988 0 3.098 4.684 3.33 10.948"/><path stroke="#000" d="M59.236-44.24l3.24-6.96-3.195 3.46.045-3.5h0l-.045 3.5-3.105-3.54 3.06 7.04h0z"/><text x="49.5" y="-78.859" font-family="Lato" font-size="12">!a</text><text x="50.5" y="-65.859" font-family="Lato" font-size="12" fill="#ff7f00">❷</text></g><g class="edge"><path fill="none" stroke="#000" d="M50.938-43.74C47.562-63.71 49.25-88.46 56-88.46c5.959 0 7.972 19.29 6.04 37.55"/><path stroke="#000" d="M61.063-43.74l4.067-6.51-3.594 3.042.473-3.468h0l-.473 3.468-2.648-3.894 2.175 7.362h0z"/><text x="40" y="-104.859" font-family="Lato" font-size="12">a &amp; b</text><text x="50.5" y="-91.859" font-family="Lato" font-size="12" fill="#ff4da0">❶</text></g><g class="node"><circle fill="#ffffa0" stroke="#000" cx="165" cy="-26.459" r="18"/><text text-anchor="middle" x="165" y="-23.359" font-family="Lato" font-size="12">0</text></g><g class="edge"><path fill="none" stroke="#000" d="M73.927-28.248c5.764-.496 12.183-.966 18.073-1.21 16.43-.684 20.57-.684 37 0 3.59.148 7.375.381 11.089.652"/><path stroke="#000" d="M147.073-28.248l-6.727-3.697 3.238 3.418-3.489-.278h0l3.49.278-3.74 2.862 7.228-2.583h0z"/><text x="92" y="-45.859" font-family="Lato" font-size="12">a &amp; !b</text><text x="105" y="-32.859" font-family="Lato" font-size="12" fill="#ff7f00">❷</text></g><g class="edge"><path fill="none" stroke="#000" d="M150.87-14.782c-6.291 4.467-14.04 9.035-21.87 11.323-15.784 4.612-21.216 4.612-37 0-5.506-1.609-10.971-4.345-15.918-7.38"/><path stroke="#000" d="M70.13-14.782l4.097 6.492-1.178-4.559 2.917 1.933h0l-2.917-1.933 4.657-.693-7.575-1.24h0z"/><text x="106.5" y="-19.859" font-family="Lato" font-size="12">b</text><text x="105" y="-6.859" font-family="Lato" font-size="12" fill="#ff4da0">❶</text></g><g class="edge"><path fill="none" stroke="#000" d="M155.767-42c-2.599-10.368.48-20.459 9.233-20.459 6.702 0 10.077 5.916 10.125 13.341"/><path stroke="#000" d="M174.233-42l3.996-6.554-3.561 3.08.435-3.472h0l-.435 3.473-2.69-3.865L174.232-42h0z"/><text x="158.5" y="-78.859" font-family="Lato" font-size="12">!b</text><text x="159.5" y="-65.859" font-family="Lato" font-size="12" fill="#ff7f00">❷</text></g></g></svg>