<?xml-stylesheet href="spot.css" type="text/css"?><svg width="274pt" height="204" viewBox="0 0 274 153" xmlns="http://www.w3.org/2000/svg"><g class="graph" transform="translate(4 149)"><path fill="#fff" stroke="transparent" d="M-4 4v-153h274V4H-4z"/><text x="113" y="-132.4" font-family="Lato" font-size="12">Fin(</text><text x="135" y="-132.4" font-family="Lato" font-size="12" fill="#1f78b4">⓿</text><text x="148" y="-132.4" font-family="Lato" font-size="12">)</text><text x="102.5" y="-120.4" font-family="Lato" font-size="12">[co-Büchi]</text><g class="node"><circle fill="#ffffa0" stroke="#000" cx="56" cy="-18" r="18"/><text text-anchor="middle" x="56" y="-14.9" font-family="Lato" font-size="12">0</text></g><g class="edge"><path fill="none" stroke="#000" d="M1.123-18h29.801"/><path stroke="#000" d="M37.98-18l-7-3.15 3.5 3.15h-3.5 3.5l-3.5 3.15 7-3.15h0z"/></g><g class="edge"><path fill="none" stroke="#000" d="M52.764-35.782C52.214-45.315 53.293-54 56-54c1.988 0 3.098 4.684 3.33 10.948"/><path stroke="#000" d="M59.236-35.782l3.24-6.959-3.195 3.46.045-3.5h0l-.045 3.5-3.105-3.54 3.06 7.04h0z"/><text x="26" y="-57.4" font-family="Lato" font-size="12">a &amp; !b &amp; c</text></g><g class="edge"><path fill="none" stroke="#000" d="M50.684-35.42C47.654-52.791 49.426-72 56-72c5.701 0 7.79 14.446 6.27 29.61"/><path stroke="#000" d="M61.316-35.42l4.07-6.509-3.596 3.041.475-3.468h0l-.475 3.468-2.646-3.895 2.172 7.363h0z"/><text x="24" y="-88.4" font-family="Lato" font-size="12">!a &amp; !b &amp; c</text><text x="49.5" y="-75.4" font-family="Lato" font-size="12" fill="#1f78b4">⓿</text></g><g class="node"><circle fill="#ffffa0" stroke="#000" cx="168" cy="-51" r="18"/><text text-anchor="middle" x="168" y="-47.9" font-family="Lato" font-size="12">1</text></g><g class="edge"><path fill="none" stroke="#000" d="M73.5-23.156l70.322-20.72"/><path stroke="#000" d="M150.623-45.88l-7.605-1.043 4.248 2.032-3.358.99h0l3.358-.99-2.467 4.011 5.824-5h0z"/><text x="92" y="-43.4" font-family="Lato" font-size="12">!b &amp; !c</text></g><g class="node"><circle fill="#ffffa0" stroke="#000" cx="248" cy="-18" r="18"/><text text-anchor="middle" x="248" y="-14.9" font-family="Lato" font-size="12">2</text></g><g class="edge"><path fill="none" stroke="#000" d="M74.088-15.77C99.202-12.96 146.058-8.752 186-11c12.243-.689 25.782-2.137 37.077-3.539"/><path stroke="#000" d="M230.138-15.445l-7.344-2.233L226.667-15l-3.472.445h0l3.472-.445-3.07 3.57 6.541-4.016h0z"/><text x="164" y="-14.4" font-family="Lato" font-size="12">b</text></g><g class="edge"><path fill="none" stroke="#000" d="M160.969-67.664C159.406-77.625 161.75-87 168-87c4.688 0 7.178 5.273 7.47 12.112"/><path stroke="#000" d="M175.031-67.664l3.57-6.796-3.357 3.302.212-3.493h0l-.212 3.493-2.932-3.684 2.72 7.178h0z"/><text x="161.5" y="-103.4" font-family="Lato" font-size="12">!b</text><text x="161.5" y="-90.4" font-family="Lato" font-size="12" fill="#1f78b4">⓿</text></g><g class="edge"><path fill="none" stroke="#000" d="M184.966-44.002l39.635 16.35"/><path stroke="#000" d="M231.333-24.875l-5.27-5.582 2.034 4.247-3.235-1.335h0l3.235 1.335-4.436 1.577 7.672-.242h0z"/><text x="204" y="-38.4" font-family="Lato" font-size="12">b</text></g><g class="edge"><path fill="none" stroke="#000" d="M244.405-35.782C243.794-45.315 244.992-54 248-54c2.209 0 3.442 4.684 3.7 10.948"/><path stroke="#000" d="M251.595-35.782l3.25-6.954-3.2 3.455.05-3.5h0l-.05 3.5-3.1-3.545 3.05 7.044h0z"/><text x="244" y="-57.4" font-family="Lato" font-size="12">a</text></g><g class="edge"><path fill="none" stroke="#000" d="M242.148-35.142C238.706-52.585 240.656-72 248-72c6.368 0 8.681 14.6 6.938 29.854"/><path stroke="#000" d="M253.852-35.142l4.186-6.434-3.65 2.976.537-3.46h0l-.537 3.46-2.576-3.942 2.04 7.4h0z"/><text x="241.5" y="-88.4" font-family="Lato" font-size="12">!a</text><text x="241.5" y="-75.4" font-family="Lato" font-size="12" fill="#1f78b4">⓿</text></g></g></svg>