<?xml-stylesheet href="spot.css" type="text/css"?><svg width="191pt" height="212" viewBox="0 0 191 159.46" xmlns="http://www.w3.org/2000/svg"><g class="graph" transform="translate(4 155.459)"><path fill="#fff" stroke="transparent" d="M-4 4v-159.459h191V4H-4z"/><text x="72" y="-138.859" font-family="Lato" font-size="12">Inf(</text><text x="93" y="-138.859" font-family="Lato" font-size="12" fill="#1f78b4">⓿</text><text x="106" y="-138.859" font-family="Lato" font-size="12">)</text><text x="70" y="-126.859" font-family="Lato" font-size="12">[Büchi]</text><g class="node"><circle fill="#ffffa0" stroke="#000" cx="56" cy="-26.459" r="18"/><text text-anchor="middle" x="56" y="-23.359" font-family="Lato" font-size="12">1</text></g><g class="edge"><path fill="none" stroke="#000" d="M1.123-26.459h29.801"/><path stroke="#000" d="M37.98-26.459l-7-3.15 3.5 3.15h-3.5 3.5l-3.5 3.15 7-3.15h0z"/></g><g class="edge"><path fill="none" stroke="#000" d="M52.764-44.24c-.55-9.534.529-18.219 3.236-18.219 1.988 0 3.098 4.684 3.33 10.948"/><path stroke="#000" d="M59.236-44.24l3.24-6.96-3.195 3.46.045-3.5h0l-.045 3.5-3.105-3.54 3.06 7.04h0z"/><text x="49.5" y="-65.859" font-family="Lato" font-size="12">!a</text></g><g class="edge"><path fill="none" stroke="#000" d="M50.684-43.88C47.654-61.25 49.426-80.458 56-80.458c5.701 0 7.79 14.446 6.27 29.61"/><path stroke="#000" d="M61.316-43.88l4.07-6.508-3.596 3.041.475-3.468h0l-.475 3.468-2.646-3.895 2.172 7.363h0z"/><text x="40" y="-96.859" font-family="Lato" font-size="12">a &amp; b</text><text x="49.5" y="-83.859" font-family="Lato" font-size="12" fill="#1f78b4">⓿</text></g><g class="node"><circle fill="#ffffa0" stroke="#000" cx="165" cy="-26.459" r="18"/><text text-anchor="middle" x="165" y="-23.359" font-family="Lato" font-size="12">0</text></g><g class="edge"><path fill="none" stroke="#000" d="M73.927-28.248c5.764-.496 12.183-.966 18.073-1.21 16.43-.684 20.57-.684 37 0 3.59.148 7.375.381 11.089.652"/><path stroke="#000" d="M147.073-28.248l-6.727-3.697 3.238 3.418-3.489-.278h0l3.49.278-3.74 2.862 7.228-2.583h0z"/><text x="92" y="-32.859" font-family="Lato" font-size="12">a &amp; !b</text></g><g class="edge"><path fill="none" stroke="#000" d="M150.87-14.782c-6.291 4.467-14.04 9.035-21.87 11.323-15.784 4.612-21.216 4.612-37 0-5.506-1.609-10.971-4.345-15.918-7.38"/><path stroke="#000" d="M70.13-14.782l4.097 6.492-1.178-4.559 2.917 1.933h0l-2.917-1.933 4.657-.693-7.575-1.24h0z"/><text x="106.5" y="-19.859" font-family="Lato" font-size="12">b</text><text x="104" y="-6.859" font-family="Lato" font-size="12" fill="#1f78b4">⓿</text></g><g class="edge"><path fill="none" stroke="#000" d="M155.767-42c-2.599-10.368.48-20.459 9.233-20.459 6.702 0 10.077 5.916 10.125 13.341"/><path stroke="#000" d="M174.233-42l3.996-6.554-3.561 3.08.435-3.472h0l-.435 3.473-2.69-3.865L174.232-42h0z"/><text x="158.5" y="-65.859" font-family="Lato" font-size="12">!b</text></g></g></svg>