<?xml-stylesheet href="spot.css" type="text/css"?><svg width="242pt" height="194pt" viewBox="0 0 242 194" xmlns="http://www.w3.org/2000/svg"><g class="graph" transform="translate(4 190)"><path fill="#fff" stroke="transparent" d="M-4 4v-194h242V4H-4z"/><text x="114.5" y="-172.4" font-family="Lato" font-size="12">t</text><text x="105.5" y="-159.4" font-family="Lato" font-size="12">[all]</text><g class="node"><circle fill="#ffffa0" stroke="#000" cx="56" cy="-60" r="18"/><text text-anchor="middle" x="56" y="-56.9" font-family="Lato" font-size="12">0</text></g><g class="edge"><path fill="none" stroke="#000" d="M1.123-60h29.801"/><path stroke="#000" d="M37.98-60l-7-3.15 3.5 3.15h-3.5 3.5l-3.5 3.15 7-3.15h0z"/></g><g class="node"><circle fill="#ffffa0" stroke="#000" cx="136" cy="-103" r="18"/><text text-anchor="middle" x="136" y="-99.9" font-family="Lato" font-size="12">1</text></g><g class="edge"><path fill="none" stroke="#000" d="M72.19-68.702l41.728-22.429"/><path stroke="#000" d="M120.108-94.458l-7.657.54 4.574 1.117-3.083 1.657h0l3.083-1.657-1.592 4.432 4.675-6.089h0z"/><text text-anchor="middle" x="96" y="-86.4" font-family="Lato" font-size="12">1</text></g><g class="node"><circle fill="#ffffa0" stroke="#000" cx="136" cy="-18" r="18"/><text text-anchor="middle" x="136" y="-14.9" font-family="Lato" font-size="12">2</text></g><g class="edge"><path fill="none" stroke="#000" d="M72.19-51.5l41.109 21.582"/><path stroke="#000" d="M119.835-26.487L115.1-32.53l1.635 4.416-3.099-1.627h0l3.099 1.627-4.563 1.162 7.662.465h0z"/><text x="92.5" y="-44.4" font-family="Lato" font-size="12">c</text></g><g class="node"><circle fill="#ffffa0" stroke="#000" cx="216" cy="-103" r="18"/><text text-anchor="middle" x="216" y="-99.9" font-family="Lato" font-size="12">3</text></g><g class="edge"><path fill="none" stroke="#000" d="M154.153-103h36.668"/><path stroke="#000" d="M197.919-103l-7-3.15 3.5 3.15h-3.5 3.5l-3.5 3.15 7-3.15h0z"/><text x="172" y="-106.4" font-family="Lato" font-size="12">a</text></g><g class="edge"><path fill="none" stroke="#000" d="M128.969-34.664C127.406-44.625 129.75-54 136-54c4.688 0 7.178 5.273 7.47 12.112"/><path stroke="#000" d="M143.031-34.664l3.57-6.796-3.357 3.302.212-3.493h0l-.212 3.493-2.932-3.684 2.72 7.178h0z"/><text x="132.5" y="-57.4" font-family="Lato" font-size="12">c</text></g><g class="edge"><path fill="none" stroke="#000" d="M208.969-119.664C207.406-129.625 209.75-139 216-139c4.688 0 7.178 5.273 7.47 12.112"/><path stroke="#000" d="M223.031-119.664l3.57-6.796-3.357 3.302.212-3.493h0l-.212 3.493-2.932-3.684 2.72 7.178h0z"/><text text-anchor="middle" x="216" y="-142.4" font-family="Lato" font-size="12">1</text></g></g></svg>