<svg width="437pt" height="245pt" viewBox="0 0 437 245" xmlns="http://www.w3.org/2000/svg"><g class="graph" transform="translate(4 241)"><path fill="#fff" stroke="transparent" d="M-4 4v-245h437V4H-4z"/><text text-anchor="middle" x="214.5" y="-221.8" font-family="Times,serif" font-size="14">Inf(0)</text><text text-anchor="middle" x="214.5" y="-206.8" font-family="Times,serif" font-size="14">[Büchi]</text><g class="node"><circle fill="none" stroke="#000" cx="56" cy="-88" r="18"/><text text-anchor="middle" x="56" y="-84.3" font-family="Times,serif" font-size="14">0</text></g><g class="edge"><path fill="none" stroke="#000" d="M1.123-88H27.67"/><path stroke="#000" d="M27.98-91.5l10 3.5-10 3.5v-7z"/></g><g class="edge"><path fill="none" stroke="#000" d="M49.62-105.037C48.32-114.857 50.446-124 56-124c3.472 0 5.604 3.571 6.398 8.647"/><path stroke="#000" d="M65.897-115.031l-3.518 9.994-3.482-10.006 7 .012z"/><text text-anchor="middle" x="56" y="-142.8" font-family="Times,serif" font-size="14">!a &amp; !c</text><text text-anchor="middle" x="56" y="-127.8" font-family="Times,serif" font-size="14">{0}</text></g><g class="node"><circle fill="none" stroke="#000" cx="411" cy="-105" r="18"/><text text-anchor="middle" x="411" y="-101.3" font-family="Times,serif" font-size="14">1</text></g><g class="edge"><path fill="none" stroke="#000" d="M68.436-101.25C89.908-122.998 136.422-165.322 186-180c74.696-22.113 161.874 29.42 202.288 57.824"/><path stroke="#000" d="M390.56-124.853l6.07 8.683-10.16-3.003 4.09-5.68z"/><text text-anchor="middle" x="259.5" y="-187.8" font-family="Times,serif" font-size="14">c</text></g><g class="node"><circle fill="none" stroke="#000" cx="204" cy="-105" r="18"/><text text-anchor="middle" x="204" y="-101.3" font-family="Times,serif" font-size="14">2</text></g><g class="edge"><path fill="none" stroke="#000" d="M74.148-90.085l101.335-11.64"/><path stroke="#000" d="M175.37-105.234l10.334 2.336-9.535 4.618-.8-6.954z"/><text text-anchor="middle" x="130" y="-103.8" font-family="Times,serif" font-size="14">a &amp; b &amp; !c</text></g><g class="node"><circle fill="none" stroke="#000" cx="204" cy="-18" r="18"/><text text-anchor="middle" x="204" y="-14.3" font-family="Times,serif" font-size="14">3</text></g><g class="edge"><path fill="none" stroke="#000" d="M72.759-80.751C78.79-78.213 85.669-75.399 92-73c33.383 12.65 44.737 8.763 76 26 5.095 2.81 10.192 6.353 14.88 9.99"/><path stroke="#000" d="M185.293-39.557l5.498 9.057-9.946-3.652 4.448-5.405z"/><text text-anchor="middle" x="130" y="-76.8" font-family="Times,serif" font-size="14">a &amp; !c</text></g><g class="edge"><path fill="none" stroke="#000" d="M403.617-121.664c-1.64-9.961.82-19.336 7.383-19.336 4.204 0 6.725 3.847 7.563 9.232"/><path stroke="#000" d="M422.06-131.6l-3.677 9.936-3.322-10.06 7 .124z"/><text text-anchor="middle" x="411" y="-159.8" font-family="Times,serif" font-size="14">1</text><text text-anchor="middle" x="411" y="-144.8" font-family="Times,serif" font-size="14">{0}</text></g><g class="edge"><path fill="none" stroke="#000" d="M194.767-120.541C192.168-130.91 195.247-141 204-141c5.745 0 9.045 4.346 9.9 10.264"/><path stroke="#000" d="M217.379-130.291l-4.146 9.75-2.84-10.208 6.986.458z"/><text text-anchor="middle" x="204" y="-159.8" font-family="Times,serif" font-size="14">b</text><text text-anchor="middle" x="204" y="-144.8" font-family="Times,serif" font-size="14">{0}</text></g><g class="edge"><path fill="none" stroke="#000" d="M186.916-11.624C163.537-4.066 121.159 5.348 92-13 75.6-23.32 66.502-43.42 61.557-60.216"/><path stroke="#000" d="M58.109-59.572l.878-10.558 5.898 8.801-6.776 1.757z"/><text text-anchor="middle" x="130" y="-31.8" font-family="Times,serif" font-size="14">!a &amp; !c</text><text text-anchor="middle" x="130" y="-16.8" font-family="Times,serif" font-size="14">{0}</text></g><g class="edge"><path fill="none" stroke="#000" d="M218.26-29.43C235.8-42.94 266.95-65.197 297-78c28.072-11.96 62.393-19.175 85.998-23.099"/><path stroke="#000" d="M382.606-104.58l10.423 1.905-9.336 5.01-1.087-6.915z"/><text text-anchor="middle" x="319.5" y="-95.8" font-family="Times,serif" font-size="14">!a &amp; c</text></g><g class="edge"><path fill="none" stroke="#000" d="M194.767-33.541C192.168-43.91 195.247-54 204-54c5.745 0 9.045 4.346 9.9 10.264"/><path stroke="#000" d="M217.379-43.291l-4.146 9.75-2.84-10.208 6.986.458z"/><text text-anchor="middle" x="204" y="-57.8" font-family="Times,serif" font-size="14">a &amp; !c</text></g><g class="node"><circle fill="none" stroke="#000" cx="319.5" cy="-18" r="18"/><text text-anchor="middle" x="319.5" y="-14.3" font-family="Times,serif" font-size="14">4</text></g><g class="edge"><path fill="none" stroke="#000" d="M222.047-18h68.945"/><path stroke="#000" d="M291.199-21.5l10 3.5-10 3.5v-7z"/><text text-anchor="middle" x="259.5" y="-21.8" font-family="Times,serif" font-size="14">a &amp; c</text></g><g class="edge"><path fill="none" stroke="#000" d="M332.61-30.465l57.745-54.905"/><path stroke="#000" d="M388.256-88.204l9.659-4.354-4.836 9.427-4.823-5.073z"/><text text-anchor="middle" x="367.5" y="-72.8" font-family="Times,serif" font-size="14">!a</text></g><g class="edge"><path fill="none" stroke="#000" d="M311.135-34.29c-2.017-10.1.771-19.71 8.365-19.71 4.865 0 7.757 3.944 8.678 9.434"/><path stroke="#000" d="M331.668-44.18l-3.803 9.89-3.194-10.102 6.997.213z"/><text text-anchor="middle" x="319.5" y="-57.8" font-family="Times,serif" font-size="14">a</text></g></g></svg>