<svg width="328pt" height="485pt" viewBox="0 0 328 485" xmlns="http://www.w3.org/2000/svg"><g class="graph" transform="translate(4 481)"><path fill="#fff" stroke="transparent" d="M-4 4v-485h328V4H-4z"/><text text-anchor="middle" x="160" y="-461.8" font-family="Times,serif" font-size="14">(Gb | F!a) W c</text><text text-anchor="middle" x="160" y="-446.8" font-family="Times,serif" font-size="14">Inf(0)</text><text text-anchor="middle" x="160" y="-431.8" font-family="Times,serif" font-size="14">[Büchi]</text><g class="cluster"><path fill="none" stroke="#0f0" d="M95-8v-52h98v52H95z"/></g><g class="cluster"><path fill="none" stroke="#0f0" d="M214-255v-52h98v52h-98z"/></g><g class="cluster"><path fill="none" stroke="red" d="M95-95v-52h79v52H95z"/></g><g class="cluster"><path fill="none" stroke="#0f0" d="M8-182v-212h166v212H8z"/></g><g class="node"><circle fill="none" stroke="#000" cx="79" cy="-368" r="18"/><text text-anchor="middle" x="79" y="-364.3" font-family="Times,serif" font-size="14">0</text></g><g class="edge"><path fill="none" stroke="#000" d="M79-422.877v26.547"/><path stroke="#000" d="M82.5-396.02l-3.5 10-3.5-10h7z"/></g><g class="edge"><path fill="none" stroke="#000" d="M96.037-374.38c9.82-1.301 18.963.825 18.963 6.38 0 3.472-3.571 5.604-8.647 6.397"/><path stroke="#000" d="M106.031-358.103l-9.994-3.518 10.006-3.482-.012 7z"/><text text-anchor="middle" x="140.5" y="-371.8" font-family="Times,serif" font-size="14">!a &amp; !c</text><text text-anchor="middle" x="140.5" y="-356.8" font-family="Times,serif" font-size="14">{0}</text></g><g class="node"><circle fill="none" stroke="#000" cx="121" cy="-34" r="18"/><text text-anchor="middle" x="121" y="-30.3" font-family="Times,serif" font-size="14">1</text></g><g class="edge"><path fill="none" stroke="#000" d="M96.466-363.565C128.636-354.23 194-329.317 194-281v160c0 31.02-27.57 56.77-48.823 72.013"/><path stroke="#000" d="M147.073-46.044l-10.233 2.745 6.288-8.527 3.945 5.782z"/><text text-anchor="middle" x="198.5" y="-204.3" font-family="Times,serif" font-size="14">c</text></g><g class="node"><circle fill="none" stroke="#000" cx="240" cy="-281" r="18"/><text text-anchor="middle" x="240" y="-277.3" font-family="Times,serif" font-size="14">2</text></g><g class="edge"><path fill="none" stroke="#000" d="M97.045-367.024C123.754-364.748 174.276-357.177 208-332c8.579 6.405 15.415 15.848 20.53 24.873"/><path stroke="#000" d="M231.756-308.508l1.483 10.49-7.701-7.276 6.218-3.214z"/><text text-anchor="middle" x="259" y="-320.8" font-family="Times,serif" font-size="14">a &amp; b &amp; !c</text></g><g class="node"><circle fill="none" stroke="#000" cx="58" cy="-208" r="18"/><text text-anchor="middle" x="58" y="-204.3" font-family="Times,serif" font-size="14">3</text></g><g class="edge"><path fill="none" stroke="#000" d="M68.68-352.741C61.294-340.857 51.984-323.636 48-307c-5.722 23.891-2.001 51.79 2.438 71.87"/><path stroke="#000" d="M53.841-235.946l-1.063 10.542-5.743-8.904 6.806-1.638z"/><text text-anchor="middle" x="70.5" y="-277.3" font-family="Times,serif" font-size="14">a &amp; !c</text></g><g class="edge"><path fill="none" stroke="#000" d="M137.664-41.383C147.625-43.023 157-40.563 157-34c0 4.204-3.847 6.725-9.232 7.563"/><path stroke="#000" d="M147.6-22.94l-9.936-3.677 10.06-3.322-.124 7z"/><text text-anchor="middle" x="171" y="-37.8" font-family="Times,serif" font-size="14">1</text><text text-anchor="middle" x="171" y="-22.8" font-family="Times,serif" font-size="14">{0}</text></g><g class="edge"><path fill="none" stroke="#000" d="M257.037-287.38c9.82-1.301 18.963.825 18.963 6.38 0 3.472-3.571 5.604-8.647 6.397"/><path stroke="#000" d="M267.031-271.103l-9.994-3.518 10.007-3.482-.013 7z"/><text text-anchor="middle" x="290" y="-284.8" font-family="Times,serif" font-size="14">b</text><text text-anchor="middle" x="290" y="-269.8" font-family="Times,serif" font-size="14">{0}</text></g><g class="node"><circle fill="none" stroke="#000" cx="121" cy="-121" r="18"/><text text-anchor="middle" x="121" y="-117.3" font-family="Times,serif" font-size="14">4</text></g><g class="edge"><path fill="none" stroke="#000" d="M121-102.974v40.816"/><path stroke="#000" d="M124.5-62.003l-3.5 10-3.5-10h7z"/><text text-anchor="middle" x="128.5" y="-73.8" font-family="Times,serif" font-size="14">!a</text></g><g class="edge"><path fill="none" stroke="#000" d="M137.664-128.383c9.961-1.64 19.336.82 19.336 7.383 0 4.204-3.847 6.725-9.232 7.563"/><path stroke="#000" d="M147.6-109.94l-9.936-3.677 10.06-3.322-.124 7z"/><text text-anchor="middle" x="161.5" y="-117.3" font-family="Times,serif" font-size="14">a</text></g><g class="edge"><path fill="none" stroke="#000" d="M70.992-220.642C79.042-229.422 88.647-241.866 93-255c9.48-28.604 2.706-63.211-4.326-86.529"/><path stroke="#000" d="M85.33-340.491l.257-10.592 6.405 8.44-6.661 2.152z"/><text text-anchor="middle" x="122.5" y="-284.8" font-family="Times,serif" font-size="14">!a &amp; !c</text><text text-anchor="middle" x="122.5" y="-269.8" font-family="Times,serif" font-size="14">{0}</text></g><g class="edge"><path fill="none" stroke="#000" d="M50.992-191.367C42.479-168.481 31-126.534 46-95c10.158 21.356 31.856 37.684 49.312 48.047"/><path stroke="#000" d="M97.464-49.759l7.01 7.945-10.434-1.84 3.424-6.105z"/><text text-anchor="middle" x="68.5" y="-117.3" font-family="Times,serif" font-size="14">!a &amp; c</text></g><g class="edge"><path fill="none" stroke="#000" d="M68.687-193.242l35.689 49.285"/><path stroke="#000" d="M107.23-145.983l3.03 10.152-8.7-6.046 5.67-4.106z"/><text text-anchor="middle" x="112.5" y="-160.8" font-family="Times,serif" font-size="14">a &amp; c</text></g><g class="edge"><path fill="none" stroke="#000" d="M75.037-214.38C84.857-215.68 94-213.554 94-208c0 3.472-3.571 5.604-8.647 6.398"/><path stroke="#000" d="M85.031-198.103l-9.994-3.518 10.006-3.482-.012 7z"/><text text-anchor="middle" x="116.5" y="-204.3" font-family="Times,serif" font-size="14">a &amp; !c</text></g></g></svg>