<svg width="610pt" height="508" viewBox="0 0 610 381" xmlns="http://www.w3.org/2000/svg"><g class="graph"><path fill="#fff" stroke="transparent" d="M0 381V0h610v381H0z"/><text text-anchor="middle" x="301" y="-357.8" font-family="Times,serif" font-size="14" transform="translate(4 377)">(Inf(0)&amp;Inf(1)) &amp; Fin(2)</text><text text-anchor="middle" x="301" y="-342.8" font-family="Times,serif" font-size="14" transform="translate(4 377)">[Streett-like 3]</text><g class="cluster" transform="translate(4 377)"><path fill="none" stroke="silver" d="M386-163v-115h208v115H386z"/></g><g class="cluster" transform="translate(4 377)"><path fill="none" stroke="silver" d="M286-179v-148h52v148h-52z"/></g><g class="cluster" transform="translate(4 377)"><path fill="none" stroke="#0f0" d="M386-8v-130h208V-8H386z"/></g><g class="cluster" transform="translate(4 377)"><path fill="none" stroke="#0f0" d="M286-23v-148h52v148h-52z"/></g><g class="cluster" transform="translate(4 377)"><path fill="none" stroke="#000" d="M204-83v-52h52v52h-52z"/></g><g class="cluster" transform="translate(4 377)"><path fill="none" stroke="red" d="M117-83v-100h52v100h-52z"/></g><g class="cluster" transform="translate(4 377)"><path fill="none" stroke="#0f0" d="M30-191v-115h226v115H30z"/></g><g class="node" transform="translate(4 377)"><circle fill="none" stroke="#000" cx="56" cy="-217" r="18"/><text text-anchor="middle" x="56" y="-213.3" font-family="Times,serif" font-size="14">1</text></g><g class="edge" transform="translate(4 377)"><path fill="none" stroke="#000" d="M1.123-217H27.67"/><path stroke="#000" d="M27.98-220.5l10 3.5-10 3.5v-7z"/></g><g class="node" transform="translate(4 377)"><circle fill="none" stroke="#000" cx="143" cy="-109" r="18"/><text text-anchor="middle" x="143" y="-105.3" font-family="Times,serif" font-size="14">4</text></g><g class="edge" transform="translate(4 377)"><path fill="none" stroke="#000" d="M67.374-202.88l57.847 71.81"/><path stroke="#000" d="M128.076-133.106l3.548 9.983-9-5.591 5.452-4.392z"/><text text-anchor="middle" x="97" y="-172.8" font-family="Times,serif" font-size="14">b</text></g><g class="node" transform="translate(4 377)"><circle fill="none" stroke="#000" cx="230" cy="-243" r="18"/><text text-anchor="middle" x="230" y="-239.3" font-family="Times,serif" font-size="14">3</text></g><g class="edge" transform="translate(4 377)"><path fill="none" stroke="#000" d="M74.061-218.838c22.355-2.367 61.56-6.818 94.939-12.162 10.95-1.753 22.938-4.032 33.365-6.132"/><path stroke="#000" d="M201.677-240.564l10.5 1.417-9.092 5.44-1.408-6.857z"/><text text-anchor="middle" x="143" y="-234.8" font-family="Times,serif" font-size="14">a &amp; !b</text></g><g class="node" transform="translate(4 377)"><circle fill="none" stroke="#000" cx="412" cy="-205" r="18"/><text text-anchor="middle" x="412" y="-201.3" font-family="Times,serif" font-size="14">5</text></g><g class="node" transform="translate(4 377)"><circle fill="none" stroke="#000" cx="568" cy="-221" r="18"/><text text-anchor="middle" x="568" y="-217.3" font-family="Times,serif" font-size="14">6</text></g><g class="edge" transform="translate(4 377)"><path fill="none" stroke="#000" d="M430.012-202.732c20.305 2.115 54.238 4.317 82.988-.268 9.515-1.518 19.62-4.424 28.538-7.466"/><path stroke="#000" d="M540.413-213.781l10.594-.11-8.213 6.692-2.381-6.582z"/><text text-anchor="middle" x="490" y="-221.8" font-family="Times,serif" font-size="14">1</text><text text-anchor="middle" x="490" y="-206.8" font-family="Times,serif" font-size="14">{1}</text></g><g class="edge" transform="translate(4 377)"><path fill="none" stroke="#000" d="M550.627-226.732C530.33-232.59 495.847-239.92 467-233c-10.784 2.587-21.838 7.659-31.181 12.784"/><path stroke="#000" d="M437.524-217.16l-10.405 1.996 6.89-8.049 3.515 6.053z"/><text text-anchor="middle" x="490" y="-238.8" font-family="Times,serif" font-size="14">1</text></g><g class="node" transform="translate(4 377)"><circle fill="none" stroke="#000" cx="312" cy="-205" r="18"/><text text-anchor="middle" x="312" y="-201.3" font-family="Times,serif" font-size="14">0</text></g><g class="edge" transform="translate(4 377)"><path fill="none" stroke="#000" d="M330.341-205h53.414"/><path stroke="#000" d="M383.775-208.5l10 3.5-10 3.5v-7z"/><text text-anchor="middle" x="362" y="-223.8" font-family="Times,serif" font-size="14">a</text><text text-anchor="middle" x="362" y="-208.8" font-family="Times,serif" font-size="14">{2}</text></g><g class="edge" transform="translate(4 377)"><path fill="none" stroke="#000" d="M308.405-222.782c-.611-9.533.587-18.218 3.595-18.218 1.833 0 2.994 3.225 3.483 7.902"/><path stroke="#000" d="M318.986-232.82l-3.39 10.038-3.61-9.961 7-.076z"/><text text-anchor="middle" x="312" y="-259.8" font-family="Times,serif" font-size="14">a &amp; b</text><text text-anchor="middle" x="312" y="-244.8" font-family="Times,serif" font-size="14">{0,1,2}</text></g><g class="edge" transform="translate(4 377)"><path fill="none" stroke="#000" d="M306.494-222.249C302.586-243.435 304.422-271 312-271c6.424 0 8.721 19.806 6.892 38.744"/><path stroke="#000" d="M322.345-231.674l-4.839 9.425-2.095-10.386 6.934.96z"/><text text-anchor="middle" x="312" y="-289.8" font-family="Times,serif" font-size="14">!a &amp; !b</text><text text-anchor="middle" x="312" y="-274.8" font-family="Times,serif" font-size="14">{2}</text></g><g class="node" transform="translate(4 377)"><circle fill="none" stroke="#000" cx="412" cy="-49" r="18"/><text text-anchor="middle" x="412" y="-45.3" font-family="Times,serif" font-size="14">8</text></g><g class="edge" transform="translate(4 377)"><path fill="none" stroke="#000" d="M405.62-66.037C404.32-75.857 406.446-85 412-85c3.472 0 5.604 3.571 6.397 8.647"/><path stroke="#000" d="M421.897-76.031l-3.518 9.994-3.482-10.006 7 .012z"/><text text-anchor="middle" x="412" y="-103.8" font-family="Times,serif" font-size="14">!a &amp; b</text><text text-anchor="middle" x="412" y="-88.8" font-family="Times,serif" font-size="14">{0,2}</text></g><g class="node" transform="translate(4 377)"><circle fill="none" stroke="#000" cx="568" cy="-49" r="18"/><text text-anchor="middle" x="568" y="-45.3" font-family="Times,serif" font-size="14">9</text></g><g class="edge" transform="translate(4 377)"><path fill="none" stroke="#000" d="M430.332-48.583c10.694.222 24.444.472 36.668.583 20.444.186 25.556.186 46 0 8.595-.078 17.944-.225 26.455-.382"/><path stroke="#000" d="M539.6-51.886l10.068 3.303-9.93 3.696-.137-6.999z"/><text text-anchor="middle" x="490" y="-66.8" font-family="Times,serif" font-size="14">a &amp; b</text><text text-anchor="middle" x="490" y="-51.8" font-family="Times,serif" font-size="14">{0,1}</text></g><g class="edge" transform="translate(4 377)"><path fill="none" stroke="#000" d="M552.933-59.523C542.313-66.273 527.46-74.421 513-78c-19.846-4.912-26.154-4.912-46 0-10.845 2.684-21.911 7.938-31.247 13.245"/><path stroke="#000" d="M437.44-61.684l-10.373 2.16 6.76-8.157 3.612 5.997z"/><text text-anchor="middle" x="490" y="-99.8" font-family="Times,serif" font-size="14">!a &amp; b</text><text text-anchor="middle" x="490" y="-84.8" font-family="Times,serif" font-size="14">{0,1}</text></g><g class="edge" transform="translate(4 377)"><path fill="none" stroke="#000" d="M561.62-66.037C560.32-75.857 562.446-85 568-85c3.472 0 5.604 3.571 6.398 8.647"/><path stroke="#000" d="M577.897-76.031l-3.518 9.994-3.482-10.006 7 .012z"/><text text-anchor="middle" x="568" y="-103.8" font-family="Times,serif" font-size="14">a &amp; b</text><text text-anchor="middle" x="568" y="-88.8" font-family="Times,serif" font-size="14">{0,2}</text></g><g class="node" transform="translate(4 377)"><circle fill="none" stroke="#000" cx="312" cy="-49" r="18"/><text text-anchor="middle" x="312" y="-45.3" font-family="Times,serif" font-size="14">7</text></g><g class="edge" transform="translate(4 377)"><path fill="none" stroke="#000" d="M330.341-49h53.414"/><path stroke="#000" d="M383.775-52.5l10 3.5-10 3.5v-7z"/><text text-anchor="middle" x="362" y="-52.8" font-family="Times,serif" font-size="14">1</text></g><g class="edge" transform="translate(4 377)"><path fill="none" stroke="#000" d="M308.405-66.782C307.794-76.315 308.992-85 312-85c1.833 0 2.994 3.225 3.483 7.902"/><path stroke="#000" d="M318.986-76.82l-3.39 10.038-3.61-9.961 7-.076z"/><text text-anchor="middle" x="312" y="-103.8" font-family="Times,serif" font-size="14">!a &amp; b</text><text text-anchor="middle" x="312" y="-88.8" font-family="Times,serif" font-size="14">{0,2}</text></g><g class="edge" transform="translate(4 377)"><path fill="none" stroke="#000" d="M306.494-66.249C302.586-87.435 304.422-115 312-115c6.424 0 8.721 19.806 6.892 38.744"/><path stroke="#000" d="M322.345-75.674l-4.839 9.425-2.095-10.386 6.934.96z"/><text text-anchor="middle" x="312" y="-133.8" font-family="Times,serif" font-size="14">a &amp; b</text><text text-anchor="middle" x="312" y="-118.8" font-family="Times,serif" font-size="14">{0,1}</text></g><g class="node" transform="translate(4 377)"><circle fill="none" stroke="#000" cx="230" cy="-109" r="18"/><text text-anchor="middle" x="230" y="-105.3" font-family="Times,serif" font-size="14">2</text></g><g class="edge" transform="translate(4 377)"><path fill="none" stroke="#000" d="M241.757-122.942C253.059-136.325 270.642-157.09 286-175c2.36-2.752 4.847-5.639 7.31-8.49"/><path stroke="#000" d="M290.87-186.018l9.192-5.268-3.9 9.85-5.292-4.582z"/><text text-anchor="middle" x="271" y="-165.8" font-family="Times,serif" font-size="14">a</text></g><g class="edge" transform="translate(4 377)"><path fill="none" stroke="#000" d="M244.66-98.273c12.36 9.044 30.26 22.14 44.497 32.559"/><path stroke="#000" d="M291.463-68.364l6.004 8.73-10.137-3.08 4.133-5.65z"/><text text-anchor="middle" x="271" y="-85.8" font-family="Times,serif" font-size="14">b</text></g><g class="edge" transform="translate(4 377)"><path fill="none" stroke="#000" d="M161.026-109h40.816"/><path stroke="#000" d="M201.997-112.5l10 3.5-10 3.5v-7z"/><text text-anchor="middle" x="189" y="-112.8" font-family="Times,serif" font-size="14">b</text></g><g class="edge" transform="translate(4 377)"><path fill="none" stroke="#000" d="M134.984-125.29c-1.934-10.1.739-19.71 8.016-19.71 4.662 0 7.434 3.944 8.316 9.434"/><path stroke="#000" d="M154.807-135.184l-3.79 9.894-3.207-10.098 6.997.204z"/><text text-anchor="middle" x="143" y="-163.8" font-family="Times,serif" font-size="14">!b</text><text text-anchor="middle" x="143" y="-148.8" font-family="Times,serif" font-size="14">{1,2}</text></g><g class="edge" transform="translate(4 377)"><path fill="none" stroke="#000" d="M212.12-246.156c-22.501-3.365-62.193-7.273-95.12.156-12.74 2.874-25.94 8.737-36.79 14.443"/><path stroke="#000" d="M81.798-228.435l-10.445 1.773 7.059-7.9 3.386 6.127z"/><text text-anchor="middle" x="143" y="-268.8" font-family="Times,serif" font-size="14">a &amp; b</text><text text-anchor="middle" x="143" y="-253.8" font-family="Times,serif" font-size="14">{0,1}</text></g></g></svg>