<?xml-stylesheet href="spot.css" type="text/css"?><svg width="364pt" height="208" viewBox="0 0 363.5 155.74" xmlns="http://www.w3.org/2000/svg"><g class="graph"><path fill="#fff" stroke="transparent" d="M0 155.739V0h363.5v155.739H0z"/><text x="175.25" y="-134.139" font-family="Lato" font-size="12" transform="translate(4 151.739)">t</text><text x="166.25" y="-121.139" font-family="Lato" font-size="12" transform="translate(4 151.739)">[all]</text><g class="node" transform="translate(4 151.739)"><circle fill="#ffffa0" stroke="#000" cx="56" cy="-21.739" r="18"/><text text-anchor="middle" x="56" y="-18.639" font-family="Lato" font-size="12">0</text></g><g class="edge" transform="translate(4 151.739)"><path fill="none" stroke="#000" d="M1.123-21.739h29.801"/><path stroke="#000" d="M37.98-21.739l-7-3.15 3.5 3.15h-3.5 3.5l-3.5 3.15 7-3.15h0z"/></g><g class="edge" transform="translate(4 151.739)"><path fill="none" stroke="#000" d="M49.62-38.776c-1.301-9.82.825-18.963 6.38-18.963 4.166 0 6.404 5.143 6.713 11.857"/><path stroke="#000" d="M62.38-38.776l3.474-6.845-3.31 3.349.164-3.496h0l-.165 3.496-2.982-3.644 2.818 7.14h0z"/><text x="28" y="-61.139" font-family="Lato" font-size="12">!p0 &amp; !p1</text></g><g class="node" transform="translate(4 151.739)"><circle fill="#ffffa0" stroke="#000" cx="194" cy="-64.739" r="18"/><text text-anchor="middle" x="194" y="-61.639" font-family="Lato" font-size="12">2</text></g><g class="edge" transform="translate(4 151.739)"><path fill="none" stroke="#000" d="M68.013-35.319C74.463-41.697 82.94-48.757 92-52.739c24.532-10.78 55.412-13.038 76.733-13.066"/><path stroke="#000" d="M175.85-65.731l-6.968-3.222 3.468 3.186-3.5-.037h0l3.5.037-3.532 3.113 7.032-3.077h0z"/><text x="92" y="-68.139" font-family="Lato" font-size="12">!p0 &amp; !p1</text></g><g class="node" transform="translate(4 151.739)"><circle fill="#ffffa0" stroke="#000" cx="332" cy="-21.739" r="18"/><text text-anchor="middle" x="332" y="-18.639" font-family="Lato" font-size="12">1</text></g><g class="edge" transform="translate(4 151.739)"><path fill="none" stroke="#000" d="M74.306-20.525c5.669.323 11.937.626 17.694.786 78.355 2.175 171.15.074 214.852-1.194"/><path stroke="#000" d="M313.932-21.143l-7.091-2.94 3.592 3.044-3.498.104h0l3.498-.104-3.405 3.253 6.904-3.357h0z"/><text x="166" y="-22.139" font-family="Lato" font-size="12">!p0 &amp; !p1</text></g><g class="edge" transform="translate(4 151.739)"><path fill="none" stroke="#000" d="M179.492-53.404c-8.669 6.195-20.169 13.445-31.492 17.665-21.65 8.07-47.824 11.492-66.71 12.942"/><path stroke="#000" d="M74.183-22.318l7.196 2.672-3.704-2.908 3.492-.235h0l-3.492.235 3.28-3.378-6.772 3.614h0z"/><text x="94" y="-39.139" font-family="Lato" font-size="12">p0 &amp; !p1</text></g><g class="edge" transform="translate(4 151.739)"><path fill="none" stroke="#000" d="M182.076-78.406c-4.77-10.989-.795-22.333 11.924-22.333 9.936 0 14.536 6.924 13.799 15.193"/><path stroke="#000" d="M205.924-78.406l4.824-5.97-3.935 2.585.889-3.385h0l-.89 3.385-2.157-4.185 1.269 7.57h0z"/><text x="168" y="-104.139" font-family="Lato" font-size="12">p0 &amp; !p1</text></g><g class="edge" transform="translate(4 151.739)"><path fill="none" stroke="#000" d="M212.15-65.731c21.068-.46 56.426.942 83.85 12.992 6.796 2.986 13.263 7.704 18.792 12.567"/><path stroke="#000" d="M319.987-35.319l-2.965-7.08.407 4.69-2.557-2.389h0l2.557 2.39-4.708-.088 7.266 2.477h0z"/><text x="240" y="-68.139" font-family="Lato" font-size="12">!p0 &amp; !p1</text></g><g class="edge" transform="translate(4 151.739)"><path fill="none" stroke="#000" d="M314.067-18.185A1964.034 1964.034 0 01296-14.74c-57.097 10.566-72.153 18.043-130 13-33.266-2.9-41.165-6.924-74-13-3.586-.663-7.37-1.38-11.083-2.094"/><path stroke="#000" d="M73.933-18.185l6.273 4.423-2.837-3.758 3.436.666h0l-3.436-.666 4.035-2.427-7.47 1.762h0z"/><text x="168" y="-5.139" font-family="Lato" font-size="12">p0 &amp; !p1</text></g><g class="edge" transform="translate(4 151.739)"><path fill="none" stroke="#000" d="M313.931-23.625C295.06-25.973 264.807-30.81 240-39.74c-8.418-3.03-17.164-7.426-24.74-11.69"/><path stroke="#000" d="M209.203-54.947l4.47 6.24-1.444-4.482 3.027 1.758h0l-3.027-1.758 4.609-.966-7.635-.791h0z"/><text x="242" y="-43.139" font-family="Lato" font-size="12">p0 &amp; !p1</text></g><g class="edge" transform="translate(4 151.739)"><path fill="none" stroke="#000" d="M321.292-36.53c-3.486-10.625.083-21.209 10.708-21.209 8.135 0 12.134 6.204 11.997 13.88"/><path stroke="#000" d="M342.708-36.53l4.315-6.35-3.709 2.902.606-3.447h0l-.606 3.447-2.496-3.992 1.89 7.44h0z"/><text x="308.5" y="-61.139" font-family="Lato" font-size="12">p0 &amp; p1</text></g></g></svg>