<?xml-stylesheet href="spot.css" type="text/css"?><svg width="1087pt" height="590pt" viewBox="0 0 1087 590" xmlns="http://www.w3.org/2000/svg"><g class="graph"><path fill="#fff" stroke="transparent" d="M0 590V0h1087v590H0z"/><text x="537" y="-568.4" font-family="Lato" font-size="12" transform="translate(4 586)">t</text><text x="528" y="-555.4" font-family="Lato" font-size="12" transform="translate(4 586)">[all]</text><g class="node" transform="translate(4 586)"><circle fill="#ffffa0" stroke="#000" cx="56" cy="-394" r="18"/><text text-anchor="middle" x="56" y="-390.9" font-family="Lato" font-size="12">0</text></g><g class="edge" transform="translate(4 586)"><path fill="none" stroke="#000" d="M1.123-394h29.801"/><path stroke="#000" d="M37.98-394l-7-3.15 3.5 3.15h-3.5 3.5l-3.5 3.15 7-3.15h0z"/></g><g class="node" transform="translate(4 586)"><circle fill="#ffffa0" stroke="#000" cx="171.5" cy="-294" r="18"/><text text-anchor="middle" x="171.5" y="-290.9" font-family="Lato" font-size="12">8</text></g><g class="edge" transform="translate(4 586)"><path fill="none" stroke="#000" d="M69.703-382.136l82.532 71.457"/><path stroke="#000" d="M157.815-305.849l-3.23-6.963.584 4.673-2.646-2.291h0l2.646 2.29-4.708.091 7.354 2.2h0z"/><text x="92" y="-364.4" font-family="Lato" font-size="12">!a &amp; !b</text></g><g class="node" transform="translate(4 586)"><circle fill="#ffffa0" stroke="#000" cx="283" cy="-294" r="18"/><text text-anchor="middle" x="283" y="-290.9" font-family="Lato" font-size="12">3</text></g><g class="edge" transform="translate(4 586)"><path fill="none" stroke="#000" d="M74.174-391.821C90.059-389.544 113.56-385.266 133-378c48.865 18.264 100.926 50.744 129.041 69.515"/><path stroke="#000" d="M267.998-304.473l-4.047-6.524 1.144 4.568-2.903-1.955h0l2.903 1.955-4.663.658 7.566 1.298h0z"/><text x="151" y="-373.4" font-family="Lato" font-size="12">!a &amp; !b</text></g><g class="node" transform="translate(4 586)"><circle fill="#ffffa0" stroke="#000" cx="1061" cy="-426" r="18"/><text text-anchor="middle" x="1061" y="-422.9" font-family="Lato" font-size="12">4</text></g><g class="edge" transform="translate(4 586)"><path fill="none" stroke="#000" d="M59.366-411.863C65.196-441.017 77.912-496.986 92-511c26.167-26.029 42.592-24 79.5-24H952c34.153 0 47.87.873 73 24 17.253 15.878 26.544 41.37 31.339 60.302"/><path stroke="#000" d="M1057.963-443.798l1.462-7.535-2.264 4.128-.802-3.406h0l.802 3.406-3.868-2.685 4.67 6.092h0z"/><text x="534" y="-538.4" font-family="Lato" font-size="12">!a &amp; !b</text></g><g class="edge" transform="translate(4 586)"><path fill="none" stroke="#000" d="M189.912-294h67.815"/><path stroke="#000" d="M264.93-294l-7-3.15 3.5 3.15h-3.5 3.5l-3.5 3.15 7-3.15h0z"/><text x="210" y="-297.4" font-family="Lato" font-size="12">!a &amp; b</text></g><g class="node" transform="translate(4 586)"><circle fill="#ffffa0" stroke="#000" cx="611.5" cy="-148" r="18"/><text text-anchor="middle" x="611.5" y="-144.9" font-family="Lato" font-size="12">1</text></g><g class="edge" transform="translate(4 586)"><path fill="none" stroke="#000" d="M175.933-276.389C186.878-237.557 219.053-148 283-148h303.28"/><path stroke="#000" d="M593.336-148l-7-3.15 3.5 3.15h-3.5 3.5l-3.5 3.15 7-3.15h0z"/><text x="371.5" y="-151.4" font-family="Lato" font-size="12">a &amp; b</text></g><g class="edge" transform="translate(4 586)"><path fill="none" stroke="#000" d="M274.021-309.916C271.68-320.15 274.671-330 283-330c6.376 0 9.625 5.774 9.747 13.073"/><path stroke="#000" d="M291.979-309.916l3.893-6.615-3.512 3.136.38-3.48h0l-.38 3.48-2.75-3.822 2.369 7.301h0z"/><text x="264.5" y="-333.4" font-family="Lato" font-size="12">a &amp; !b</text></g><g class="node" transform="translate(4 586)"><circle fill="#ffffa0" stroke="#000" cx="387.5" cy="-374" r="18"/><text text-anchor="middle" x="387.5" y="-370.9" font-family="Lato" font-size="12">2</text></g><g class="edge" transform="translate(4 586)"><path fill="none" stroke="#000" d="M297.53-305.124c18.172-13.91 49.376-37.799 69.84-53.465"/><path stroke="#000" d="M373.093-362.97l-7.473 1.753 4.694.374-2.78 2.127h0l2.78-2.127-.864 4.629 3.643-6.757h0z"/><text x="319" y="-348.4" font-family="Lato" font-size="12">a &amp; b</text></g><g class="node" transform="translate(4 586)"><circle fill="#ffffa0" stroke="#000" cx="497.5" cy="-228" r="18"/><text text-anchor="middle" x="497.5" y="-224.9" font-family="Lato" font-size="12">9</text></g><g class="edge" transform="translate(4 586)"><path fill="none" stroke="#000" d="M299.738-287.14c6.03 2.377 12.912 4.985 19.262 7.14 54.36 18.449 119.342 36.361 153.95 45.579"/><path stroke="#000" d="M479.859-232.59l-5.959-4.838 2.576 3.941-3.383-.897h0l3.383.897-4.19 2.148 7.573-1.25h0z"/><text x="369" y="-267.4" font-family="Lato" font-size="12">a &amp; !b</text></g><g class="edge" transform="translate(4 586)"><path fill="none" stroke="#000" d="M1049.547-440.027C1031.27-460.72 993.329-497 952-497H171.5c-48.16 0-85.504 50.498-103.567 80.777"/><path stroke="#000" d="M64.375-410.094l6.239-4.471-4.482 1.445 1.758-3.027h0l-1.758 3.026-.966-4.608-.791 7.635h0z"/><text x="534" y="-500.4" font-family="Lato" font-size="12">!a &amp; !b</text></g><g class="node" transform="translate(4 586)"><circle fill="#ffffa0" stroke="#000" cx="952" cy="-145" r="18"/><text text-anchor="middle" x="952" y="-141.9" font-family="Lato" font-size="12">7</text></g><g class="edge" transform="translate(4 586)"><path fill="none" stroke="#000" d="M1054.433-409.07l-93.195 240.255"/><path stroke="#000" d="M958.654-162.155l5.469-5.387-4.203 2.124 1.266-3.263h0l-1.266 3.263-1.67-4.402.404 7.665h0z"/><text x="988" y="-330.4" font-family="Lato" font-size="12">!a &amp; b</text></g><g class="edge" transform="translate(4 586)"><path fill="none" stroke="#000" d="M609.624-129.903C606.404-108.587 597.784-73.718 575-55c-27.045 22.22-42.498 14-77.5 14h-326C102.474-41 68.12-287.89 58.723-368.72"/><path stroke="#000" d="M57.89-376.01l-2.335 7.313 2.733-3.835.397 3.477h0l-.397-3.477 3.526 3.12-3.923-6.597h0z"/><text x="319" y="-44.4" font-family="Lato" font-size="12">a &amp; b</text></g><g class="edge" transform="translate(4 586)"><path fill="none" stroke="#000" d="M619.772-131.631C626.049-120.926 635.694-107.569 648-100c43.883 26.99 62.694 16.314 114 21 68.792 6.283 94.748 14.51 154-21 9.164-5.492 16.946-14.231 22.905-22.554"/><path stroke="#000" d="M943.1-128.776l-6.525 4.043 4.568-1.141-1.956 2.902h0l1.957-2.902.655 4.663 1.3-7.565h0z"/><text x="766.5" y="-82.4" font-family="Lato" font-size="12">a &amp; b</text></g><g class="node" transform="translate(4 586)"><circle fill="#ffffa0" stroke="#000" cx="723.5" cy="-334" r="18"/><text text-anchor="middle" x="723.5" y="-330.9" font-family="Lato" font-size="12">6</text></g><g class="edge" transform="translate(4 586)"><path fill="none" stroke="#000" d="M614.922-166.05c4.84-22.534 15.156-61.675 33.078-90.95 14.842-24.244 38.638-46.817 55.545-61.171"/><path stroke="#000" d="M708.991-322.715l-7.393 2.065 4.706.177-2.688 2.242h0l2.688-2.242-.67 4.66 3.357-6.902h0z"/><text x="648" y="-303.4" font-family="Lato" font-size="12">a &amp; !b</text></g><g class="edge" transform="translate(4 586)"><path fill="none" stroke="#000" d="M947.392-127.51C936.061-88.944 902.99 0 839 0H171.5C125.004 0 113.742-26.901 92-68c-27.562-52.1-34.089-233.126-35.578-300.488"/><path stroke="#000" d="M56.272-375.756l-3.004 7.064 3.076-3.565.073 3.5h0l-.073-3.5 3.222 3.434-3.294-6.933h0z"/><text x="479" y="-3.4" font-family="Lato" font-size="12">!a &amp; b</text></g><g class="edge" transform="translate(4 586)"><path fill="none" stroke="#000" d="M947.68-127.372C942.795-111.457 933.187-88.783 916-77c-21.78 14.932-32.64 5.442-59 7-183.944 10.874-230.234-9-414.5-9H283c-84.505 0-105.047-132.51-109.973-189.473"/><path stroke="#000" d="M172.453-275.67l-2.583 7.229 2.862-3.74.278 3.49h0l-.278-3.49 3.418 3.24-3.697-6.728h0z"/><text x="534" y="-81.4" font-family="Lato" font-size="12">!a &amp; !b</text></g><g class="edge" transform="translate(4 586)"><path fill="none" stroke="#000" d="M966.08-156.426c16.872-14.528 44.65-41.271 58.92-70.574 14.81-30.412 27.721-127.787 33.201-174.088"/><path stroke="#000" d="M1059.016-408.063l-3.941 6.587 3.535-3.11-.406 3.476h0l.406-3.477 2.722 3.842-2.316-7.318h0z"/><text x="990.5" y="-230.4" font-family="Lato" font-size="12">a &amp; b</text></g><g class="edge" transform="translate(4 586)"><path fill="none" stroke="#000" d="M933.834-144.734c-47.17.62-177.42 1.88-285.834-1.266a588.688 588.688 0 01-11.233-.446"/><path stroke="#000" d="M629.687-146.819l6.824 3.514-3.33-3.33 3.496.184h0l-3.495-.184 3.66-2.962-7.155 2.778h0z"/><text x="762" y="-148.4" font-family="Lato" font-size="12">!a &amp; !b</text></g><g class="edge" transform="translate(4 586)"><path fill="none" stroke="#000" d="M939.419-157.951C919.837-176.652 880.034-209 839-209H611.5c-31.141 0-66.424-6.983-89.38-12.483"/><path stroke="#000" d="M515.12-223.206l6.044 4.732-2.645-3.895 3.398.836h0l-3.399-.836 4.152-2.222-7.55 1.386h0z"/><text x="707.5" y="-212.4" font-family="Lato" font-size="12">a &amp; b</text></g><g class="edge" transform="translate(4 586)"><path fill="none" stroke="#000" d="M710.649-346.839C686.566-369.88 631.916-417.479 575-435c-64.14-19.745-85.821-15.988-151 0-95.278 23.372-192.207 93.205-232.763 124.962"/><path stroke="#000" d="M185.669-305.639l7.445-1.868-4.699-.302 2.746-2.17h0l-2.746 2.17.793-4.641-3.54 6.811h0z"/><text x="426.5" y="-446.4" font-family="Lato" font-size="12">a &amp; b</text></g><g class="edge" transform="translate(4 586)"><path fill="none" stroke="#000" d="M705.443-335.553C671.712-338.512 596.853-345.348 534-353c-42.794-5.21-92.422-12.611-121.544-17.094"/><path stroke="#000" d="M405.51-371.167l6.437 4.182-2.978-3.647 3.46.534h0l-3.46-.534 3.94-2.579-7.399 2.044h0z"/><text x="536" y="-356.4" font-family="Lato" font-size="12">a &amp; !b</text></g><g class="node" transform="translate(4 586)"><circle fill="#ffffa0" stroke="#000" cx="839" cy="-277" r="18"/><text text-anchor="middle" x="839" y="-273.9" font-family="Lato" font-size="12">5</text></g><g class="edge" transform="translate(4 586)"><path fill="none" stroke="#000" d="M740.75-328.321C757.2-322.615 782.442-313.093 803-302c5.18 2.795 10.515 6.183 15.44 9.55"/><path stroke="#000" d="M824.416-288.24l-3.91-6.607 1.048 4.59-2.861-2.014h0l2.861 2.015-4.675.56 7.537 1.455h0z"/><text x="764" y="-323.4" font-family="Lato" font-size="12">a &amp; !b</text></g><g class="edge" transform="translate(4 586)"><path fill="none" stroke="#000" d="M369.33-376.21C327.642-381.153 221.86-392.992 133-397c-18.204-.82-22.793-.757-41 0-3.59.15-7.375.382-11.089.653"/><path stroke="#000" d="M73.927-395.79l7.228 2.584-3.74-2.862 3.49-.278h0l-3.49.278 3.239-3.418-6.727 3.697h0z"/><text x="210" y="-395.4" font-family="Lato" font-size="12">a &amp; !b</text></g><g class="edge" transform="translate(4 586)"><path fill="none" stroke="#000" d="M403.405-382.837c6.243-3.083 13.582-6.248 20.595-8.163 154.435-42.176 198.41-35 358.5-35H1035.818"/><path stroke="#000" d="M1042.87-426l-7-3.15 3.5 3.15h-3.5 3.5l-3.5 3.15 7-3.15h0z"/><text x="703" y="-429.4" font-family="Lato" font-size="12">!a &amp; !b</text></g><g class="edge" transform="translate(4 586)"><path fill="none" stroke="#000" d="M405.779-375.608C427.592-377.385 465.178-380 497.5-380h226c40.17 0 50.469 15.236 79.5 43 10.889 10.414 19.677 24.82 25.844 36.907"/><path stroke="#000" d="M831.997-293.657l-.25-7.672-1.29 4.53-1.54-3.144h0l1.54 3.143-4.368-1.757 5.908 4.9h0z"/><text x="593" y="-383.4" font-family="Lato" font-size="12">a &amp; !b</text></g><g class="edge" transform="translate(4 586)"><path fill="none" stroke="#000" d="M398.45-359.467l83.918 111.382"/><path stroke="#000" d="M486.595-242.474l-1.697-7.486-.41 4.69-2.105-2.795h0l2.106 2.796-4.622-.9 6.728 3.695h0z"/><text x="424" y="-325.4" font-family="Lato" font-size="12">!a &amp; b</text></g><g class="edge" transform="translate(4 586)"><path fill="none" stroke="#000" d="M821.028-279.463C792.338-283.26 734.39-290.38 685-293c-142.314-7.55-313.366-3.692-376.763-1.821"/><path stroke="#000" d="M301.048-294.604l7.092 2.937-3.593-3.043 3.498-.106h0l-3.498.106 3.403-3.254-6.902 3.36h0z"/><text x="536" y="-301.4" font-family="Lato" font-size="12">a &amp; !b</text></g><g class="edge" transform="translate(4 586)"><path fill="none" stroke="#000" d="M829.505-261.497C814.455-238.375 782.813-195.303 744-174c-33.956 18.637-79.278 24.048-107.148 25.541"/><path stroke="#000" d="M629.82-148.146l7.133 2.836-3.637-2.992 3.496-.155h0l-3.496.155 3.356-3.302-6.853 3.458h0z"/><text x="705" y="-177.4" font-family="Lato" font-size="12">!a &amp; b</text></g><g class="edge" transform="translate(4 586)"><path fill="none" stroke="#000" d="M855.348-268.886C872.388-259.734 898.94-243.427 916-223c13.217 15.826 22.658 37.307 28.546 53.72"/><path stroke="#000" d="M946.853-162.589l.697-7.644-1.838 4.336-1.14-3.31h0l1.14 3.31-4.118-2.283 5.259 5.591h0z"/><text x="875" y="-261.4" font-family="Lato" font-size="12">!a &amp; !b</text></g><g class="edge" transform="translate(4 586)"><path fill="none" stroke="#000" d="M829.425-292.541C826.73-302.91 829.922-313 839-313c6.95 0 10.45 5.915 10.5 13.34"/><path stroke="#000" d="M848.575-292.541l4.025-6.536-3.574 3.065.45-3.471h0l-.45 3.47-2.673-3.876 2.222 7.348h0z"/><text x="818.5" y="-316.4" font-family="Lato" font-size="12">!a &amp; !b</text></g><g class="edge" transform="translate(4 586)"><path fill="none" stroke="#000" d="M821.64-271.793C793.325-263.535 735.3-247.594 685-240c-57.513 8.684-125.876 11.092-162.07 11.754"/><path stroke="#000" d="M515.71-228.13l7.05 3.037-3.55-3.093 3.5-.056h0l-3.5.056 3.449-3.206-6.948 3.263h0z"/><text x="648" y="-243.4" font-family="Lato" font-size="12">!a &amp; b</text></g><g class="edge" transform="translate(4 586)"><path fill="none" stroke="#000" d="M479.127-226.644C453.73-225.357 406.755-225.107 369-237c-25.563-8.053-50.623-26.164-67.035-39.825"/><path stroke="#000" d="M296.325-281.63l3.286 6.938-.621-4.668 2.664 2.27h0l-2.664-2.27 4.707-.128-7.372-2.142h0z"/><text x="369" y="-240.4" font-family="Lato" font-size="12">a &amp; !b</text></g><g class="edge" transform="translate(4 586)"><path fill="none" stroke="#000" d="M507.096-212.299C513.687-202.553 523.181-190.34 534-182c15.843 12.213 36.755 21.052 52.863 26.652"/><path stroke="#000" d="M593.89-153.003l-5.643-5.204 2.323 4.096-3.32-1.108h0l3.32 1.108-4.317 1.88 7.637-.772h0z"/><text x="536" y="-185.4" font-family="Lato" font-size="12">!a &amp; b</text></g></g></svg>