<?xml-stylesheet href="spot.css" type="text/css"?><svg width="496" height="170pt" viewBox="0 0 372 169.61" xmlns="http://www.w3.org/2000/svg"><g class="graph"><path fill="#fff" stroke="transparent" d="M0 169.613V0h372v169.613H0z"/><text x="160.5" y="-135.013" font-family="Lato" font-size="12" transform="translate(4 165.613)">[Büchi]</text><g class="node" transform="translate(4 165.613)"><circle fill="#ffffa0" stroke="#000" cx="56" cy="-55.213" r="18"/><text text-anchor="middle" x="56" y="-52.113" font-family="Lato" font-size="12">0</text></g><g class="edge" transform="translate(4 165.613)"><path fill="none" stroke="#000" d="M1.123-55.213h29.801"/><path stroke="#000" d="M37.98-55.213l-7-3.15 3.5 3.15h-3.5 3.5l-3.5 3.15 7-3.15h0z"/></g><g class="node" transform="translate(4 165.613)"><circle fill="#ffffa0" stroke="#000" cx="336" cy="-47.213" r="18"/><circle fill="none" stroke="#000" cx="336" cy="-47.213" r="22"/><text text-anchor="middle" x="336" y="-44.113" font-family="Lato" font-size="12">1</text></g><g class="edge" transform="translate(4 165.613)"><path fill="none" stroke="#000" d="M71.177-65.481c20.471-13.169 58.558-35.31 94.823-43.732 24.244-5.63 31.88-6.135 56 0 33.729 8.578 68.262 29.38 90.347 44.529"/><path stroke="#000" d="M318.235-60.576l-3.938-6.589 1.068 4.586-2.87-2.003h0l2.87 2.003-4.673.58 7.543 1.423h0z"/><text x="166" y="-116.613" font-family="Lato" font-size="12">!p0 &amp; !p1</text></g><g class="node" transform="translate(4 165.613)"><circle fill="#ffffa0" stroke="#000" cx="194" cy="-47.213" r="18"/><circle fill="none" stroke="#000" cx="194" cy="-47.213" r="22"/><text text-anchor="middle" x="194" y="-44.113" font-family="Lato" font-size="12">2</text></g><g class="edge" transform="translate(4 165.613)"><path fill="none" stroke="#000" d="M73.994-54.661c18.555.623 48.32 1.774 74.006 3.448 5.512.36 11.39.815 17.036 1.29"/><path stroke="#000" d="M172.02-49.32l-6.702-3.741 3.216 3.44-3.487-.302h0l3.487.302-3.76 2.836 7.247-2.534h0z"/><text x="92" y="-56.613" font-family="Lato" font-size="12">!p0 &amp; !p1</text></g><g class="edge" transform="translate(4 165.613)"><path fill="none" stroke="#000" d="M316.071-36.916C293.823-26.05 256.412-9.624 222-3.213c-24.468 4.558-31.393 3.736-56 0-34.05-5.17-43.607-6.8-74-23-6.033-3.216-12.037-7.503-17.364-11.792"/><path stroke="#000" d="M69.153-42.609l3.335 6.914-.655-4.663 2.68 2.25h0l-2.68-2.25 4.706-.162-7.386-2.089h0z"/><text x="170.5" y="-6.613" font-family="Lato" font-size="12">p0 &amp; p1</text></g><g class="edge" transform="translate(4 165.613)"><path fill="none" stroke="#000" d="M324.047-65.729C321.39-76.796 325.375-87.213 336-87.213c8.3 0 12.548 6.358 12.743 14.417"/><path stroke="#000" d="M347.953-65.729l3.908-6.606-3.52 3.128.39-3.478h0l-.39 3.478-2.74-3.828 2.352 7.306h0z"/><text x="308" y="-90.613" font-family="Lato" font-size="12">!p0 &amp; !p1</text></g><g class="edge" transform="translate(4 165.613)"><path fill="none" stroke="#000" d="M172.967-39.838C152.112-33.614 119.4-26.805 92-34.213c-5.186-1.402-10.392-3.757-15.17-6.395"/><path stroke="#000" d="M70.62-44.317l4.394 6.294-1.389-4.499 3.005 1.795h0l-3.005-1.795 4.62-.91-7.624-.885h0z"/><text x="96.5" y="-37.613" font-family="Lato" font-size="12">p0 &amp; p1</text></g><g class="edge" transform="translate(4 165.613)"><path fill="none" stroke="#000" d="M216.188-47.213h90.547"/><path stroke="#000" d="M313.968-47.213l-7-3.15 3.5 3.15h-3.5 3.5l-3.5 3.15 7-3.15h0z"/><text x="240" y="-50.613" font-family="Lato" font-size="12">!p0 &amp; !p1</text></g><g class="edge" transform="translate(4 165.613)"><path fill="none" stroke="#000" d="M181.104-65.313c-3.11-11.221 1.189-21.9 12.896-21.9 9.146 0 13.77 6.518 13.873 14.72"/><path stroke="#000" d="M206.896-65.313l4.065-6.511-3.593 3.043.472-3.468h0l-.472 3.468-2.65-3.893 2.178 7.36h0z"/><text x="168" y="-90.613" font-family="Lato" font-size="12">p0 &amp; !p1</text></g></g></svg>