<?xml-stylesheet href="spot.css" type="text/css"?><svg width="631pt" height="266pt" viewBox="0 0 631 266" xmlns="http://www.w3.org/2000/svg"><g class="graph"><path fill="#fff" stroke="transparent" d="M0 266V0h631v266H0z"/><text x="207.5" y="-245.4" font-family="Lato" font-size="12" transform="translate(4 262)">(Fin(</text><text x="233.5" y="-245.4" font-family="Lato" font-size="12" fill="#1f78b4" transform="translate(4 262)">⓿</text><text x="246.5" y="-245.4" font-family="Lato" font-size="12" transform="translate(4 262)">) | Inf(</text><text x="283.5" y="-245.4" font-family="Lato" font-size="12" fill="#ff4da0" transform="translate(4 262)">❶</text><text x="294.5" y="-245.4" font-family="Lato" font-size="12" transform="translate(4 262)">)) &amp; (Fin(</text><text x="346.5" y="-245.4" font-family="Lato" font-size="12" fill="#ff7f00" transform="translate(4 262)">❷</text><text x="357.5" y="-245.4" font-family="Lato" font-size="12" transform="translate(4 262)">) | Inf(</text><text x="394.5" y="-245.4" font-family="Lato" font-size="12" fill="#6a3d9a" transform="translate(4 262)">❸</text><text x="405.5" y="-245.4" font-family="Lato" font-size="12" transform="translate(4 262)">))</text><text x="280.5" y="-233.4" font-family="Lato" font-size="12" transform="translate(4 262)">[Streett 2]</text><g class="node" transform="translate(4 262)"><path fill="#ffffa0" stroke="#000" d="M62-81H50c-6 0-12 6-12 12v12c0 6 6 12 12 12h12c6 0 12-6 12-12v-12c0-6-6-12-12-12"/><text text-anchor="middle" x="56" y="-59.9" font-family="Lato" font-size="12">0</text></g><g class="edge" transform="translate(4 262)"><path fill="none" stroke="#000" d="M1.123-63h29.801"/><path stroke="#000" d="M37.98-63l-7-3.15 3.5 3.15h-3.5 3.5l-3.5 3.15 7-3.15h0z"/></g><g class="node" transform="translate(4 262)"><path fill="#ffffa0" stroke="#000" d="M202-116h-16c-6 0-12 6-12 12v12c0 6 6 12 12 12h16c6 0 12-6 12-12v-12c0-6-6-12-12-12"/><text x="190" y="-101.4" font-family="Lato" font-size="12">2</text><text x="182" y="-89.4" font-family="Lato" font-size="12" fill="#1f78b4">⓿</text><text x="195" y="-89.4" font-family="Lato" font-size="12" fill="#ff7f00">❷</text></g><g class="edge" transform="translate(4 262)"><path fill="none" stroke="#000" d="M74.041-67.576l92.667-23.502"/><path stroke="#000" d="M173.712-92.854l-7.56-1.333 4.167 2.193-3.392.86h0l3.392-.86-2.618 3.914 6.01-4.774h0z"/><text x="92" y="-88.4" font-family="Lato" font-size="12">!p0 &amp; !p1</text></g><g class="node" transform="translate(4 262)"><path fill="#ffffa0" stroke="#000" d="M344-90h-12c-6 0-12 6-12 12v12c0 6 6 12 12 12h12c6 0 12-6 12-12v-12c0-6-6-12-12-12"/><text text-anchor="middle" x="338" y="-68.9" font-family="Lato" font-size="12">1</text></g><g class="edge" transform="translate(4 262)"><path fill="none" stroke="#000" d="M74.198-57.09C114.387-44.97 213.388-20.287 292-43c7.638-2.207 15.23-6.1 21.978-10.332"/><path stroke="#000" d="M319.915-57.274l-7.574 1.248 4.659.688-2.916 1.936h0L317-55.338l-1.174 4.56 4.09-6.496h0z"/><text x="166" y="-39.4" font-family="Lato" font-size="12">!p0 &amp; !p1</text></g><g class="node" transform="translate(4 262)"><path fill="#ffffa0" stroke="#000" d="M603-185h-12c-6 0-12 6-12 12v12c0 6 6 12 12 12h12c6 0 12-6 12-12v-12c0-6-6-12-12-12"/><text text-anchor="middle" x="597" y="-163.9" font-family="Lato" font-size="12">3</text></g><g class="edge" transform="translate(4 262)"><path fill="none" stroke="#000" d="M62.642-81.094C78.587-120.989 123.051-213 194-213h283c34.874 0 71.897 17.148 95.444 30.505"/><path stroke="#000" d="M578.715-178.846l-4.466-6.243 1.441 4.482-3.025-1.76h0l3.025 1.76-4.61.963 7.635.798h0z"/><text x="310" y="-216.4" font-family="Lato" font-size="12">!p0 &amp; !p1</text></g><g class="edge" transform="translate(4 262)"><path fill="none" stroke="#000" d="M180.975-116.153C178.97-125.539 183.313-134 194-134c7.849 0 12.275 4.563 13.28 10.705"/><path stroke="#000" d="M207.025-116.153l3.397-6.883-3.272 3.386.124-3.498h0l-.124 3.498-3.024-3.61 2.9 7.107h0z"/><text x="166" y="-137.4" font-family="Lato" font-size="12">!p0 &amp; !p1</text></g><g class="edge" transform="translate(4 262)"><path fill="none" stroke="#000" d="M214.023-94.385l98.837 17.846"/><path stroke="#000" d="M319.963-75.257l-6.33-4.343 2.885 3.721-3.444-.622h0l3.444.622-4.004 2.478 7.449-1.856h0z"/><text x="240" y="-92.4" font-family="Lato" font-size="12">!p0 &amp; p1</text></g><g class="node" transform="translate(4 262)"><path fill="#ffffa0" stroke="#000" d="M344-36h-12c-6 0-12 6-12 12v12c0 6 6 12 12 12h12c6 0 12-6 12-12v-12c0-6-6-12-12-12"/><text text-anchor="middle" x="338" y="-14.9" font-family="Lato" font-size="12">4</text></g><g class="edge" transform="translate(4 262)"><path fill="none" stroke="#000" d="M214.383-80.959C222.138-74.892 231.223-68.266 240-63c23.798 14.28 52.896 27.111 73.176 35.383"/><path stroke="#000" d="M319.695-24.99l-5.316-5.538 2.07 4.23-3.247-1.309h0l3.247 1.308-4.424 1.614 7.67-.306h0z"/><text x="242.5" y="-66.4" font-family="Lato" font-size="12">p0 &amp; p1</text></g><g class="node" transform="translate(4 262)"><path fill="#ffffa0" stroke="#000" d="M484-116h-14c-6 0-12 6-12 12v12c0 6 6 12 12 12h14c6 0 12-6 12-12v-12c0-6-6-12-12-12"/><text x="473" y="-101.4" font-family="Lato" font-size="12">5</text><text x="466" y="-89.4" font-family="Lato" font-size="12" fill="#ff4da0">❶</text><text x="477" y="-89.4" font-family="Lato" font-size="12" fill="#ff7f00">❷</text></g><g class="edge" transform="translate(4 262)"><path fill="none" stroke="#000" d="M356.035-65.625C376.995-59.283 412.252-51.955 440-63c6.654-2.649 12.802-7.125 18.097-12.008"/><path stroke="#000" d="M463.096-79.973l-7.186 2.698 4.703-.231-2.483 2.466h0l2.483-2.466-.264 4.701 2.747-7.168h0z"/><text x="386" y="-66.4" font-family="Lato" font-size="12">!p0 &amp; p1</text></g><g class="edge" transform="translate(4 262)"><path fill="none" stroke="#000" d="M578.865-164.745C533.533-159.104 411.626-143.907 310-131c-31.117 3.952-40.075-.4-70 9-6.437 2.022-13.046 4.916-19.174 7.998"/><path stroke="#000" d="M214.395-110.617l7.662-.474-4.565-1.156 3.097-1.63h0l-3.097 1.63 1.63-4.418-4.727 6.048h0z"/><text x="384" y="-150.4" font-family="Lato" font-size="12">!p0 &amp; !p1</text></g><g class="edge" transform="translate(4 262)"><path fill="none" stroke="#000" d="M586.507-185.153C584.893-194.539 588.391-203 597-203c6.322 0 9.888 4.563 10.697 10.705"/><path stroke="#000" d="M607.493-185.153l3.349-6.907-3.25 3.409.101-3.499h0l-.1 3.499-3.049-3.589 2.949 7.087h0z"/><text x="571" y="-206.4" font-family="Lato" font-size="12">!p0 &amp; p1</text></g><g class="edge" transform="translate(4 262)"><path fill="none" stroke="#000" d="M457.992-104.167c-5.72-1.575-12.055-3.045-17.992-3.833-88.12-11.698-111.491-6.259-200 2-6.149.574-12.712 1.515-18.899 2.553"/><path stroke="#000" d="M214.06-102.199l7.442 1.88-3.996-2.49 3.446-.612h0l-3.446.611 2.897-3.712-6.343 4.323h0z"/><text x="310" y="-117.4" font-family="Lato" font-size="12">!p0 &amp; !p1</text></g><g class="edge" transform="translate(4 262)"><path fill="none" stroke="#000" d="M457.932-94.433L363.08-76.691"/><path stroke="#000" d="M356.172-75.399l7.46 1.81-4.02-2.454 3.44-.643h0l-3.44.643 2.861-3.74-6.301 4.384h0z"/><text x="388.5" y="-94.4" font-family="Lato" font-size="12">p0 &amp; p1</text></g><g class="edge" transform="translate(4 262)"><path fill="none" stroke="#000" d="M496.207-106.403C513.582-114.282 539.64-126.799 561-140c4.019-2.484 8.147-5.3 12.11-8.154"/><path stroke="#000" d="M578.764-152.328l-7.502 1.623 4.687.456-2.817 2.078h0l2.817-2.078-.946 4.613 3.761-6.692h0z"/><text x="514" y="-143.4" font-family="Lato" font-size="12">p0 &amp; p1</text></g><g class="edge" transform="translate(4 262)"><path fill="none" stroke="#000" d="M319.82-16.088C288.327-13.154 221.654-8.612 166-16c-33.773-4.483-43.378-5.067-74-20-4.055-1.978-8.113-4.437-11.965-7.06"/><path stroke="#000" d="M74.18-47.271l3.843 6.644-1.002-4.6 2.841 2.043h0l-2.841-2.044 4.68-.513-7.522-1.53h0z"/><text x="166" y="-19.4" font-family="Lato" font-size="12">!p0 &amp; !p1</text></g><g class="edge" transform="translate(4 262)"><path fill="none" stroke="#000" d="M356.24-17.827C378.033-18.484 414.716-22.416 440-40c11.831-8.228 20.729-21.584 26.83-33.407"/><path stroke="#000" d="M469.933-79.775l-5.898 4.913 4.365-1.766-1.533 3.146h0l1.533-3.146 1.299 4.526.234-7.673h0z"/><text x="386" y="-43.4" font-family="Lato" font-size="12">!p0 &amp; p1</text></g></g></svg>