<?xml-stylesheet href="spot.css" type="text/css"?><svg width="353pt" height="164pt" viewBox="0 0 353 164" xmlns="http://www.w3.org/2000/svg"><g class="graph"><path fill="#fff" stroke="transparent" d="M0 164V0h353v164H0z"/><text x="108" y="-143.4" font-family="Lato" font-size="12" transform="translate(4 160)">Inf(</text><text x="129" y="-143.4" font-family="Lato" font-size="12" fill="#1f78b4" transform="translate(4 160)">⓿</text><text x="142" y="-143.4" font-family="Lato" font-size="12" transform="translate(4 160)">)&amp;Inf(</text><text x="176" y="-143.4" font-family="Lato" font-size="12" fill="#ff4da0" transform="translate(4 160)">❶</text><text x="187" y="-143.4" font-family="Lato" font-size="12" transform="translate(4 160)">)&amp;Inf(</text><text x="221" y="-143.4" font-family="Lato" font-size="12" fill="#ff7f00" transform="translate(4 160)">❷</text><text x="232" y="-143.4" font-family="Lato" font-size="12" transform="translate(4 160)">)</text><text x="130.5" y="-131.4" font-family="Lato" font-size="12" transform="translate(4 160)">[gen. Büchi 3]</text><g class="node" transform="translate(4 160)"><circle fill="#ffffa0" stroke="#000" cx="56" cy="-18" r="18"/><text text-anchor="middle" x="56" y="-14.9" font-family="Lato" font-size="12">0</text></g><g class="edge" transform="translate(4 160)"><path fill="none" stroke="#000" d="M1.123-18h29.801"/><path stroke="#000" d="M37.98-18l-7-3.15 3.5 3.15h-3.5 3.5l-3.5 3.15 7-3.15h0z"/></g><g class="edge" transform="translate(4 160)"><path fill="none" stroke="#000" d="M49.62-35.037C48.32-44.857 50.446-54 56-54c4.166 0 6.404 5.142 6.713 11.857"/><path stroke="#000" d="M62.38-35.037l3.474-6.845-3.31 3.349.164-3.497h0l-.165 3.497-2.982-3.644 2.818 7.14h0z"/><text x="28" y="-70.4" font-family="Lato" font-size="12">!p0 &amp; !p1</text><text x="50.5" y="-57.4" font-family="Lato" font-size="12" fill="#ff7f00">❷</text></g><g class="node" transform="translate(4 160)"><circle fill="#ffffa0" stroke="#000" cx="189.5" cy="-64" r="18"/><text text-anchor="middle" x="189.5" y="-60.9" font-family="Lato" font-size="12">1</text></g><g class="edge" transform="translate(4 160)"><path fill="none" stroke="#000" d="M73.18-23.92l92.48-31.866"/><path stroke="#000" d="M172.386-58.103l-7.644-.698 4.335 1.838-3.309 1.14h0l3.31-1.14-2.284 4.118 5.592-5.258h0z"/><text x="92" y="-52.4" font-family="Lato" font-size="12">!p0 &amp; !p1</text></g><g class="edge" transform="translate(4 160)"><path fill="none" stroke="#000" d="M178.587-78.417C174.777-89.166 178.414-100 189.5-100c8.66 0 12.776 6.612 12.344 14.631"/><path stroke="#000" d="M200.413-78.417l4.497-6.22-3.791 2.792.706-3.428h0l-.706 3.428-2.38-4.063 1.674 7.491h0z"/><text x="163.5" y="-115.4" font-family="Lato" font-size="12">!p0 &amp; p1</text><text x="177.5" y="-103.4" font-family="Lato" font-size="12" fill="#1f78b4">⓿</text><text x="190.5" y="-103.4" font-family="Lato" font-size="12" fill="#ff4da0">❶</text></g><g class="node" transform="translate(4 160)"><circle fill="#ffffa0" stroke="#000" cx="319" cy="-35" r="18"/><text text-anchor="middle" x="319" y="-31.9" font-family="Lato" font-size="12">2</text></g><g class="edge" transform="translate(4 160)"><path fill="none" stroke="#000" d="M207.295-66.778C226.537-69.067 257.83-70.69 283-62c6.157 2.126 12.122 5.73 17.367 9.626"/><path stroke="#000" d="M306.162-47.74l-3.5-6.831.767 4.646-2.734-2.187h0l2.734 2.187-4.701.273 7.434 1.913h0z"/><text x="231" y="-84.4" font-family="Lato" font-size="12">!p0 &amp; p1</text><text x="251.5" y="-71.4" font-family="Lato" font-size="12" fill="#ff4da0">❶</text></g><g class="edge" transform="translate(4 160)"><path fill="none" stroke="#000" d="M301.897-29.342C295.955-27.492 289.22-25.522 283-24c-30.736 7.524-38.49 10.099-70 13-20.8 1.915-26.122.664-47 0-29.04-.923-62.328-3.214-84.61-4.925"/><path stroke="#000" d="M74.279-16.48l6.733 3.685-3.244-3.413 3.49.273h0l-3.49-.273 3.735-2.868-7.224 2.596h0z"/><text x="166" y="-27.4" font-family="Lato" font-size="12">p0 &amp; p1</text><text x="183" y="-14.4" font-family="Lato" font-size="12" fill="#1f78b4">⓿</text></g><g class="edge" transform="translate(4 160)"><path fill="none" stroke="#000" d="M301.263-30.788C283.096-27.295 254.296-24.06 231-32c-8.612-2.935-16.828-8.46-23.644-14.103"/><path stroke="#000" d="M201.983-50.817l3.184 6.984-.553-4.676 2.63 2.308h0l-2.63-2.308 4.708-.06-7.34-2.248h0z"/><text x="231" y="-48.4" font-family="Lato" font-size="12">!p0 &amp; p1</text><text x="250.5" y="-35.4" font-family="Lato" font-size="12" fill="#1f78b4">⓿</text></g><g class="edge" transform="translate(4 160)"><path fill="none" stroke="#000" d="M308.627-49.792C305.249-60.416 308.707-71 319-71c7.88 0 11.755 6.204 11.622 13.88"/><path stroke="#000" d="M329.373-49.792l4.281-6.371-3.693 2.921.588-3.45h0l-.588 3.45-2.517-3.98 1.93 7.43h0z"/><text x="293" y="-87.4" font-family="Lato" font-size="12">!p0 &amp; p1</text><text x="312.5" y="-74.4" font-family="Lato" font-size="12" fill="#1f78b4">⓿</text></g></g></svg>