<?xml-stylesheet href="spot.css" type="text/css"?><svg width="1186pt" height="355pt" viewBox="0 0 1186 355" xmlns="http://www.w3.org/2000/svg"><g class="graph"><path fill="#fff" stroke="transparent" d="M0 355V0h1186v355H0z"/><text x="486" y="-334.4" font-family="Lato" font-size="12" transform="translate(4 351)">Inf(</text><text x="507" y="-334.4" font-family="Lato" font-size="12" fill="#1f78b4" transform="translate(4 351)">⓿</text><text x="520" y="-334.4" font-family="Lato" font-size="12" transform="translate(4 351)">) | (Fin(</text><text x="562" y="-334.4" font-family="Lato" font-size="12" fill="#ff4da0" transform="translate(4 351)">❶</text><text x="573" y="-334.4" font-family="Lato" font-size="12" transform="translate(4 351)">) &amp; (Inf(</text><text x="619" y="-334.4" font-family="Lato" font-size="12" fill="#ff7f00" transform="translate(4 351)">❷</text><text x="630" y="-334.4" font-family="Lato" font-size="12" transform="translate(4 351)">) | Fin(</text><text x="667" y="-334.4" font-family="Lato" font-size="12" fill="#6a3d9a" transform="translate(4 351)">❸</text><text x="678" y="-334.4" font-family="Lato" font-size="12" transform="translate(4 351)">)))</text><text x="531.5" y="-322.4" font-family="Lato" font-size="12" transform="translate(4 351)">[parity min even 4]</text><g class="node" transform="translate(4 351)"><path fill="#ffffa0" stroke="#000" d="M62-139H50c-6 0-12 6-12 12v12c0 6 6 12 12 12h12c6 0 12-6 12-12v-12c0-6-6-12-12-12"/><text x="52" y="-124.4" font-family="Lato" font-size="12">0</text><text x="50.5" y="-111.4" font-family="Lato" font-size="12" fill="#ff4da0">❶</text></g><g class="edge" transform="translate(4 351)"><path fill="none" stroke="#000" d="M1.123-121h29.801"/><path stroke="#000" d="M37.98-121l-7-3.15 3.5 3.15h-3.5 3.5l-3.5 3.15 7-3.15h0z"/></g><g class="edge" transform="translate(4 351)"><path fill="none" stroke="#000" d="M49.487-139.153C48.485-148.539 50.657-157 56-157c3.924 0 6.138 4.563 6.64 10.705"/><path stroke="#000" d="M62.513-139.153l3.274-6.943-3.212 3.444.062-3.5h0l-.062 3.5-3.087-3.556 3.025 7.055h0z"/><text x="30" y="-160.4" font-family="Lato" font-size="12">p0 &amp; !p1</text></g><g class="node" transform="translate(4 351)"><path fill="#ffffa0" stroke="#000" d="M200-171h-12c-6 0-12 6-12 12v12c0 6 6 12 12 12h12c6 0 12-6 12-12v-12c0-6-6-12-12-12"/><text x="190" y="-156.4" font-family="Lato" font-size="12">2</text><text x="188.5" y="-143.4" font-family="Lato" font-size="12" fill="#ff7f00">❷</text></g><g class="edge" transform="translate(4 351)"><path fill="none" stroke="#000" d="M74.041-125.183l94.974-22.023"/><path stroke="#000" d="M175.954-148.815l-7.53-1.488 4.12 2.278-3.409.79h0l3.41-.79-2.698 3.86 6.107-4.65h0z"/><text x="92" y="-144.4" font-family="Lato" font-size="12">!p0 &amp; !p1</text></g><g class="node" transform="translate(4 351)"><path fill="#ffffa0" stroke="#000" d="M488-297h-12c-6 0-12 6-12 12v12c0 6 6 12 12 12h12c6 0 12-6 12-12v-12c0-6-6-12-12-12"/><text x="478" y="-282.4" font-family="Lato" font-size="12">8</text><text x="475.5" y="-269.4" font-family="Lato" font-size="12" fill="#1f78b4">⓿</text></g><g class="edge" transform="translate(4 351)"><path fill="none" stroke="#000" d="M71.972-139.29C77.93-145.59 84.962-152.45 92-158c87.738-69.192 113.159-92.718 222-118 49.532-11.505 109.503-8.733 142.731-5.793"/><path stroke="#000" d="M463.796-281.129l-6.675-3.791 3.19 3.464-3.485-.328h0l3.485.328-3.78 2.808 7.264-2.48h0z"/><text x="240" y="-274.4" font-family="Lato" font-size="12">!p0 &amp; !p1</text></g><g class="node" transform="translate(4 351)"><path fill="#ffffa0" stroke="#000" d="M1038-110h-12c-6 0-12 6-12 12v12c0 6 6 12 12 12h12c6 0 12-6 12-12v-12c0-6-6-12-12-12"/><text x="1028" y="-95.4" font-family="Lato" font-size="12">6</text><text x="1025.5" y="-82.4" font-family="Lato" font-size="12" fill="#1f78b4">⓿</text></g><g class="edge" transform="translate(4 351)"><path fill="none" stroke="#000" d="M61.886-102.945C67.585-87.785 77.505-66.36 92-52c36.15 35.81 51.115 52 102 52h706c47.312 0 59.116-16.369 96-46 7.686-6.175 14.726-14.294 20.503-21.99"/><path stroke="#000" d="M1020.663-73.753l-6.651 3.832 4.603-.994-2.05 2.838h0l2.05-2.838.505 4.681 1.543-7.519h0z"/><text x="530" y="-3.4" font-family="Lato" font-size="12">!p0 &amp; p1</text></g><g class="node" transform="translate(4 351)"><path fill="#ffffa0" stroke="#000" d="M346-171h-12c-6 0-12 6-12 12v12c0 6 6 12 12 12h12c6 0 12-6 12-12v-12c0-6-6-12-12-12"/><text x="336" y="-156.4" font-family="Lato" font-size="12">5</text><text x="333.5" y="-143.4" font-family="Lato" font-size="12" fill="#1f78b4">⓿</text></g><g class="edge" transform="translate(4 351)"><path fill="none" stroke="#000" d="M212.196-153h102.353"/><path stroke="#000" d="M321.575-153l-7-3.15 3.5 3.15h-3.5 3.5l-3.5 3.15 7-3.15h0z"/><text x="240" y="-156.4" font-family="Lato" font-size="12">!p0 &amp; !p1</text></g><g class="node" transform="translate(4 351)"><path fill="#ffffa0" stroke="#000" d="M636-255h-12c-6 0-12 6-12 12v12c0 6 6 12 12 12h12c6 0 12-6 12-12v-12c0-6-6-12-12-12"/><text x="626" y="-240.4" font-family="Lato" font-size="12">4</text><text x="623.5" y="-227.4" font-family="Lato" font-size="12" fill="#1f78b4">⓿</text></g><g class="edge" transform="translate(4 351)"><path fill="none" stroke="#000" d="M212.181-160.302c8.388-3.218 18.526-6.895 27.819-9.698 133.993-40.413 301.7-58.935 364.612-64.815"/><path stroke="#000" d="M611.755-235.47l-7.258-2.497 3.773 2.817-3.486.32h0l3.486-.32-3.198 3.456 6.683-3.776h0z"/><text x="386.5" y="-216.4" font-family="Lato" font-size="12">p0 &amp; p1</text></g><g class="edge" transform="translate(4 351)"><path fill="none" stroke="#000" d="M463.669-287.988c-8.246-3.563-18.23-7.231-27.669-9.012-85.69-16.169-112.613-16.514-196 9-74.742 22.87-96.994 35.773-148 95-12.021 13.959-21.207 32.631-27.29 47.463"/><path stroke="#000" d="M62.133-139.024l5.504-5.351-4.216 2.096 1.287-3.255h0l-1.287 3.255-1.642-4.413.354 7.668h0z"/><text x="242" y="-305.4" font-family="Lato" font-size="12">!p0 &amp; p1</text></g><g class="edge" transform="translate(4 351)"><path fill="none" stroke="#000" d="M463.914-276.492C414.242-269.336 276.958-247.67 240-222c-15.792 10.968-27.626 29.27-35.334 44.27"/><path stroke="#000" d="M201.416-171.11l5.912-4.895-4.37 1.754 1.543-3.142h0l-1.543 3.142-1.285-4.53-.257 7.672h0z"/><text x="314" y="-262.4" font-family="Lato" font-size="12">p0 &amp; !p1</text></g><g class="edge" transform="translate(4 351)"><path fill="none" stroke="#000" d="M500.09-270.693c8.37 3.626 18.52 7.719 27.91 10.693 25.697 8.14 55.902 14.575 76.739 18.544"/><path stroke="#000" d="M611.696-240.155l-6.303-4.383 2.862 3.74-3.44-.643h0l3.44.643-4.02 2.453 7.46-1.81h0z"/><text x="530" y="-263.4" font-family="Lato" font-size="12">p0 &amp; !p1</text></g><g class="node" transform="translate(4 351)"><path fill="#ffffa0" stroke="#000" d="M1166-177h-12c-6 0-12 6-12 12v12c0 6 6 12 12 12h12c6 0 12-6 12-12v-12c0-6-6-12-12-12"/><text x="1156" y="-162.4" font-family="Lato" font-size="12">3</text><text x="1153.5" y="-149.4" font-family="Lato" font-size="12" fill="#1f78b4">⓿</text></g><g class="edge" transform="translate(4 351)"><path fill="none" stroke="#000" d="M500.21-280.619C528.121-282.956 583.168-287 630-287h402c57.84 0 98.672 66.157 117.056 103.347"/><path stroke="#000" d="M1152.227-177.068l-.2-7.673-1.319 4.52-1.518-3.154h0l1.518 3.154-4.356-1.787 5.875 4.94h0z"/><text x="802" y="-290.4" font-family="Lato" font-size="12">!p0 &amp; p1</text></g><g class="edge" transform="translate(4 351)"><path fill="none" stroke="#000" d="M1013.635-92H702c-173.105 0-216.953-7.385-388-34-33.081-5.147-70.65-14.117-94.804-20.296"/><path stroke="#000" d="M212.151-148.117l5.99 4.802-2.6-3.926 3.388.876h0l-3.389-.876 4.177-2.174-7.566 1.298h0z"/><text x="602" y="-96.4" font-family="Lato" font-size="12">!p0 &amp; !p1</text></g><g class="edge" transform="translate(4 351)"><path fill="none" stroke="#000" d="M1050.23-100.832c5.666-2.684 11.952-5.602 17.77-8.168 24.618-10.86 32.605-9.71 56-23 4.108-2.333 8.283-5.07 12.266-7.891"/><path stroke="#000" d="M1141.932-144.046l-7.508 1.6 4.685.47-2.822 2.07h0l2.822-2.07-.96 4.61 3.783-6.68h0z"/><text x="1068" y="-135.4" font-family="Lato" font-size="12">!p0 &amp; !p1</text></g><g class="node" transform="translate(4 351)"><path fill="#ffffa0" stroke="#000" d="M770-177h-12c-6 0-12 6-12 12v12c0 6 6 12 12 12h12c6 0 12-6 12-12v-12c0-6-6-12-12-12"/><text x="760" y="-162.4" font-family="Lato" font-size="12">1</text><text x="758.5" y="-149.4" font-family="Lato" font-size="12" fill="#6a3d9a">❸</text></g><g class="edge" transform="translate(4 351)"><path fill="none" stroke="#000" d="M745.785-154.754c-5.665 1.13-11.954 2.192-17.785 2.754-136.273 13.126-300.72 4.78-362.716.783"/><path stroke="#000" d="M358.24-151.682l6.778 3.604-3.285-3.373 3.493.23h0l-3.493-.23 3.7-2.913-7.192 2.682h0z"/><text x="528" y="-148.4" font-family="Lato" font-size="12">!p0 &amp; !p1</text></g><g class="node" transform="translate(4 351)"><path fill="#ffffa0" stroke="#000" d="M906-64h-12c-6 0-12 6-12 12v12c0 6 6 12 12 12h12c6 0 12-6 12-12v-12c0-6-6-12-12-12"/><text x="896" y="-49.4" font-family="Lato" font-size="12">9</text><text x="894.5" y="-36.4" font-family="Lato" font-size="12" fill="#ff4da0">❶</text></g><g class="edge" transform="translate(4 351)"><path fill="none" stroke="#000" d="M782.06-143.994L876.4-65.608"/><path stroke="#000" d="M881.866-61.068l-3.371-6.896.678 4.66-2.692-2.237h0l2.692 2.237-4.705.186 7.398 2.05h0z"/><text x="802" y="-131.4" font-family="Lato" font-size="12">!p0 &amp; p1</text></g><g class="edge" transform="translate(4 351)"><path fill="none" stroke="#000" d="M321.683-144.69C298.885-134.842 258.497-119.017 222-113c-49.493 8.16-108.32 1.548-140.98-3.536"/><path stroke="#000" d="M74.075-117.657l6.41 4.225-2.954-3.667 3.455.557h0l-3.456-.557 3.957-2.553-7.412 1.995h0z"/><text x="166" y="-116.4" font-family="Lato" font-size="12">!p0 &amp; !p1</text></g><g class="edge" transform="translate(4 351)"><path fill="none" stroke="#000" d="M358.34-159.476c26.138-9.348 71.632-26.097 77.66-31.524 18.827-16.951 31.197-43.439 38.32-62.928"/><path stroke="#000" d="M476.708-260.762l-5.284 5.569 4.129-2.265-1.155 3.304h0l1.155-3.304 1.819 4.344-.664-7.648h0z"/><text x="384" y="-194.4" font-family="Lato" font-size="12">p0 &amp; !p1</text></g><g class="node" transform="translate(4 351)"><path fill="#ffffa0" stroke="#000" d="M636-197h-12c-6 0-12 6-12 12v12c0 6 6 12 12 12h12c6 0 12-6 12-12v-12c0-6-6-12-12-12"/><text x="626" y="-182.4" font-family="Lato" font-size="12">7</text><text x="624.5" y="-169.4" font-family="Lato" font-size="12" fill="#ff7f00">❷</text></g><g class="edge" transform="translate(4 351)"><path fill="none" stroke="#000" d="M358.14-154.626l246.49-22.1"/><path stroke="#000" d="M611.866-177.374l-7.253-2.512 3.767 2.824-3.486.313h0l3.486-.313-3.205 3.45 6.691-3.762h0z"/><text x="454" y="-171.4" font-family="Lato" font-size="12">!p0 &amp; !p1</text></g><g class="edge" transform="translate(4 351)"><path fill="none" stroke="#000" d="M881.96-46H194c-44.364 0-88.076-30.292-114.047-52.374"/><path stroke="#000" d="M74.372-103.226l3.216 6.97-.575-4.674 2.642 2.297h0l-2.642-2.297 4.709-.08-7.35-2.216h0z"/><text x="458.5" y="-49.4" font-family="Lato" font-size="12">p0 &amp; p1</text></g><g class="edge" transform="translate(4 351)"><path fill="none" stroke="#000" d="M918.062-47.168C937.917-48.99 970.397-53.583 996-65c4.12-1.837 8.214-4.22 12.083-6.808"/><path stroke="#000" d="M1013.95-75.995l-7.528 1.503 4.679.53-2.849 2.034h0l2.849-2.034-1.019 4.597 3.868-6.63h0z"/><text x="944" y="-68.4" font-family="Lato" font-size="12">p0 &amp; !p1</text></g><g class="edge" transform="translate(4 351)"><path fill="none" stroke="#000" d="M648.34-239.788c47.482-6.48 177.692-19.52 277.66 14.788 35.92 12.327 46.048 19.53 70 49 14.135 17.391 23.632 41.164 29.305 58.98"/><path stroke="#000" d="M1027.364-110.267l.971-7.615-1.992 4.267-1.02-3.348h0l1.02 3.348-4.034-2.429 5.055 5.777h0z"/><text x="800" y="-249.4" font-family="Lato" font-size="12">!p0 &amp; !p1</text></g><g class="edge" transform="translate(4 351)"><path fill="none" stroke="#000" d="M648.072-226.48l91.34 53.168"/><path stroke="#000" d="M745.787-169.602l-4.466-6.244 1.44 4.483-3.024-1.76h0l3.025 1.76-4.61.962 7.635.8h0z"/><text x="678.5" y="-212.4" font-family="Lato" font-size="12">p0 &amp; p1</text></g><g class="edge" transform="translate(4 351)"><path fill="none" stroke="#000" d="M1154.996-140.897C1149.848-126.042 1140.24-105.903 1124-96c-19.971 12.177-47.165 11.742-66.802 9.133"/><path stroke="#000" d="M1050.072-87.951l6.447 4.167-2.986-3.64 3.46.526h0l-3.46-.526 3.934-2.588-7.395 2.06h0z"/><text x="1070" y="-99.4" font-family="Lato" font-size="12">p0 &amp; !p1</text></g><g class="edge" transform="translate(4 351)"><path fill="none" stroke="#000" d="M1141.85-159H789.139"/><path stroke="#000" d="M782.044-159l7 3.15-3.5-3.15h3.5-3.5l3.5-3.15-7 3.15h0z"/><text x="944" y="-162.4" font-family="Lato" font-size="12">!p0 &amp; p1</text></g><g class="edge" transform="translate(4 351)"><path fill="none" stroke="#000" d="M648.35-170.113c8.25 3.544 18.232 7.225 27.65 9.113 20.846 4.18 45.024 4.407 62.757 3.743"/><path stroke="#000" d="M745.933-157.587l-7.137-2.825 3.64 2.986-3.496.16h0l3.497-.16-3.352 3.308 6.848-3.469h0z"/><text x="676" y="-164.4" font-family="Lato" font-size="12">!p0 &amp; p1</text></g><g class="edge" transform="translate(4 351)"><path fill="none" stroke="#000" d="M648.373-195.056c7.939-5.913 17.68-11.905 27.627-14.944 22.103-6.752 28.914-1.076 52 0 176.575 8.231 223.97-3.648 396 37 3.753.887 7.636 2.081 11.401 3.4"/><path stroke="#000" d="M1141.999-167.129l-5.451-5.404 2.173 4.177-3.278-1.227h0l3.278 1.227-4.382 1.723 7.66-.496h0z"/><text x="874" y="-208.4" font-family="Lato" font-size="12">!p0 &amp; p1</text></g></g></svg>