<?xml-stylesheet href="spot.css" type="text/css"?><svg width="302pt" height="244pt" viewBox="0 0 302 244.4" xmlns="http://www.w3.org/2000/svg"><g class="graph"><path fill="#fff" stroke="transparent" d="M0 244.4V0h302v244.4H0z"/><text x="125.5" y="-209.8" font-family="Lato" font-size="12" transform="translate(4 240.4)">[Büchi]</text><g class="node" transform="translate(4 240.4)"><circle fill="#ffffa0" stroke="#000" cx="56" cy="-103" r="18"/><text text-anchor="middle" x="56" y="-99.9" font-family="Lato" font-size="12">1</text></g><g class="edge" transform="translate(4 240.4)"><path fill="none" stroke="#000" d="M1.123-103h29.801"/><path stroke="#000" d="M37.98-103l-7-3.15 3.5 3.15h-3.5 3.5l-3.5 3.15 7-3.15h0z"/></g><g class="edge" transform="translate(4 240.4)"><path fill="none" stroke="#000" d="M49.62-120.037C48.32-129.857 50.446-139 56-139c4.166 0 6.404 5.142 6.713 11.857"/><path stroke="#000" d="M62.38-120.037l3.474-6.845-3.31 3.349.164-3.497h0l-.165 3.496-2.982-3.643 2.818 7.14h0z"/><text x="24" y="-142.4" font-family="Lato" font-size="12">a &amp; !b &amp; !c</text></g><g class="node" transform="translate(4 240.4)"><circle fill="#ffffa0" stroke="#000" cx="188" cy="-152" r="18"/><text text-anchor="middle" x="188" y="-148.9" font-family="Lato" font-size="12">0</text></g><g class="edge" transform="translate(4 240.4)"><path fill="none" stroke="#000" d="M72.821-109.627c6.038-2.356 12.904-5.01 19.179-7.373 24.544-9.245 52.757-19.485 72.215-26.488"/><path stroke="#000" d="M170.965-145.913l-7.653-.597 4.36 1.78-3.294 1.184h0l3.293-1.183-2.228 4.148 5.522-5.332h0z"/><text x="104" y="-141.4" font-family="Lato" font-size="12">b &amp; !c</text></g><g class="node" transform="translate(4 240.4)"><circle fill="#ffffa0" stroke="#000" cx="272" cy="-103" r="18"/><circle fill="none" stroke="#000" cx="272" cy="-103" r="22"/><text text-anchor="middle" x="272" y="-99.9" font-family="Lato" font-size="12">3</text></g><g class="edge" transform="translate(4 240.4)"><path fill="none" stroke="#000" d="M74.044-103h168.472"/><path stroke="#000" d="M249.714-103l-7-3.15 3.5 3.15h-3.5 3.5l-3.5 3.15 7-3.15h0z"/><text x="172.5" y="-106.4" font-family="Lato" font-size="12">b &amp; c</text></g><g class="node" transform="translate(4 240.4)"><circle fill="#ffffa0" stroke="#000" cx="188" cy="-18" r="18"/><text text-anchor="middle" x="188" y="-14.9" font-family="Lato" font-size="12">2</text></g><g class="edge" transform="translate(4 240.4)"><path fill="none" stroke="#000" d="M70.472-91.627C76.95-86.673 84.746-80.894 92-76c24.655 16.633 54.062 34.064 73.775 45.42"/><path stroke="#000" d="M172.068-26.971l-4.505-6.215 1.469 4.474-3.036-1.741h0l3.036 1.74-4.603.992 7.639.75h0z"/><text x="92" y="-79.4" font-family="Lato" font-size="12">a &amp; !b &amp; c</text></g><g class="edge" transform="translate(4 240.4)"><path fill="none" stroke="#000" d="M180.969-168.664C179.406-178.625 181.75-188 188-188c4.688 0 7.178 5.273 7.47 12.112"/><path stroke="#000" d="M195.031-168.664l3.57-6.796-3.357 3.302.212-3.493h0l-.212 3.493-2.932-3.685 2.72 7.179h0z"/><text x="182" y="-191.4" font-family="Lato" font-size="12">!c</text></g><g class="edge" transform="translate(4 240.4)"><path fill="none" stroke="#000" d="M203.8-142.784l42.767 24.948"/><path stroke="#000" d="M252.732-114.24l-4.46-6.248 1.437 4.485-3.024-1.764h0l3.024 1.764-4.61.957 7.633.806h0z"/><text x="224.5" y="-133.4" font-family="Lato" font-size="12">c</text></g><g class="edge" transform="translate(4 240.4)"><path fill="none" stroke="#000" d="M263.994-123.58C262.886-133.846 265.554-143 272-143c4.834 0 7.544 5.15 8.129 12.055"/><path stroke="#000" d="M280.006-123.58l3.267-6.947-3.208 3.447.058-3.5h0l-.058 3.5-3.091-3.552 3.032 7.051h0z"/><text text-anchor="middle" x="272" y="-146.4" font-family="Lato" font-size="12">1</text></g><g class="edge" transform="translate(4 240.4)"><path fill="none" stroke="#000" d="M200.758-30.91l50.36-50.96"/><path stroke="#000" d="M256.253-87.065l-7.161 2.765 4.7-.276-2.46 2.49h0l2.46-2.49-.22 4.704 2.68-7.193h0z"/><text x="224" y="-63.4" font-family="Lato" font-size="12">b</text></g><g class="edge" transform="translate(4 240.4)"><path fill="none" stroke="#000" d="M180.969-34.664C179.406-44.625 181.75-54 188-54c4.688 0 7.178 5.273 7.47 12.112"/><path stroke="#000" d="M195.031-34.664l3.57-6.796-3.357 3.302.212-3.493h0l-.212 3.493-2.932-3.684 2.72 7.178h0z"/><text x="169.5" y="-57.4" font-family="Lato" font-size="12">a &amp; !b</text></g></g></svg>