<?xml-stylesheet href="spot.css" type="text/css"?><svg width="301pt" height="156" viewBox="0 0 300.5 117.19" xmlns="http://www.w3.org/2000/svg"><g class="graph" transform="translate(4 113.19)"><path fill="#fff" stroke="transparent" d="M-4 4v-117.19h300.5V4H-4z"/><text x="143.75" y="-95.59" font-family="Lato" font-size="12">t</text><text x="134.75" y="-82.59" font-family="Lato" font-size="12">[all]</text><g class="node"><circle fill="#ffffa0" stroke="#000" cx="56" cy="-26.19" r="18"/><text text-anchor="middle" x="56" y="-23.09" font-family="Lato" font-size="12">1</text></g><g class="edge"><path fill="none" stroke="#000" d="M1.123-26.19h29.801"/><path stroke="#000" d="M37.98-26.19l-7-3.15 3.5 3.15h-3.5 3.5l-3.5 3.15 7-3.15h0z"/></g><g class="edge"><path fill="none" stroke="#000" d="M49.62-43.227c-1.301-9.82.825-18.963 6.38-18.963 4.166 0 6.404 5.143 6.713 11.857"/><path stroke="#000" d="M62.38-43.227l3.474-6.845-3.31 3.349.164-3.496h0l-.165 3.496-2.982-3.644 2.818 7.14h0z"/><text x="14" y="-65.59" font-family="Lato" font-size="12">green | !press</text></g><g class="node"><circle fill="#ffffa0" stroke="#000" cx="254" cy="-26.19" r="18"/><text text-anchor="middle" x="254" y="-23.09" font-family="Lato" font-size="12">0</text></g><g class="edge"><path fill="none" stroke="#000" d="M74.272-26.19H228.67"/><path stroke="#000" d="M235.772-26.19l-7-3.15 3.5 3.15h-3.5 3.5l-3.5 3.15 7-3.15h0z"/><text x="92" y="-29.59" font-family="Lato" font-size="12">!green &amp; press &amp; red</text></g><g class="edge"><path fill="none" stroke="#000" d="M238.415-16.99c-6.144 3.127-13.4 6.227-20.415 7.8-54.643 12.253-71.357 12.253-126 0-4.713-1.057-9.535-2.803-14.055-4.784"/><path stroke="#000" d="M71.585-16.99l4.974 5.846-1.812-4.347 3.162 1.5h0l-3.162-1.5 4.513-1.346-7.675-.154h0z"/><text x="137" y="-12.59" font-family="Lato" font-size="12">green</text></g><g class="edge"><path fill="none" stroke="#000" d="M239.662-37.618C231.23-49.246 236.008-62.19 254-62.19c14.76 0 20.627 8.71 17.604 18.26"/><path stroke="#000" d="M268.337-37.618l6.015-4.77-4.406 1.662 1.608-3.109h0l-1.608 3.109-1.19-4.556-.418 7.664h0z"/><text x="215.5" y="-65.59" font-family="Lato" font-size="12">!green &amp; red</text></g></g></svg>