<?xml-stylesheet href="spot.css" type="text/css"?><svg width="535pt" height="244pt" viewBox="0 0 535 244.4" xmlns="http://www.w3.org/2000/svg"><g class="graph" transform="translate(4 240.4)"><path fill="#fff" stroke="transparent" d="M-4 4v-244.4h535V4H-4z"/><text x="242" y="-209.8" font-family="Lato" font-size="12">[Büchi]</text><g class="node"><circle fill="#ffffa0" stroke="#000" cx="56" cy="-103" r="18"/><text text-anchor="middle" x="56" y="-99.9" font-family="Lato" font-size="12">3</text></g><g class="edge"><path fill="none" stroke="#000" d="M1.123-103h29.801"/><path stroke="#000" d="M37.98-103l-7-3.15 3.5 3.15h-3.5 3.5l-3.5 3.15 7-3.15h0z"/></g><g class="edge"><path fill="none" stroke="#000" d="M49.62-120.037C48.32-129.857 50.446-139 56-139c4.166 0 6.404 5.142 6.713 11.857"/><path stroke="#000" d="M62.38-120.037l3.474-6.845-3.31 3.349.164-3.497h0l-.165 3.496-2.982-3.643 2.818 7.14h0z"/><text x="1.5" y="-142.4" font-family="Lato" font-size="12">a &amp; alive &amp; !b &amp; !c</text></g><g class="node"><circle fill="#ffffa0" stroke="#000" cx="252" cy="-152" r="18"/><text text-anchor="middle" x="252" y="-148.9" font-family="Lato" font-size="12">1</text></g><g class="edge"><path fill="none" stroke="#000" d="M72.66-110.102c6.023-2.4 12.92-4.96 19.34-6.898 46.875-14.148 103.08-25.098 134.857-30.752"/><path stroke="#000" d="M234.01-149.008l-7.439-1.892 3.992 2.497-3.447.606h0l3.447-.606-2.902 3.708 6.35-4.313h0z"/><text x="104" y="-144.4" font-family="Lato" font-size="12">alive &amp; b &amp; !c</text></g><g class="node"><circle fill="#ffffa0" stroke="#000" cx="396" cy="-103" r="18"/><text text-anchor="middle" x="396" y="-99.9" font-family="Lato" font-size="12">2</text></g><g class="edge"><path fill="none" stroke="#000" d="M74.28-103h296.256"/><path stroke="#000" d="M377.63-103l-7-3.15 3.5 3.15h-3.5 3.5l-3.5 3.15 7-3.15h0z"/><text x="214" y="-106.4" font-family="Lato" font-size="12">alive &amp; b &amp; c</text></g><g class="node"><circle fill="#ffffa0" stroke="#000" cx="252" cy="-18" r="18"/><text text-anchor="middle" x="252" y="-14.9" font-family="Lato" font-size="12">4</text></g><g class="edge"><path fill="none" stroke="#000" d="M69.71-91.204C76.17-86.054 84.166-80.236 92-76c45.428 24.56 103.406 42.62 135.622 51.607"/><path stroke="#000" d="M234.473-22.511l-5.915-4.892 2.54 3.965-3.375-.928h0l3.375.928-4.21 2.11 7.585-1.183h0z"/><text x="92" y="-79.4" font-family="Lato" font-size="12">a &amp; alive &amp; !b &amp; c</text></g><g class="node"><circle fill="#ffffa0" stroke="#000" cx="505" cy="-103" r="18"/><circle fill="none" stroke="#000" cx="505" cy="-103" r="22"/><text text-anchor="middle" x="505" y="-99.9" font-family="Lato" font-size="12">0</text></g><g class="edge"><path fill="none" stroke="#000" d="M494.933-122.757C493.223-133.35 496.578-143 505-143c6.448 0 9.926 5.657 10.435 13.062"/><path stroke="#000" d="M515.067-122.757l3.504-6.83-3.325 3.334.18-3.495h0l-.18 3.495-2.967-3.657 2.788 7.153h0z"/><text x="488.5" y="-146.4" font-family="Lato" font-size="12">!alive</text></g><g class="edge"><path fill="none" stroke="#000" d="M239.162-164.918C233.308-176.135 237.587-188 252-188c11.486 0 16.537 7.535 15.151 16.271"/><path stroke="#000" d="M264.837-164.918l5.235-5.615-4.108 2.3 1.125-3.313h0l-1.125 3.314-1.857-4.328.73 7.642h0z"/><text x="224" y="-191.4" font-family="Lato" font-size="12">alive &amp; !c</text></g><g class="edge"><path fill="none" stroke="#000" d="M269.312-146.727C290.728-140.126 328.249-128.308 360-117a574.188 574.188 0 0112.46 4.622"/><path stroke="#000" d="M379.226-109.754l-5.388-5.468 2.124 4.203-3.263-1.266h0l3.263 1.266-4.402 1.67 7.666-.405h0z"/><text x="308" y="-136.4" font-family="Lato" font-size="12">alive &amp; c</text></g><g class="edge"><path fill="none" stroke="#000" d="M414.49-103h60.996"/><path stroke="#000" d="M482.644-103l-7-3.15 3.5 3.15h-3.5 3.5l-3.5 3.15 7-3.15h0z"/><text x="432" y="-106.4" font-family="Lato" font-size="12">!alive</text></g><g class="edge"><path fill="none" stroke="#000" d="M387.021-118.916C384.68-129.15 387.671-139 396-139c6.376 0 9.625 5.774 9.747 13.073"/><path stroke="#000" d="M404.979-118.916l3.893-6.615-3.512 3.136.38-3.48h0l-.38 3.48-2.75-3.822 2.369 7.301h0z"/><text x="382" y="-142.4" font-family="Lato" font-size="12">alive</text></g><g class="edge"><path fill="none" stroke="#000" d="M268.536-25.907C290.11-36.44 328.786-56.074 360-76c5.301-3.384 10.828-7.31 15.914-11.102"/><path stroke="#000" d="M381.643-91.451l-7.48 1.724 4.693.392-2.788 2.117h0l2.788-2.117-.883 4.626 3.67-6.742h0z"/><text x="308" y="-79.4" font-family="Lato" font-size="12">alive &amp; b</text></g><g class="edge"><path fill="none" stroke="#000" d="M239.162-30.918C233.308-42.135 237.587-54 252-54c11.486 0 16.537 7.535 15.151 16.271"/><path stroke="#000" d="M264.837-30.918l5.235-5.615-4.108 2.3 1.125-3.313h0l-1.125 3.314-1.857-4.328.73 7.642h0z"/><text x="211.5" y="-57.4" font-family="Lato" font-size="12">a &amp; alive &amp; !b</text></g></g></svg>