<?xml-stylesheet href="spot.css" type="text/css"?><svg width="260pt" height="152" viewBox="0 0 259.5 114.13" xmlns="http://www.w3.org/2000/svg"><g class="graph" transform="translate(4 110.126)"><path fill="#fff" stroke="transparent" d="M-4 4v-114.126h259.5V4H-4z"/><text x="123.25" y="-92.526" font-family="Lato" font-size="12">t</text><text x="114.25" y="-79.526" font-family="Lato" font-size="12">[all]</text><g class="node"><circle fill="#ffffa0" stroke="#000" cx="56" cy="-23.127" r="18"/><text text-anchor="middle" x="56" y="-20.026" font-family="Lato" font-size="12">0</text></g><g class="edge"><path fill="none" stroke="#000" d="M1.123-23.127h29.801"/><path stroke="#000" d="M37.98-23.127l-7-3.15 3.5 3.15h-3.5 3.5l-3.5 3.15 7-3.15h0z"/></g><g class="edge"><path fill="none" stroke="#000" d="M49.62-40.164c-1.301-9.82.825-18.962 6.38-18.962 4.166 0 6.404 5.142 6.713 11.856"/><path stroke="#000" d="M62.38-40.164l3.474-6.844-3.31 3.348.164-3.496h0l-.165 3.496-2.982-3.644 2.818 7.14h0z"/><text x="43.5" y="-62.526" font-family="Lato" font-size="12">!red</text></g><g class="node"><circle fill="#ffffa0" stroke="#000" cx="212" cy="-23.127" r="18"/><text text-anchor="middle" x="212" y="-20.026" font-family="Lato" font-size="12">1</text></g><g class="edge"><path fill="none" stroke="#000" d="M74.2-23.127h112.573"/><path stroke="#000" d="M193.915-23.127l-7-3.15 3.5 3.15h-3.5 3.5l-3.5 3.15 7-3.15h0z"/><text x="123.5" y="-26.526" font-family="Lato" font-size="12">red</text></g><g class="edge"><path fill="none" stroke="#000" d="M196.415-13.927c-6.144 3.127-13.4 6.228-20.415 7.8-36.429 8.17-47.571 8.17-84 0-4.713-1.056-9.535-2.803-14.055-4.784"/><path stroke="#000" d="M71.585-13.927l4.974 5.846-1.812-4.346 3.162 1.5h0l-3.162-1.5 4.513-1.346-7.675-.154h0z"/><text x="92" y="-9.527" font-family="Lato" font-size="12">!red &amp; !yellow</text></g><g class="edge"><path fill="none" stroke="#000" d="M199.607-36.42C194.31-47.522 198.44-59.125 212-59.125c10.804 0 15.623 7.367 14.454 15.98"/><path stroke="#000" d="M224.393-36.42l5.063-5.77-4.037 2.424 1.025-3.346h0l-1.025 3.346-1.987-4.269.961 7.616h0z"/><text x="172.5" y="-62.526" font-family="Lato" font-size="12">red &amp; !yellow</text></g></g></svg>