<?xml-stylesheet href="spot.css" type="text/css"?><svg width="384" height="160" viewBox="0 0 287.6 120" xmlns="http://www.w3.org/2000/svg"><g class="graph"><path fill="#fff" stroke="transparent" d="M0 120V0h287.6v120H0z"/><text x="119.8" y="-99.4" font-family="Lato" font-size="12" transform="translate(4 116)">Fin(</text><text x="141.8" y="-99.4" font-family="Lato" font-size="12" fill="#1f78b4" transform="translate(4 116)">⓿</text><text x="154.8" y="-99.4" font-family="Lato" font-size="12" transform="translate(4 116)">)</text><text x="109.3" y="-87.4" font-family="Lato" font-size="12" transform="translate(4 116)">[co-Büchi]</text><g class="node" transform="translate(4 116)"><circle fill="#ffffa0" stroke="#000" cx="56" cy="-18" r="18"/><text text-anchor="middle" x="56" y="-14.9" font-family="Lato" font-size="12">0</text></g><g class="edge" transform="translate(4 116)"><path fill="none" stroke="#000" d="M1.123-18h29.801"/><path stroke="#000" d="M37.98-18l-7-3.15 3.5 3.15h-3.5 3.5l-3.5 3.15 7-3.15h0z"/></g><g class="edge" transform="translate(4 116)"><path fill="none" stroke="#000" d="M49.62-35.037C48.32-44.857 50.446-54 56-54c4.166 0 6.404 5.142 6.713 11.857"/><path stroke="#000" d="M62.38-35.037l3.474-6.845-3.31 3.349.164-3.497h0l-.165 3.497-2.982-3.644 2.818 7.14h0z"/><text x="52" y="-57.4" font-family="Lato" font-size="12">a</text></g><g class="node" transform="translate(4 116)"><circle fill="#ffffa0" stroke="#000" cx="124.8" cy="-18" r="1.8"/></g><g class="edge" transform="translate(4 116)"><path fill="none" stroke="#000" d="M74.076-18h41.428M115.732-20.45l7 2.45-7 2.45v-4.9z"/><text x="92" y="-21.4" font-family="Lato" font-size="12">!a</text></g><g class="edge" transform="translate(4 116)"><path fill="none" stroke="#000" d="M122.948-17.75c-3.498.458-11.323 1.416-17.948 1.75-7.653.386-15.981.253-23.564-.081"/><path stroke="#000" d="M74.154-16.471l6.822 3.52-3.326-3.333 3.494.187h0l-3.495-.187 3.664-2.959-7.159 2.772h0z"/></g><g class="node" transform="translate(4 116)"><circle fill="#ffffa0" stroke="#000" cx="181.6" cy="-18" r="18"/><text text-anchor="middle" x="181.6" y="-14.9" font-family="Lato" font-size="12">1</text></g><g class="edge" transform="translate(4 116)"><path fill="none" stroke="#000" d="M126.69-18h29.552"/><path stroke="#000" d="M163.57-18l-7-3.15 3.5 3.15h-3.5 3.5l-3.5 3.15 7-3.15h0z"/></g><g class="edge" transform="translate(4 116)"><path fill="none" stroke="#000" d="M175.22-35.037C173.92-44.857 176.046-54 181.6-54c4.166 0 6.404 5.142 6.713 11.857"/><path stroke="#000" d="M187.98-35.037l3.474-6.845-3.31 3.349.164-3.497h0l-.165 3.497-2.982-3.644 2.818 7.14h0z"/><text x="175.1" y="-70.4" font-family="Lato" font-size="12">!a</text><text x="175.1" y="-57.4" font-family="Lato" font-size="12" fill="#1f78b4">⓿</text></g><g class="node" transform="translate(4 116)"><circle fill="#ffffa0" stroke="#000" cx="261.6" cy="-18" r="18"/><text text-anchor="middle" x="261.6" y="-14.9" font-family="Lato" font-size="12">2</text></g><g class="edge" transform="translate(4 116)"><path fill="none" stroke="#000" d="M199.753-18h36.669"/><path stroke="#000" d="M243.519-18l-7-3.15 3.5 3.15h-3.5 3.5l-3.5 3.15 7-3.15h0z"/><text x="217.6" y="-21.4" font-family="Lato" font-size="12">a</text></g><g class="edge" transform="translate(4 116)"><path fill="none" stroke="#000" d="M254.569-34.664C253.006-44.625 255.35-54 261.6-54c4.688 0 7.178 5.273 7.47 12.112"/><path stroke="#000" d="M268.631-34.664l3.57-6.796-3.357 3.302.212-3.493h0l-.212 3.493-2.932-3.684 2.72 7.178h0z"/><text text-anchor="middle" x="261.6" y="-57.4" font-family="Lato" font-size="12">1</text></g></g></svg>