<?xml-stylesheet href="spot.css" type="text/css"?><svg width="472" height="260" viewBox="0 0 354 195.4" xmlns="http://www.w3.org/2000/svg"><g class="graph"><path fill="#fff" stroke="transparent" d="M0 195.4V0h354v195.4H0z"/><text x="151.5" y="-160.8" font-family="Lato" font-size="12" transform="translate(4 191.4)">[Büchi]</text><g class="node" transform="translate(4 191.4)"><circle fill="#ffffa0" stroke="#000" cx="56" cy="-60" r="18"/><text text-anchor="middle" x="56" y="-56.9" font-family="Lato" font-size="12">1</text></g><g class="edge" transform="translate(4 191.4)"><path fill="none" stroke="#000" d="M1.123-60h29.801"/><path stroke="#000" d="M37.98-60l-7-3.15 3.5 3.15h-3.5 3.5l-3.5 3.15 7-3.15h0z"/></g><g class="node" transform="translate(4 191.4)"><circle fill="#ffffa0" stroke="#000" cx="136" cy="-60" r="18"/><text text-anchor="middle" x="136" y="-56.9" font-family="Lato" font-size="12">2</text></g><g class="edge" transform="translate(4 191.4)"><path fill="none" stroke="#000" d="M74.153-60h36.668"/><path stroke="#000" d="M117.919-60l-7-3.15 3.5 3.15h-3.5 3.5l-3.5 3.15 7-3.15h0z"/><text text-anchor="middle" x="96" y="-63.4" font-family="Lato" font-size="12">1</text></g><g class="node" transform="translate(4 191.4)"><circle fill="#ffffa0" stroke="#000" cx="324" cy="-60" r="18"/><circle fill="none" stroke="#000" cx="324" cy="-60" r="22"/><text text-anchor="middle" x="324" y="-56.9" font-family="Lato" font-size="12">0</text></g><g class="edge" transform="translate(4 191.4)"><path fill="none" stroke="#000" d="M314.955-80.17C313.563-90.599 316.578-100 324-100c5.682 0 8.782 5.51 9.298 12.775"/><path stroke="#000" d="M333.045-80.17l3.399-6.883-3.274 3.386.126-3.498h0l-.125 3.498-3.023-3.61 2.897 7.107h0z"/><text text-anchor="middle" x="324" y="-103.4" font-family="Lato" font-size="12">1</text></g><g class="node" transform="translate(4 191.4)"><circle fill="#ffffa0" stroke="#000" cx="228" cy="-103" r="18"/><text text-anchor="middle" x="228" y="-99.9" font-family="Lato" font-size="12">3</text></g><g class="edge" transform="translate(4 191.4)"><path fill="none" stroke="#000" d="M152.448-67.688l52.291-24.44"/><path stroke="#000" d="M211.385-95.234l-7.676.11 4.505 1.372-3.171 1.482h0l3.17-1.482-1.836 4.336 5.007-5.818h0z"/><text x="172" y="-88.4" font-family="Lato" font-size="12">!p1</text></g><g class="node" transform="translate(4 191.4)"><circle fill="#ffffa0" stroke="#000" cx="228" cy="-18" r="18"/><text text-anchor="middle" x="228" y="-14.9" font-family="Lato" font-size="12">4</text></g><g class="edge" transform="translate(4 191.4)"><path fill="none" stroke="#000" d="M152.448-52.491l52.291 23.872"/><path stroke="#000" d="M211.385-25.585l-5.06-5.773 1.876 4.32-3.184-1.454h0l3.184 1.453-4.493 1.412 7.677.042h0z"/><text x="174" y="-45.4" font-family="Lato" font-size="12">p1</text></g><g class="edge" transform="translate(4 191.4)"><path fill="none" stroke="#000" d="M244.722-95.51l52.635 23.576"/><path stroke="#000" d="M303.81-69.044l-5.101-5.736 1.906 4.305-3.194-1.43h0l3.194 1.43-4.482 1.445 7.676-.014h0z"/><text x="266" y="-89.4" font-family="Lato" font-size="12">p1</text></g><g class="edge" transform="translate(4 191.4)"><path fill="none" stroke="#000" d="M219.984-119.29c-1.934-10.1.739-19.71 8.016-19.71 5.458 0 8.326 5.406 8.603 12.37"/><path stroke="#000" d="M236.016-119.29l3.698-6.727-3.419 3.238.279-3.489h0l-.279 3.489-2.861-3.74 2.582 7.229h0z"/><text x="218" y="-142.4" font-family="Lato" font-size="12">!p1</text></g><g class="edge" transform="translate(4 191.4)"><path fill="none" stroke="#000" d="M244.722-25.316l52.635-23.028"/><path stroke="#000" d="M303.81-51.167l-7.676-.08 4.469 1.483-3.207 1.403h0l3.207-1.403-1.944 4.29 5.15-5.693h0z"/><text x="264" y="-44.4" font-family="Lato" font-size="12">!p1</text></g><g class="edge" transform="translate(4 191.4)"><path fill="none" stroke="#000" d="M219.984-34.29C218.05-44.39 220.723-54 228-54c5.458 0 8.326 5.406 8.603 12.37"/><path stroke="#000" d="M236.016-34.29l3.698-6.727-3.419 3.238.279-3.489h0l-.279 3.489-2.861-3.74 2.582 7.229h0z"/><text x="220" y="-57.4" font-family="Lato" font-size="12">p1</text></g></g></svg>