<?xml-stylesheet href="spot.css" type="text/css"?><svg width="167pt" height="131pt" viewBox="0 0 167 130.81" xmlns="http://www.w3.org/2000/svg"><g class="graph"><path fill="#fff" stroke="transparent" d="M0 130.814V0h167v130.814H0z"/><text x="60" y="-110.214" font-family="Lato" font-size="12" transform="translate(4 126.814)">Inf(</text><text x="81" y="-110.214" font-family="Lato" font-size="12" fill="#1f78b4" transform="translate(4 126.814)">⓿</text><text x="94" y="-110.214" font-family="Lato" font-size="12" transform="translate(4 126.814)">)</text><text x="58" y="-98.214" font-family="Lato" font-size="12" transform="translate(4 126.814)">[Büchi]</text><g class="node" transform="translate(4 126.814)"><circle fill="#ffffa0" stroke="#000" cx="56" cy="-28.814" r="18"/><text text-anchor="middle" x="56" y="-25.714" font-family="Lato" font-size="12">0</text></g><g class="edge" transform="translate(4 126.814)"><path fill="none" stroke="#000" d="M1.123-28.814h29.801"/><path stroke="#000" d="M37.98-28.814l-7-3.15 3.5 3.15h-3.5 3.5l-3.5 3.15 7-3.15h0z"/></g><g class="edge" transform="translate(4 126.814)"><path fill="none" stroke="#000" d="M49.62-45.851c-1.301-9.821.825-18.963 6.38-18.963 4.166 0 6.404 5.142 6.713 11.857"/><path stroke="#000" d="M62.38-45.851l3.474-6.845-3.31 3.348.164-3.496h0l-.165 3.496-2.982-3.644 2.818 7.14h0z"/><text x="52" y="-81.214" font-family="Lato" font-size="12">a</text><text x="49.5" y="-68.214" font-family="Lato" font-size="12" fill="#1f78b4">⓿</text></g><g class="node" transform="translate(4 126.814)"><circle fill="#ffffa0" stroke="#000" cx="141" cy="-28.814" r="18"/><text text-anchor="middle" x="141" y="-25.714" font-family="Lato" font-size="12">1</text></g><g class="edge" transform="translate(4 126.814)"><path fill="none" stroke="#000" d="M74.142-30.814c9.234-.793 20.64-1.425 30.858-1 3.59.15 7.375.382 11.089.653"/><path stroke="#000" d="M123.073-30.603l-6.727-3.697 3.238 3.418-3.489-.278h0l3.49.278-3.74 2.862 7.228-2.583h0z"/><text x="92" y="-35.214" font-family="Lato" font-size="12">!a</text></g><g class="edge" transform="translate(4 126.814)"><path fill="none" stroke="#000" d="M128.19-15.992c-6.395 5.5-14.593 11.312-23.19 14.178-10.885 3.628-22.157-1.84-31.142-8.784"/><path stroke="#000" d="M68.311-15.292l3.308 6.926-.636-4.665 2.671 2.26h0l-2.671-2.26 4.706-.144-7.378-2.117h0z"/><text x="94.5" y="-18.214" font-family="Lato" font-size="12">a</text><text x="92" y="-5.214" font-family="Lato" font-size="12" fill="#1f78b4">⓿</text></g><g class="edge" transform="translate(4 126.814)"><path fill="none" stroke="#000" d="M133.617-45.478c-1.64-9.961.82-19.336 7.383-19.336 4.922 0 7.537 5.273 7.844 12.112"/><path stroke="#000" d="M148.383-45.478l3.59-6.785-3.367 3.292.223-3.493h0l-.223 3.493-2.92-3.694 2.697 7.187h0z"/><text x="134.5" y="-68.214" font-family="Lato" font-size="12">!a</text></g></g></svg>